<svg width="120" height="114" viewBox="0 0 120 114" fill="none" xmlns="http://www.w3.org/2000/svg">
<path d="M110.818 110.96H8.96409C5.50109 110.96 2.64709 108.14 2.64709 104.716C2.64709 101.294 5.50109 98.4736 8.96409 98.4736H15.2781V102.301C15.2781 102.905 15.8901 103.509 16.5001 103.509H30.5571C31.1681 103.509 31.7781 102.905 31.7781 102.301V98.4736H45.8351V102.301C45.8351 102.905 46.4461 103.509 47.0561 103.509H72.5211C73.1311 103.509 73.7421 102.905 73.7421 102.301V98.4736H87.7991V102.301C87.7991 102.905 88.4091 103.509 89.0211 103.509H103.078C103.687 103.509 104.299 102.905 104.299 102.301V98.4736H110.818C114.281 98.4736 117.133 101.294 117.133 104.716C117.133 108.14 114.281 110.96 110.818 110.96ZM17.9251 98.2726H29.3331V100.891H17.9251V98.2726ZM48.4821 98.2726H71.5031V100.891H48.4821V98.2726ZM7.74009 88.0016V71.4886C9.37109 73.9056 11.4081 76.1216 14.0551 77.5296V88.4046C14.0551 89.0086 14.6671 89.6126 15.2781 89.6126H104.503C105.115 89.6126 105.725 89.0086 105.725 88.4046V30.4086C105.725 29.8056 105.115 29.1996 104.503 29.1996H15.2781C14.6671 29.1996 14.0551 29.8056 14.0551 30.4086V47.7266C11.4081 49.1366 9.16609 51.1506 7.74009 53.7676V30.8126C7.74009 26.3816 11.4081 22.9576 15.6851 22.9576H104.096C108.576 22.9576 112.041 26.5816 112.041 30.8126V88.0016C112.041 92.4326 108.373 95.8566 104.096 95.8566H15.6851C11.2041 95.8566 7.74009 92.2316 7.74009 88.0016ZM17.1111 49.1366C21.5931 63.2326 21.3881 62.4266 21.3881 62.6286C21.5931 63.2326 22.4071 63.4336 23.0191 63.2326C23.2231 63.2326 33.4081 59.4056 36.4641 58.3986C36.8711 59.6086 37.0761 61.0186 37.0761 62.4266C37.0761 70.4816 30.5571 76.9266 22.6121 76.9266C14.4621 76.9266 7.94509 70.4816 7.94509 62.4266C7.74009 56.5876 11.4081 51.1506 17.1111 49.1366ZM29.7401 46.3166C33.6121 48.1296 36.6671 51.1506 38.5011 54.9776L24.6491 60.0116L29.7401 46.3166ZM22.6121 58.1986L19.5561 48.3306C21.7981 47.9286 24.0371 47.9286 26.2771 48.5326L22.6121 58.1986ZM16.7041 37.8606H77.8171C78.4291 37.8606 79.0381 37.2546 79.0381 36.6506C79.0381 36.0466 78.4291 35.4436 77.8171 35.4436H16.7041V31.6166H103.28V86.9946H16.7041V78.5366C27.9071 82.5636 39.5201 74.1076 39.5201 62.4266C39.5201 60.6156 39.3161 59.0046 38.9081 57.3926L40.9461 56.5876C41.5581 56.3856 41.9651 55.5806 41.7601 54.9776C39.7231 49.5396 35.4451 45.3096 29.9451 43.2956C29.3331 43.0956 28.5191 43.2956 28.3151 44.1026L27.5011 46.1156C24.0371 45.3096 20.3701 45.3096 16.9061 46.5186V37.8606H16.7041ZM90.4461 98.2726H101.854V100.891H90.4461V98.2726ZM111.023 95.8566C113.263 94.0426 114.688 91.0226 114.688 88.0016V30.8126C114.688 25.1716 110.004 20.3396 104.096 20.3396H15.6851C9.98009 20.3396 5.09209 24.9716 5.09209 30.8126V88.0016C5.09209 91.2246 6.51909 94.0426 8.75909 95.8566C3.87009 95.8566 9.15527e-05 99.8836 9.15527e-05 104.716C9.15527e-05 109.55 4.07309 113.577 8.96409 113.577H110.818C115.707 113.577 119.782 109.55 119.782 104.716C119.782 99.8836 115.911 95.8566 111.023 95.8566Z" fill="black"/>
<path d="M45.8349 83.1699H95.5399C96.1519 83.1699 96.7609 82.5639 96.7609 81.9609C96.7609 81.3569 96.1519 80.7529 95.5399 80.7529H45.8349C45.2229 80.7529 44.6119 81.3569 44.6119 81.9609C44.6119 82.7669 45.2229 83.1699 45.8349 83.1699Z" fill="black"/>
<path d="M45.8349 78.1355H95.5399C96.1519 78.1355 96.7609 77.5295 96.7609 76.9265C96.7609 76.3225 96.1519 75.7185 95.5399 75.7185H45.8349C45.2229 75.7185 44.6119 76.3225 44.6119 76.9265C44.6119 77.7325 45.2229 78.1355 45.8349 78.1355Z" fill="black"/>
<path d="M45.8349 73.1011H58.6689C59.2799 73.1011 59.8899 72.4951 59.8899 71.8921C59.8899 71.2881 59.2799 70.6841 58.6689 70.6841H45.8349C45.2229 70.6841 44.6119 71.2881 44.6119 71.8921C44.6119 72.6981 45.2229 73.1011 45.8349 73.1011Z" fill="black"/>
<path d="M88.6135 38.2613L94.9285 43.6983H82.5015L88.6135 38.2613ZM91.4655 60.0113H85.7625V46.3163H91.4655V60.0113ZM79.0385 46.3163H83.3175V61.2193C83.3175 61.8233 83.9275 62.4263 84.5385 62.4263H92.6885C93.2995 62.4263 93.9095 61.8233 93.9095 61.2193V46.3163H98.1885C98.7985 46.3163 99.4105 45.7123 99.4105 45.1093C99.4105 44.7063 99.2075 44.3023 99.0025 44.1023L89.4275 35.6443C89.0205 35.2403 88.2065 35.2403 87.7995 35.6443L78.2245 44.1023C77.8175 44.5053 77.6125 44.9083 77.8175 45.5123C78.0195 46.1153 78.4285 46.3163 79.0385 46.3163Z" fill="black"/>
<path d="M69.4652 45.7127L75.7802 51.1497H63.3532L69.4652 45.7127ZM72.3162 67.4607H66.6132V53.7677H72.3162V67.4607ZM59.8902 53.7677H64.1692V68.6707C64.1692 69.2737 64.7792 69.8777 65.3902 69.8777H73.5402C74.1492 69.8777 74.7612 69.2737 74.7612 68.6707V53.7677H79.0382C79.6502 53.7677 80.2612 53.1637 80.2612 52.5607C80.2612 52.1567 80.0572 51.7537 79.8542 51.5537L70.2792 43.0957C69.8722 42.6917 69.0582 42.6917 68.6512 43.0957L59.0762 51.5537C58.6682 51.9567 58.4642 52.3577 58.6682 52.9637C58.8712 53.3647 59.2802 53.7677 59.8902 53.7677Z" fill="black"/>
<path d="M45.8349 68.0667H58.6689C59.2799 68.0667 59.8899 67.4607 59.8899 66.8577C59.8899 66.2537 59.2799 65.6497 58.6689 65.6497H45.8349C45.2229 65.6497 44.6119 66.2537 44.6119 66.8577C44.6119 67.6637 45.2229 68.0667 45.8349 68.0667Z" fill="black"/>
<path d="M45.8349 63.0322H58.6689C59.2799 63.0322 59.8899 62.4262 59.8899 61.8232C59.8899 61.2192 59.2799 60.6152 58.6689 60.6152H45.8349C45.2229 60.6152 44.6119 61.2192 44.6119 61.8232C44.6119 62.6292 45.2229 63.0322 45.8349 63.0322Z" fill="black"/>
<path d="M115.3 14.0962C116.313 14.0962 117.133 14.9082 117.133 15.9092C117.133 16.9102 116.313 17.7222 115.3 17.7222C114.287 17.7222 113.467 16.9102 113.467 15.9092C113.467 14.9082 114.287 14.0962 115.3 14.0962Z" fill="black"/>
<path d="M100.633 2.619C103.484 2.619 105.724 4.833 105.724 7.653C105.724 10.472 103.484 12.688 100.633 12.688C97.7792 12.688 95.5402 10.472 95.5402 7.653C95.5402 5.034 97.7792 2.619 100.633 2.619ZM100.633 15.306C104.91 15.306 108.373 11.882 108.373 7.653C108.373 3.423 104.91 0 100.633 0C96.3542 0 92.8912 3.423 92.8912 7.653C92.8912 11.882 96.3542 15.306 100.633 15.306Z" fill="black"/>
<path d="M63.1504 7.85425C64.1634 7.85425 64.9834 8.66625 64.9834 9.66725C64.9834 10.6662 64.1634 11.4782 63.1504 11.4782C62.1374 11.4782 61.3154 10.6662 61.3154 9.66725C61.3154 8.66625 62.1374 7.85425 63.1504 7.85425Z" fill="black"/>
<path d="M31.1683 10.2712C32.1793 10.2712 33.0013 11.0812 33.0013 12.0822C33.0013 13.0832 32.1793 13.8952 31.1683 13.8952C30.1553 13.8952 29.3333 13.0832 29.3333 12.0822C29.3333 11.0812 30.1553 10.2712 31.1683 10.2712Z" fill="black"/>
<path d="M5.70318 12.8887C6.71618 12.8887 7.53618 13.7007 7.53618 14.7017C7.53618 15.7007 6.71618 16.5127 5.70318 16.5127C4.69018 16.5127 3.87018 15.7007 3.87018 14.7017C3.87018 13.7007 4.69018 12.8887 5.70318 12.8887Z" fill="black"/>
<path d="M84.7434 0.202393C85.7564 0.202393 86.5764 1.01239 86.5764 2.01339C86.5764 3.01439 85.7564 3.82639 84.7434 3.82639C83.7304 3.82639 82.9104 3.01439 82.9104 2.01339C82.9104 1.01239 83.7304 0.202393 84.7434 0.202393Z" fill="black"/>
<path d="M15.2782 5.2369C16.7042 5.2369 17.9252 6.4439 17.9252 7.8539C17.9252 9.2639 16.7042 10.4719 15.2782 10.4719C13.8522 10.4719 12.6292 9.2639 12.6292 7.8539C12.8342 6.2439 13.8522 5.2369 15.2782 5.2369ZM15.2782 12.6879C18.1302 12.6879 20.3702 10.4719 20.3702 7.6539C20.3702 4.8339 18.1302 2.6189 15.2782 2.6189C12.4272 2.6189 10.1852 4.8339 10.1852 7.6539C10.1852 10.4719 12.4272 12.6879 15.2782 12.6879Z" fill="black"/>
</svg>
