<svg width="107" height="113" viewBox="0 0 107 113" fill="none" xmlns="http://www.w3.org/2000/svg">
<path d="M5.70388 102.092C4.69188 102.092 3.87088 102.903 3.87088 103.904C3.87088 104.905 4.69188 105.716 5.70388 105.716C6.71688 105.716 7.53788 104.905 7.53788 103.904C7.53788 102.903 6.71688 102.092 5.70388 102.092Z" fill="black"/>
<path d="M5.70388 27.7886C4.69188 27.7886 3.87088 28.5996 3.87088 29.6006C3.87088 30.6016 4.69188 31.4126 5.70388 31.4126C6.71688 31.4126 7.53788 30.6016 7.53788 29.6006C7.53788 28.5996 6.71688 27.7886 5.70388 27.7886Z" fill="black"/>
<path d="M58.2585 30.2047L65.5915 33.4267C66.2025 33.6277 66.6105 34.4337 66.2025 35.0377C65.9995 35.6417 65.1845 36.0437 64.5735 35.6417L57.2395 32.4197C56.6295 32.2187 56.2215 31.4127 56.6295 30.8097C56.8325 30.2047 57.4435 30.0027 58.2585 30.2047Z" fill="black"/>
<path d="M64.1658 39.4672C63.9618 40.0712 63.1468 40.4742 62.5368 40.0712L55.2038 36.8502C54.5918 36.6482 54.1848 35.8432 54.5918 35.2382C54.7958 34.4332 55.6108 34.2312 56.2218 34.4332L63.5548 37.6552C64.1658 38.0572 64.5738 38.8632 64.1658 39.4672Z" fill="black"/>
<path d="M62.333 43.6964C62.129 44.3004 61.314 44.7034 60.703 44.3004L53.37 41.0784C52.759 40.8774 52.351 40.0714 52.759 39.4674C52.963 38.8634 53.777 38.4604 54.389 38.8634L61.721 42.0844C62.333 42.2864 62.537 43.0914 62.333 43.6964Z" fill="black"/>
<path d="M30.5551 71.283L30.7591 44.099L46.8511 45.106L48.2781 45.71L47.2591 47.724C44.0001 47.119 41.3521 50.341 42.5741 53.362C42.9811 54.57 43.7961 55.375 44.8151 55.778L46.6481 56.584L42.9811 64.235C41.7591 67.256 43.7961 70.478 47.0551 70.478C48.6851 70.478 50.3141 69.471 51.1291 67.86L57.0361 54.772L57.6481 54.973C58.2581 55.375 59.0741 54.973 59.2771 54.368L60.7031 51.348L62.1291 51.953C62.7401 52.355 63.5551 51.953 63.7591 51.348L65.1841 48.328C69.0541 50.14 73.7391 48.126 75.5731 44.3C77.4061 40.273 75.5731 35.642 71.7031 33.83L72.9251 31.413C73.3321 30.809 72.9251 30.003 72.3141 29.803L56.8331 22.955L49.9071 15.908C54.1851 14.095 58.6661 13.089 62.9441 13.089H65.5911C83.1101 13.089 97.3691 27.184 97.3691 44.502C97.3691 44.905 97.1651 43.697 102.053 63.028H80.6651C80.0551 63.028 79.4431 63.632 79.4431 64.235C79.4431 64.84 80.0551 65.444 80.6651 65.444H89.2201V85.58H70.4811C69.8691 85.58 69.2581 86.185 69.2581 86.789C69.2581 87.392 69.8691 87.997 70.4811 87.997H73.9441V109.543L40.7401 86.99C39.9251 86.385 38.7031 86.99 38.7031 87.997C38.7031 88.399 38.9071 88.802 39.3151 89.004L71.0911 110.549H30.5551V74.304L62.1291 95.648C62.9441 96.253 64.1661 95.648 64.1661 94.642C64.1661 94.24 63.9621 93.836 63.5551 93.635L30.5551 71.283ZM37.2771 5.034C31.7781 17.116 23.8341 34.434 20.3711 41.884C19.9641 42.891 18.9451 43.293 17.9261 42.891C16.9081 42.488 16.5011 41.481 16.9081 40.475L33.8141 3.625C34.0181 3.02 34.6291 2.618 35.4451 2.618C36.8701 2.618 37.6851 4.027 37.2771 5.034ZM70.8881 36.044C73.5361 37.252 74.7581 40.475 73.5361 43.092C72.3141 45.912 69.2581 47.119 66.4071 45.912L70.8881 36.044ZM48.6851 43.092L56.6291 25.574L70.0731 31.615L62.1291 49.133L48.6851 43.092ZM50.3141 46.515L58.4621 50.14L57.6481 52.153L49.5001 48.529L50.3141 46.515ZM47.8701 54.167L46.0371 53.362C44.6111 52.758 44.6111 50.946 46.0371 50.341C46.4441 50.14 46.8511 50.14 47.2591 50.341H47.4631C47.2591 50.341 49.0921 51.146 49.0921 51.146L47.8701 54.167ZM54.7961 53.563L48.8881 66.652C48.4811 67.659 47.4631 68.062 46.4441 67.659C45.4251 67.256 45.0181 66.249 45.4251 65.242L51.3321 52.153L54.7961 53.563ZM23.6301 41.078L38.9071 8.054L54.5921 24.164L46.2401 42.488C44.0001 42.287 26.0741 41.078 23.6301 41.078ZM23.0181 43.495L28.5191 43.898V111.758C28.5191 112.362 29.1291 112.966 29.7411 112.966H75.5731C75.7771 112.966 75.9801 112.966 76.1841 112.765C76.5921 112.563 76.5921 112.362 76.7951 112.161V111.959V87.795H90.8501C91.4611 87.795 92.0731 87.192 92.0731 86.587V65.242H103.887C104.702 65.242 105.313 64.437 105.109 63.632L100.017 44.099C99.8141 25.372 84.7401 10.27 65.5911 10.27H62.9441C58.2581 10.27 52.9631 11.478 48.0731 13.693L39.9251 5.236C40.5371 2.618 38.4991 0 35.6481 0C33.8141 0 32.3891 1.007 31.5731 2.618L14.6671 39.468C13.6481 41.683 14.6671 44.3 16.9081 45.307C18.9451 46.314 21.3891 45.509 23.0181 43.495Z" fill="black"/>
<path d="M94.3136 103.301C94.3136 101.086 95.9426 99.4736 98.1836 99.4736C100.425 99.4736 102.054 101.086 102.054 103.301C102.054 105.515 100.221 107.127 98.1836 107.127C95.9426 107.127 94.3136 105.515 94.3136 103.301ZM91.8696 103.301C91.8696 106.724 94.7206 109.543 98.1836 109.543C101.647 109.543 104.498 106.724 104.498 103.301C104.498 99.8766 101.647 97.0576 98.1836 97.0576C94.5166 97.0576 91.8696 99.8766 91.8696 103.301Z" fill="black"/>
<path d="M82.0909 99.4736C81.0789 99.4736 80.2579 100.285 80.2579 101.287C80.2579 102.287 81.0789 103.099 82.0909 103.099C83.1039 103.099 83.9249 102.287 83.9249 101.287C83.9249 100.285 83.1039 99.4736 82.0909 99.4736Z" fill="black"/>
<path d="M105.109 75.7129C104.096 75.7129 103.276 76.5239 103.276 77.5249C103.276 78.5259 104.096 79.3369 105.109 79.3369C106.122 79.3369 106.943 78.5259 106.943 77.5249C106.943 76.5239 106.122 75.7129 105.109 75.7129Z" fill="black"/>
<path d="M17.3149 79.3374C16.3019 79.3374 15.4819 80.1484 15.4819 81.1504C15.4819 82.1504 16.3019 82.9624 17.3149 82.9624C18.3279 82.9624 19.1489 82.1504 19.1489 81.1504C19.1489 80.1484 18.3279 79.3374 17.3149 79.3374Z" fill="black"/>
<path d="M2.649 64.235C2.649 60.812 5.5 57.993 8.963 57.993C12.426 57.993 15.278 60.812 15.278 64.235C15.278 67.659 12.426 70.477 8.963 70.477C5.5 70.477 2.649 67.659 2.649 64.235ZM0 64.235C0 69.068 4.075 73.096 8.963 73.096C13.852 73.096 17.926 69.068 17.926 64.235C17.926 59.402 13.852 55.375 8.963 55.375C4.075 55.375 0 59.402 0 64.235Z" fill="black"/>
<path d="M105.109 28.9956C104.096 28.9956 103.276 29.8076 103.276 30.8086C103.276 31.8086 104.096 32.6206 105.109 32.6206C106.122 32.6206 106.943 31.8086 106.943 30.8086C106.943 29.8076 106.122 28.9956 105.109 28.9956Z" fill="black"/>
<path d="M29.3338 36.0438L38.2958 15.3038C38.4998 14.6998 39.3148 14.2968 39.9248 14.6998C40.5368 14.9008 40.9438 15.7068 40.5368 16.3108L31.5738 37.0508C31.3698 37.6558 30.5548 38.0578 29.9448 37.6558C29.3338 37.4538 29.1298 36.8498 29.3338 36.0438Z" fill="black"/>
<path d="M92.2762 1.40967C91.2632 1.40967 90.4432 2.22067 90.4432 3.22167C90.4432 4.22267 91.2632 5.03367 92.2762 5.03367C93.2892 5.03367 94.1102 4.22267 94.1102 3.22167C94.1102 2.22067 93.2892 1.40967 92.2762 1.40967Z" fill="black"/>
<path d="M19.7591 2.61768C18.7471 2.61768 17.9261 3.42868 17.9261 4.42968C17.9261 5.43068 18.7471 6.24168 19.7591 6.24168C20.7721 6.24168 21.5931 5.43068 21.5931 4.42968C21.5931 3.42868 20.7721 2.61768 19.7591 2.61768Z" fill="black"/>
</svg>
