<svg xmlns="http://www.w3.org/2000/svg" width="170.43" height="37.031" viewBox="0 0 170.43 37.031">
  <g id="logo-volemos" transform="translate(-50.941 -232.608)">
    <path id="Trazado_283" data-name="Trazado 283" d="M81.913,250.838c-4.47,0-8.1,4.1-8.1,9.156s3.625,9.156,8.1,9.156,8.1-4.1,8.1-9.156S86.384,250.838,81.913,250.838Zm0,15.941c-2.818,0-5.1-3.037-5.1-6.785s2.286-6.785,5.1-6.785,5.1,3.038,5.1,6.785S84.732,266.779,81.913,266.779Z" fill="#fff"/>
    <path id="Trazado_284" data-name="Trazado 284" d="M149.543,250.838c-4.471,0-8.1,4.1-8.1,9.156s3.624,9.156,8.1,9.156,8.094-4.1,8.094-9.156S154.013,250.838,149.543,250.838Zm0,15.941c-2.819,0-5.1-3.037-5.1-6.785s2.285-6.785,5.1-6.785,5.1,3.038,5.1,6.785S152.361,266.779,149.543,266.779Z" fill="#fff"/>
    <path id="Trazado_285" data-name="Trazado 285" d="M196.762,256.307c-3.207,0-5.807,2.908-5.807,6.5s2.6,6.5,5.807,6.5,5.807-2.908,5.807-6.5S199.969,256.307,196.762,256.307Zm0,11.311c-2.022,0-3.661-2.156-3.661-4.814s1.639-4.815,3.661-4.815,3.661,2.156,3.661,4.815S198.784,267.618,196.762,267.618Z" fill="#fff"/>
    <path id="Trazado_286" data-name="Trazado 286" d="M191.111,256.836" fill="#fff" stroke="#17100d" stroke-miterlimit="10" stroke-width="0.306"/>
    <circle id="Elipse_25" data-name="Elipse 25" cx="1.66" cy="1.66" r="1.66" transform="translate(174.635 265.655)" fill="#fff"/>
    <path id="Trazado_287" data-name="Trazado 287" d="M218.323,256.307c-2.682-.547-4.765,2.265-4.765,2.265s-.7-2.864-4.271-2.213a13.034,13.034,0,0,0-3.124,1.6v-1.414H204.34v12.577h2.083V260.03a5.058,5.058,0,0,1,2.864-1.875c2.109-.364,2.526,2.136,2.526,2.136v8.671H214V260.03s1.927-2.265,3.516-1.9a2.415,2.415,0,0,1,1.744,2.084v8.775h2.11v-8.619S221.5,256.836,218.323,256.307Z" fill="#fff"/>
    <path id="Trazado_288" data-name="Trazado 288" d="M135.015,250.617c-3.824-.791-6.795,3.277-6.795,3.277s-1-4.143-6.089-3.2A18.544,18.544,0,0,0,117.675,253v-2.045h-2.6v18.2h2.971V256a6.905,6.905,0,0,1,3.982-2.562c3.007-.527,3.7,2.939,3.7,2.939v12.544h3.119V256s2.733-3.143,5-2.615a3.4,3.4,0,0,1,2.5,2.879v12.694h3.007V256.494S139.545,251.383,135.015,250.617Z" fill="#fff"/>
    <path id="Trazado_289" data-name="Trazado 289" d="M111.288,265.609c-1.036,1.055-9.629,3.672-10.164-4.98h11.941c.332-6.562-2.267-9.791-6.738-9.791-4.882,0-8.232,4.014-8.046,9.156.443,12.28,12.5,9.671,14.081,7.412Zm-5.039-12.44c4.339,0,4.133,5.493,4.14,5.533h-9.234C101.164,258.635,101.484,253.169,106.249,253.169Z" fill="#fff"/>
    <path id="Trazado_290" data-name="Trazado 290" d="M92.227,243.013v22.421s-.079,2.382,1.21,3.241,3.789.475,3.789.475l-.429-2.413c-1.667,0-1.524-1.03-1.524-1.03l.039-19.256A3.108,3.108,0,0,0,92.227,243.013Z" fill="#fff"/>
    <path id="Trazado_291" data-name="Trazado 291" d="M50.941,232.611l11.77,37.028h4.9l.313-1.719s-5.26-21.2-7.916-28.435S50.941,232.611,50.941,232.611Z" fill="#fff"/>
    <path id="Trazado_292" data-name="Trazado 292" d="M71.72,240.37l-5.832,17.187,2.395,8.957s3.958-11.822,5.833-18.488S71.72,240.37,71.72,240.37Z" fill="#fff"/>
    <path id="Trazado_293" data-name="Trazado 293" d="M170.358,252.791l-1.51,1.875s-3.255-2.656-6.041-1.093a2.365,2.365,0,0,0-1.027,1.228c-.513,1.552.72,2.639,2.124,3.347,1.49.751,4.71,1.362,5.92,2.912a4.626,4.626,0,0,1,1.107,2.928,4.785,4.785,0,0,1-.961,2.945c-1.033,1.371-3.805,3.227-8.238,1.939a15.286,15.286,0,0,1-3.9-2.093l1.633-1.9a6.6,6.6,0,0,0,1.383,1.029,6.525,6.525,0,0,0,5.59.631,2.426,2.426,0,0,0,1.445-1.244,2.313,2.313,0,0,0-.293-2.323c-1.165-1.869-4.42-1.869-7.193-3.942a4.52,4.52,0,0,1,.69-7.3C165.931,249.172,170.358,252.791,170.358,252.791Z" fill="#fff"/>
    <path id="Trazado_294" data-name="Trazado 294" d="M188.964,259.026l1.028-1.261a4.794,4.794,0,0,0-5.26-1.328c-4.739,1.406-4.292,6.877-4.007,8.164.456,2.065,1.708,3.935,3.851,4.374a6.135,6.135,0,0,0,5.7-1.357l-.989-1.364s-2.187,2.005-4.583.833c-2.213-1.2-2.187-4.283-2.187-4.283s-.1-2.745,1.692-4A3.963,3.963,0,0,1,188.964,259.026Z" fill="#fff"/>
  </g>
</svg>
