<svg width="665" height="13" viewBox="0 0 665 13" fill="none" xmlns="http://www.w3.org/2000/svg">
<path d="M243.617 11.3588C238.596 11.7578 244.694 12.1048 243.95 12.5048C245.29 12.3918 248.146 12.4518 246.795 12.1578C249.431 12.9428 254.755 11.6788 257.605 12.2998C257.727 12.2198 256.078 11.9658 258.047 11.7598C260.992 11.6668 260.779 12.0418 261.982 12.1978C262.855 11.9658 267.329 11.7828 266.896 11.8968C268.853 11.6918 264.806 11.1248 267.539 10.7688C269.389 10.2248 271.908 10.6668 274.09 10.5098C276.716 10.8728 271.472 10.7838 270.385 10.9678L277.809 10.6878C279.995 10.9538 276.831 11.2148 274.641 11.1608C277.603 11.4868 281.417 11.1578 282.289 10.7148C284.147 10.8038 285.129 10.6998 286.878 10.8718C285.14 11.1248 285.252 11.8908 282.526 12.0328C278.041 12.0058 284.15 11.4388 280.334 11.3428L280.009 11.8018C278.372 11.5488 277.07 11.8968 275.314 11.9388C274.333 11.8278 275.528 11.7738 276.183 11.7048C273.012 11.7538 270.489 11.5218 268.097 12.0538C272.371 12.4568 278.807 11.8558 280.678 12.3688L289.185 11.6918C289.184 11.4788 286.224 11.1518 288.627 10.8318C289.617 11.3638 292.13 11.5968 295.414 11.6768C294.199 11.0978 300.654 11.1298 299.005 10.6658C297.477 10.9678 296.707 10.4808 296.492 10.4348C299.663 10.3858 296.919 9.89484 298.662 9.85384C304.458 9.95584 298.449 10.2288 304.137 10.4128C302.937 10.6788 299.879 11.2808 296.723 11.5408C296.944 11.7998 299.88 11.4908 301.209 11.7798C299.343 11.4798 302.51 11.2208 300.975 11.0968C305.567 10.8298 310.914 10.1998 316.482 10.0438C315.618 10.9128 307.096 10.7408 308.856 11.7588C311.585 11.6148 311.573 11.1928 313.763 11.2468C315.622 11.7578 320.206 11.2798 323.93 11.2468L322.281 10.9928C323.697 10.7738 326.316 10.9238 327.964 10.9658L327.535 11.0828L329.154 10.9108C329.408 10.9318 329.467 10.9598 329.462 10.9918C331.246 10.7158 335.8 10.9508 339.214 10.7808C339.209 10.3578 335.829 10.7798 334.193 10.7388C333.747 10.6448 330.586 10.4798 332.114 10.1808C336.36 10.1588 339.312 9.63884 344.117 9.63084L342.589 9.50984C344.116 9.20884 346.189 9.34584 348.48 9.31684C352.641 9.58884 345.427 9.91984 347.948 10.1518C346.318 10.5338 343.47 10.1238 343.04 10.6638L345.661 11.2378C347.848 10.8698 350.262 11.3938 351.796 11.3058L350.147 11.0538C350.469 10.5948 351.998 10.9308 352.77 10.9918L351.66 10.3298C349.262 10.2268 347.624 10.8208 345.879 10.4398C350.132 10.2068 349.148 9.67184 354.277 9.63284C354.509 9.89184 353.289 9.73384 352.758 9.93184C354.51 10.1028 356.352 9.55684 359.193 9.75484C357.567 9.92484 354.939 10.1998 357.024 10.5468L358.544 10.0368C359.855 10.1098 359.318 10.3088 359.856 10.3218C361.721 10.4098 359.424 9.80184 362.37 9.91784C362.809 10.0148 363.788 10.1238 363.359 10.2388C366.744 10.2408 364.986 10.0688 368.149 9.80884C365.316 9.82284 365.203 9.05884 368.145 8.96284C372.298 9.02484 375.127 8.58684 377.981 9.20784L379.836 8.87184C378.646 9.35084 382.465 9.02384 383.78 9.09684C384.218 9.61684 377.551 9.11184 377.555 9.95784C380.285 10.0268 379.096 10.2928 378.217 10.5248C381.173 10.4308 379.309 9.91784 380.612 9.56884C380.618 9.78184 385.644 9.60984 383.902 10.0748C386.414 10.0948 386.846 9.55484 388.698 9.64384C388.419 9.85384 388.099 10.1228 388.278 10.3888C388.496 10.2128 390.87 10.4178 391.33 10.4308C390.896 10.3338 392.197 9.98484 390.017 10.1428C390.559 9.73284 395.155 10.1018 395.033 9.75984C395.262 10.2298 399.736 9.83584 402.029 10.0198C401.798 8.91284 397.779 10.4628 397.003 9.55584C400.054 9.16484 407.273 9.47184 412.187 8.95984C416.442 9.15084 412.189 9.38284 413.062 9.78684C409.138 9.98484 408.148 9.66384 404.758 9.87684C408.478 10.0518 414.591 9.90884 417.318 9.55484C421.368 9.48584 421.819 10.6388 426.733 10.3378C426.077 9.98584 426.185 9.90184 424.648 9.77684C425.958 9.64284 427.493 9.76384 428.909 9.75684C429.777 9.52684 426.718 9.49284 428.682 9.28584C429.449 9.34884 431.087 9.38984 430.765 9.63484L430.438 9.66984C435.131 9.32084 433.838 10.5168 437.87 9.81384C437.543 9.63584 436.668 9.86684 435.68 9.75684C434.918 9.48484 437.416 9.08384 439.284 8.95884C438.951 9.20484 440.919 8.99984 442.228 9.07384C443.108 9.47784 438.951 9.20484 438.299 9.48484L441.908 9.53184L441.148 9.47184L445.071 9.06084C442.336 9.20484 443.755 8.56284 444.957 8.50684C447.684 8.57584 450.421 8.64384 450.095 9.10184C450.421 8.64384 453.806 8.64484 456.21 8.53384C453.586 8.38384 455.876 8.14484 456.636 7.99484L460.575 8.43084C456.424 8.58084 461.453 8.83484 460.478 9.14984C459.284 9.62784 456.766 9.39684 454.576 9.34184C458.852 10.1678 460.584 8.85684 464.304 9.24384C464.305 9.45584 463.979 9.70184 462.343 9.66284C462.998 9.80384 465.727 9.23684 468.243 9.46884C467.583 9.32484 466.159 8.90884 468.664 8.71784L471.951 9.22284C475.777 9.31884 473.257 8.66284 476.416 8.40384L474.343 8.05484C474.663 7.59584 478.602 8.03584 478.703 7.52884C476.74 7.52284 475.644 7.91884 473.58 7.78284C472.8 7.29684 476.198 7.50884 477.382 7.24084C481.651 7.43384 480.774 7.45384 483.953 7.82984C484.073 8.59384 478.715 8.79984 479.396 9.79084C483.543 9.63984 489.551 9.36684 492.279 9.64584C495.994 9.40084 495.655 8.79884 495.104 8.36184C496.64 8.27284 497.397 8.33584 498.383 8.44284L496.642 8.69784C501.228 8.42984 503.844 8.15584 508.659 8.15084C511.377 8.00584 510.28 7.55484 509.625 7.19984L512.575 7.10284L512.126 7.00784C512.782 6.51684 515.404 6.66684 517.37 6.67384C517.377 6.88484 516.176 6.94084 516.288 7.06984C518.032 7.24084 520.658 7.17884 522.072 6.95984C522.078 7.17184 520.883 7.64984 518.806 7.51384C518.586 7.46484 518.694 7.38484 518.478 7.33584L514.982 7.62984C519.02 7.34984 521.433 7.87584 521.332 8.38084C525.372 8.10084 518.042 7.87584 522.848 7.65784C529.195 8.61884 534.866 7.32284 538.382 8.72184C541.323 8.41484 544.815 7.90784 549.404 7.85484C549.402 7.42984 552.467 7.67684 552.02 7.15584C547.639 6.62484 543.836 8.01084 540.321 7.24584C538.365 7.45084 539.025 7.80584 538.147 8.03784C536.409 8.07984 534.766 8.03884 534.539 7.77884C538.579 7.49784 535.62 6.74784 540.752 6.70684C540.098 6.35084 535.94 6.50184 534.089 6.41284C534.63 6.21484 534.075 5.98984 532.872 5.83284C534.186 5.48384 537.122 5.17684 538.65 4.87484C538.113 5.07284 539.1 5.18384 538.659 5.29984L544.007 4.67184C545.651 4.92284 546.098 5.23184 545.218 5.46284C548.176 5.57884 553.185 4.98484 553.203 5.62084C557.023 5.50384 551.989 5.25084 551.661 5.07284L551.988 5.03984L547.947 5.10884C547.499 4.37684 552.541 5.26484 553.183 4.56084C553.814 3.22284 558.877 4.95684 561.709 4.73284L558.44 5.70884L561.283 5.48384C559.649 5.86584 559.657 6.49984 557.153 6.90384C561.081 6.91684 566.662 7.18284 569.178 6.99084C570.16 7.31384 570.596 7.62184 570.163 7.94784C574.094 7.32484 576.287 8.22884 579.678 8.22784C583.273 7.85284 576.065 7.75684 578.682 7.27184C579.771 7.51084 581.74 7.30584 582.721 7.20384C581.633 7.38684 577.803 7.08084 575.176 6.92984C577.146 6.93784 576.924 6.46584 577.47 6.26884L574.185 6.18484C574.397 5.59784 578.224 6.11884 579.747 5.81684C578.779 6.34284 579.316 6.35684 578.346 6.88184C581.184 6.65684 585.445 6.63684 587.857 6.94984C589.279 7.15484 586.661 7.21584 585.894 7.36684C586.55 7.72284 588.73 7.14084 589.281 7.57984C588.847 7.90784 587.537 7.61984 586.55 7.72284L594.856 7.84584C594.857 8.05684 592.786 8.13184 591.477 8.05684C593.996 8.28884 595.845 8.16484 598.787 7.43484C601.628 7.63284 604.904 7.92484 603.938 8.23984C605.245 8.10384 604.37 7.91284 604.359 7.69984C608.19 7.79684 608.611 7.04484 610.903 7.01784L609.162 6.63484C612.874 7.02484 610.022 5.97884 613.301 6.27384C612.768 6.68284 612.985 7.15284 613.539 7.59084C614.079 7.18184 616.162 7.52984 617.58 7.52384C616.697 7.11984 620.628 7.13384 618.333 6.73784C621.614 6.39484 623.141 6.94184 625.543 6.40784C624.017 6.28584 628.376 5.97084 627.057 5.68384C630.233 5.63784 632.419 6.11484 631.558 6.56084C630.459 6.53284 628.703 6.36084 628.827 6.70284L634.61 6.59484C636.044 6.79784 637.891 6.88584 638.123 7.35684C639.971 6.81084 643.587 7.70684 645 7.06284C643.039 7.48184 641.497 6.93484 640.745 6.87284L641.641 6.77784C641.511 6.77884 641.366 6.77184 641.174 6.75584L643.669 5.92984C641.265 5.61684 643.244 6.46884 639.848 6.46884C636.9 5.71884 646.505 5.28284 643.439 4.82284C640.928 4.59084 641.372 5.32184 639.302 5.60884L639.844 5.62384L635.149 5.97184C634.929 5.71284 636.349 5.49284 636.349 5.49284C630.662 5.52084 629.781 5.11784 623.663 5.04884C624.107 5.14584 625.311 5.93784 622.582 6.08184C620.624 6.28584 620.395 5.81584 618.762 5.77284C619.737 5.67184 620.611 5.22684 621.921 5.51384L621.812 4.96184C626.39 4.27184 623.984 3.74584 630.207 3.51884C630.49 3.11184 635.001 2.87984 638.388 2.98284L636.743 2.62484C640.23 1.90784 637.406 3.19184 641.878 2.58384C643.743 3.30784 647.148 4.15284 644.641 4.76984C647.813 4.93184 648.894 4.53584 651.745 4.52284C653.497 5.11684 650.875 5.17884 651.207 5.77984C653.289 5.70384 655.907 5.43084 654.362 5.09684L658.31 5.32084C658.415 5.44984 657.003 5.45684 656.449 5.44384C657.984 5.56684 660.929 5.25984 661.796 5.02784C661.472 5.06184 660.482 5.16484 660.053 5.06784C661.69 4.89784 664.634 4.58984 664.848 4.42584C662.45 4.74584 662.228 4.06384 659.718 4.46684C659.932 4.30384 660.361 3.97484 661.674 4.04984C659.594 3.70184 657.52 3.77584 656.644 3.37384C658.399 3.67084 659.519 3.22384 659.888 3.15784C658.316 3.04884 655.186 3.17484 654.132 3.35384C653.898 2.67184 648.017 3.49884 650.078 2.78784C649.752 3.03284 647.456 3.05984 646.25 2.90384C646.359 2.60884 649.412 2.43284 650.72 2.08384C656.839 1.72784 650.614 2.58884 652.043 2.79484L656.713 2.72384C656.242 2.62784 658.581 2.23684 655.534 2.28984C656.948 1.85884 659.892 1.54984 662.296 1.86484C662.848 1.66484 661.095 1.70784 660.551 1.69384C661.094 1.49584 664.037 0.763842 660.211 0.669842C661.305 0.695842 658.356 1.00384 660.324 1.22284C658.796 1.31084 654.642 1.03884 656.283 0.654842C654.421 0.777842 650.93 1.07284 649.401 1.16184C648.959 0.852842 650.709 1.02484 651.476 0.874842L646.115 1.08084L647.652 1.41484C643.721 1.18884 641.215 2.01584 638.052 2.27684C638.483 1.73584 641.108 1.67384 643.178 1.38784C641.193 0.745842 641.874 1.73484 638.591 1.65284C638.149 1.55684 638.036 1.42784 638.25 1.26384L635.641 1.74984C634.877 1.68884 635.307 1.57084 635.64 1.53784C631.162 2.14584 635.754 2.30284 629.746 2.57684C633.365 2.83584 632.815 2.18784 635.862 2.22184C637.624 2.60484 632.382 2.93884 631.503 3.16984C628.558 3.05384 628.217 2.24284 624.505 2.69984C627.122 2.42684 624.611 2.19384 628.323 2.15884C630.398 1.87284 627.225 1.92084 626.79 1.61284C625.81 1.71584 627.447 2.18084 624.717 2.11184L624.825 2.03084L620.357 2.63784C616.193 2.36584 610.971 3.33584 608.119 2.71484L608.782 3.28184C606.163 3.34184 602.448 3.37784 600.593 3.50084C601.021 3.17184 602.771 3.13184 604.626 3.00884C599.921 2.93384 595.78 3.29584 592.617 3.76784C594.919 4.16384 595.25 4.12984 597.437 4.39584C594.388 5.20784 593.82 3.92284 589.888 4.33384C589.777 3.78084 591.087 3.85584 590.103 3.32184C588.469 3.70584 585.732 3.63784 583.876 3.97284C582.887 3.43984 584.625 2.97484 588.668 2.90584C591.734 3.36384 595.112 2.51784 597.635 2.96084L596.099 2.62484C599.162 2.44684 601.013 2.53684 603.63 2.26284L603.524 2.34584L604.829 1.78584L603.413 1.79284C604.389 1.47684 607.333 0.958842 608.207 0.937842C603.832 1.04084 603.522 1.92184 601.451 2.42184C597.515 2.40684 595.969 1.43884 593.353 1.92284C593.138 1.66184 590.942 1.39584 592.695 1.14484C594.872 0.985842 596.409 1.32084 596.622 0.943842C594.326 0.972842 595.2 0.739842 591.707 0.822842C591.049 1.31584 588.439 1.80084 585.94 2.20384C583.316 2.47784 579.925 2.47684 577.842 2.33784C580.466 2.27784 583.084 1.79284 582.421 1.43784C580.894 1.95084 577.284 1.05584 578.06 1.75184C575.002 1.71884 569.861 1.75984 569.525 1.15884C572.416 0.921842 575.22 1.27584 577.67 1.13384C576.996 1.12384 576.334 0.974842 576.731 0.830842L580.341 0.878842C577.609 0.597842 578.15 0.399842 574.653 0.482842C574.873 0.529842 575.313 0.624842 574.983 0.657842C574.112 0.678842 573.016 0.652842 572.137 0.673842L572.026 0.120842C569.409 0.392842 564.368 -0.283158 559.573 0.147842L560.003 0.0318417C556.179 -0.0641583 555.864 1.02884 551.711 1.17984C552.912 0.913842 552.36 0.686842 552.144 0.427842C550.073 0.714842 548.971 0.264842 546.891 0.128842C549.304 0.441842 545.266 0.720842 547.016 0.891842C547.136 1.44684 542.866 1.46684 540.679 1.41284C539.369 0.702842 547.451 0.987842 544.162 0.272842C541.979 0.217842 541.434 0.626842 542.971 0.749842C540.237 0.680842 536.084 0.620842 534.107 0.189842C530.843 0.743842 529.531 0.456842 527.459 1.16684C529.207 1.12684 529.308 0.620842 531.502 0.886842L529.102 1.41984C525.936 1.46884 523.413 1.02484 521.229 0.969842L523.523 0.729842L523.412 0.812842C524.286 0.579842 527.237 0.696842 526.903 0.307842C524.834 0.804842 523.185 0.339842 520.46 0.695842L520.567 0.613842C515.766 1.04384 512.252 -0.144158 509.209 0.881842C510.083 0.859842 511.839 1.24284 511.293 1.44084C510.192 1.20284 507.246 1.29784 507.349 1.00384L508.335 0.900842C505.603 0.833842 503.961 0.792842 502.974 0.894842C502.219 1.25684 502.993 1.53084 501.024 1.73684C496.211 1.53184 502.974 0.894842 499.699 0.600842L495.221 0.997842L494.232 0.676842C487.573 0.382842 482.443 1.48484 475.344 1.51984C475.229 0.964842 480.359 0.712842 482.106 0.670842C479.915 0.191842 476.758 0.875842 473.806 0.546842C471.067 0.479842 469.005 0.977842 469.44 1.28584C466.061 1.49884 467.033 0.971842 466.6 0.876842C465.506 1.48384 461.246 1.29184 458.522 1.43584L458.396 1.09684L454.143 1.53884C455.238 1.56784 454.258 1.87984 454.261 2.09184L453.17 2.06484C457.337 2.97484 462.555 1.36984 466.831 2.40684C465.524 2.54384 467.278 2.71484 465.964 2.85184C464.875 2.82284 464.655 2.77584 464.542 2.64484C463.888 2.92484 462.145 3.17884 464.441 3.15084C464.338 3.86784 459.744 3.71284 456.585 3.97184C454.066 3.52584 459.2 3.27284 460.504 2.92484C459.302 2.98184 458.317 3.29584 456.571 3.12484L456.997 2.58584C452.635 2.89984 455.808 3.06184 454.824 3.58784C453.64 4.27884 450.895 3.57584 449.694 3.62984L451.002 3.49384C447.617 3.28084 446.856 3.85684 443.804 3.82284L442.369 3.40384C446.208 3.92384 447.054 2.63284 449.246 2.89884C443.668 2.41984 450.438 1.78584 452.179 1.32084C449.771 1.43084 447.591 1.37684 446.28 1.08884C442.785 1.80684 438.949 0.863842 435.579 1.71184C433.721 1.62384 437.208 1.32884 435.243 1.32184C431.638 1.27484 427.814 1.39084 423.995 1.71784C422.02 1.71184 422.357 1.46584 421.804 1.24184C412.294 0.961842 408.592 2.26584 398.207 2.00784L399.731 1.70684C397.551 1.65184 395.689 1.56284 394.608 1.96084C391.859 1.04384 385.322 2.57384 381.819 1.59784C377.225 1.44084 377.014 2.23984 373.408 2.40484C373.407 2.19184 374.501 1.79384 372.634 1.70684C360.842 2.08984 350.24 2.20784 337.244 2.43284C337.352 2.35184 338.007 2.28184 338.332 2.24884C329.919 2.20884 321.628 3.14284 314.636 2.88384C313.322 3.02184 309.394 3.21984 310.601 3.58884C312.235 3.63184 312.462 4.10084 312.356 4.39484C306.133 4.83284 309.293 3.72684 305.138 3.87684C303.82 3.16684 307.754 3.39084 307.752 2.75484L301.744 3.23984C298.357 3.02984 294.972 3.45184 292.02 3.12584C293.335 3.19984 292.446 2.58684 294.638 2.85284C294.305 2.88584 294.528 2.93284 294.197 2.96884C299.229 3.00684 296.934 2.61184 301.413 2.42784C297.476 2.62684 292.127 2.83184 288.627 2.70284C289.398 3.18584 285.79 2.92684 284.809 3.24184L284.59 3.19384C284.591 3.40584 282.418 3.56284 281.752 3.63084L280.875 3.01684C279.341 3.10584 281.312 3.32484 279.783 3.41184C277.611 3.56884 269.841 3.67384 269.291 3.02384C266.662 3.08684 265.903 3.44884 263.18 3.37884C263.394 3.21484 264.049 3.14784 264.15 3.06584C258.366 2.96384 251.263 3.20784 245.787 2.86084C241.32 3.04584 237.493 3.16284 234.663 3.59984C235.863 3.54584 239.364 3.67484 237.177 4.04384C235.976 4.31084 234.122 4.22084 232.267 4.34284C232.7 4.01684 227.562 4.05784 231.273 3.81284C230.334 3.10684 223.268 3.98984 223.323 3.28384C222.455 3.50384 217.18 3.40284 215.207 3.79184C214.767 3.48384 218.055 3.56584 218.048 3.35384L215.646 3.46284L215.645 3.25284C211.045 3.09384 210.192 3.96284 207.462 4.10684L207.567 4.02484L205.713 4.14684L207.888 3.56584C204.943 3.66184 203.42 4.17484 200.143 4.30484L199.815 4.12684L197.841 4.33184C198.175 4.29784 198.286 4.21484 198.071 4.16784C196.211 4.71384 191.951 4.52484 190.21 4.98784C188.899 4.91384 187.791 4.24884 186.049 4.71484L186.374 4.04684C190.74 3.94284 188.005 4.51084 192.599 4.24284C189.204 3.39684 179.697 3.54084 173.36 3.63484C168.237 4.09984 159.811 3.42584 157.636 4.42784L158.176 4.01984L149.546 3.71884C142.223 3.91884 134.684 3.64584 129.115 4.22484L127.581 3.89184C121.813 5.05884 107.919 4.45784 104.115 5.84584C100.84 5.55284 105.095 5.31884 105.421 5.07384C103.01 4.97284 98.98 5.88784 96.678 5.27984C96.677 5.06884 100.065 5.06684 98.535 4.94484C96.785 4.56184 96.032 5.34684 94.055 4.91784C94.931 5.31984 90.892 5.81284 87.953 5.90784C88.495 5.92184 88.495 5.92184 88.726 5.96884C89.157 6.27684 86.967 6.22284 85.765 6.27584C85.765 6.27584 85.876 6.19584 86.201 6.15984C71.029 6.75584 53.661 7.08484 37.702 6.77284L40.641 6.46384C38.35 6.70184 34.299 6.55984 32.995 6.48484L33.327 6.45184C29.059 5.83684 28.521 7.09184 25.237 6.37584L25.884 6.30684C20.749 6.34884 17.694 5.67984 12.673 6.06184C8.728 5.83684 9.162 5.50784 6.426 5.22884C4.132 5.25484 3.057 5.65284 2.939 5.73384L4.038 5.76184C5.241 6.12984 1.635 6.08284 0 6.25384C1.205 6.83384 0.561 7.74984 5.162 8.32984C8.545 8.11884 8.454 9.25884 12.274 9.14284C14.449 8.35084 17.745 9.70084 21.228 8.98484C19.376 9.53084 25.384 9.25784 22.338 9.85884C23.762 10.2758 29.756 9.36584 32.502 9.85884C32.057 9.97684 32.164 10.1048 31.514 10.1738C35.34 9.84584 34.141 10.5358 36.98 10.5208L36.869 9.96784C37.964 9.78284 38.295 10.1718 39.274 10.0708C38.5 10.0078 36.868 9.75584 37.728 9.52484C39.04 9.38784 40.134 9.20284 41.551 9.19584C41.568 9.40784 40.581 9.50884 39.915 9.57884C39.915 9.57884 42.985 9.61384 43.201 9.87284C42.106 10.0558 40.688 10.0628 39.721 10.3778C43.756 10.5218 40.044 10.5548 42.014 10.9838C41.459 10.3368 45.512 10.6908 47.689 10.5338C47.917 10.7948 46.16 10.6228 45.619 10.8218C49.788 11.9418 51.849 10.5958 57.199 10.8138C57.092 10.8958 56.437 10.9648 56.105 10.9988C58.625 10.8078 60.381 11.4018 62.013 11.0188C64.422 11.1218 62.457 11.7508 66.174 11.7158C65.077 11.0538 70.548 11.8238 70.641 11.1078L73.492 11.5158C76.008 11.1138 72.815 10.3148 77.736 10.2248C82.217 10.4648 77.317 11.4018 79.937 11.7618L81.03 11.3658L83.221 11.6318L82.889 11.6668C84.202 11.5308 86.599 11.6328 86.607 11.8428C86.393 12.0078 84.967 12.0148 84.763 12.1788C86.934 11.8108 93.395 13.1128 95.676 12.0268C96.966 12.2108 99.622 12.1948 99.284 12.5378C100.453 12.0578 105.103 12.6588 106.834 12.3478C106.609 12.5118 108.255 12.7648 109.566 12.6298C107.81 12.4588 108.909 12.2748 110.099 12.0068C111.642 12.3418 116.005 12.0278 116.67 12.5948C119.072 12.2728 118.191 11.8708 118.72 11.4598C120.262 11.7948 125.18 11.7058 124.315 12.3608C122.995 12.2878 120.044 12.1708 120.603 12.6078C123.116 12.8378 121.691 12.4228 123.761 12.3478C123.607 12.4668 125.17 12.7428 124.774 12.9338C125.997 12.8578 127.708 12.8558 129.452 12.9568C126.726 12.6748 131.194 12.4918 129.555 12.2398L126.94 12.7248C123.769 12.7718 126.274 12.3698 125.071 12.2118C130.645 12.0538 129.541 11.3908 134.781 11.0568C135.764 11.1648 137.513 11.3358 138.063 11.3508C136.314 11.3908 136.654 11.9928 137.647 12.1008C140.574 11.5818 142.891 12.4008 145.295 12.5038C143.212 12.3668 144.306 11.9718 145.067 11.8208C150.087 11.4388 147.038 12.0388 149.228 12.3048C156.975 12.2018 161.905 12.9608 168.123 12.5248L165.172 11.9828L164.194 12.5088C161.895 12.1128 164.613 11.3348 165.92 10.9868C166.252 11.1648 170.079 11.0478 168.553 11.3488L172.268 11.1038C171.714 10.8778 169.311 10.9868 171.045 10.7338C172.267 10.8908 176.082 10.9868 173.686 11.3078C175.649 11.3148 178.159 11.1238 177.723 10.8168C180.888 10.7698 177.399 11.4848 175.988 11.7048C178.496 11.7248 178.175 12.1808 177.418 12.3318L180.905 12.2508C180.146 12.3988 180.147 12.6108 179.391 12.7608C181.686 12.9458 183.321 12.3528 185.283 12.7828L186.157 12.3368C192.494 12.6668 191.844 12.7338 197.749 12.7548L196.762 12.4328C201.229 11.8248 200.039 12.9398 206.048 12.6668C209.431 12.4538 211.619 12.2958 211.172 11.7758C213.129 11.5718 213.576 11.8798 214.458 12.0718C215.979 11.7708 219.25 11.2168 221.655 11.5308C220.02 11.7008 218.711 11.8378 217.182 11.9288C217.63 12.4448 222.425 12.0158 224.937 12.2488C226.686 11.9948 232.366 11.3318 235.524 10.8608C234.094 10.4438 234.633 9.82184 237.47 9.38384C237.036 9.71284 241.302 9.69284 243.262 9.91284C242.292 10.2248 247.643 10.6538 243.501 10.8048C242.298 10.6488 241.744 10.2098 240.103 10.3808C241.092 10.7028 243.725 11.0648 246.456 11.3458C246.247 11.5098 244.822 11.7268 243.404 11.7338C244.176 11.5858 243.727 11.4888 243.617 11.3588Z" fill="#C83F45"/>
</svg>
