<svg width="221" height="13" viewBox="0 0 221 13" fill="none" xmlns="http://www.w3.org/2000/svg">
<path d="M80.962 10.8654C79.297 11.2564 81.326 11.6124 81.082 12.0114C81.526 11.9004 82.475 11.9654 82.024 11.6694C82.906 12.4584 84.664 11.2024 85.616 11.8274C85.656 11.7474 85.106 11.4914 85.758 11.2894C86.736 11.1994 86.668 11.5744 87.069 11.7324C87.357 11.5014 88.842 11.3254 88.699 11.4394C89.347 11.2374 87.999 10.6634 88.904 10.3124C89.514 9.77044 90.354 10.2174 91.077 10.0634C91.953 10.4294 90.21 10.3324 89.85 10.5164L92.314 10.2474C93.042 10.5164 91.993 10.7724 91.266 10.7154C92.252 11.0454 93.516 10.7234 93.803 10.2814C94.42 10.3724 94.746 10.2704 95.328 10.4454C94.753 10.6954 94.796 11.4614 93.892 11.5994C92.402 11.5654 94.426 11.0084 93.158 10.9054L93.054 11.3644C92.508 11.1094 92.078 11.4544 91.495 11.4934C91.169 11.3824 91.565 11.3294 91.782 11.2614C90.729 11.3054 89.889 11.0694 89.099 11.5984C90.522 12.0074 92.655 11.4164 93.28 11.9324L96.101 11.2684C96.099 11.0554 95.113 10.7244 95.909 10.4074C96.242 10.9414 97.078 11.1784 98.17 11.2634C97.762 10.6814 99.906 10.7234 99.355 10.2584C98.85 10.5574 98.59 10.0694 98.518 10.0234C99.571 9.97844 98.656 9.48344 99.235 9.44544C101.16 9.55544 99.167 9.82044 101.058 10.0124C100.661 10.2774 99.65 10.8744 98.604 11.1294C98.679 11.3884 99.652 11.0844 100.096 11.3754C99.473 11.0724 100.523 10.8174 100.013 10.6914C101.536 10.4324 103.307 9.81044 105.155 9.66244C104.875 10.5304 102.043 10.3454 102.636 11.3654C103.541 11.2254 103.534 10.8034 104.262 10.8614C104.883 11.3754 106.402 10.9044 107.639 10.8764L107.089 10.6204C107.558 10.4044 108.429 10.5584 108.976 10.6024L108.835 10.7184L109.371 10.5494C109.456 10.5714 109.476 10.5984 109.474 10.6304C110.065 10.3574 111.579 10.5994 112.712 10.4344C112.707 10.0114 111.587 10.4284 111.044 10.3854C110.895 10.2904 109.844 10.1204 110.349 9.82344C111.759 9.80844 112.736 9.29344 114.332 9.29344L113.823 9.16944C114.328 8.87044 115.018 9.01044 115.778 8.98544C117.163 9.26444 114.769 9.58344 115.608 9.81944C115.07 10.1984 114.12 9.78444 113.982 10.3234L114.857 10.9024C115.581 10.5364 116.386 11.0654 116.895 10.9794L116.346 10.7244C116.449 10.2664 116.96 10.6044 117.217 10.6664L116.842 10.0034C116.045 9.89544 115.506 10.4884 114.923 10.1034C116.334 9.87744 116.003 9.34144 117.706 9.31044C117.785 9.56944 117.379 9.40944 117.204 9.60644C117.787 9.78044 118.395 9.23744 119.34 9.43944C118.802 9.60744 117.931 9.87844 118.626 10.2284L119.127 9.72044C119.563 9.79644 119.386 9.99344 119.565 10.0084C120.185 10.0984 119.417 9.48744 120.397 9.60744C120.544 9.70544 120.869 9.81544 120.728 9.93044C121.852 9.93744 121.267 9.76244 122.316 9.50844C121.375 9.51744 121.331 8.75244 122.308 8.66044C123.688 8.72944 124.624 8.29644 125.577 8.92144L126.19 8.58944C125.799 9.06544 127.065 8.74344 127.502 8.82044C127.652 9.34044 125.433 8.82444 125.441 9.67144C126.349 9.74444 125.956 10.0084 125.666 10.2384C126.647 10.1494 126.023 9.63344 126.454 9.28644C126.457 9.49944 128.125 9.33544 127.551 9.79844C128.385 9.82144 128.524 9.28244 129.14 9.37444C129.049 9.58344 128.945 9.85144 129.006 10.1184C129.077 9.94244 129.868 10.1514 130.021 10.1654C129.876 10.0674 130.305 9.72044 129.582 9.87444C129.759 9.46644 131.289 9.84244 131.245 9.50044C131.325 9.97044 132.808 9.58344 133.571 9.77044C133.486 8.66344 132.163 10.2074 131.898 9.29844C132.908 8.91244 135.309 9.23144 136.937 8.72644C138.352 8.92444 136.941 9.14944 137.234 9.55444C135.932 9.74744 135.601 9.42444 134.477 9.63244C135.714 9.81244 137.743 9.67844 138.646 9.32944C139.991 9.26744 140.15 10.4204 141.78 10.1274C141.559 9.77344 141.594 9.69044 141.083 9.56344C141.517 9.43044 142.027 9.55444 142.498 9.54944C142.785 9.32044 141.768 9.28244 142.419 9.07844C142.674 9.14244 143.218 9.18544 143.114 9.43044L143.005 9.46444C144.561 9.12344 144.141 10.3164 145.475 9.61944C145.365 9.44244 145.076 9.67144 144.747 9.55944C144.492 9.28644 145.318 8.88844 145.938 8.76744C145.829 9.01244 146.482 8.81044 146.917 8.88644C147.212 9.29244 145.829 9.01244 145.615 9.29144L146.814 9.34444L146.561 9.28244L147.861 8.87844C146.953 9.01744 147.42 8.37744 147.819 8.32444C148.725 8.39744 149.635 8.46944 149.53 8.92744C149.635 8.46944 150.759 8.47544 151.557 8.36844C150.684 8.21444 151.443 7.97944 151.694 7.82944L153.006 8.27244C151.629 8.41544 153.301 8.67744 152.98 8.99044C152.587 9.46744 151.748 9.23144 151.021 9.17344C152.447 10.0064 153.012 8.69844 154.251 9.09044C154.253 9.30244 154.147 9.54844 153.603 9.50644C153.822 9.64844 154.724 9.08644 155.561 9.32244C155.341 9.17744 154.865 8.75944 155.695 8.57244L156.791 9.08144C158.063 9.18344 157.22 8.52344 158.268 8.26944L157.576 7.91744C157.679 7.45944 158.991 7.90444 159.02 7.39844C158.368 7.38844 158.008 7.78244 157.321 7.64444C157.058 7.15744 158.188 7.37444 158.579 7.10844C159.999 7.30744 159.708 7.32644 160.767 7.70744C160.813 8.47144 159.035 8.66944 159.268 9.66144C160.645 9.51644 162.639 9.25244 163.547 9.53644C164.779 9.29644 164.661 8.69444 164.475 8.25644C164.984 8.16944 165.236 8.23444 165.565 8.34344L164.988 8.59444C166.51 8.33444 167.377 8.06444 168.976 8.06644C169.878 7.92544 169.51 7.47244 169.289 7.11644L170.269 7.02444L170.119 6.92844C170.333 6.43844 171.205 6.59244 171.858 6.60344C171.862 6.81444 171.463 6.86744 171.501 6.99744C172.082 7.17044 172.954 7.11244 173.422 6.89644C173.426 7.10844 173.033 7.58444 172.341 7.44444C172.268 7.39544 172.303 7.31644 172.231 7.26544L171.072 7.55444C172.411 7.28144 173.217 7.81044 173.187 8.31644C174.527 8.04244 172.09 7.80544 173.685 7.59444C175.801 8.56644 177.675 7.27844 178.853 8.68344C179.828 8.38044 180.984 7.87944 182.508 7.83244C182.504 7.40844 183.524 7.65944 183.371 7.13844C181.912 6.59944 180.66 7.98044 179.486 7.21044C178.838 7.41144 179.06 7.76844 178.77 7.99844C178.193 8.03744 177.647 7.99444 177.569 7.73444C178.909 7.45944 177.92 6.70544 179.625 6.67144C179.405 6.31444 178.025 6.45844 177.409 6.36744C177.587 6.17044 177.401 5.94544 177.001 5.78544C177.434 5.43944 178.407 5.13644 178.912 4.83644C178.735 5.03444 179.064 5.14544 178.919 5.26144L180.69 4.64144C181.238 4.89544 181.389 5.20544 181.099 5.43544C182.082 5.55444 183.741 4.96944 183.752 5.60444C185.02 5.49344 183.346 5.23244 183.236 5.05444L183.344 5.02144L182.003 5.08444C181.848 4.35244 183.53 5.24744 183.737 4.54444C183.936 3.20744 185.632 4.94944 186.571 4.72944L185.492 5.70044L186.435 5.48044C185.895 5.86044 185.903 6.49444 185.075 6.89444C186.379 6.91244 188.235 7.18744 189.069 7.00044C189.398 7.32344 189.545 7.63244 189.404 7.95844C190.705 7.34144 191.441 8.24844 192.567 8.25244C193.758 7.88344 191.363 7.77644 192.228 7.29544C192.592 7.53544 193.245 7.33344 193.57 7.23344C193.21 7.41544 191.935 7.10244 191.061 6.94744C191.716 6.95844 191.638 6.48744 191.818 6.29044L190.726 6.20144C190.792 5.61544 192.067 6.14144 192.571 5.84144C192.253 6.36544 192.432 6.38144 192.114 6.90544C193.055 6.68344 194.47 6.67044 195.274 6.98744C195.748 7.19544 194.879 7.25244 194.625 7.40244C194.846 7.75844 195.565 7.17944 195.752 7.61944C195.61 7.94644 195.173 7.65744 194.846 7.75844L197.606 7.89444C197.608 8.10444 196.92 8.17744 196.485 8.09944C197.323 8.33644 197.936 8.21444 198.908 7.48944C199.853 7.69144 200.944 7.98944 200.625 8.30244C201.059 8.16844 200.766 7.97544 200.761 7.76344C202.034 7.86544 202.168 7.11444 202.929 7.09044L202.348 6.70544C203.584 7.10044 202.629 6.05144 203.72 6.35044C203.546 6.75944 203.622 7.22944 203.809 7.66844C203.986 7.26044 204.68 7.61144 205.151 7.60644C204.855 7.20144 206.161 7.22144 205.395 6.82244C206.482 6.48444 206.994 7.03344 207.787 6.50344C207.28 6.37944 208.725 6.07144 208.285 5.78244C209.339 5.74044 210.069 6.22144 209.787 6.66544C209.421 6.63644 208.837 6.46244 208.881 6.80344L210.801 6.70444C211.279 6.91044 211.893 7.00144 211.974 7.47244C212.583 6.92844 213.791 7.83044 214.256 7.18844C213.608 7.60344 213.091 7.05544 212.841 6.99144L213.138 6.89944C213.095 6.89944 213.046 6.89144 212.982 6.87644L213.805 6.05344C213.004 5.73744 213.668 6.59144 212.54 6.58644C211.555 5.83244 214.742 5.41044 213.72 4.94644C212.884 4.71044 213.037 5.44244 212.352 5.72644L212.532 5.74144L210.975 6.08244C210.9 5.82344 211.37 5.60544 211.37 5.60544C209.481 5.62444 209.185 5.21944 207.152 5.14244C207.301 5.23944 207.707 6.03344 206.801 6.17344C206.153 6.37444 206.073 5.90344 205.53 5.85844C205.853 5.75944 206.14 5.31544 206.577 5.60444L206.537 5.05144C208.052 4.36844 207.249 3.83944 209.314 3.62144C209.405 3.21544 210.901 2.99044 212.027 3.09744L211.478 2.73744C212.631 2.02644 211.703 3.30544 213.184 2.70444C213.809 3.43144 214.947 4.28244 214.118 4.89444C215.174 5.06144 215.529 4.66844 216.476 4.65944C217.063 5.25544 216.192 5.31444 216.307 5.91544C216.999 5.84244 217.866 5.57344 217.35 5.23744L218.663 5.46744C218.699 5.59644 218.23 5.60044 218.046 5.58744C218.557 5.71344 219.533 5.40944 219.819 5.17944C219.712 5.21244 219.384 5.31444 219.24 5.21744C219.783 5.04944 220.758 4.74544 220.828 4.58244C220.034 4.89944 219.955 4.21644 219.124 4.61544C219.194 4.45244 219.334 4.12444 219.771 4.20144C219.077 3.84944 218.389 3.92144 218.095 3.51744C218.68 3.81744 219.048 3.37244 219.17 3.30744C218.648 3.19544 217.609 3.31744 217.26 3.49344C217.177 2.81144 215.23 3.62844 215.909 2.92144C215.803 3.16644 215.04 3.18944 214.638 3.03244C214.672 2.73644 215.685 2.56544 216.117 2.21944C218.147 1.87144 216.086 2.72344 216.562 2.93144L218.112 2.86744C217.955 2.77044 218.729 2.38444 217.717 2.43144C218.184 2.00244 219.159 1.69844 219.96 2.01744C220.142 1.81844 219.56 1.85844 219.379 1.84444C219.558 1.64644 220.53 0.919443 219.258 0.819443C219.622 0.847443 218.645 1.15044 219.3 1.37244C218.793 1.45844 217.411 1.17944 217.953 0.798443C217.336 0.918443 216.179 1.20744 215.671 1.29544C215.522 0.985443 216.105 1.15944 216.358 1.01144L214.579 1.20844L215.092 1.54444C213.785 1.31244 212.959 2.13544 211.91 2.39244C212.049 1.85244 212.921 1.79444 213.606 1.51144C212.942 0.865443 213.176 1.85644 212.084 1.76944C211.937 1.67244 211.898 1.54344 211.968 1.37944L211.105 1.86144C210.851 1.79944 210.993 1.68144 211.103 1.64944C209.621 2.25044 211.147 2.41444 209.154 2.67944C210.358 2.94344 210.17 2.29444 211.182 2.33344C211.771 2.71944 210.032 3.04444 209.742 3.27444C208.763 3.15544 208.643 2.34344 207.414 2.79444C208.281 2.52544 207.445 2.28844 208.678 2.25944C209.365 1.97544 208.311 2.02044 208.164 1.71144C207.84 1.81244 208.387 2.27944 207.48 2.20644L207.515 2.12544L206.035 2.72644C204.65 2.44744 202.923 3.40844 201.971 2.78344L202.195 3.35144C201.326 3.40844 200.092 3.43844 199.477 3.55844C199.617 3.23044 200.198 3.19344 200.813 3.07344C199.25 2.99044 197.877 3.34544 196.83 3.81244C197.598 4.21244 197.707 4.17844 198.436 4.44844C197.43 5.25544 197.231 3.96944 195.928 4.37444C195.887 3.82144 196.322 3.89844 195.991 3.36344C195.452 3.74444 194.542 3.67244 193.928 4.00444C193.595 3.46944 194.169 3.00744 195.511 2.94544C196.533 3.40844 197.649 2.56644 198.49 3.01344L197.978 2.67544C198.994 2.50244 199.609 2.59444 200.476 2.32544L200.442 2.40744L200.871 1.84944L200.4 1.85444C200.722 1.53944 201.696 1.02644 201.986 1.00744C200.534 1.10344 200.438 1.98444 199.754 2.48044C198.446 2.45944 197.925 1.48944 197.06 1.96944C196.986 1.70744 196.255 1.43844 196.835 1.19044C197.557 1.03444 198.07 1.37244 198.138 0.995443C197.376 1.02044 197.664 0.789443 196.504 0.866443C196.29 1.35844 195.427 1.83944 194.6 2.23844C193.73 2.50844 192.604 2.50244 191.911 2.36044C192.782 2.30444 193.648 1.82344 193.425 1.46644C192.921 1.97844 191.715 1.07744 191.979 1.77444C190.963 1.73644 189.255 1.77044 189.139 1.16844C190.097 0.935443 191.031 1.29344 191.844 1.15644C191.62 1.14444 191.399 0.994443 191.53 0.850443L192.73 0.904443C191.82 0.619443 191.998 0.423443 190.837 0.499443C190.91 0.548443 191.057 0.643443 190.948 0.675443C190.659 0.695443 190.295 0.667443 190.003 0.687443L189.962 0.134443C189.095 0.402443 187.415 -0.280557 185.825 0.141443L185.967 0.0264426C184.696 -0.0755574 184.6 1.01744 183.222 1.16144C183.619 0.898443 183.433 0.670443 183.36 0.410443C182.674 0.694443 182.305 0.242443 181.612 0.103443C182.417 0.419443 181.077 0.693443 181.66 0.866443C181.704 1.42144 180.286 1.43544 179.559 1.37744C179.119 0.665443 181.806 0.964443 180.707 0.242443C179.982 0.184443 179.804 0.592443 180.315 0.718443C179.407 0.645443 178.027 0.578443 177.367 0.144443C176.287 0.694443 175.849 0.404443 175.166 1.11144C175.746 1.07444 175.776 0.568443 176.507 0.837443L175.714 1.36644C174.662 1.41044 173.821 0.962443 173.095 0.905443L173.855 0.668443L173.819 0.751443C174.107 0.519443 175.089 0.641443 174.974 0.251443C174.291 0.745443 173.74 0.278443 172.837 0.630443L172.872 0.547443C171.281 0.970443 170.104 -0.223557 169.102 0.798443C169.392 0.778443 169.978 1.16344 169.798 1.36044C169.431 1.12044 168.453 1.21244 168.485 0.917443L168.811 0.816443C167.904 0.744443 167.358 0.700443 167.031 0.802443C166.783 1.16244 167.042 1.43744 166.389 1.64044C164.789 1.42844 167.031 0.802443 165.94 0.503443L164.456 0.892443L164.125 0.570443C161.911 0.266443 160.215 1.36044 157.858 1.38344C157.815 0.829443 159.517 0.584443 160.097 0.545443C159.366 0.0634426 158.322 0.741443 157.339 0.409443C156.429 0.338443 155.748 0.832443 155.895 1.14144C154.774 1.34844 155.093 0.823443 154.948 0.727443C154.589 1.33344 153.173 1.13444 152.269 1.27444L152.225 0.934443L150.816 1.37044C151.179 1.40144 150.857 1.71144 150.859 1.92344L150.496 1.89544C151.888 2.81144 153.608 1.21444 155.037 2.25844C154.604 2.39244 155.188 2.56644 154.753 2.70144C154.39 2.67044 154.317 2.62344 154.278 2.49244C154.063 2.77144 153.487 3.02344 154.249 2.99844C154.22 3.71544 152.693 3.55244 151.646 3.80644C150.806 3.35744 152.509 3.11144 152.939 2.76644C152.54 2.82144 152.216 3.13444 151.635 2.95944L151.772 2.42144C150.325 2.72844 151.38 2.89544 151.058 3.42044C150.67 4.10944 149.753 3.40244 149.354 3.45444L149.788 3.32044C148.661 3.10244 148.413 3.67644 147.399 3.63844L146.919 3.21744C148.198 3.74344 148.469 2.45344 149.199 2.72244C147.343 2.23544 149.587 1.61144 150.161 1.14944C149.363 1.25544 148.638 1.19844 148.2 0.908443C147.045 1.62044 145.763 0.672443 144.65 1.51444C144.033 1.42344 145.188 1.13444 144.536 1.12444C143.338 1.07244 142.069 1.18244 140.803 1.50344C140.147 1.49344 140.256 1.24844 140.071 1.02344C136.91 0.729443 135.691 2.02744 132.239 1.75244L132.743 1.45444C132.018 1.39644 131.399 1.30344 131.043 1.69944C130.123 0.779443 127.963 2.30044 126.792 1.31744C125.265 1.15344 125.201 1.95244 124.005 2.11144C124.003 1.89944 124.363 1.50244 123.742 1.41244C119.828 1.77844 116.307 1.87944 111.992 2.08444C112.027 2.00344 112.244 1.93444 112.352 1.90144C109.557 1.84844 106.811 2.77044 104.486 2.50044C104.051 2.63544 102.748 2.82844 103.151 3.19944C103.694 3.24444 103.774 3.71344 103.74 4.00744C101.677 4.43644 102.718 3.33444 101.339 3.47844C100.895 2.76644 102.204 2.99644 102.198 2.36144L100.207 2.83644C99.08 2.62144 97.959 3.03744 96.976 2.70744C97.413 2.78244 97.113 2.16944 97.843 2.43744C97.733 2.47044 97.807 2.51844 97.698 2.55344C99.369 2.59944 98.604 2.20144 100.09 2.02444C98.784 2.21744 97.009 2.41344 95.845 2.27944C96.105 2.76344 94.905 2.49944 94.581 2.81244L94.508 2.76444C94.51 2.97644 93.79 3.12944 93.569 3.19744L93.273 2.58044C92.764 2.66744 93.42 2.88944 92.913 2.97444C92.193 3.12844 89.613 3.22144 89.425 2.57044C88.552 2.62944 88.303 2.98944 87.398 2.91544C87.468 2.75244 87.685 2.68544 87.717 2.60444C85.795 2.49344 83.438 2.72644 81.616 2.37144C80.134 2.54944 78.864 2.65944 77.927 3.09244C78.325 3.04044 79.489 3.17544 78.765 3.54044C78.369 3.80544 77.752 3.71244 77.137 3.83144C77.278 3.50644 75.572 3.53944 76.803 3.30044C76.485 2.59344 74.145 3.46544 74.158 2.75944C73.871 2.97744 72.118 2.86844 71.466 3.25444C71.317 2.94644 72.41 3.03344 72.406 2.82144L71.609 2.92744L71.607 2.71644C70.078 2.55144 69.801 3.41744 68.896 3.55744L68.93 3.47544L68.315 3.59444L69.033 3.01744C68.055 3.10944 67.554 3.61944 66.466 3.74444L66.356 3.56544L65.702 3.76844C65.812 3.73444 65.848 3.65244 65.777 3.60444C65.163 4.14744 63.747 3.95144 63.172 4.41244C62.736 4.33644 62.363 3.66944 61.788 4.13344L61.89 3.46444C63.34 3.36844 62.436 3.93144 63.96 3.67144C62.825 2.82044 59.669 2.94844 57.564 3.03244C55.866 3.49044 53.062 2.80244 52.347 3.80244L52.524 3.39444L49.655 3.08044C47.224 3.26944 44.717 2.98444 42.872 3.55444L42.36 3.21944C40.453 4.37744 35.833 3.75544 34.58 5.13644C33.49 4.83944 34.902 4.61244 35.008 4.36744C34.207 4.26244 32.875 5.17144 32.106 4.55944C32.104 4.34844 33.229 4.35244 32.72 4.22744C32.136 3.84244 31.892 4.62644 31.231 4.19444C31.526 4.59744 30.188 5.08344 29.212 5.17444C29.393 5.18944 29.393 5.18944 29.47 5.23744C29.615 5.54644 28.887 5.48844 28.489 5.53944C28.489 5.53944 28.525 5.45944 28.632 5.42444C23.597 5.99644 17.831 6.29844 12.527 5.96144L13.501 5.65744C12.742 5.89244 11.395 5.74344 10.962 5.66744L11.072 5.63444C9.649 5.01244 9.48 6.26644 8.384 5.54544L8.598 5.47744C6.893 5.51144 5.873 4.83844 4.208 5.21244C2.896 4.98144 3.037 4.65344 2.126 4.36944C1.365 4.39244 1.01 4.78844 0.972 4.86944L1.337 4.89944C1.74 5.26944 0.542 5.21644 0 5.38444C0.405 5.96644 0.198 6.88144 1.731 7.46844C2.853 7.26244 2.832 8.40344 4.099 8.29244C4.816 7.50344 5.921 8.85944 7.073 8.14844C6.462 8.69244 8.455 8.42744 7.448 9.02444C7.924 9.44344 9.908 8.54244 10.824 9.03944C10.677 9.15744 10.714 9.28444 10.498 9.35344C11.767 9.03144 11.374 9.71944 12.317 9.70944L12.276 9.15644C12.638 8.97244 12.751 9.36244 13.075 9.26244C12.818 9.19844 12.274 8.94344 12.558 8.71344C12.992 8.57844 13.354 8.39544 13.825 8.39044C13.832 8.60244 13.505 8.70244 13.284 8.77144C13.284 8.77144 14.305 8.81044 14.378 9.07044C14.016 9.25144 13.545 9.25644 13.226 9.57044C14.568 9.71944 13.335 9.74744 13.993 10.1794C13.803 9.53144 15.152 9.89144 15.874 9.73844C15.952 9.99844 15.367 9.82544 15.189 10.0224C16.583 11.1504 17.256 9.80644 19.035 10.0324C19 10.1144 18.783 10.1824 18.673 10.2164C19.509 10.0284 20.097 10.6254 20.636 10.2444C21.437 10.3514 20.789 10.9784 22.024 10.9484C21.654 10.2844 23.477 11.0634 23.503 10.3474L24.453 10.7604C25.285 10.3624 24.219 9.55744 25.852 9.47544C27.343 9.72244 25.722 10.6524 26.596 11.0154L26.956 10.6214L27.686 10.8914L27.576 10.9254C28.01 10.7914 28.808 10.8974 28.812 11.1074C28.742 11.2714 28.268 11.2764 28.202 11.4404C28.92 11.0744 31.077 12.3884 31.826 11.3054C32.256 11.4914 33.138 11.4794 33.028 11.8214C33.413 11.3434 34.962 11.9514 35.535 11.6434C35.461 11.8074 36.01 12.0624 36.444 11.9294C35.86 11.7554 36.223 11.5734 36.616 11.3074C37.131 11.6454 38.578 11.3384 38.804 11.9054C39.599 11.5874 39.303 11.1844 39.476 10.7734C39.991 11.1114 41.624 11.0294 41.342 11.6834C40.902 11.6084 39.921 11.4864 40.11 11.9244C40.947 12.1584 40.47 11.7414 41.157 11.6694C41.107 11.7884 41.629 12.0664 41.498 12.2574C41.904 12.1824 42.472 12.1834 43.052 12.2874C42.145 12.0014 43.627 11.8244 43.081 11.5704L42.216 12.0514C41.163 12.0934 41.992 11.6954 41.591 11.5354C43.442 11.3864 43.07 10.7214 44.808 10.3954C45.135 10.5054 45.717 10.6784 45.9 10.6944C45.32 10.7324 45.437 11.3344 45.768 11.4444C46.736 10.9294 47.512 11.7514 48.312 11.8584C47.618 11.7184 47.979 11.3244 48.23 11.1754C49.895 10.8014 48.887 11.3964 49.616 11.6654C52.189 11.5744 53.832 12.3414 55.894 11.9144L54.91 11.3684L54.589 11.8934C53.822 11.4934 54.719 10.7194 55.15 10.3734C55.262 10.5524 56.533 10.4404 56.028 10.7394L57.26 10.4994C57.074 10.2734 56.277 10.3784 56.851 10.1274C57.258 10.2874 58.526 10.3894 57.733 10.7064C58.385 10.7164 59.217 10.5294 59.07 10.2204C60.121 10.1784 58.967 10.8894 58.501 11.1064C59.334 11.1304 59.231 11.5864 58.98 11.7364L60.138 11.6604C59.887 11.8074 59.889 12.0194 59.639 12.1684C60.403 12.3564 60.941 11.7654 61.596 12.1994L61.883 11.7544C63.991 12.0944 63.775 12.1594 65.737 12.1904L65.407 11.8664C66.886 11.2664 66.499 12.3784 68.493 12.1154C69.615 11.9074 70.341 11.7534 70.188 11.2324C70.837 11.0314 70.987 11.3404 71.282 11.5324C71.785 11.2344 72.867 10.6854 73.668 11.0034C73.127 11.1704 72.693 11.3064 72.186 11.3944C72.338 11.9114 73.928 11.4894 74.764 11.7254C75.343 11.4744 77.224 10.8214 78.27 10.3544C77.792 9.93544 77.966 9.31544 78.905 8.88144C78.763 9.20944 80.18 9.19544 80.833 9.41844C80.513 9.72944 82.294 10.1664 80.919 10.3114C80.518 10.1534 80.331 9.71344 79.787 9.88244C80.118 10.2054 80.996 10.5724 81.905 10.8564C81.837 11.0204 81.365 11.2354 80.894 11.2394C81.149 11.0934 81 10.9954 80.962 10.8654Z" fill="#C83F45"/>
</svg>
