<svg width="839" height="13" viewBox="0 0 839 13" fill="none" xmlns="http://www.w3.org/2000/svg">
<g style="mix-blend-mode:multiply">
<path d="M830.291 2.8717L828.182 2.8947C828.376 2.9267 828.956 2.9287 830.291 2.8717Z" fill="#C83F45"/>
<path d="M832.186 3.33558C832.236 3.33958 832.316 3.33658 832.362 3.34058C832.335 3.32058 832.282 3.32258 832.186 3.33558Z" fill="#C83F45"/>
<path d="M157.326 12.129C156.547 12.167 155.878 12.216 155.511 12.293C156.63 12.259 157.144 12.198 157.326 12.129Z" fill="#C83F45"/>
<path d="M281.729 2.52551C281.676 2.57651 281.64 2.61851 281.64 2.65951C281.825 2.62551 281.884 2.58151 281.729 2.52551Z" fill="#C83F45"/>
<path d="M805.634 3.14076C805.958 3.15176 806.29 3.15976 806.594 3.17376C806.79 3.05776 805.872 3.06976 805.634 3.14076Z" fill="#C83F45"/>
<path d="M125.182 11.6857C125.075 11.7227 124.98 11.7617 124.927 11.8127C125.075 11.7637 125.135 11.7247 125.182 11.6857Z" fill="#C83F45"/>
<path d="M729.404 1.11047C729.119 1.13447 728.811 1.14647 728.51 1.16047C728.828 1.16247 729.146 1.15047 729.404 1.11047Z" fill="#C83F45"/>
<path d="M306.811 12.0753C307.251 12.0233 307.497 11.9713 307.618 11.9193C307.124 11.9503 306.766 11.9983 306.811 12.0753Z" fill="#C83F45"/>
<path d="M307.203 10.7721C300.87 11.1621 308.559 11.5201 307.618 11.9191C309.309 11.8081 312.911 11.8741 311.208 11.5771C314.529 12.3671 321.248 11.1121 324.84 11.7391C324.994 11.6591 322.915 11.4021 325.399 11.2001C329.113 11.1121 328.843 11.4871 330.359 11.6451C331.462 11.4141 337.105 11.2391 336.558 11.3531C339.027 11.1521 333.926 10.5771 337.373 10.2261C339.707 9.68512 342.883 10.1321 345.635 9.97912C348.946 10.3461 342.333 10.2481 340.961 10.4311L350.324 10.1641C353.08 10.4341 349.089 10.6891 346.328 10.6311C350.062 10.9621 354.873 10.6411 355.974 10.1991C358.317 10.2911 359.556 10.1901 361.761 10.3641C359.568 10.6151 359.706 11.3801 356.268 11.5181C350.612 11.4821 358.318 10.9261 353.506 10.8231L353.094 11.2821C351.031 11.0261 349.388 11.3711 347.174 11.4101C345.937 11.2981 347.444 11.2461 348.27 11.1781C344.271 11.2211 341.09 10.9841 338.072 11.5121C343.46 11.9231 351.579 11.3341 353.936 11.8501L364.667 11.1891C364.666 10.9761 360.935 10.6441 363.966 10.3271C365.213 10.8611 368.381 11.1001 372.522 11.1861C370.992 10.6041 379.132 10.6471 377.054 10.1811C375.126 10.4801 374.157 9.99212 373.886 9.94512C377.886 9.90212 374.426 9.40512 376.625 9.36812C383.933 9.48012 376.355 9.74312 383.527 9.93712C382.012 10.2021 378.154 10.7971 374.173 11.0521C374.451 11.3111 378.155 11.0081 379.83 11.2991C377.477 10.9951 381.472 10.7421 379.538 10.6151C385.329 10.3571 392.074 9.73712 399.097 9.59012C398.004 10.4581 387.257 10.2711 389.473 11.2921C392.916 11.1531 392.902 10.7301 395.664 10.7881C398.006 11.3031 403.789 10.8341 408.485 10.8071L406.407 10.5511C408.193 10.3341 411.495 10.4891 413.573 10.5341L413.031 10.6501L415.074 10.4811C415.394 10.5031 415.468 10.5301 415.462 10.5631C417.712 10.2901 423.455 10.5341 427.761 10.3701C427.756 9.94612 423.492 10.3621 421.429 10.3191C420.867 10.2231 416.881 10.0531 418.81 9.75612C424.164 9.74212 427.889 9.22812 433.949 9.22912L432.022 9.10512C433.948 8.80712 436.563 8.94712 439.451 8.92212C444.698 9.20312 435.6 9.52012 438.778 9.75712C436.72 10.1361 433.13 9.72012 432.586 10.2591L435.89 10.8381C438.65 10.4741 441.691 11.0031 443.626 10.9181L441.548 10.6621C441.955 10.2051 443.883 10.5431 444.856 10.6051L443.458 9.94112C440.434 9.83412 438.367 10.4251 436.167 10.0401C441.531 9.81512 440.293 9.27912 446.761 9.24912C447.052 9.50812 445.515 9.34912 444.845 9.54512C447.053 9.72012 449.378 9.17712 452.96 9.38012C450.909 9.54712 447.593 9.81712 450.221 10.1691L452.14 9.66112C453.793 9.73712 453.116 9.93412 453.794 9.94912C456.145 10.0401 453.251 9.42812 456.966 9.54912C457.52 9.64712 458.753 9.75712 458.212 9.87212C462.481 9.88012 460.265 9.70512 464.254 9.45112C460.681 9.46012 460.541 8.69512 464.252 8.60412C469.488 8.67412 473.058 8.24112 476.655 8.86712L478.995 8.53612C477.493 9.01212 482.31 8.69112 483.968 8.76812C484.519 9.28812 476.113 8.77112 476.115 9.61712C479.558 9.69112 478.057 9.95512 476.949 10.1851C480.676 10.0971 478.327 9.58012 479.972 9.23412C479.978 9.44612 486.318 9.28412 484.119 9.74612C487.287 9.77012 487.833 9.23112 490.169 9.32412C489.816 9.53312 489.412 9.80112 489.636 10.0681C489.912 9.89212 492.905 10.1011 493.485 10.1151C492.938 10.0171 494.58 9.67112 491.83 9.82412C492.515 9.41612 498.31 9.79312 498.157 9.45212C498.445 9.92112 504.087 9.53612 506.979 9.72412C506.692 8.61612 501.617 10.1591 500.642 9.25112C504.491 8.86512 513.594 9.18612 519.792 8.68212C525.158 8.88112 519.793 9.10612 520.893 9.51112C515.943 9.70312 514.697 9.37912 510.421 9.58612C515.111 9.76812 522.822 9.63612 526.261 9.28712C531.369 9.22612 531.934 10.3791 538.132 10.0881C537.306 9.73412 537.442 9.65012 535.505 9.52312C537.156 9.39112 539.092 9.51512 540.878 9.51112C541.974 9.28112 538.116 9.24312 540.594 9.03912C541.56 9.10312 543.625 9.14712 543.219 9.39212L542.806 9.42612C548.725 9.08612 547.09 10.2791 552.177 9.58412C551.766 9.40612 550.662 9.63512 549.417 9.52212C548.456 9.25012 551.608 8.85212 553.964 8.73112C553.543 8.97712 556.027 8.77412 557.677 8.85212C558.784 9.25712 553.543 8.97712 552.72 9.25512L557.271 9.30912L556.313 9.24712L561.262 8.84412C557.812 8.98212 559.604 8.34312 561.12 8.29012C564.558 8.36412 568.01 8.43712 567.597 8.89412C568.01 8.43712 572.279 8.44412 575.311 8.33712C572.002 8.18212 574.891 7.94812 575.851 7.79912L580.816 8.24212C575.581 8.38512 581.921 8.64712 580.691 8.96112C579.183 9.43712 576.009 9.20112 573.248 9.14212C578.637 9.97612 580.825 8.66812 585.515 9.06212C585.516 9.27312 585.104 9.52012 583.041 9.47712C583.867 9.61912 587.31 9.05812 590.483 9.29512C589.65 9.14912 587.857 8.73112 591.015 8.54412L595.159 9.05612C599.983 9.15912 596.807 8.49812 600.792 8.24512L598.18 7.89212C598.586 7.43412 603.551 7.88012 603.68 7.37412C601.204 7.36312 599.821 7.75712 597.219 7.61912C596.237 7.13112 600.521 7.34912 602.015 7.08412C607.399 7.28412 606.292 7.30312 610.299 7.68412C610.449 8.44912 603.691 8.64512 604.546 9.63712C609.776 9.49412 617.354 9.23112 620.793 9.51612C625.479 9.27712 625.053 8.67512 624.361 8.23712C626.297 8.15012 627.251 8.21512 628.495 8.32412L626.298 8.57612C632.082 8.31612 635.383 8.04712 641.454 8.05012C644.884 7.91112 643.501 7.45812 642.677 7.10112L646.397 7.01012L645.831 6.91412C646.661 6.42312 649.967 6.57912 652.445 6.59012C652.454 6.80112 650.938 6.85412 651.079 6.98412C653.279 7.15712 656.591 7.10112 658.374 6.88412C658.381 7.09612 656.873 7.57212 654.254 7.43212C653.977 7.38312 654.113 7.30312 653.84 7.25312L649.43 7.54112C654.524 7.26912 657.565 7.79812 657.436 8.30412C662.532 8.03112 653.288 7.79312 659.351 7.58412C667.35 8.55712 674.507 7.27112 678.936 8.67712C682.646 8.37412 687.051 7.87412 692.839 7.82912C692.838 7.40412 696.703 7.65712 696.14 7.13512C690.617 6.59612 685.817 7.97512 681.387 7.20412C678.919 7.40512 679.751 7.76112 678.642 7.99112C676.45 8.03012 674.379 7.98612 674.093 7.72612C679.188 7.45312 675.46 6.69712 681.932 6.66512C681.109 6.30812 675.864 6.45112 673.53 6.35912C674.213 6.16312 673.515 5.93712 671.999 5.77712C673.656 5.43112 677.361 5.12912 679.288 4.83012C678.61 5.02712 679.855 5.13912 679.298 5.25512L686.044 4.63612C688.116 4.89112 688.679 5.20012 687.569 5.43012C691.298 5.55112 697.618 4.96612 697.638 5.60212C702.455 5.49212 696.109 5.23012 695.695 5.05112L696.108 5.01912L691.012 5.08012C690.449 4.34812 696.805 5.24512 697.617 4.54212C698.417 3.20512 704.795 4.94912 708.368 4.73012L704.241 5.69912L707.828 5.48012C705.766 5.85912 705.774 6.49412 702.615 6.89312C707.567 6.91212 714.605 7.18912 717.778 7.00212C719.016 7.32612 719.564 7.63512 719.018 7.96012C723.976 7.34512 726.739 8.25212 731.016 8.25812C735.55 7.88912 726.462 7.78012 729.763 7.30012C731.136 7.54112 733.62 7.33912 734.857 7.23912C733.484 7.42112 728.655 7.10712 725.342 6.95112C727.827 6.96312 727.549 6.49112 728.239 6.29412L724.096 6.20512C724.365 5.61812 729.19 6.14612 731.112 5.84712C729.888 6.37112 730.566 6.38612 729.34 6.91012C732.92 6.68912 738.294 6.67812 741.334 6.99512C743.127 7.20312 739.825 7.25912 738.857 7.40912C739.683 7.76512 742.435 7.18812 743.128 7.62812C742.579 7.95412 740.929 7.66512 739.683 7.76512L750.158 7.90412C750.158 8.11412 747.546 8.18712 745.896 8.10812C749.071 8.34612 751.403 8.22512 755.117 7.50012C758.698 7.70312 762.829 8.00212 761.609 8.31412C763.258 8.18112 762.156 7.98812 762.143 7.77512C766.973 7.87912 767.506 7.12712 770.397 7.10512L768.203 6.71912C772.883 7.11612 769.29 6.06512 773.425 6.36512C772.75 6.77412 773.022 7.24512 773.719 7.68412C774.402 7.27512 777.027 7.62712 778.815 7.62312C777.704 7.21812 782.661 7.23912 779.768 6.83912C783.907 6.50112 785.831 7.05112 788.861 6.52212C786.938 6.39712 792.436 6.09112 790.774 5.80112C794.779 5.76012 797.534 6.24212 796.446 6.68612C795.061 6.65612 792.847 6.48112 793.002 6.82312L800.296 6.72612C802.103 6.93212 804.432 7.02312 804.723 7.49512C807.055 6.95212 811.612 7.85512 813.397 7.21312C810.922 7.62712 808.979 7.07912 808.031 7.01512L809.161 6.92212C808.998 6.92312 808.814 6.91512 808.572 6.89912L811.722 6.07712C808.692 5.76012 811.184 6.61512 806.901 6.60912C803.186 5.85412 815.301 5.43612 811.436 4.97012C808.271 4.73312 808.827 5.46512 806.216 5.74912L806.899 5.76412L800.978 6.10412C800.7 5.84412 802.492 5.62612 802.492 5.62612C795.32 5.64512 794.211 5.24012 786.496 5.16012C787.056 5.25812 788.571 6.05212 785.129 6.19112C782.659 6.39212 782.371 5.92012 780.313 5.87512C781.543 5.77512 782.647 5.33212 784.298 5.62212L784.162 5.06812C789.938 4.38712 786.906 3.85712 794.754 3.64212C795.113 3.23512 800.801 3.01112 805.072 3.12012L803 2.75912C807.399 2.04912 803.834 3.32812 809.476 2.72812C811.825 3.45612 816.116 4.30712 812.952 4.91812C816.952 5.08612 818.316 4.69312 821.912 4.68512C824.118 5.28212 820.812 5.34012 821.229 5.94112C823.855 5.86912 827.156 5.60112 825.21 5.26412L830.188 5.49512C830.32 5.62512 828.539 5.62812 827.84 5.61512C829.775 5.74112 833.491 5.43912 834.585 5.20912C834.177 5.24212 832.928 5.34312 832.386 5.24612C834.451 5.07912 838.166 4.77612 838.436 4.61312C835.411 4.92812 835.133 4.24512 831.966 4.64412C832.236 4.48112 832.779 4.15312 834.435 4.23012C831.813 3.87812 829.197 3.94912 828.094 3.54512C830.306 3.84512 831.72 3.40012 832.186 3.33512C830.204 3.22312 826.256 3.34412 824.926 3.52112C824.633 2.83812 817.214 3.65412 819.815 2.94712C819.403 3.19212 816.508 3.21512 814.988 3.05712C815.126 2.76112 818.976 2.59112 820.628 2.24512C828.346 1.89912 820.493 2.74912 822.294 2.95812L828.183 2.89512C827.59 2.79812 830.54 2.41212 826.698 2.45912C828.482 2.03012 832.196 1.72812 835.227 2.04712C835.924 1.84812 833.713 1.88712 833.027 1.87312C833.712 1.67512 837.426 0.949119 832.601 0.847119C833.981 0.876119 830.261 1.17812 832.743 1.40112C830.815 1.48612 825.578 1.20712 827.648 0.826119C825.3 0.945119 820.896 1.23312 818.968 1.32012C818.411 1.01012 820.618 1.18612 821.586 1.03712L814.825 1.23312L816.761 1.56912C811.804 1.33612 808.642 2.15912 804.651 2.41412C805.197 1.87412 808.508 1.81712 811.119 1.53512C808.619 0.888119 809.474 1.87912 805.333 1.79212C804.777 1.69512 804.635 1.56512 804.905 1.40112L801.613 1.88212C800.65 1.82012 801.193 1.70312 801.612 1.67012C795.963 2.27112 801.754 2.43612 794.176 2.69912C798.738 2.96412 798.048 2.31512 801.89 2.35512C804.111 2.74112 797.5 3.06512 796.389 3.29412C792.676 3.17412 792.249 2.36212 787.566 2.81212C790.868 2.54412 787.701 2.30612 792.383 2.27912C795 1.99612 790.999 2.03912 790.452 1.73012C789.216 1.83112 791.278 2.29812 787.836 2.22512L787.972 2.14412L782.336 2.74312C777.086 2.46312 770.496 3.42312 766.902 2.79712L767.736 3.36512C764.434 3.42112 759.748 3.45012 757.408 3.56912C757.949 3.24212 760.157 3.20512 762.496 3.08512C756.563 3.00112 751.339 3.35512 747.349 3.82112C750.251 4.22212 750.668 4.18912 753.425 4.45812C749.577 5.26412 748.865 3.97912 743.905 4.38312C743.768 3.83012 745.42 3.90612 744.18 3.37112C742.118 3.75212 738.667 3.67912 736.326 4.01112C735.079 3.47512 737.273 3.01412 742.372 2.95312C746.236 3.41712 750.499 2.57612 753.68 3.02412L751.745 2.68512C755.608 2.51312 757.942 2.60612 761.242 2.33712L761.109 2.41912L762.757 1.86212L760.971 1.86612C762.203 1.55212 765.917 1.03912 767.02 1.02112C761.502 1.11612 761.108 1.99612 758.495 2.49212C753.531 2.47012 751.585 1.49912 748.284 1.97912C748.013 1.71612 745.245 1.44612 747.456 1.19912C750.202 1.04412 752.14 1.38212 752.41 1.00512C749.515 1.03012 750.617 0.799119 746.212 0.875119C745.381 1.36712 742.087 1.84712 738.934 2.24512C735.624 2.51412 731.348 2.50712 728.721 2.36512C732.031 2.31012 735.334 1.82912 734.499 1.47212C732.572 1.98312 728.022 1.08212 728.998 1.77912C725.143 1.74012 718.659 1.77212 718.238 1.17012C721.885 0.939119 725.419 1.29712 728.51 1.16012C727.659 1.14812 726.824 0.999119 727.326 0.855119L731.879 0.910119C728.434 0.624119 729.117 0.427119 724.706 0.503119C724.984 0.551119 725.539 0.647119 725.122 0.679119C724.023 0.699119 722.642 0.670119 721.533 0.690119L721.396 0.137119C718.094 0.404119 711.739 -0.280881 705.691 0.141119L706.234 0.0251194C701.412 -0.0778806 701.01 1.01512 695.773 1.15912C697.288 0.895119 696.592 0.667119 696.321 0.407119C693.709 0.691119 692.321 0.238119 689.698 0.0981194C692.74 0.416119 687.646 0.688119 689.852 0.862119C690.002 1.41712 684.617 1.43012 681.86 1.37112C680.21 0.659119 690.401 0.959119 686.255 0.237119C683.503 0.179119 682.814 0.586119 684.752 0.712119C681.305 0.639119 676.068 0.571119 673.576 0.136119C669.458 0.685119 667.805 0.395119 665.189 1.10112C667.394 1.06412 667.523 0.558119 670.288 0.828119L667.26 1.35612C663.267 1.40012 660.087 0.951119 657.333 0.893119L660.227 0.656119L660.087 0.740119C661.189 0.508119 664.911 0.631119 664.491 0.241119C661.88 0.734119 659.801 0.267119 656.364 0.618119L656.5 0.535119C650.444 0.957119 646.016 -0.237881 642.176 0.782119C643.278 0.763119 645.49 1.14812 644.801 1.34512C643.413 1.10512 639.698 1.19512 639.829 0.901119L641.073 0.800119C637.628 0.728119 635.557 0.684119 634.312 0.784119C633.359 1.14512 634.334 1.42012 631.85 1.62312C625.781 1.40912 634.312 0.784119 630.183 0.484119L624.534 0.873119L623.289 0.550119C614.891 0.244119 608.418 1.33612 599.466 1.35812C599.323 0.804119 605.794 0.561119 607.997 0.521119C605.235 0.0391194 601.251 0.717119 597.529 0.383119C594.076 0.311119 591.474 0.805119 592.021 1.11412C587.76 1.32012 588.987 0.795119 588.442 0.699119C587.059 1.30512 581.688 1.10412 578.253 1.24412L578.094 0.904119L572.73 1.33912C574.11 1.37012 572.874 1.68012 572.876 1.89212L571.501 1.86312C576.752 2.78012 583.338 1.18512 588.728 2.23012C587.079 2.36412 589.29 2.53912 587.632 2.67312C586.259 2.64212 585.982 2.59512 585.84 2.46312C585.014 2.74312 582.815 2.99412 585.711 2.96912C585.578 3.68712 579.785 3.52212 575.8 3.77512C572.626 3.32612 579.101 3.08112 580.746 2.73712C579.23 2.79112 577.988 3.10412 575.786 2.92812L576.326 2.39112C570.823 2.69612 574.824 2.86412 573.582 3.38912C572.086 4.07812 568.626 3.36912 567.112 3.42112L568.762 3.28812C564.493 3.06912 563.532 3.64312 559.683 3.60412L557.875 3.18212C562.714 3.70912 563.786 2.41912 566.549 2.68912C559.516 2.20012 568.056 1.57912 570.254 1.11712C567.217 1.22212 564.468 1.16412 562.815 0.875119C558.406 1.58512 553.572 0.636119 549.318 1.47812C546.976 1.38612 551.374 1.09712 548.896 1.08712C544.35 1.03312 539.527 1.14312 534.71 1.46312C532.22 1.45312 532.645 1.20812 531.948 0.982119C519.956 0.685119 515.283 1.98212 502.188 1.70512L504.11 1.40712C501.362 1.34812 499.014 1.25512 497.65 1.65112C494.187 0.729119 485.936 2.24812 481.523 1.26412C475.731 1.09912 475.462 1.89812 470.913 2.05612C470.913 1.84412 472.293 1.44712 469.939 1.35612C455.068 1.71912 441.697 1.81712 425.307 2.01812C425.443 1.93712 426.269 1.86912 426.68 1.83612C416.07 1.78012 405.611 2.70012 396.794 2.42712C395.137 2.56312 390.183 2.75412 391.704 3.12612C393.765 3.17112 394.049 3.64012 393.913 3.93412C386.065 4.36112 390.054 3.26012 384.814 3.40312C383.154 2.69012 388.115 2.92212 388.113 2.28712L380.536 2.76012C376.265 2.54412 371.995 2.96012 368.274 2.62812C369.932 2.70412 368.813 2.09012 371.575 2.35912C371.156 2.39212 371.437 2.43912 371.02 2.47512C377.365 2.52212 374.472 2.12312 380.121 1.94712C375.155 2.13912 368.409 2.33412 363.996 2.19912C364.966 2.68312 360.418 2.41812 359.18 2.73112L358.903 2.68312C358.903 2.89512 356.163 3.04712 355.323 3.11512L354.219 2.49812C352.284 2.58412 354.769 2.80712 352.84 2.89212C350.1 3.04512 340.302 3.13612 339.611 2.48412C336.295 2.54212 335.337 2.90312 331.903 2.82812C332.173 2.66512 332.999 2.59812 333.127 2.51712C325.833 2.40412 316.875 2.63512 309.971 2.27912C304.337 2.45512 299.51 2.56412 295.94 2.99712C297.453 2.94412 301.868 3.08012 299.108 3.44512C297.593 3.71012 295.255 3.61612 292.916 3.73512C293.462 3.41012 286.982 3.44112 291.663 3.20412C290.482 2.49612 281.568 3.36512 281.64 2.66012C280.544 2.87812 273.893 2.76812 271.403 3.15312C270.849 2.84512 274.996 2.93212 274.987 2.72012L271.958 2.82512V2.61412C266.157 2.44812 265.079 3.31412 261.635 3.45412L261.768 3.37112L259.429 3.49012L262.174 2.91312C258.459 3.00412 256.538 3.51412 252.405 3.63912L251.991 3.46012L249.501 3.66112C249.922 3.62712 250.062 3.54512 249.792 3.49812C247.445 4.04012 242.073 3.84312 239.875 4.30312C238.223 4.22712 236.828 3.56012 234.63 4.02212L235.041 3.35512C240.548 3.26012 237.097 3.82212 242.891 3.56312C238.612 2.71012 226.623 2.83712 218.632 2.91912C212.169 3.37512 201.546 2.68512 198.799 3.68412L199.481 3.27612L188.6 2.96012C179.364 3.14612 169.858 2.85912 162.832 3.42812L160.899 3.09212C153.62 4.24912 136.101 3.62212 131.299 5.00212C127.171 4.70512 132.537 4.47812 132.949 4.23312C129.909 4.12812 124.824 5.03512 121.923 4.42312C121.922 4.21212 126.195 4.21612 124.266 4.09212C122.06 3.70612 121.107 4.48912 118.616 4.05712C119.719 4.46012 114.624 4.94512 110.917 5.03512C111.601 5.05112 111.601 5.05112 111.893 5.09812C112.434 5.40712 109.673 5.34912 108.157 5.40012C108.157 5.40012 108.298 5.32012 108.707 5.28512C89.571 5.85312 67.669 6.14912 47.544 5.80812L51.25 5.50512C48.362 5.73812 43.253 5.58912 41.609 5.51212L42.028 5.47912C36.648 4.85612 35.964 6.11012 31.825 5.38812L32.642 5.32012C26.166 5.35312 22.316 4.67812 15.983 5.05112C11.008 4.81912 11.557 4.49112 8.107 4.20712C5.214 4.22912 3.857 4.62512 3.708 4.70612L5.094 4.73612C6.61 5.10512 2.063 5.05212 0 5.22012C1.518 5.80212 0.702 6.71612 6.502 7.30512C10.77 7.10012 10.65 8.24112 15.468 8.13212C18.214 7.34312 22.366 8.70012 26.761 7.99012C24.423 8.53312 32.001 8.27112 28.157 8.86612C29.952 9.28612 37.514 8.38712 40.975 8.88512C40.413 9.00112 40.547 9.12912 39.728 9.19812C44.553 8.87612 43.039 9.56412 46.619 9.55512L46.482 9.00212C47.863 8.81912 48.279 9.20912 49.514 9.10912C48.538 9.04512 46.482 8.79012 47.567 8.56012C49.221 8.42512 50.602 8.24212 52.388 8.23812C52.409 8.45012 51.164 8.55012 50.324 8.61812C50.324 8.61812 54.196 8.65912 54.467 8.91812C53.086 9.09912 51.297 9.10312 50.076 9.41712C55.165 9.56812 50.483 9.59512 52.966 10.0271C52.269 9.37912 57.379 9.74012 60.125 9.58712C60.41 9.84812 58.196 9.67412 57.513 9.87112C62.767 11.0001 65.37 9.65712 72.117 9.88512C71.981 9.96612 71.154 10.0351 70.736 10.0671C73.915 9.88112 76.126 10.4791 78.186 10.0981C81.224 10.2061 78.743 10.8321 83.431 10.8031C82.05 10.1391 88.947 10.9191 89.067 10.2041L92.661 10.6171C95.834 10.2191 91.812 9.41412 98.017 9.33412C103.667 9.58212 97.484 10.5101 100.787 10.8751L102.168 10.4801L104.93 10.7511L104.51 10.7851C106.166 10.6521 109.189 10.7581 109.198 10.9681C108.928 11.1321 107.13 11.1371 106.871 11.3001C109.611 10.9361 117.754 12.2511 120.634 11.1691C122.26 11.3551 125.61 11.3441 125.183 11.6861C126.658 11.2081 132.521 11.8181 134.705 11.5101C134.42 11.6741 136.495 11.9291 138.149 11.7971C135.936 11.6231 137.322 11.4401 138.823 11.1751C140.767 11.5131 146.271 11.2081 147.108 11.7751C150.138 11.4581 149.028 11.0541 149.697 10.6441C151.64 10.9811 157.843 10.9011 156.75 11.5551C155.086 11.4801 151.364 11.3571 152.068 11.7951C155.236 12.0301 153.441 11.6121 156.051 11.5411C155.857 11.6601 157.827 11.9391 157.326 12.1291C158.868 12.0551 161.026 12.0561 163.226 12.1611C159.788 11.8741 165.424 11.6991 163.358 11.4431L160.059 11.9241C156.059 11.9651 159.22 11.5671 157.704 11.4071C164.733 11.2601 163.344 10.5951 169.953 10.2701C171.193 10.3801 173.396 10.5541 174.09 10.5701C171.885 10.6071 172.312 11.2101 173.563 11.3201C177.256 10.8061 180.176 11.6291 183.207 11.7361C180.581 11.5961 181.961 11.2031 182.922 11.0531C189.253 10.6811 185.406 11.2741 188.168 11.5451C197.937 11.4571 204.152 12.2241 211.994 11.7991L208.276 11.2521L207.04 11.7771C204.141 11.3761 207.572 10.6031 209.221 10.2581C209.641 10.4361 214.467 10.3261 212.541 10.6241L217.228 10.3851C216.529 10.1591 213.498 10.2641 215.686 10.0131C217.227 10.1731 222.037 10.2761 219.014 10.5931C221.49 10.6031 224.656 10.4171 224.108 10.1081C228.099 10.0671 223.696 10.7771 221.916 10.9931C225.078 11.0181 224.672 11.4741 223.717 11.6241L228.115 11.5491C227.157 11.6951 227.158 11.9081 226.204 12.0561C229.097 12.2451 231.161 11.6551 233.634 12.0891L234.737 11.6451C242.728 11.9861 241.908 12.0521 249.355 12.0841L248.111 11.7601C253.747 11.1611 252.242 12.2731 259.82 12.0111C264.088 11.8041 266.848 11.6501 266.285 11.1301C268.755 10.9291 269.317 11.2381 270.429 11.4311C272.348 11.1331 276.475 10.5851 279.507 10.9041C277.444 11.0701 275.793 11.2061 273.864 11.2931C274.427 11.8111 280.476 11.3901 283.643 11.6271C285.85 11.3761 293.014 10.7251 296.999 10.2591C295.197 9.83912 295.879 9.21912 299.458 8.78612C298.91 9.11412 304.29 9.10212 306.76 9.32512C305.536 9.63512 312.283 10.0741 307.059 10.2181C305.543 10.0601 304.846 9.62012 302.776 9.78812C304.021 10.1121 307.34 10.4791 310.783 10.7641C310.519 10.9281 308.721 11.1421 306.933 11.1461C307.907 11.0001 307.341 10.9021 307.203 10.7721Z" fill="#C83F45"/>
<path d="M414.683 10.7271C414.954 10.7051 415.453 10.6281 415.462 10.5621C415.123 10.6051 414.827 10.6561 414.683 10.7271Z" fill="#C83F45"/>
<path d="M489.764 10.2047C489.683 10.1587 489.669 10.1127 489.636 10.0677C489.574 10.1007 489.589 10.1417 489.764 10.2047Z" fill="#C83F45"/>
<path d="M810.501 6.8136L809.161 6.9226C809.649 6.9226 809.878 6.8646 810.501 6.8136Z" fill="#C83F45"/>
<path d="M805.634 3.14075C805.444 3.13375 805.262 3.12475 805.072 3.11975L805.762 3.24075C805.533 3.19975 805.533 3.16675 805.634 3.14075Z" fill="#C83F45"/>
</g>
</svg>
