<svg width="237" height="12" viewBox="0 0 237 12" fill="none" xmlns="http://www.w3.org/2000/svg">
<path d="M86.601 9.87005C84.816 10.2461 86.983 10.6201 86.717 11.0181C87.194 10.9111 88.209 10.9851 87.73 10.6841C88.665 11.4811 90.56 10.2421 91.572 10.8761C91.616 10.7971 91.03 10.5361 91.73 10.3391C92.778 10.2591 92.701 10.6331 93.129 10.7951C93.44 10.5671 95.03 10.4051 94.876 10.5161C95.572 10.3211 94.135 9.73505 95.107 9.39205C95.765 8.85605 96.66 9.31005 97.436 9.16305C98.369 9.53805 96.505 9.42505 96.118 9.60405L98.758 9.35905C99.534 9.63505 98.409 9.88105 97.631 9.81705C98.684 10.1571 100.04 9.84605 100.351 9.40705C101.011 9.50405 101.36 9.40505 101.982 9.58405C101.364 9.83005 101.402 10.5961 100.433 10.7261C98.838 10.6781 101.011 10.1391 99.654 10.0251L99.538 10.4831C98.956 10.2221 98.493 10.5641 97.869 10.5981C97.52 10.4831 97.945 10.4341 98.178 10.3681C97.051 10.4021 96.154 10.1581 95.303 10.6801C96.822 11.1021 99.111 10.5311 99.775 11.0531L102.801 10.4151C102.801 10.2031 101.749 9.86205 102.604 9.55305C102.955 10.0891 103.848 10.3341 105.015 10.4301C104.584 9.84505 106.879 9.90705 106.293 9.43505C105.75 9.73005 105.477 9.24005 105.4 9.19305C106.528 9.15805 105.553 8.65405 106.173 8.62205C108.233 8.75005 106.097 8.99605 108.118 9.20605C107.691 9.46705 106.603 10.0541 105.481 10.3001C105.559 10.5601 106.603 10.2651 107.075 10.5601C106.412 10.2501 107.538 10.0061 106.993 9.87505C108.626 9.63005 110.528 9.02505 112.508 8.89405C112.199 9.75905 109.17 9.54805 109.794 10.5741C110.764 10.4431 110.761 10.0201 111.539 10.0841C112.199 10.6041 113.83 10.1481 115.154 10.1321L114.568 9.87105C115.072 9.65805 116.002 9.82105 116.588 9.87005L116.436 9.98505L117.011 9.82105C117.101 9.84305 117.122 9.87105 117.121 9.90305C117.755 9.63505 119.374 9.89205 120.588 9.73705C120.587 9.31405 119.385 9.72105 118.803 9.67305C118.645 9.57605 117.521 9.39605 118.065 9.10405C119.575 9.10205 120.625 8.59705 122.333 8.61105L121.79 8.48305C122.333 8.18805 123.07 8.33505 123.885 8.31705C125.364 8.60905 122.799 8.90505 123.694 9.14905C123.114 9.52405 122.102 9.10005 121.949 9.63805L122.879 10.2241C123.658 9.86605 124.515 10.4021 125.06 10.3211L124.475 10.0611C124.59 9.60405 125.133 9.94705 125.407 10.0121L125.013 9.34505C124.161 9.23005 123.578 9.81705 122.958 9.42705C124.471 9.21405 124.122 8.67505 125.945 8.66005C126.027 8.92005 125.594 8.75605 125.405 8.95205C126.027 9.13105 126.683 8.59305 127.693 8.80505C127.115 8.96705 126.179 9.23005 126.92 9.58705L127.461 9.08305C127.927 9.16305 127.736 9.35905 127.927 9.37505C128.59 9.47205 127.775 8.85305 128.822 8.98305C128.978 9.08105 129.326 9.19505 129.173 9.30805C130.377 9.32605 129.752 9.14505 130.877 8.90105C129.869 8.90105 129.83 8.13705 130.877 8.05405C132.353 8.13505 133.359 7.71105 134.373 8.34505L135.033 8.01805C134.609 8.49105 135.967 8.18205 136.435 8.26205C136.59 8.78305 134.22 8.24705 134.22 9.09305C135.191 9.17505 134.768 9.43505 134.455 9.66305C135.506 9.58305 134.844 9.06105 135.308 8.71905C135.309 8.93105 137.097 8.78305 136.477 9.24005C137.37 9.27105 137.524 8.73305 138.182 8.83105C138.083 9.03905 137.969 9.30705 138.032 9.57405C138.11 9.39905 138.953 9.61505 139.117 9.63005C138.963 9.53105 139.426 9.18805 138.65 9.33605C138.844 8.92905 140.477 9.31905 140.434 8.97705C140.515 9.44805 142.106 9.07405 142.921 9.26905C142.841 8.16105 141.409 9.69305 141.135 8.78205C142.22 8.40505 144.786 8.74605 146.534 8.25605C148.047 8.46705 146.534 8.68005 146.844 9.08805C145.448 9.26805 145.097 8.94105 143.892 9.13905C145.214 9.33105 147.387 9.21705 148.357 8.87505C149.797 8.82605 149.956 9.98005 151.703 9.70305C151.471 9.34705 151.509 9.26405 150.963 9.13205C151.429 9.00405 151.974 9.13205 152.478 9.13205C152.787 8.90505 151.699 8.85705 152.398 8.66005C152.67 8.72605 153.253 8.77505 153.138 9.01805L153.022 9.05105C154.69 8.72405 154.229 9.91405 155.663 9.23005C155.547 9.05105 155.236 9.27805 154.885 9.16305C154.614 8.88805 155.503 8.49705 156.167 8.38205C156.049 8.62605 156.749 8.43005 157.214 8.51105C157.526 8.91805 156.049 8.62605 155.816 8.90305L157.099 8.96705L156.829 8.90305L158.225 8.51105C157.252 8.64105 157.758 8.00605 158.185 7.95605C159.154 8.03805 160.127 8.11805 160.011 8.57505C160.127 8.11805 161.331 8.13505 162.186 8.03605C161.253 7.87305 162.068 7.64505 162.338 7.49805L163.738 7.95305C162.262 8.08405 164.049 8.36105 163.702 8.67105C163.277 9.14405 162.382 8.90105 161.604 8.83605C163.122 9.68205 163.74 8.37905 165.062 8.78305C165.062 8.99505 164.946 9.24005 164.364 9.19305C164.597 9.33705 165.568 8.78305 166.462 9.02705C166.228 8.88005 165.722 8.45705 166.613 8.27805L167.781 8.79805C169.141 8.91205 168.246 8.24405 169.369 8.00005L168.633 7.64105C168.748 7.18405 170.147 7.64105 170.184 7.13605C169.486 7.12005 169.096 7.51105 168.362 7.36605C168.086 6.87605 169.293 7.10405 169.715 6.84105C171.232 7.05405 170.92 7.07005 172.05 7.46105C172.091 8.22505 170.186 8.40705 170.427 9.40105C171.901 9.26905 174.038 9.02405 175.007 9.31605C176.328 9.08805 176.209 8.48505 176.013 8.04505C176.559 7.96305 176.829 8.02905 177.179 8.14105L176.559 8.38805C178.19 8.14105 179.121 7.88005 180.833 7.89605C181.799 7.76505 181.41 7.30805 181.178 6.95005L182.227 6.86705L182.067 6.77005C182.301 6.28205 183.233 6.44405 183.932 6.46105C183.934 6.67205 183.507 6.72205 183.547 6.85205C184.167 7.03005 185.1 6.98005 185.603 6.76805C185.605 6.98005 185.179 7.45305 184.441 7.30705C184.363 7.25705 184.402 7.17805 184.325 7.12705L183.081 7.40505C184.518 7.14405 185.375 7.68105 185.338 8.18605C186.775 7.92505 184.169 7.66505 185.878 7.47005C188.133 8.46105 190.151 7.19105 191.399 8.60705C192.445 8.31205 193.687 7.82205 195.319 7.79005C195.319 7.36605 196.408 7.62605 196.25 7.10405C194.693 6.55205 193.339 7.92105 192.091 7.14005C191.395 7.33505 191.629 7.69305 191.316 7.92105C190.698 7.95505 190.114 7.90705 190.034 7.64505C191.471 7.38305 190.42 6.62005 192.244 6.60205C192.013 6.24305 190.534 6.37405 189.876 6.27705C190.069 6.08205 189.872 5.85405 189.445 5.69105C189.912 5.34905 190.957 5.05605 191.501 4.76105C191.309 4.95605 191.66 5.07105 191.503 5.18605L193.405 4.58205C193.989 4.84105 194.148 5.15205 193.834 5.38005C194.886 5.50905 196.668 4.93805 196.673 5.57405C198.031 5.47505 196.242 5.19805 196.126 5.01905L196.242 4.98705L194.805 5.03705C194.647 4.30405 196.438 5.21505 196.668 4.51405C196.894 3.17905 198.691 4.93605 199.698 4.72505L198.534 5.68605L199.546 5.47505C198.964 5.84905 198.966 6.48405 198.075 6.87605C199.471 6.90705 201.455 7.19905 202.35 7.01905C202.699 7.34605 202.853 7.65605 202.699 7.98005C204.097 7.37605 204.875 8.28905 206.081 8.30505C207.36 7.94605 204.797 7.81705 205.728 7.34405C206.115 7.58805 206.816 7.39205 207.164 7.29505C206.777 7.47305 205.416 7.14905 204.482 6.98505C205.183 7.00305 205.105 6.53005 205.299 6.33505L204.131 6.23605C204.208 5.65005 205.568 6.18805 206.11 5.89305C205.764 6.41505 205.955 6.43205 205.61 6.95305C206.619 6.74105 208.134 6.74105 208.991 7.06405C209.496 7.27705 208.565 7.32605 208.292 7.47305C208.525 7.83105 209.301 7.26005 209.496 7.70205C209.341 8.02705 208.876 7.73305 208.525 7.83105L211.478 7.99405C211.478 8.20405 210.741 8.27005 210.276 8.18805C211.171 8.43305 211.829 8.31705 212.876 7.60005C213.885 7.81205 215.05 8.12005 214.706 8.43005C215.171 8.30005 214.86 8.10405 214.856 7.89205C216.218 8.00605 216.369 7.25605 217.184 7.24005L216.566 6.84905C217.885 7.25605 216.872 6.19705 218.038 6.50705C217.847 6.91405 217.924 7.38505 218.12 7.82605C218.313 7.41905 219.053 7.77705 219.557 7.77705C219.244 7.36905 220.641 7.40105 219.826 6.99505C220.993 6.66605 221.535 7.22105 222.389 6.69905C221.847 6.56905 223.398 6.27505 222.929 5.98105C224.058 5.95005 224.835 6.43705 224.528 6.87905C224.137 6.84605 223.513 6.66605 223.557 7.00905L225.613 6.92705C226.122 7.13805 226.779 7.23405 226.86 7.70605C227.518 7.16805 228.802 8.08105 229.306 7.44405C228.608 7.85305 228.061 7.30005 227.793 7.23305L228.112 7.14405C228.066 7.14405 228.014 7.13605 227.946 7.12005L228.835 6.30505C227.98 5.98005 228.683 6.84105 227.475 6.82605C226.428 6.06205 229.844 5.67105 228.755 5.19705C227.862 4.95305 228.019 5.68605 227.282 5.96405L227.475 5.98005L225.805 6.30705C225.727 6.04705 226.233 5.83305 226.233 5.83305C224.211 5.83505 223.898 5.42805 221.723 5.33105C221.881 5.43005 222.308 6.22705 221.337 6.35905C220.641 6.55405 220.56 6.08205 219.98 6.03205C220.327 5.93505 220.638 5.49405 221.103 5.78805L221.066 5.23405C222.694 4.56605 221.84 4.02905 224.053 3.83105C224.154 3.42505 225.758 3.21405 226.962 3.33205L226.378 2.96705C227.618 2.26705 226.612 3.53705 228.203 2.95005C228.865 3.68305 230.074 4.54405 229.182 5.14905C230.309 5.32605 230.694 4.93505 231.708 4.93505C232.33 5.53705 231.398 5.58805 231.515 6.19005C232.255 6.12305 233.186 5.86305 232.637 5.52105L234.041 5.76405C234.078 5.89305 233.576 5.89305 233.379 5.87905C233.924 6.00905 234.972 5.71505 235.28 5.48705C235.165 5.51905 234.813 5.61805 234.661 5.51905C235.243 5.35705 236.29 5.06205 236.366 4.90005C235.513 5.20805 235.435 4.52505 234.543 4.91605C234.619 4.75405 234.772 4.42805 235.239 4.50905C234.5 4.15105 233.762 4.21605 233.452 3.80905C234.075 4.11405 234.474 3.67305 234.605 3.60905C234.047 3.49205 232.933 3.60405 232.558 3.77705C232.476 3.09505 230.384 3.89305 231.118 3.19305C231.002 3.43605 230.186 3.45305 229.757 3.29105C229.796 2.99605 230.882 2.83405 231.347 2.49205C233.524 2.16405 231.309 2.99605 231.817 3.20805L233.477 3.15905C233.31 3.06005 234.142 2.68205 233.059 2.72005C233.562 2.29505 234.609 2.00005 235.463 2.32705C235.66 2.12905 235.037 2.16405 234.843 2.14805C235.037 1.95205 236.084 1.23305 234.724 1.12105C235.113 1.15305 234.064 1.44705 234.763 1.67505C234.22 1.75605 232.744 1.46505 233.328 1.08905C232.666 1.20305 231.424 1.48105 230.88 1.56405C230.723 1.25305 231.345 1.43205 231.618 1.28605L229.712 1.46705L230.258 1.80805C228.861 1.56405 227.969 2.37905 226.843 2.62605C226.998 2.08705 227.931 2.03705 228.667 1.76105C227.963 1.10905 228.203 2.10105 227.036 2.00505C226.879 1.90705 226.839 1.77705 226.916 1.61305L225.987 2.08705C225.716 2.02205 225.869 1.90705 225.987 1.87505C224.394 2.46305 226.027 2.64105 223.89 2.88705C225.176 3.16205 224.982 2.51205 226.065 2.56005C226.691 2.95105 224.827 3.26105 224.514 3.48705C223.467 3.35905 223.347 2.54605 222.027 2.98505C222.958 2.72405 222.065 2.48005 223.385 2.46305C224.123 2.18505 222.995 2.22005 222.841 1.91005C222.492 2.00805 223.074 2.48005 222.103 2.39905L222.141 2.31805L220.552 2.90505C219.072 2.61305 217.214 3.55805 216.201 2.92405L216.436 3.49405C215.505 3.54205 214.184 3.56005 213.524 3.67505C213.677 3.34905 214.299 3.31705 214.959 3.20205C213.286 3.10405 211.814 3.44705 210.688 3.90505C211.506 4.31205 211.624 4.27905 212.401 4.55505C211.316 5.35205 211.116 4.06605 209.717 4.45805C209.679 3.90505 210.144 3.98505 209.795 3.44705C209.214 3.82405 208.241 3.74305 207.581 4.06905C207.23 3.53105 207.848 3.07405 209.286 3.02505C210.375 3.49705 211.577 2.66605 212.474 3.12105L211.928 2.77805C213.018 2.61505 213.675 2.71305 214.606 2.45205L214.568 2.53405L215.033 1.98005H214.53C214.877 1.66805 215.925 1.16405 216.236 1.14805C214.68 1.23005 214.568 2.11005 213.831 2.60005C212.432 2.56705 211.884 1.59105 210.953 2.06405C210.877 1.80105 210.097 1.52505 210.72 1.28205C211.494 1.13305 212.041 1.47605 212.117 1.10005C211.301 1.11805 211.611 0.890054 210.37 0.956054C210.135 1.44505 209.206 1.91805 208.317 2.30905C207.384 2.57105 206.178 2.55505 205.438 2.40705C206.371 2.35905 207.302 1.88505 207.067 1.52705C206.523 2.03405 205.242 1.12105 205.516 1.82105C204.429 1.77405 202.601 1.79105 202.483 1.18805C203.511 0.965054 204.507 1.33105 205.379 1.20205C205.139 1.18805 204.904 1.03605 205.045 0.893054L206.329 0.958054C205.358 0.665054 205.551 0.470054 204.307 0.536054C204.385 0.584054 204.542 0.682054 204.424 0.713054C204.114 0.730054 203.725 0.699054 203.413 0.716054L203.374 0.162054C202.443 0.422054 200.652 -0.276946 198.947 0.131054L199.1 0.016054C197.741 -0.096946 197.627 0.995054 196.15 1.12605C196.577 0.866054 196.381 0.637054 196.305 0.376054C195.568 0.654054 195.177 0.199054 194.438 0.053054C195.295 0.376054 193.859 0.638054 194.481 0.817054C194.523 1.37205 193.005 1.37205 192.228 1.30805C191.763 0.592054 194.636 0.915054 193.467 0.184054C192.692 0.119054 192.497 0.525054 193.043 0.656054C192.072 0.574054 190.595 0.495054 189.893 0.054054C188.732 0.593054 188.266 0.300054 187.528 1.00005C188.15 0.969054 188.186 0.463054 188.966 0.739054L188.112 1.26105C186.986 1.29505 186.09 0.839054 185.314 0.775054L186.129 0.545054L186.09 0.628054C186.401 0.399054 187.45 0.529054 187.332 0.139054C186.595 0.626054 186.01 0.154054 185.04 0.497054L185.079 0.415054C183.371 0.823054 182.124 -0.381946 181.04 0.630054C181.351 0.613054 181.975 1.00405 181.78 1.19905C181.389 0.956054 180.342 1.03805 180.379 0.744054L180.73 0.645054C179.759 0.566054 179.175 0.516054 178.824 0.615054C178.555 0.973054 178.829 1.25005 178.129 1.44705C176.418 1.22005 178.824 0.615054 177.66 0.306054L176.067 0.682054L175.716 0.356054C173.349 0.031054 171.523 1.10905 169 1.11005C168.96 0.556054 170.784 0.327054 171.405 0.292054C170.627 -0.194946 169.503 0.473054 168.454 0.131054C167.481 0.051054 166.747 0.539054 166.901 0.849054C165.7 1.04605 166.046 0.524054 165.892 0.427054C165.502 1.02905 163.988 0.817054 163.019 0.949054L162.975 0.609054L161.463 1.03105C161.851 1.06605 161.503 1.37205 161.503 1.58405L161.116 1.55305C162.596 2.48105 164.453 0.901054 165.972 1.95805C165.507 2.08905 166.13 2.26805 165.663 2.39905C165.276 2.36505 165.198 2.31705 165.158 2.18505C164.925 2.46305 164.305 2.70805 165.121 2.69105C165.083 3.40805 163.45 3.23005 162.326 3.47505C161.432 3.01805 163.257 2.78805 163.721 2.44705C163.294 2.49705 162.944 2.80805 162.323 2.62805L162.476 2.09105C160.924 2.38505 162.052 2.56105 161.701 3.08305C161.279 3.76805 160.304 3.05305 159.877 3.10105L160.343 2.97105C159.139 2.74305 158.868 3.31405 157.783 3.26705L157.273 2.84105C158.637 3.37905 158.94 2.09205 159.719 2.36805C157.737 1.86305 160.145 1.26105 160.765 0.804054C159.908 0.902054 159.133 0.838054 158.668 0.545054C157.424 1.24605 156.062 0.286054 154.862 1.11805C154.202 1.02005 155.442 0.742054 154.744 0.726054C153.462 0.662054 152.102 0.761054 150.744 1.07005C150.042 1.05405 150.162 0.810054 149.966 0.583054C146.585 0.259054 145.267 1.54605 141.576 1.23905L142.118 0.945054C141.343 0.881054 140.681 0.782054 140.296 1.17505C139.32 0.246054 136.994 1.74605 135.75 0.753054C134.117 0.574054 134.041 1.37205 132.759 1.52005C132.759 1.30805 133.148 0.915054 132.484 0.819054C128.292 1.14805 124.522 1.21605 119.902 1.38105C119.94 1.30005 120.173 1.23305 120.289 1.20205C117.298 1.12205 114.349 2.01805 111.863 1.72605C111.396 1.85705 109.999 2.03805 110.428 2.41205C111.009 2.46305 111.089 2.93305 111.05 3.22605C108.837 3.63605 109.963 2.54405 108.485 2.67505C108.018 1.95805 109.416 2.20205 109.416 1.56605L107.28 2.02205C106.076 1.79705 104.872 2.20305 103.823 1.86305C104.29 1.94305 103.975 1.32605 104.754 1.60105C104.635 1.63305 104.715 1.68205 104.597 1.71605C106.386 1.77805 105.57 1.37205 107.163 1.20805C105.763 1.39005 103.861 1.56905 102.617 1.42405C102.89 1.91105 101.608 1.63505 101.259 1.94505L101.181 1.89605C101.181 2.10905 100.408 2.25505 100.171 2.32105L99.861 1.70205C99.315 1.78405 100.015 2.01205 99.472 2.09205C98.699 2.23905 95.937 2.30805 95.742 1.65505C94.808 1.70505 94.537 2.06405 93.569 1.98105C93.646 1.81905 93.878 1.75405 93.914 1.67305C91.858 1.54405 89.333 1.75505 87.387 1.38305C85.798 1.54705 84.438 1.64505 83.431 2.06905C83.857 2.02005 85.102 2.16605 84.324 2.52505C83.896 2.78605 83.237 2.68805 82.578 2.80105C82.732 2.47705 80.905 2.49405 82.225 2.26705C81.892 1.55705 79.379 2.40605 79.4 1.70105C79.091 1.91605 77.216 1.79105 76.513 2.17105C76.357 1.86105 77.526 1.95805 77.524 1.74605L76.67 1.84505V1.63305C75.035 1.45405 74.73 2.31805 73.759 2.45005L73.797 2.36805L73.137 2.48105L73.912 1.91105C72.864 1.99405 72.322 2.49905 71.157 2.61405L71.041 2.43405L70.339 2.63005C70.457 2.59805 70.497 2.51605 70.421 2.46705C69.759 3.00505 68.245 2.79505 67.625 3.25005C67.159 3.17105 66.766 2.50005 66.146 2.95805L66.262 2.29105C67.815 2.20805 66.841 2.76305 68.475 2.51605C67.269 1.65505 63.889 1.75505 61.637 1.81905C59.814 2.26105 56.82 1.54705 56.045 2.53905L56.238 2.13305L53.17 1.79205C50.566 1.95805 47.887 1.64905 45.906 2.20305L45.361 1.86305C43.308 3.00305 38.37 2.33705 37.015 3.70705C35.851 3.40005 37.364 3.18505 37.481 2.94105C36.624 2.82905 35.19 3.72505 34.372 3.10705C34.372 2.89605 35.576 2.91005 35.033 2.78105C34.411 2.39005 34.142 3.17105 33.44 2.73305C33.751 3.13905 32.314 3.61305 31.269 3.69405C31.462 3.71105 31.462 3.71105 31.544 3.75905C31.696 4.06905 30.918 4.00505 30.491 4.05305C30.491 4.05305 30.53 3.97305 30.646 3.93805C25.251 4.46405 19.076 4.71105 13.403 4.32505L14.448 4.03005C13.633 4.25705 12.193 4.09705 11.73 4.01605L11.848 3.98405C10.332 3.34905 10.138 4.60105 8.972 3.87005L9.202 3.80405C7.377 3.82205 6.291 3.13905 4.506 3.49705C3.104 3.25405 3.259 2.92805 2.286 2.63605C1.471 2.65105 1.088 3.04405 1.046 3.12405L1.436 3.15805C1.864 3.53105 0.582 3.46705 0 3.63005C0.428 4.21605 0.197 5.12905 1.832 5.73005C3.035 5.53505 3.001 6.67505 4.359 6.57705C5.133 5.79505 6.303 7.16105 7.543 6.46105C6.883 6.99805 9.019 6.75305 7.935 7.34005C8.441 7.76405 10.574 6.88105 11.549 7.38705C11.391 7.50305 11.428 7.63105 11.197 7.69705C12.558 7.38705 12.131 8.07105 13.14 8.07005L13.101 7.51605C13.491 7.33705 13.608 7.72705 13.956 7.63105C13.681 7.56405 13.101 7.30505 13.408 7.07705C13.874 6.94605 14.263 6.76605 14.767 6.76605C14.773 6.97805 14.422 7.07505 14.185 7.14105C14.185 7.14105 15.276 7.19105 15.353 7.45005C14.963 7.62905 14.459 7.62905 14.114 7.94005C15.549 8.10205 14.229 8.11805 14.929 8.55705C14.733 7.90705 16.173 8.27905 16.947 8.13305C17.028 8.39405 16.404 8.21505 16.211 8.41105C17.691 9.55105 18.426 8.21405 20.328 8.45705C20.289 8.53805 20.056 8.60405 19.938 8.63705C20.835 8.45705 21.458 9.06005 22.039 8.68405C22.895 8.79805 22.195 9.41805 23.517 9.40105C23.128 8.73305 25.072 9.52905 25.106 8.81405L26.119 9.23505C27.014 8.84505 25.88 8.03005 27.63 7.96405C29.222 8.22405 27.479 9.13905 28.41 9.51105L28.799 9.12005L29.578 9.39605L29.459 9.43005C29.926 9.30005 30.778 9.41205 30.781 9.62305C30.705 9.78705 30.198 9.78705 30.125 9.95005C30.897 9.59205 33.192 10.9251 34.005 9.84905C34.463 10.0391 35.407 10.0361 35.287 10.3761C35.703 9.90205 37.355 10.5251 37.971 10.2221C37.891 10.3851 38.476 10.6451 38.942 10.5161C38.318 10.3371 38.709 10.1581 39.132 9.89605C39.68 10.2391 41.232 9.94505 41.467 10.5151C42.322 10.2041 42.009 9.79805 42.198 9.39005C42.746 9.73105 44.495 9.66505 44.186 10.3171C43.717 10.2371 42.668 10.1071 42.866 10.5461C43.759 10.7881 43.253 10.3661 43.989 10.3011C43.934 10.4201 44.489 10.7031 44.348 10.8921C44.783 10.8211 45.391 10.8271 46.011 10.9361C45.042 10.6421 46.631 10.4801 46.049 10.2201L45.119 10.6931C43.991 10.7241 44.882 10.3341 44.455 10.1711C46.437 10.0391 46.045 9.37105 47.909 9.06105C48.258 9.17405 48.879 9.35305 49.075 9.37005C48.453 9.40305 48.573 10.0061 48.926 10.1191C49.967 9.61305 50.79 10.4431 51.644 10.5571C50.904 10.4111 51.293 10.0201 51.564 9.87305C53.35 9.51505 52.265 10.1001 53.043 10.3761C55.797 10.3101 57.549 11.0921 59.76 10.6841L58.712 10.1291L58.363 10.6511C57.546 10.2441 58.514 9.47805 58.979 9.13705C59.097 9.31605 60.458 9.21705 59.915 9.51105L61.236 9.28205C61.039 9.05405 60.185 9.15205 60.802 8.90705C61.236 9.07005 62.592 9.18405 61.74 9.49405C62.438 9.50905 63.33 9.33005 63.176 9.02005C64.301 8.98905 63.059 9.68805 62.558 9.90105C63.449 9.93205 63.334 10.3881 63.065 10.5351L64.305 10.4701C64.034 10.6151 64.034 10.8271 63.766 10.9731C64.581 11.1681 65.163 10.5831 65.86 11.0221L66.171 10.5801C68.424 10.9401 68.193 11.0041 70.292 11.0531L69.942 10.7261C71.531 10.1391 71.106 11.2481 73.242 11.0031C74.446 10.8061 75.224 10.6581 75.066 10.1371C75.762 9.94105 75.92 10.2521 76.234 10.4471C76.775 10.1531 77.938 9.61505 78.793 9.94005C78.211 10.1021 77.746 10.2331 77.202 10.3171C77.36 10.8361 79.066 10.4291 79.959 10.6731C80.581 10.4271 82.601 9.79105 83.725 9.33405C83.217 8.91105 83.41 8.29205 84.419 7.86705C84.264 8.19305 85.781 8.19305 86.477 8.42205C86.132 8.73005 88.034 9.18405 86.561 9.31605C86.133 9.15405 85.937 8.71305 85.353 8.87605C85.705 9.20305 86.64 9.57705 87.61 9.87005C87.536 10.0341 87.029 10.2441 86.525 10.2441C86.799 10.1001 86.64 10.0001 86.601 9.87005Z" fill="#C83F45"/>
</svg>
