<svg width="813" height="12" viewBox="0 0 813 12" fill="none" xmlns="http://www.w3.org/2000/svg">
<path d="M297.74 9.87005C291.601 10.2451 299.052 10.6201 298.14 11.0181C299.779 10.9111 303.27 10.9841 301.62 10.6831C304.837 11.4811 311.352 10.2421 314.832 10.8761C314.982 10.7961 312.967 10.5361 315.375 10.3391C318.975 10.2591 318.713 10.6331 320.182 10.7951C321.251 10.5661 326.721 10.4041 326.19 10.5161C328.584 10.3211 323.641 9.73505 326.983 9.39105C329.247 8.85505 332.323 9.31005 334.991 9.16205C338.2 9.53705 331.791 9.42405 330.46 9.60405L339.536 9.35805C342.206 9.63505 338.338 9.88005 335.662 9.81605C339.28 10.1561 343.943 9.84605 345.012 9.40605C347.282 9.50305 348.483 9.40505 350.621 9.58405C348.495 9.82905 348.627 10.5961 345.294 10.7251C339.812 10.6781 347.282 10.1391 342.619 10.0251L342.219 10.4821C340.219 10.2221 338.626 10.5631 336.48 10.5971C335.281 10.4821 336.742 10.4331 337.543 10.3681C333.666 10.4021 330.584 10.1581 327.658 10.6801C332.879 11.1021 340.75 10.5311 343.033 11.0521L353.435 10.4151C353.435 10.2031 349.82 9.86205 352.758 9.55205C353.966 10.0891 357.036 10.3341 361.049 10.4301C359.567 9.84405 367.457 9.90605 365.444 9.43505C363.574 9.72905 362.636 9.24005 362.374 9.19205C366.25 9.15805 362.898 8.65405 365.03 8.62105C372.113 8.75005 364.767 8.99505 371.719 9.20605C370.249 9.46705 366.509 10.0541 362.65 10.3001C362.918 10.5591 366.509 10.2651 368.132 10.5591C365.852 10.2501 369.725 10.0061 367.85 9.87505C373.464 9.63005 380.003 9.02505 386.809 8.89405C385.749 9.75905 375.333 9.54805 377.478 10.5741C380.815 10.4421 380.803 10.0201 383.479 10.0841C385.749 10.6041 391.355 10.1471 395.906 10.1321L393.893 9.87005C395.624 9.65805 398.824 9.82105 400.838 9.87005L400.313 9.98405L402.293 9.82105C402.603 9.84305 402.675 9.87005 402.669 9.90305C404.851 9.63505 410.417 9.89105 414.59 9.73705C414.586 9.31405 410.453 9.72005 408.453 9.67205C407.909 9.57605 404.046 9.39605 405.916 9.10405C411.105 9.10205 414.716 8.59605 420.59 8.61105L418.723 8.48205C420.59 8.18805 423.124 8.33505 425.924 8.31605C431.008 8.60805 422.19 8.90505 425.27 9.14905C423.274 9.52305 419.796 9.10005 419.267 9.63805L422.468 10.2241C425.144 9.86605 428.09 10.4021 429.966 10.3211L427.952 10.0611C428.348 9.60405 430.216 9.94705 431.158 10.0121L429.805 9.34405C426.875 9.22905 424.87 9.81605 422.738 9.42705C427.938 9.21405 426.739 8.67505 433.008 8.66005C433.29 8.91905 431.8 8.75605 431.15 8.95205C433.29 9.13105 435.545 8.59305 439.016 8.80405C437.028 8.96705 433.814 9.22905 436.36 9.58705L438.221 9.08305C439.823 9.16205 439.166 9.35805 439.823 9.37505C442.102 9.47105 439.298 8.85305 442.899 8.98205C443.435 9.08105 444.63 9.19505 444.106 9.30805C448.243 9.32605 446.095 9.14505 449.962 8.90005C446.5 8.90105 446.366 8.13605 449.962 8.05405C455.038 8.13505 458.498 7.71005 461.983 8.34405L464.252 8.01805C462.796 8.49105 467.465 8.18105 469.072 8.26105C469.605 8.78305 461.459 8.24605 461.459 9.09305C464.795 9.17505 463.34 9.43505 462.265 9.66205C465.878 9.58305 463.602 9.06105 465.198 8.71805C465.203 8.93105 471.348 8.78305 469.216 9.24005C472.287 9.27105 472.817 8.73305 475.08 8.83105C474.739 9.03905 474.346 9.30705 474.562 9.57405C474.83 9.39805 477.731 9.61405 478.293 9.63005C477.763 9.53105 479.356 9.18805 476.69 9.33505C477.355 8.92805 482.97 9.31905 482.823 8.97705C483.101 9.44805 488.57 9.07405 491.372 9.26905C491.097 8.16105 486.175 9.69205 485.232 8.78105C488.963 8.40505 497.786 8.74505 503.794 8.25605C508.994 8.46705 503.794 8.68005 504.859 9.08705C500.062 9.26705 498.854 8.94105 494.709 9.13905C499.255 9.33105 506.728 9.21605 510.062 8.87505C515.014 8.82605 515.558 9.98005 521.567 9.70305C520.767 9.34705 520.898 9.26405 519.021 9.13205C520.622 9.00305 522.498 9.13205 524.229 9.13205C525.292 8.90505 521.553 8.85705 523.955 8.66005C524.892 8.72505 526.893 8.77405 526.499 9.01805L526.099 9.05105C531.836 8.72405 530.249 9.91405 535.181 9.22905C534.783 9.05105 533.712 9.27805 532.505 9.16205C531.575 8.88805 534.631 8.49705 536.914 8.38205C536.506 8.62605 538.914 8.43005 540.513 8.51005C541.585 8.91805 536.506 8.62605 535.708 8.90305L540.119 8.96705L539.19 8.90305L543.988 8.51005C540.644 8.64105 542.382 8.00605 543.851 7.95605C547.184 8.03705 550.529 8.11805 550.128 8.57505C550.529 8.11805 554.667 8.13505 557.605 8.03605C554.399 7.87305 557.199 7.64505 558.13 7.49805L562.941 7.95305C557.868 8.08305 564.012 8.36005 562.819 8.67105C561.357 9.14305 558.28 8.90005 555.604 8.83505C560.826 9.68105 562.95 8.37805 567.495 8.78305C567.495 8.99505 567.094 9.24005 565.095 9.19205C565.896 9.33605 569.234 8.78305 572.309 9.02705C571.502 8.87905 569.765 8.45705 572.827 8.27805L576.842 8.79805C581.517 8.91205 578.441 8.24405 582.304 7.99905L579.772 7.64105C580.166 7.18305 584.978 7.64105 585.104 7.13605C582.704 7.12005 581.363 7.51005 578.842 7.36605C577.891 6.87505 582.042 7.10305 583.491 6.84105C588.709 7.05405 587.636 7.07005 591.519 7.46005C591.663 8.22505 585.112 8.40605 585.939 9.40005C591.008 9.26905 598.354 9.02305 601.686 9.31505C606.228 9.08705 605.817 8.48405 605.147 8.04405C607.024 7.96205 607.949 8.02905 609.154 8.14105L607.024 8.38805C612.631 8.14105 615.83 7.87905 621.715 7.89605C625.039 7.76505 623.7 7.30805 622.902 6.95005L626.508 6.86705L625.96 6.77005C626.765 6.28105 629.969 6.44405 632.371 6.46005C632.379 6.67105 630.91 6.72105 631.046 6.85105C633.177 7.03005 636.388 6.98005 638.117 6.76805C638.123 6.98005 636.66 7.45305 634.122 7.30705C633.854 7.25705 633.986 7.17805 633.722 7.12705L629.447 7.40505C634.384 7.14305 637.331 7.68105 637.204 8.18605C642.145 7.92405 633.186 7.66505 639.062 7.47005C646.813 8.46005 653.753 7.19005 658.042 8.60605C661.639 8.31205 665.91 7.82205 671.52 7.79005C671.52 7.36605 675.265 7.62605 674.72 7.10305C669.369 6.55205 664.713 7.92005 660.421 7.14005C658.028 7.33505 658.834 7.69305 657.759 7.92005C655.634 7.95405 653.627 7.90605 653.35 7.64505C658.29 7.38305 654.678 6.62005 660.95 6.60205C660.153 6.24305 655.07 6.37405 652.808 6.27705C653.47 6.08205 652.794 5.85405 651.325 5.69105C652.932 5.34905 656.523 5.05605 658.392 4.76005C657.734 4.95605 658.941 5.07105 658.4 5.18605L664.941 4.58205C666.949 4.84105 667.493 5.15205 666.417 5.37905C670.031 5.50805 676.157 4.93805 676.176 5.57405C680.845 5.47405 674.694 5.19805 674.294 5.01905L674.694 4.98705L669.755 5.03705C669.21 4.30405 675.369 5.21505 676.157 4.51405C676.936 3.17905 683.114 4.93605 686.577 4.72505L682.576 5.68605L686.052 5.47405C684.053 5.84905 684.06 6.48305 680.997 6.87505C685.797 6.90605 692.618 7.19805 695.693 7.01905C696.893 7.34605 697.423 7.65605 696.893 7.98005C701.7 7.37505 704.376 8.28905 708.521 8.30405C712.917 7.94605 704.108 7.81605 707.308 7.34405C708.639 7.58705 711.047 7.39105 712.246 7.29405C710.915 7.47305 706.235 7.14805 703.025 6.98505C705.433 7.00205 705.165 6.53005 705.834 6.33505L701.818 6.23605C702.081 5.65005 706.756 6.18805 708.619 5.89305C707.432 6.41505 708.089 6.43205 706.9 6.95305C710.37 6.74005 715.579 6.74005 718.525 7.06405C720.262 7.27605 717.062 7.32605 716.123 7.47305C716.923 7.83105 719.592 7.26005 720.262 7.70105C719.729 8.02705 718.131 7.73305 716.923 7.83105L727.075 7.99305C727.075 8.20305 724.543 8.27005 722.944 8.18805C726.021 8.43305 728.282 8.31605 731.882 7.60005C735.353 7.81105 739.356 8.12005 738.173 8.43005C739.772 8.30005 738.704 8.10405 738.691 7.89105C743.373 8.00605 743.891 7.25605 746.694 7.24005L744.568 6.84905C749.103 7.25605 745.623 6.19705 749.629 6.50705C748.975 6.91405 749.237 7.38505 749.912 7.82605C750.574 7.41905 753.118 7.77605 754.851 7.77605C753.775 7.36905 758.58 7.40105 755.776 6.99505C759.789 6.66605 761.653 7.22005 764.591 6.69805C762.727 6.56905 768.057 6.27505 766.446 5.98105C770.329 5.95005 772.997 6.43705 771.942 6.87805C770.599 6.84605 768.454 6.66605 768.604 7.00805L775.673 6.92705C777.424 7.13805 779.682 7.23405 779.962 7.70605C782.224 7.16805 786.639 8.08105 788.37 7.44405C785.97 7.85305 784.089 7.30005 783.17 7.23305L784.265 7.14305C784.107 7.14305 783.929 7.13605 783.695 7.12005L786.749 6.30405C783.813 5.98005 786.227 6.84105 782.076 6.82605C778.477 6.06205 790.219 5.67005 786.475 5.19605C783.407 4.95305 783.945 5.68605 781.413 5.96405L782.076 5.98005L776.335 6.30705C776.067 6.04605 777.804 5.83305 777.804 5.83305C770.853 5.83505 769.778 5.42805 762.301 5.33105C762.844 5.43005 764.31 6.22705 760.974 6.35805C758.58 6.55405 758.302 6.08205 756.307 6.03205C757.499 5.93505 758.57 5.49405 760.17 5.78705L760.039 5.23405C765.639 4.56505 762.701 4.02805 770.309 3.83105C770.657 3.42505 776.171 3.21405 780.311 3.33205L778.303 2.96705C782.568 2.26605 779.11 3.53705 784.579 2.95005C786.855 3.68305 791.012 4.54305 787.944 5.14805C791.821 5.32605 793.144 4.93505 796.629 4.93505C798.766 5.53705 795.561 5.58705 795.964 6.18905C798.509 6.12305 801.71 5.86305 799.824 5.52105L804.648 5.76405C804.776 5.89305 803.049 5.89305 802.372 5.87805C804.248 6.00805 807.85 5.71505 808.911 5.48705C808.515 5.51905 807.304 5.61805 806.78 5.51905C808.782 5.35605 812.382 5.06205 812.644 4.89905C809.712 5.20805 809.444 4.52405 806.374 4.91605C806.636 4.75405 807.162 4.42805 808.768 4.50805C806.227 4.15005 803.691 4.21605 802.623 3.80905C804.766 4.11405 806.138 3.67205 806.589 3.60805C804.669 3.49205 800.842 3.60305 799.552 3.77705C799.27 3.09405 792.077 3.89305 794.601 3.19205C794.2 3.43605 791.394 3.45305 789.921 3.29105C790.056 2.99505 793.788 2.83405 795.389 2.49205C802.871 2.16305 795.257 2.99505 797.003 3.20805L802.711 3.15905C802.136 3.06005 804.996 2.68105 801.272 2.72005C803.003 2.29505 806.603 2.00005 809.54 2.32705C810.216 2.12905 808.072 2.16305 807.408 2.14705C808.072 1.95205 811.674 1.23305 806.998 1.12105C808.335 1.15305 804.728 1.44705 807.134 1.67505C805.265 1.75605 800.189 1.46405 802.197 1.08805C799.921 1.20305 795.651 1.48105 793.782 1.56305C793.244 1.25205 795.382 1.43205 796.32 1.28605L789.767 1.46705L791.643 1.80705C786.839 1.56305 783.773 2.37905 779.904 2.62505C780.434 2.08705 783.643 2.03705 786.175 1.76005C783.753 1.10805 784.579 2.10105 780.566 2.00405C780.028 1.90605 779.89 1.77605 780.152 1.61305L776.96 2.08705C776.027 2.02205 776.553 1.90605 776.96 1.87505C771.484 2.46205 777.096 2.64105 769.751 2.88705C774.172 3.16205 773.504 2.51205 777.228 2.56005C779.379 2.95105 772.971 3.26005 771.894 3.48705C768.295 3.35805 767.883 2.54605 763.344 2.98505C766.544 2.72405 763.476 2.47905 768.013 2.46205C770.551 2.18505 766.672 2.22005 766.143 1.90905C764.945 2.00805 766.943 2.47905 763.606 2.39805L763.738 2.31805L758.274 2.90405C753.186 2.61205 746.798 3.55805 743.315 2.92405L744.122 3.49405C740.921 3.54205 736.38 3.56005 734.112 3.67505C734.637 3.34905 736.776 3.31605 739.044 3.20205C733.294 3.10405 728.23 3.44705 724.361 3.90405C727.173 4.31105 727.577 4.27905 730.249 4.55505C726.518 5.35205 725.83 4.06505 721.022 4.45805C720.89 3.90405 722.491 3.98505 721.291 3.44705C719.292 3.82405 715.947 3.74305 713.677 4.06905C712.47 3.53105 714.597 3.07405 719.539 3.02405C723.284 3.49705 727.417 2.66605 730.499 3.12105L728.624 2.77805C732.369 2.61405 734.631 2.71205 737.831 2.45205L737.701 2.53405L739.3 1.97905H737.568C738.764 1.66805 742.364 1.16305 743.433 1.14705C738.085 1.23005 737.701 2.11005 735.167 2.59905C730.356 2.56605 728.472 1.59105 725.271 2.06305C725.01 1.80105 722.327 1.52505 724.471 1.28205C727.133 1.13305 729.01 1.47505 729.273 1.10005C726.466 1.11805 727.536 0.889054 723.266 0.955054C722.459 1.44505 719.265 1.91805 716.209 2.30905C713 2.57105 708.855 2.55505 706.31 2.40605C709.518 2.35805 712.72 1.88505 711.912 1.52705C710.042 2.03405 705.635 1.12105 706.58 1.82105C702.843 1.77305 696.558 1.79105 696.152 1.18805C699.687 0.964054 703.111 1.33105 706.107 1.20105C705.283 1.18705 704.474 1.03605 704.96 0.893054L709.374 0.958054C706.035 0.665054 706.698 0.470054 702.422 0.536054C702.691 0.584054 703.229 0.681054 702.825 0.712054C701.76 0.729054 700.421 0.698054 699.346 0.716054L699.214 0.162054C696.014 0.422054 689.856 -0.276946 683.993 0.131054L684.519 0.016054C679.846 -0.096946 679.454 0.995054 674.378 1.12605C675.847 0.866054 675.173 0.636054 674.911 0.376054C672.378 0.654054 671.034 0.198054 668.491 0.052054C671.439 0.376054 666.502 0.638054 668.64 0.816054C668.784 1.37105 663.564 1.37205 660.892 1.30705C659.295 0.592054 669.172 0.915054 665.155 0.183054C662.487 0.119054 661.819 0.525054 663.696 0.656054C660.356 0.574054 655.28 0.495054 652.866 0.054054C648.874 0.593054 647.272 0.300054 644.734 1.00005C646.872 0.968054 646.998 0.462054 649.678 0.739054L646.741 1.26005C642.871 1.29505 639.79 0.839054 637.121 0.774054L639.926 0.544054L639.79 0.627054C640.859 0.398054 644.466 0.529054 644.06 0.139054C641.528 0.626054 639.515 0.154054 636.182 0.497054L636.314 0.415054C630.443 0.823054 626.154 -0.381946 622.43 0.630054C623.498 0.613054 625.642 1.00305 624.974 1.19805C623.628 0.955054 620.028 1.03705 620.156 0.744054L621.361 0.645054C618.022 0.565054 616.015 0.516054 614.808 0.614054C613.883 0.973054 614.828 1.25005 612.42 1.44705C606.538 1.22005 614.808 0.614054 610.807 0.305054L605.331 0.681054L604.124 0.355054C595.986 0.031054 589.71 1.10805 581.033 1.11005C580.895 0.556054 587.167 0.327054 589.303 0.292054C586.627 -0.195946 582.764 0.473054 579.158 0.131054C575.811 0.051054 573.287 0.539054 573.818 0.849054C569.687 1.04605 570.877 0.523054 570.349 0.427054C569.008 1.02905 563.802 0.816054 560.472 0.948054L560.32 0.608054L555.12 1.03105C556.457 1.06505 555.258 1.37205 555.26 1.58405L553.927 1.55205C559.015 2.48105 565.402 0.900054 570.623 1.95805C569.024 2.08805 571.167 2.26705 569.561 2.39805C568.229 2.36405 567.961 2.31605 567.823 2.18505C567.022 2.46205 564.891 2.70805 567.697 2.69005C567.567 3.40805 561.953 3.23005 558.09 3.47405C555.014 3.01805 561.29 2.78705 562.886 2.44705C561.417 2.49705 560.211 2.80805 558.078 2.62705L558.602 2.09105C553.269 2.38405 557.145 2.56105 555.94 3.08305C554.489 3.76805 551.137 3.05205 549.67 3.10105L551.269 2.97105C547.132 2.74305 546.199 3.31405 542.469 3.26605L540.717 2.84105C545.407 3.37905 546.448 2.09205 549.125 2.36805C542.31 1.86305 550.589 1.26005 552.72 0.804054C549.776 0.902054 547.112 0.838054 545.511 0.544054C541.235 1.24505 536.552 0.285054 532.427 1.11805C530.157 1.02005 534.42 0.742054 532.019 0.725054C527.614 0.662054 522.938 0.760054 518.269 1.07005C515.855 1.05405 516.267 0.810054 515.593 0.583054C503.97 0.259054 499.438 1.54605 486.747 1.23905L488.61 0.945054C485.947 0.880054 483.671 0.782054 482.348 1.17505C478.993 0.245054 470.994 1.74505 466.718 0.752054C461.104 0.574054 460.842 1.37205 456.433 1.52005C456.433 1.30805 457.772 0.915054 455.49 0.819054C441.076 1.14705 428.116 1.21605 412.23 1.38005C412.362 1.30005 413.163 1.23305 413.561 1.20105C403.278 1.12105 393.138 2.01805 384.594 1.72505C382.987 1.85705 378.185 2.03705 379.658 2.41205C381.655 2.46205 381.93 2.93305 381.798 3.22505C374.19 3.63605 378.059 2.54305 372.979 2.67505C371.372 1.95805 376.18 2.20105 376.18 1.56505L368.834 2.02205C364.695 1.79605 360.556 2.20305 356.95 1.86305C358.556 1.94205 357.473 1.32605 360.15 1.60105C359.744 1.63305 360.016 1.68105 359.612 1.71605C365.762 1.77805 362.958 1.37105 368.434 1.20805C363.62 1.38905 357.082 1.56905 352.805 1.42405C353.743 1.91105 349.336 1.63505 348.135 1.94505L347.867 1.89605C347.867 2.10805 345.211 2.25405 344.396 2.32005L343.328 1.70105C341.452 1.78405 343.86 2.01205 341.991 2.09205C339.334 2.23905 329.837 2.30805 329.169 1.65505C325.954 1.70505 325.026 2.06305 321.697 1.98105C321.959 1.81905 322.761 1.75405 322.884 1.67205C315.815 1.54305 307.132 1.75405 300.441 1.38305C294.98 1.54605 290.302 1.64505 286.84 2.06905C288.306 2.02005 292.586 2.16605 289.91 2.52405C288.441 2.78605 286.175 2.68705 283.907 2.80105C284.438 2.47705 278.157 2.49405 282.695 2.26605C281.551 1.55705 272.91 2.40605 272.981 1.70005C271.918 1.91605 265.472 1.79105 263.058 2.17105C262.522 1.86105 266.541 1.95805 266.532 1.74505L263.597 1.84405V1.63305C257.974 1.45405 256.927 2.31805 253.589 2.45005L253.719 2.36805L251.451 2.48105L254.113 1.91105C250.513 1.99305 248.649 2.49905 244.643 2.61405L244.242 2.43305L241.828 2.63005C242.237 2.59705 242.373 2.51605 242.11 2.46705C239.835 3.00405 234.629 2.79505 232.497 3.25005C230.896 3.17005 229.545 2.50005 227.414 2.95805L227.814 2.29105C233.152 2.20805 229.805 2.76305 235.422 2.51605C231.277 1.65505 219.656 1.75405 211.91 1.81905C205.645 2.26005 195.35 1.54605 192.686 2.53905L193.348 2.13305L182.802 1.79205C173.85 1.95805 164.637 1.64905 157.826 2.20305L155.953 1.86305C148.896 3.00305 131.917 2.33705 127.26 3.70705C123.259 3.39905 128.461 3.18505 128.861 2.94105C125.914 2.82905 120.983 3.72505 118.173 3.10605C118.173 2.89505 122.314 2.90905 120.445 2.78005C118.307 2.38905 117.383 3.17105 114.968 2.73205C116.037 3.13905 111.098 3.61205 107.505 3.69405C108.167 3.71105 108.167 3.71105 108.45 3.75905C108.974 4.06905 106.298 4.00405 104.829 4.05205C104.829 4.05205 104.965 3.97305 105.362 3.93805C86.814 4.46405 65.584 4.71105 46.079 4.32405L49.672 4.03005C46.872 4.25705 41.92 4.09605 40.327 4.01605L40.733 3.98305C35.52 3.34905 34.855 4.60105 30.845 3.87005L31.637 3.80405C25.36 3.82205 21.629 3.13905 15.491 3.49705C10.669 3.25405 11.202 2.92805 7.859 2.63605C5.055 2.65005 3.739 3.04305 3.594 3.12405L4.937 3.15805C6.406 3.53105 1.999 3.46705 0 3.63005C1.469 4.21605 0.676 5.12805 6.297 5.73005C10.433 5.53505 10.315 6.67505 14.985 6.57705C17.648 5.79405 21.67 7.16105 25.931 6.46005C23.663 6.99805 31.009 6.75205 27.282 7.34005C29.021 7.76405 36.352 6.88105 39.705 7.38705C39.161 7.50205 39.29 7.63105 38.496 7.69705C43.174 7.38705 41.705 8.07105 45.175 8.07005L45.043 7.51605C46.382 7.33605 46.784 7.72705 47.981 7.63105C47.036 7.56405 45.043 7.30405 46.096 7.07705C47.699 6.94605 49.038 6.76605 50.769 6.76605C50.789 6.97805 49.582 7.07505 48.767 7.14105C48.767 7.14105 52.52 7.19005 52.783 7.45005C51.443 7.62805 49.71 7.62805 48.526 7.93905C53.458 8.10205 48.92 8.11805 51.325 8.55705C50.651 7.90605 55.603 8.27905 58.265 8.13205C58.541 8.39405 56.396 8.21505 55.732 8.41105C60.823 9.55105 63.348 8.21405 69.887 8.45705C69.755 8.53705 68.954 8.60405 68.548 8.63605C71.63 8.45705 73.772 9.05905 75.769 8.68305C78.714 8.79805 76.308 9.41805 80.851 9.40005C79.514 8.73305 86.197 9.52905 86.315 8.81305L89.798 9.23505C92.875 8.84405 88.977 8.03005 94.992 7.96405C100.468 8.22405 94.473 9.13905 97.674 9.51005L99.012 9.12005L101.689 9.39605L101.282 9.43005C102.888 9.30005 105.818 9.41205 105.826 9.62305C105.563 9.78705 103.821 9.78705 103.57 9.95005C106.226 9.59205 114.116 10.9251 116.91 9.84905C118.485 10.0391 121.732 10.0361 121.317 10.3761C122.748 9.90205 128.429 10.5251 130.546 10.2221C130.27 10.3851 132.281 10.6451 133.885 10.5161C131.739 10.3371 133.084 10.1581 134.539 9.89605C136.423 10.2391 141.758 9.94505 142.567 10.5151C145.505 10.2041 144.431 9.79805 145.079 9.38905C146.962 9.73105 152.975 9.66505 151.914 10.3161C150.3 10.2371 146.694 10.1061 147.374 10.5461C150.445 10.7871 148.706 10.3661 151.236 10.3011C151.047 10.4191 152.956 10.7031 152.47 10.8911C153.966 10.8211 156.057 10.8271 158.188 10.9361C154.858 10.6411 160.32 10.4791 158.319 10.2201L155.12 10.6921C151.243 10.7241 154.308 10.3341 152.838 10.1711C159.652 10.0391 158.307 9.37005 164.713 9.06105C165.914 9.17405 168.05 9.35305 168.722 9.37005C166.585 9.40305 166.997 10.0061 168.21 10.1191C171.791 9.61305 174.618 10.4421 177.556 10.5571C175.011 10.4111 176.35 10.0201 177.281 9.87305C183.419 9.51505 179.689 10.1001 182.365 10.3761C191.833 10.3101 197.856 11.0921 205.458 10.6831L201.855 10.1291L200.656 10.6501C197.847 10.2441 201.174 9.47805 202.774 9.13605C203.179 9.31505 207.857 9.21605 205.99 9.51005L210.533 9.28205C209.857 9.05405 206.919 9.15205 209.04 8.90605C210.533 9.07005 215.195 9.18305 212.265 9.49305C214.664 9.50905 217.733 9.32905 217.202 9.02005C221.071 8.98805 216.802 9.68805 215.076 9.90005C218.141 9.93205 217.747 10.3881 216.82 10.5351L221.083 10.4701C220.154 10.6141 220.154 10.8271 219.23 10.9731C222.033 11.1681 224.035 10.5831 226.431 11.0221L227.501 10.5801C235.245 10.9391 234.451 11.0031 241.668 11.0521L240.463 10.7251C245.927 10.1391 244.467 11.2471 251.812 11.0031C255.949 10.8051 258.625 10.6581 258.08 10.1361C260.474 9.94105 261.018 10.2511 262.096 10.4471C263.957 10.1531 267.957 9.61405 270.895 9.93905C268.896 10.1021 267.295 10.2331 265.426 10.3161C265.97 10.8351 271.834 10.4281 274.903 10.6721C277.042 10.4271 283.988 9.79105 287.851 9.33405C286.105 8.91105 286.768 8.29105 290.238 7.86705C289.706 8.19305 294.92 8.19305 297.314 8.42205C296.127 8.72905 302.665 9.18305 297.601 9.31505C296.132 9.15405 295.458 8.71205 293.451 8.87605C294.657 9.20305 297.874 9.57705 301.21 9.87005C300.954 10.0341 299.211 10.2441 297.478 10.2441C298.422 10.0991 297.874 10.0001 297.74 9.87005Z" fill="#C83F45"/>
</svg>
