<svg width="376" height="14" viewBox="0 0 376 14" fill="none" xmlns="http://www.w3.org/2000/svg">
<g style="mix-blend-mode:multiply">
<path d="M371.825 2.60632L370.881 2.63432C370.968 2.66632 371.228 2.66632 371.825 2.60632Z" fill="#C83F45"/>
<path d="M372.677 3.06631C372.699 3.06931 372.735 3.06731 372.756 3.07031C372.744 3.05131 372.72 3.05231 372.677 3.06631Z" fill="#C83F45"/>
<path d="M70.5196 13.348C70.1706 13.387 69.8716 13.438 69.7086 13.515C70.2096 13.48 70.4386 13.417 70.5196 13.348Z" fill="#C83F45"/>
<path d="M126.148 3.47009C126.125 3.52109 126.109 3.56409 126.11 3.60409C126.192 3.56909 126.218 3.52609 126.148 3.47009Z" fill="#C83F45"/>
<path d="M360.784 2.93003C360.929 2.94003 361.078 2.94703 361.214 2.96103C361.301 2.84403 360.89 2.85803 360.784 2.93003Z" fill="#C83F45"/>
<path d="M56.1203 12.9755C56.0723 13.0125 56.0303 13.0515 56.0073 13.1025C56.0733 13.0535 56.0993 13.0145 56.1203 12.9755Z" fill="#C83F45"/>
<path d="M326.627 1.06775C326.5 1.09175 326.362 1.10575 326.227 1.11975C326.369 1.12075 326.512 1.10875 326.627 1.06775Z" fill="#C83F45"/>
<path d="M137.466 12.9643C137.662 12.9113 137.772 12.8583 137.826 12.8063C137.605 12.8383 137.445 12.8873 137.466 12.9643Z" fill="#C83F45"/>
<path d="M137.63 11.6601C134.797 12.0641 138.244 12.4051 137.826 12.8061C138.582 12.6911 140.196 12.7491 139.431 12.4561C140.925 13.2391 143.923 11.9701 145.537 12.5881C145.606 12.5081 144.672 12.2561 145.783 12.0481C147.446 11.9521 147.328 12.3271 148.008 12.4821C148.5 12.2491 151.026 12.0621 150.782 12.1761C151.886 11.9701 149.596 11.4061 151.137 11.0481C152.177 10.5011 153.604 10.9421 154.834 10.7821C156.321 11.1421 153.358 11.0581 152.745 11.2441L156.937 10.9571C158.173 11.2211 156.388 11.4851 155.151 11.4331C156.826 11.7561 158.978 11.4241 159.467 10.9801C160.517 11.0671 161.071 10.9621 162.06 11.1321C161.081 11.3871 161.149 12.1521 159.611 12.2981C157.077 12.2751 160.523 11.7021 158.367 11.6091L158.187 12.0691C157.26 11.8171 156.528 12.1661 155.537 12.2101C154.982 12.1001 155.656 12.0451 156.026 11.9751C154.235 12.0271 152.808 11.7981 151.461 12.3321C153.878 12.7311 157.509 12.1241 158.569 12.6351L163.369 11.9501C163.367 11.7371 161.693 11.4131 163.047 11.0901C163.611 11.6211 165.032 11.8521 166.887 11.9301C166.197 11.3511 169.843 11.3771 168.907 10.9151C168.047 11.2181 167.608 10.7321 167.487 10.6861C169.278 10.6341 167.724 10.1451 168.708 10.1031C171.982 10.2001 168.591 10.4791 171.804 10.6571C171.128 10.9251 169.406 11.5291 167.625 11.7921C167.752 12.0511 169.408 11.7401 170.161 12.0271C169.104 11.7281 170.891 11.4661 170.024 11.3441C172.615 11.0731 175.63 10.4381 178.774 10.2761C178.292 11.1451 173.478 10.9821 174.479 11.9991C176.02 11.8521 176.01 11.4301 177.247 11.4811C178.301 11.9911 180.886 11.5091 182.989 11.4721L182.056 11.2201C182.854 10.9991 184.335 11.1481 185.265 11.1871L185.024 11.3051L185.937 11.1321C186.081 11.1521 186.114 11.1801 186.112 11.2121C187.117 10.9341 189.691 11.1651 191.618 10.9921C191.612 10.5691 189.706 10.9931 188.782 10.9551C188.53 10.8611 186.743 10.6991 187.604 10.3991C190.002 10.3721 191.665 9.85007 194.379 9.83807L193.515 9.71807C194.375 9.41507 195.547 9.55007 196.841 9.51907C199.193 9.78807 195.121 10.1241 196.547 10.3551C195.629 10.7381 194.017 10.3301 193.778 10.8701L195.263 11.4431C196.496 11.0721 197.862 11.5951 198.728 11.5051L197.795 11.2541C197.974 10.7961 198.84 11.1301 199.276 11.1901L198.644 10.5291C197.289 10.4281 196.369 11.0241 195.38 10.6441C197.781 10.4071 197.221 9.87407 200.117 9.82907C200.25 10.0881 199.56 9.93107 199.262 10.1301C200.252 10.3001 201.289 9.75107 202.895 9.94707C201.978 10.1181 200.495 10.3961 201.675 10.7421L202.53 10.2291C203.271 10.3021 202.97 10.5001 203.273 10.5141C204.327 10.5991 203.026 9.99407 204.691 10.1071C204.939 10.2031 205.493 10.3111 205.251 10.4271C207.163 10.4261 206.169 10.2551 207.953 9.99307C206.353 10.0101 206.284 9.24507 207.945 9.14607C210.291 9.20407 211.885 8.76407 213.502 9.38207L214.547 9.04507C213.879 9.52407 216.033 9.19307 216.776 9.26607C217.028 9.78507 213.259 9.28607 213.267 10.1331C214.809 10.1991 214.14 10.4661 213.645 10.6991C215.314 10.6021 214.257 10.0911 214.991 9.74107C214.996 9.95307 217.833 9.77707 216.853 10.2431C218.272 10.2611 218.511 9.72107 219.558 9.80807C219.402 10.0181 219.224 10.2871 219.326 10.5541C219.448 10.3771 220.791 10.5791 221.051 10.5931C220.805 10.4961 221.537 10.1461 220.307 10.3051C220.61 9.89507 223.208 10.2601 223.137 9.91907C223.27 10.3881 225.793 9.99007 227.09 10.1711C226.952 9.06407 224.693 10.6191 224.248 9.71207C225.968 9.31807 230.048 9.61907 232.819 9.10107C235.224 9.28807 232.824 9.52507 233.32 9.92807C231.105 10.1301 230.544 9.80907 228.63 10.0261C230.733 10.1981 234.185 10.0491 235.722 9.69207C238.009 9.61907 238.272 10.7721 241.045 10.4671C240.672 10.1151 240.732 10.0311 239.864 9.90807C240.602 9.77207 241.47 9.89107 242.27 9.88407C242.759 9.65207 241.031 9.62107 242.138 9.41207C242.572 9.47407 243.497 9.51407 243.317 9.75907L243.133 9.79407C245.781 9.44107 245.059 10.6381 247.331 9.93107C247.145 9.75407 246.653 9.98607 246.094 9.87707C245.662 9.60607 247.07 9.20207 248.124 9.07607C247.937 9.32207 249.048 9.11407 249.788 9.18807C250.287 9.59107 247.937 9.32207 247.571 9.60207L249.61 9.64607L249.18 9.58607L251.393 9.17207C249.849 9.31807 250.646 8.67507 251.325 8.61807C252.865 8.68407 254.411 8.74907 254.231 9.20807C254.411 8.74907 256.324 8.74707 257.68 8.63407C256.197 8.48707 257.489 8.24607 257.917 8.09507L260.145 8.52707C257.802 8.68107 260.644 8.93007 260.096 9.24607C259.425 9.72507 258 9.49607 256.764 9.44407C259.185 10.2651 260.153 8.95307 262.257 9.33607C262.259 9.54807 262.077 9.79507 261.152 9.75707C261.524 9.89707 263.061 9.32807 264.484 9.55807C264.109 9.41407 263.302 9.00007 264.716 8.80707L266.576 9.30807C268.737 9.40107 267.309 8.74707 269.092 8.48507L267.918 8.13907C268.096 7.67907 270.323 8.11507 270.377 7.60807C269.268 7.60307 268.652 8.00007 267.486 7.86707C267.041 7.38207 268.962 7.59107 269.628 7.32207C272.041 7.51007 271.546 7.53107 273.344 7.90407C273.418 8.66807 270.393 8.87907 270.785 9.86907C273.126 9.71507 276.518 9.43507 278.06 9.71207C280.156 9.46307 279.961 8.86207 279.646 8.42607C280.513 8.33507 280.941 8.39707 281.499 8.50407L280.517 8.76007C283.105 8.48807 284.581 8.21107 287.3 8.20107C288.835 8.05407 288.212 7.60407 287.839 7.25007L289.505 7.15007L289.25 7.05607C289.617 6.56307 291.099 6.71107 292.209 6.71707C292.215 6.92807 291.537 6.98407 291.601 7.11407C292.588 7.28307 294.071 7.21807 294.867 6.99807C294.872 7.21007 294.201 7.68907 293.027 7.55507C292.902 7.50707 292.963 7.42607 292.84 7.37707L290.868 7.67507C293.146 7.39007 294.513 7.91407 294.46 8.42007C296.74 8.13607 292.598 7.91707 295.311 7.69507C298.902 8.65007 302.096 7.34807 304.092 8.74507C305.751 8.43407 307.719 7.92507 310.311 7.86707C310.307 7.44207 312.04 7.68607 311.783 7.16507C309.305 6.63807 307.167 8.02807 305.177 7.26707C304.073 7.47307 304.449 7.82807 303.954 8.06007C302.973 8.10407 302.045 8.06507 301.915 7.80507C304.194 7.52007 302.518 6.77307 305.416 6.72707C305.044 6.37107 302.696 6.52607 301.65 6.44007C301.954 6.24207 301.64 6.01707 300.959 5.86107C301.698 5.51107 303.355 5.20107 304.215 4.89707C303.913 5.09707 304.472 5.20507 304.223 5.32307L307.239 4.68907C308.17 4.93907 308.424 5.24707 307.929 5.48007C309.6 5.59207 312.426 4.99407 312.44 5.62907C314.597 5.50907 311.752 5.26007 311.565 5.08307L311.75 5.04907L309.468 5.12207C309.209 4.39107 312.064 5.27407 312.421 4.56907C312.768 3.23107 315.64 4.96007 317.238 4.73307L315.398 5.71207L317.003 5.48507C316.083 5.86807 316.092 6.50307 314.681 6.90907C316.899 6.91707 320.053 7.17807 321.473 6.98507C322.03 7.30607 322.278 7.61407 322.036 7.94107C324.251 7.31407 325.497 8.21507 327.412 8.21107C329.44 7.83307 325.368 7.74307 326.842 7.25607C327.459 7.49407 328.57 7.28707 329.123 7.18407C328.51 7.36907 326.345 7.06607 324.86 6.91707C325.972 6.92407 325.844 6.45207 326.151 6.25407L324.295 6.17407C324.41 5.58707 326.576 6.10307 327.434 5.80007C326.89 6.32707 327.194 6.34107 326.65 6.86707C328.251 6.63907 330.657 6.61507 332.022 6.92607C332.827 7.13007 331.349 7.19307 330.916 7.34507C331.29 7.70007 332.517 7.11607 332.831 7.55507C332.588 7.88207 331.847 7.59607 331.29 7.70007L335.982 7.81507C335.984 8.02607 334.815 8.10307 334.075 8.02907C335.499 8.25907 336.542 8.13307 338.199 7.40007C339.805 7.59607 341.657 7.88507 341.114 8.20107C341.851 8.06307 341.356 7.87307 341.348 7.66007C343.512 7.75307 343.744 7.00007 345.039 6.97207L344.053 6.59107C346.152 6.97607 344.534 5.93407 346.388 6.22507C346.09 6.63607 346.216 7.10507 346.532 7.54307C346.834 7.13307 348.013 7.47907 348.813 7.47107C348.312 7.06807 350.532 7.07807 349.233 6.68507C351.084 6.33807 351.95 6.88407 353.303 6.34807C352.44 6.22807 354.9 5.90907 354.153 5.62307C355.946 5.57307 357.184 6.04907 356.701 6.49507C356.08 6.46807 355.087 6.29907 355.16 6.64007L358.425 6.52607C359.237 6.72907 360.281 6.81507 360.415 7.28507C361.455 6.73807 363.503 7.63007 364.297 6.98507C363.192 7.40507 362.318 6.86007 361.892 6.79807L362.398 6.70307C362.324 6.70407 362.242 6.69707 362.134 6.68207L363.537 5.85307C362.177 5.54207 363.301 6.39207 361.383 6.39507C359.712 5.64807 365.134 5.20307 363.399 4.74607C361.979 4.51607 362.235 5.24707 361.068 5.53607L361.374 5.55007L358.725 5.90307C358.599 5.64407 359.399 5.42307 359.399 5.42307C356.188 5.45607 355.687 5.05407 352.231 4.99207C352.483 5.08807 353.168 5.87807 351.628 6.02507C350.524 6.23107 350.391 5.76107 349.469 5.72007C350.019 5.61807 350.509 5.17207 351.251 5.45807L351.185 4.90507C353.766 4.21107 352.403 3.68707 355.916 3.45507C356.073 3.04707 358.619 2.81107 360.532 2.91007L359.601 2.55407C361.565 1.83407 359.98 3.12107 362.501 2.50807C363.56 3.23107 365.489 4.07307 364.077 4.69107C365.87 4.85107 366.478 4.45407 368.088 4.43807C369.082 5.03107 367.601 5.09607 367.793 5.69607C368.969 5.61807 370.445 5.34307 369.57 5.01007L371.802 5.23007C371.862 5.35907 371.064 5.36707 370.751 5.35507C371.619 5.47607 373.281 5.16607 373.769 4.93407C373.586 4.96807 373.027 5.07207 372.784 4.97507C373.707 4.80407 375.368 4.49307 375.488 4.32907C374.136 4.65207 374.005 3.96907 372.591 4.37507C372.71 4.21107 372.95 3.88307 373.692 3.95607C372.515 3.61007 371.344 3.68607 370.847 3.28507C371.84 3.58007 372.469 3.13207 372.677 3.06607C371.789 2.95807 370.021 3.08807 369.427 3.26707C369.29 2.58507 365.975 3.41707 367.134 2.70507C366.951 2.95107 365.655 2.98007 364.973 2.82507C365.032 2.52907 366.755 2.35007 367.491 2.00007C370.945 1.63907 367.435 2.50507 368.244 2.71007L370.881 2.63407C370.614 2.53807 371.932 2.14607 370.212 2.20207C371.007 1.76907 372.668 1.45807 374.028 1.77107C374.338 1.57007 373.348 1.61507 373.041 1.60107C373.346 1.40207 375.003 0.668072 372.841 0.577072C373.459 0.603072 371.796 0.913072 372.909 1.13007C372.047 1.22007 369.699 0.952072 370.623 0.566072C369.572 0.691072 367.602 0.989072 366.739 1.08007C366.488 0.771072 367.477 0.942072 367.909 0.791072L364.883 1.00207L365.753 1.33407C363.531 1.11207 362.123 1.94107 360.338 2.20507C360.577 1.66407 362.059 1.60007 363.226 1.31207C362.101 0.671072 362.493 1.66007 360.637 1.58107C360.388 1.48607 360.323 1.35707 360.442 1.19207L358.972 1.68107C358.54 1.62007 358.782 1.50207 358.97 1.46907C356.446 2.08107 359.04 2.23307 355.649 2.51407C357.694 2.76807 357.379 2.12107 359.101 2.15307C360.098 2.53307 357.14 2.87207 356.646 3.10407C354.981 2.99207 354.783 2.18107 352.69 2.64107C354.166 2.36607 352.746 2.13507 354.842 2.09707C356.012 1.80807 354.22 1.86007 353.973 1.55307C353.42 1.65607 354.348 2.11907 352.805 2.05307L352.865 1.97207L350.347 2.58307C347.993 2.31507 345.05 3.29007 343.435 2.67107L343.813 3.23807C342.335 3.30107 340.237 3.34007 339.19 3.46507C339.429 3.13607 340.418 3.09407 341.464 2.96907C338.807 2.89807 336.47 3.26407 334.687 3.73907C335.991 4.13307 336.177 4.09807 337.414 4.36207C335.698 5.17707 335.368 3.89307 333.15 4.30807C333.083 3.75507 333.824 3.82807 333.264 3.29607C332.344 3.68107 330.798 3.61607 329.752 3.95207C329.189 3.42007 330.168 2.95307 332.451 2.88107C334.186 3.33707 336.087 2.48707 337.515 2.92807L336.646 2.59307C338.375 2.41207 339.421 2.50007 340.896 2.22407L340.837 2.30707L341.57 1.74607L340.77 1.75407C341.32 1.43707 342.978 0.916072 343.472 0.895072C341.002 1.00207 340.833 1.88407 339.667 2.38507C337.444 2.37407 336.564 1.40707 335.089 1.89407C334.966 1.63307 333.724 1.36907 334.712 1.11607C335.94 0.955072 336.811 1.28907 336.929 0.912072C335.632 0.943072 336.124 0.709072 334.152 0.795072C333.784 1.28807 332.313 1.77607 330.905 2.18107C329.425 2.45707 327.51 2.46007 326.332 2.32407C327.814 2.26107 329.289 1.77307 328.911 1.41807C328.053 1.93407 326.008 1.04207 326.451 1.73707C324.724 1.70707 321.82 1.75307 321.626 1.15207C323.258 0.912072 324.843 1.26407 326.227 1.11907C325.845 1.11007 325.47 0.961072 325.693 0.817072L327.733 0.862072C326.188 0.584072 326.492 0.385072 324.517 0.471072C324.642 0.518072 324.891 0.613072 324.705 0.646072C324.213 0.668072 323.594 0.643072 323.098 0.665072L323.031 0.112072C321.555 0.387072 318.703 -0.283928 315.998 0.151072L316.24 0.0340717C314.08 -0.0579283 313.909 1.03507 311.565 1.19007C312.241 0.923072 311.928 0.697072 311.804 0.438072C310.637 0.727072 310.011 0.278072 308.835 0.143072C310.2 0.453072 307.921 0.738072 308.911 0.907072C308.983 1.46107 306.572 1.48607 305.336 1.43307C304.591 0.725072 309.158 1.00307 307.295 0.290072C306.061 0.237072 305.757 0.646072 306.625 0.768072C305.081 0.702072 302.735 0.646072 301.615 0.217072C299.776 0.774072 299.033 0.488072 297.868 1.20007C298.855 1.15907 298.908 0.652072 300.149 0.916072L298.797 1.45107C297.01 1.50307 295.582 1.06107 294.348 1.00907L295.641 0.766072L295.579 0.850072C296.071 0.616072 297.739 0.730072 297.547 0.342072C296.382 0.841072 295.448 0.378072 293.911 0.736072L293.971 0.653072C291.263 1.08807 289.269 -0.0969283 287.558 0.932072C288.052 0.910072 289.046 1.29107 288.739 1.48907C288.115 1.25207 286.453 1.35107 286.509 1.05607L287.065 0.952072C285.521 0.888072 284.593 0.848072 284.037 0.952072C283.613 1.31407 284.052 1.58707 282.941 1.79507C280.221 1.59507 284.037 0.952072 282.185 0.660072L279.659 1.06207L279.098 0.742072C275.334 0.454072 272.445 1.56007 268.436 1.60207C268.367 1.04807 271.263 0.790072 272.249 0.746072C271.008 0.270072 269.23 0.957072 267.56 0.631072C266.013 0.567072 264.852 1.06707 265.1 1.37407C263.193 1.59007 263.738 1.06207 263.493 0.968072C262.879 1.57607 260.472 1.38807 258.935 1.53507L258.861 1.19507L256.462 1.64107C257.08 1.67007 256.53 1.98207 256.532 2.19407L255.916 2.16807C258.276 3.07407 261.212 1.46407 263.635 2.49707C262.897 2.63507 263.889 2.80507 263.148 2.94307C262.533 2.91507 262.408 2.86807 262.343 2.73807C261.976 3.01807 260.994 3.27407 262.29 3.24307C262.237 3.96107 259.641 3.80907 257.859 4.07207C256.433 3.62907 259.331 3.37007 260.064 3.02207C259.386 3.07907 258.833 3.39507 257.845 3.22407L258.082 2.68507C255.62 3.00307 257.413 3.16207 256.862 3.69007C256.198 4.38207 254.642 3.68107 253.965 3.73707L254.702 3.59907C252.789 3.39007 252.363 3.96607 250.639 3.93507L249.826 3.51807C251.998 4.03407 252.466 2.74207 253.706 3.00607C250.552 2.53207 254.371 1.89207 255.351 1.42507C253.992 1.53707 252.76 1.48507 252.018 1.19907C250.049 1.92007 247.876 0.981072 245.978 1.83207C244.929 1.74507 246.896 1.44707 245.786 1.44207C243.75 1.39907 241.59 1.51807 239.436 1.84907C238.321 1.84507 238.509 1.59807 238.195 1.37507C232.822 1.10407 230.74 2.41207 224.873 2.16307L225.731 1.86107C224.5 1.80807 223.448 1.72007 222.84 2.11907C221.281 1.20507 217.6 2.74207 215.614 1.76807C213.019 1.61607 212.906 2.41507 210.87 2.58307C210.868 2.37107 211.482 1.97207 210.427 1.88607C203.77 2.28107 197.783 2.40907 190.445 2.64607C190.505 2.56507 190.875 2.49407 191.058 2.46107C186.306 2.42907 181.63 3.37107 177.679 3.11807C176.938 3.25707 174.721 3.45907 175.406 3.82707C176.329 3.86807 176.46 4.33707 176.402 4.63107C172.891 5.07607 174.668 3.96607 172.322 4.12007C171.572 3.41107 173.796 3.63207 173.79 2.99607L170.401 3.48707C168.486 3.28007 166.577 3.70507 164.908 3.38207C165.651 3.45407 165.145 2.84207 166.384 3.10607C166.197 3.13907 166.323 3.18607 166.136 3.22207C168.979 3.25607 167.679 2.86307 170.208 2.67507C167.985 2.87807 164.966 3.08807 162.988 2.96207C163.427 3.44407 161.388 3.18907 160.836 3.50507L160.712 3.45707C160.714 3.66907 159.488 3.82707 159.112 3.89707L158.612 3.28307C157.747 3.37407 158.861 3.59107 157.998 3.68007C156.773 3.83907 152.385 3.95107 152.07 3.30207C150.585 3.36707 150.16 3.72907 148.621 3.66207C148.74 3.49807 149.11 3.43007 149.166 3.34807C145.899 3.25107 141.889 3.50207 138.794 3.16107C136.272 3.35007 134.112 3.47007 132.516 3.91007C133.193 3.85407 135.172 3.98007 133.939 4.35107C133.263 4.61907 132.215 4.53107 131.169 4.65507C131.411 4.32807 128.509 4.37407 130.603 4.12607C130.068 3.42107 126.083 4.31007 126.109 3.60407C125.621 3.82607 122.64 3.72907 121.529 4.12007C121.278 3.81307 123.136 3.89107 123.13 3.68007L121.775 3.79107L121.773 3.58007C119.173 3.42707 118.698 4.29607 117.157 4.44307L117.216 4.36007L116.169 4.48407L117.394 3.90107C115.731 4.00007 114.875 4.51407 113.025 4.64807L112.838 4.47007L111.725 4.67707C111.913 4.64207 111.975 4.56007 111.853 4.51307C110.807 5.06007 108.4 4.87507 107.42 5.34007C106.679 5.26707 106.048 4.60307 105.068 5.07107L105.246 4.40207C107.711 4.29507 106.171 4.86507 108.763 4.59307C106.84 3.75007 101.471 3.90307 97.893 4.00307C95.003 4.47307 90.239 3.80607 89.018 4.81107L89.32 4.40207L84.444 4.11007C80.309 4.31707 76.049 4.05007 72.908 4.63507L72.039 4.30407C68.79 5.47607 60.938 4.88807 58.8 6.27907C56.948 5.99007 59.35 5.75207 59.532 5.50607C58.17 5.40807 55.9 6.32607 54.596 5.72007C54.594 5.50907 56.507 5.50407 55.642 5.38407C54.651 5.00207 54.231 5.78807 53.111 5.36107C53.609 5.76307 51.332 6.25907 49.672 6.35607C49.979 6.37007 49.979 6.37007 50.11 6.41707C50.355 6.72507 49.118 6.67307 48.44 6.72707C48.44 6.72707 48.502 6.64707 48.685 6.61107C40.12 7.22107 30.313 7.56607 21.297 7.26807L22.955 6.95807C21.663 7.19807 19.374 7.05907 18.637 6.98607L18.824 6.95207C16.409 6.34107 16.114 7.59707 14.254 6.88407L14.619 6.81407C11.719 6.86107 9.989 6.19507 7.156 6.58207C4.926 6.36107 5.169 6.03207 3.621 5.75507C2.326 5.78307 1.722 6.18207 1.656 6.26407L2.277 6.29007C2.959 6.65707 0.922 6.61307 0 6.78507C0.684 7.36507 0.327 8.28107 2.93 8.85707C4.839 8.64207 4.796 9.78307 6.953 9.66307C8.176 8.86907 10.047 10.2171 12.009 9.49707C10.967 10.0451 14.358 9.76507 12.642 10.3701C13.45 10.7861 16.828 9.87007 18.383 10.3601C18.132 10.4781 18.193 10.6061 17.827 10.6761C19.985 10.3441 19.313 11.0351 20.917 11.0181L20.85 10.4651C21.467 10.2791 21.657 10.6681 22.209 10.5661C21.772 10.5041 20.848 10.2531 21.332 10.0211C22.072 9.88307 22.689 9.69707 23.489 9.68907C23.5 9.90007 22.943 10.0031 22.567 10.0731C22.567 10.0731 24.302 10.1051 24.426 10.3641C23.809 10.5481 23.008 10.5561 22.464 10.8721C24.744 11.0121 22.648 11.0491 23.763 11.4761C23.445 10.8291 25.737 11.1801 26.965 11.0201C27.096 11.2811 26.103 11.1121 25.798 11.3101C28.161 12.4271 29.315 11.0791 32.339 11.2921C32.278 11.3731 31.909 11.4431 31.722 11.4771C33.144 11.2841 34.14 11.8771 35.059 11.4921C36.42 11.5921 35.315 12.2231 37.414 12.1851C36.789 11.5241 39.885 12.2891 39.933 11.5731L41.546 11.9781C42.964 11.5741 41.155 10.7771 43.933 10.6831C46.466 10.9191 43.705 11.8611 45.188 12.2181L45.802 11.8211L47.042 12.0851L46.854 12.1201C47.595 11.9831 48.95 12.0821 48.955 12.2931C48.836 12.4581 48.031 12.4661 47.916 12.6301C49.14 12.2601 52.799 13.5571 54.079 12.4691C54.809 12.6511 56.309 12.6331 56.12 12.9751C56.777 12.4941 59.408 13.0911 60.383 12.7791C60.257 12.9431 61.189 13.1941 61.928 13.0581C60.935 12.8891 61.555 12.7031 62.225 12.4351C63.098 12.7681 65.561 12.4511 65.94 13.0161C67.295 12.6921 66.794 12.2911 67.09 11.8791C67.963 12.2131 70.74 12.1191 70.257 12.7751C69.51 12.7031 67.843 12.5891 68.162 13.0261C69.583 13.2531 68.775 12.8401 69.943 12.7631C69.857 12.8821 70.742 13.1571 70.52 13.3481C71.21 13.2701 72.176 13.2661 73.162 13.3671C71.62 13.0871 74.142 12.9001 73.215 12.6491L71.742 13.1371C69.951 13.1861 71.363 12.7821 70.683 12.6251C73.829 12.4621 73.201 11.8001 76.158 11.4611C76.714 11.5681 77.703 11.7381 78.014 11.7521C77.026 11.7941 77.223 12.3951 77.784 12.5031C79.434 11.9801 80.748 12.7971 82.107 12.8981C80.929 12.7641 81.544 12.3671 81.973 12.2151C84.805 11.8291 83.088 12.4311 84.327 12.6951C88.701 12.5861 91.491 13.3401 95 12.8971L93.33 12.3591L92.781 12.8861C91.479 12.4921 93.009 11.7111 93.744 11.3621C93.934 11.5391 96.094 11.4191 95.234 11.7211L97.331 11.4721C97.016 11.2471 95.66 11.3591 96.638 11.1031C97.329 11.2601 99.484 11.3521 98.133 11.6751C99.242 11.6801 100.658 11.4871 100.41 11.1801C102.197 11.1301 100.232 11.8491 99.436 12.0701C100.853 12.0881 100.675 12.5441 100.248 12.6961L102.217 12.6111C101.79 12.7601 101.792 12.9721 101.366 13.1231C102.663 13.3061 103.583 12.7111 104.694 13.1391L105.184 12.6931C108.766 13.0161 108.399 13.0841 111.734 13.0991L111.174 12.7791C113.693 12.1661 113.029 13.2821 116.421 13.0031C118.33 12.7871 119.565 12.6281 119.308 12.1081C120.412 11.9021 120.667 12.2101 121.166 12.4001C122.023 12.0981 123.867 11.5411 125.227 11.8531C124.305 12.0241 123.567 12.1631 122.704 12.2551C122.961 12.7711 125.666 12.3371 127.086 12.5671C128.072 12.3121 131.275 11.6441 133.055 11.1701C132.245 10.7541 132.545 10.1321 134.144 9.69107C133.901 10.0201 136.31 9.99607 137.419 10.2141C136.873 10.5271 139.899 10.9521 137.561 11.1061C136.88 10.9521 136.564 10.5131 135.638 10.6861C136.199 11.0071 137.689 11.3671 139.233 11.6441C139.116 11.8091 138.313 12.0271 137.512 12.0351C137.948 11.8871 137.693 11.7901 137.63 11.6601Z" fill="#C83F45"/>
<path d="M185.765 11.3783C185.886 11.3553 186.109 11.2773 186.112 11.2113C185.961 11.2553 185.829 11.3063 185.765 11.3783Z" fill="#C83F45"/>
<path d="M219.385 10.6903C219.349 10.6443 219.342 10.5983 219.326 10.5533C219.299 10.5863 219.306 10.6273 219.385 10.6903Z" fill="#C83F45"/>
<path d="M362.997 6.59167L362.398 6.70367C362.616 6.70267 362.718 6.64367 362.997 6.59167Z" fill="#C83F45"/>
<path d="M360.784 2.93003C360.699 2.92303 360.617 2.91403 360.532 2.91003L360.842 3.02903C360.739 2.98903 360.739 2.95603 360.784 2.93003Z" fill="#C83F45"/>
</g>
</svg>
