<svg width="982" height="12" viewBox="0 0 982 12" fill="none" xmlns="http://www.w3.org/2000/svg">
<path d="M359.698 9.87005C352.282 10.2451 361.284 10.6201 360.181 11.0171C362.161 10.9111 366.378 10.9841 364.385 10.6831C368.272 11.4811 376.143 10.2421 380.347 10.8761C380.528 10.7961 378.094 10.5361 381.002 10.3381C385.352 10.2591 385.035 10.6331 386.81 10.7951C388.102 10.5661 394.709 10.4041 394.069 10.5161C396.961 10.3211 390.989 9.73505 395.026 9.39105C397.761 8.85505 401.478 9.31005 404.701 9.16205C408.577 9.53705 400.834 9.42405 399.227 9.60405L410.191 9.35805C413.417 9.63505 408.744 9.88005 405.511 9.81605C409.883 10.1561 415.516 9.84605 416.807 9.40605C419.55 9.50305 421.001 9.40505 423.583 9.58405C421.015 9.82905 421.174 10.5961 417.148 10.7251C410.525 10.6781 419.55 10.1391 413.915 10.0251L413.432 10.4821C411.016 10.2221 409.092 10.5631 406.499 10.5971C405.051 10.4821 406.816 10.4331 407.784 10.3671C403.1 10.4021 399.376 10.1581 395.842 10.6791C402.149 11.1021 411.657 10.5311 414.417 11.0521L426.983 10.4151C426.983 10.2031 422.615 9.86205 426.165 9.55205C427.624 10.0891 431.333 10.3341 436.181 10.4291C434.391 9.84405 443.923 9.90605 441.49 9.43505C439.232 9.72905 438.098 9.24005 437.781 9.19205C442.465 9.15805 438.415 8.65405 440.99 8.62105C449.547 8.75005 440.673 8.99505 449.071 9.20605C447.296 9.46705 442.777 10.0541 438.115 10.3001C438.439 10.5591 442.777 10.2651 444.738 10.5591C441.983 10.2501 446.662 10.0061 444.397 9.87505C451.179 9.63005 459.079 9.02505 467.302 8.89405C466.02 9.75905 453.437 9.54805 456.029 10.5741C460.06 10.4421 460.045 10.0201 463.279 10.0841C466.02 10.6041 472.793 10.1471 478.292 10.1321L475.859 9.87005C477.951 9.65805 481.817 9.82105 484.25 9.87005L483.616 9.98405L486.008 9.82105C486.382 9.84305 486.469 9.87005 486.462 9.90305C489.098 9.63505 495.822 9.89105 500.864 9.73705C500.859 9.31405 495.865 9.72005 493.449 9.67205C492.792 9.57505 488.125 9.39605 490.384 9.10405C496.653 9.10205 501.016 8.59605 508.112 8.61105L505.856 8.48205C508.112 8.18805 511.174 8.33505 514.556 8.31605C520.698 8.60805 510.045 8.90505 513.766 9.14905C511.355 9.52305 507.153 9.10005 506.514 9.63805L510.38 10.2241C513.613 9.86605 517.173 10.4021 519.439 10.3211L517.006 10.0611C517.484 9.60405 519.741 9.94705 520.88 10.0121L519.244 9.34405C515.705 9.22905 513.282 9.81605 510.707 9.42705C516.989 9.21405 515.54 8.67505 523.114 8.65905C523.455 8.91905 521.655 8.75605 520.87 8.95205C523.455 9.13105 526.179 8.59305 530.373 8.80405C527.971 8.96705 524.088 9.22905 527.164 9.58705L529.412 9.08305C531.347 9.16205 530.554 9.35805 531.347 9.37505C534.1 9.47105 530.713 8.85305 535.063 8.98205C535.711 9.08105 537.155 9.19505 536.521 9.30805C541.52 9.32505 538.925 9.14505 543.596 8.90005C539.413 8.90105 539.251 8.13605 543.596 8.05405C549.728 8.13505 553.908 7.71005 558.119 8.34405L560.86 8.01705C559.1 8.49105 564.741 8.18105 566.683 8.26105C567.326 8.78305 557.485 8.24605 557.485 9.09305C561.516 9.17505 559.758 9.43505 558.459 9.66205C562.824 9.58305 560.075 9.06105 562.002 8.71805C562.009 8.93105 569.432 8.78305 566.857 9.24005C570.566 9.27105 571.207 8.73305 573.941 8.83105C573.528 9.03905 573.054 9.30705 573.315 9.57405C573.639 9.39805 577.143 9.61405 577.823 9.63005C577.182 9.53105 579.106 9.18805 575.885 9.33505C576.689 8.92805 583.473 9.31905 583.295 8.97705C583.63 9.44805 590.238 9.07405 593.624 9.26905C593.291 8.16105 587.344 9.69205 586.205 8.78105C590.713 8.40505 601.371 8.74505 608.63 8.25605C614.912 8.46705 608.63 8.67905 609.917 9.08705C604.121 9.26705 602.662 8.94105 597.655 9.13905C603.146 9.33105 612.175 9.21605 616.203 8.87505C622.185 8.82505 622.842 9.98005 630.101 9.70305C629.134 9.34705 629.294 9.26305 627.026 9.13205C628.96 9.00305 631.226 9.13205 633.318 9.13205C634.601 8.90505 630.084 8.85705 632.986 8.65905C634.118 8.72505 636.536 8.77405 636.059 9.01705L635.576 9.05105C642.508 8.72405 640.59 9.91405 646.549 9.22905C646.067 9.05105 644.774 9.27805 643.316 9.16205C642.192 8.88805 645.884 8.49705 648.642 8.38205C648.149 8.62605 651.058 8.42905 652.99 8.51005C654.286 8.91805 648.149 8.62605 647.184 8.90305L652.514 8.96705L651.392 8.90305L657.187 8.51005C653.148 8.64105 655.248 8.00605 657.023 7.95605C661.049 8.03705 665.09 8.11805 664.605 8.57505C665.09 8.11805 670.089 8.13505 673.639 8.03605C669.766 7.87305 673.149 7.64505 674.273 7.49805L680.085 7.95305C673.956 8.08305 681.379 8.36005 679.938 8.67105C678.171 9.14305 674.454 8.90005 671.221 8.83505C677.53 9.68105 680.095 8.37805 685.586 8.78305C685.586 8.99505 685.103 9.24005 682.687 9.19205C683.655 9.33605 687.688 8.78305 691.402 9.02705C690.427 8.87905 688.329 8.45705 692.028 8.27805L696.879 8.79805C702.527 8.91205 698.81 8.24405 703.477 7.99905L700.418 7.64105C700.895 7.18305 706.707 7.64105 706.86 7.13605C703.961 7.12005 702.341 7.51005 699.294 7.36605C698.145 6.87505 703.161 7.10305 704.911 6.84105C711.215 7.05405 709.918 7.07005 714.61 7.46005C714.783 8.22505 706.87 8.40605 707.868 9.40005C713.993 9.26905 722.867 9.02305 726.893 9.31505C732.38 9.08705 731.883 8.48405 731.073 8.04405C733.341 7.96205 734.458 8.02905 735.914 8.14105L733.341 8.38805C740.115 8.14105 743.98 7.87905 751.089 7.89605C755.105 7.76505 753.488 7.30805 752.523 6.95005L756.88 6.86705L756.218 6.77005C757.19 6.28105 761.061 6.44405 763.963 6.46005C763.972 6.67105 762.198 6.72105 762.362 6.85105C764.937 7.03005 768.815 6.98005 770.904 6.76805C770.912 6.98005 769.144 7.45305 766.078 7.30705C765.754 7.25705 765.914 7.17805 765.595 7.12705L760.43 7.40505C766.395 7.14305 769.954 7.68005 769.802 8.18605C775.77 7.92405 764.947 7.66505 772.046 7.47005C781.41 8.46005 789.794 7.19005 794.976 8.60605C799.321 8.31205 804.481 7.82205 811.258 7.79005C811.258 7.36605 815.782 7.62605 815.125 7.10305C808.659 6.55205 803.035 7.92005 797.85 7.14005C794.959 7.33505 795.933 7.69305 794.634 7.92005C792.067 7.95405 789.642 7.90605 789.308 7.64505C795.275 7.38305 790.911 6.62005 798.489 6.60205C797.526 6.24305 791.385 6.37405 788.652 6.27705C789.452 6.08205 788.635 5.85405 786.86 5.69105C788.803 5.34905 793.141 5.05505 795.399 4.76005C794.604 4.95605 796.061 5.07105 795.409 5.18605L803.31 4.58205C805.736 4.84105 806.393 5.15205 805.093 5.37905C809.459 5.50805 816.861 4.93805 816.883 5.57405C822.524 5.47405 815.093 5.19805 814.61 5.01905L815.093 4.98705L809.126 5.03705C808.468 4.30405 815.908 5.21505 816.861 4.51305C817.802 3.17905 825.265 4.93605 829.449 4.72505L824.615 5.68605L828.815 5.47405C826.399 5.84905 826.407 6.48305 822.707 6.87505C828.506 6.90605 836.746 7.19805 840.462 7.01905C841.911 7.34605 842.552 7.65605 841.911 7.98005C847.719 7.37505 850.951 8.28905 855.959 8.30405C861.269 7.94605 850.627 7.81605 854.494 7.34405C856.101 7.58705 859.01 7.39105 860.459 7.29405C858.851 7.47305 853.198 7.14805 849.319 6.98505C852.228 7.00205 851.904 6.53005 852.712 6.33505L847.861 6.23605C848.178 5.65005 853.826 6.18805 856.078 5.89305C854.644 6.41505 855.437 6.43205 854.001 6.95305C858.193 6.74005 864.485 6.74005 868.045 7.06405C870.143 7.27605 866.277 7.32505 865.143 7.47305C866.109 7.83105 869.333 7.25905 870.143 7.70105C869.5 8.02705 867.568 7.73305 866.109 7.83105L878.374 7.99305C878.374 8.20305 875.315 8.27005 873.383 8.18805C877.1 8.43305 879.831 8.31605 884.181 7.60005C888.375 7.81105 893.211 8.12005 891.781 8.42905C893.713 8.30005 892.422 8.10405 892.407 7.89105C898.064 8.00605 898.69 7.25605 902.075 7.24005L899.507 6.84905C904.986 7.25605 900.781 6.19705 905.621 6.50705C904.831 6.91405 905.148 7.38505 905.963 7.82505C906.763 7.41905 909.837 7.77605 911.93 7.77605C910.63 7.36905 916.435 7.40105 913.047 6.99505C917.895 6.66605 920.147 7.22005 923.696 6.69805C921.445 6.56905 927.884 6.27505 925.938 5.98105C930.628 5.95005 933.852 6.43705 932.577 6.87805C930.955 6.84605 928.363 6.66605 928.544 7.00805L937.084 6.92705C939.2 7.13805 941.927 7.23405 942.266 7.70605C944.999 7.16805 950.332 8.08105 952.424 7.44405C949.525 7.85305 947.252 7.30005 946.142 7.23305L947.465 7.14305C947.274 7.14305 947.059 7.13605 946.776 7.12005L950.466 6.30405C946.918 5.98005 949.835 6.84105 944.819 6.82505C940.472 6.06205 954.658 5.67005 950.134 5.19605C946.428 4.95305 947.078 5.68605 944.019 5.96305L944.819 5.98005L937.885 6.30705C937.561 6.04605 939.659 5.83305 939.659 5.83305C931.262 5.83505 929.964 5.42805 920.93 5.33105C921.586 5.42905 923.358 6.22705 919.327 6.35805C916.435 6.55405 916.099 6.08205 913.688 6.03205C915.129 5.93505 916.423 5.49405 918.355 5.78705L918.198 5.23405C924.963 4.56505 921.413 4.02805 930.604 3.83105C931.025 3.42505 937.687 3.21405 942.687 3.33205L940.262 2.96705C945.415 2.26605 941.236 3.53705 947.844 2.95005C950.594 3.68305 955.616 4.54305 951.909 5.14805C956.592 5.32505 958.191 4.93505 962.401 4.93505C964.983 5.53705 961.112 5.58705 961.598 6.18905C964.673 6.12305 968.54 5.86305 966.262 5.52105L972.089 5.76305C972.244 5.89305 970.158 5.89305 969.34 5.87805C971.606 6.00805 975.958 5.71505 977.239 5.48705C976.761 5.51905 975.298 5.61805 974.664 5.51905C977.083 5.35605 981.433 5.06205 981.75 4.89905C978.207 5.20805 977.883 4.52405 974.174 4.91605C974.491 4.75405 975.127 4.42805 977.066 4.50805C973.997 4.15005 970.933 4.21605 969.643 3.80905C972.232 4.11405 973.889 3.67205 974.434 3.60805C972.114 3.49205 967.491 3.60305 965.933 3.77705C965.592 3.09405 956.902 3.89305 959.951 3.19205C959.468 3.43605 956.077 3.45305 954.298 3.29105C954.46 2.99505 958.969 2.83405 960.904 2.49205C969.942 2.16305 960.744 2.99505 962.853 3.20805L969.749 3.15905C969.055 3.06005 972.51 2.68105 968.011 2.72005C970.101 2.29505 974.451 2.00005 977.999 2.32705C978.816 2.12905 976.226 2.16305 975.424 2.14705C976.226 1.95205 980.577 1.23305 974.928 1.12105C976.543 1.15305 972.186 1.44705 975.092 1.67505C972.834 1.75605 966.702 1.46405 969.128 1.08805C966.379 1.20305 961.22 1.48105 958.962 1.56305C958.312 1.25205 960.895 1.43205 962.029 1.28605L954.111 1.46705L956.377 1.80705C950.575 1.56305 946.87 2.37905 942.196 2.62505C942.837 2.08705 946.713 2.03705 949.771 1.76005C946.846 1.10805 947.844 2.10105 942.996 2.00405C942.345 1.90605 942.179 1.77605 942.496 1.61305L938.639 2.08705C937.512 2.02205 938.148 1.90605 938.639 1.87505C932.023 2.46205 938.804 2.64105 929.93 2.88705C935.271 3.16205 934.464 2.51205 938.963 2.56005C941.562 2.95105 933.82 3.26005 932.52 3.48705C928.172 3.35805 927.674 2.54605 922.19 2.98505C926.056 2.72405 922.349 2.47905 927.831 2.46205C930.896 2.18505 926.211 2.22005 925.572 1.90905C924.124 2.00805 926.538 2.47905 922.507 2.39805L922.666 2.31805L916.065 2.90405C909.919 2.61205 902.201 3.55805 897.993 2.92405L898.968 3.49405C895.101 3.54205 889.615 3.56005 886.875 3.67505C887.509 3.34905 890.094 3.31605 892.833 3.20205C885.887 3.10405 879.769 3.44705 875.095 3.90405C878.492 4.31105 878.981 4.27905 882.208 4.55505C877.701 5.35205 876.87 4.06505 871.061 4.45805C870.902 3.90405 872.836 3.98505 871.386 3.44705C868.971 3.82405 864.93 3.74305 862.187 4.06905C860.729 3.53105 863.3 3.07405 869.27 3.02405C873.794 3.49705 878.787 2.66605 882.51 3.12105L880.245 2.77805C884.77 2.61405 887.502 2.71205 891.368 2.45205L891.211 2.53305L893.142 1.97905H891.051C892.495 1.66805 896.844 1.16305 898.136 1.14705C891.675 1.23005 891.211 2.11005 888.15 2.59905C882.337 2.56605 880.061 1.59105 876.195 2.06305C875.879 1.80105 872.638 1.52505 875.228 1.28205C878.444 1.13305 880.712 1.47505 881.029 1.10005C877.639 1.11705 878.93 0.889054 873.772 0.955054C872.798 1.44505 868.939 1.91805 865.247 2.30905C861.37 2.57105 856.363 2.55505 853.288 2.40605C857.163 2.35805 861.032 1.88505 860.055 1.52705C857.797 2.03305 852.473 1.12105 853.614 1.82105C849.099 1.77305 841.507 1.79105 841.016 1.18805C845.286 0.964054 849.423 1.33105 853.043 1.20105C852.047 1.18705 851.07 1.03605 851.657 0.893054L856.989 0.958054C852.956 0.665054 853.756 0.470054 848.591 0.536054C848.916 0.584054 849.566 0.681054 849.078 0.712054C847.791 0.729054 846.174 0.698054 844.875 0.716054L844.716 0.162054C840.849 0.422054 833.409 -0.276946 826.327 0.131054L826.963 0.016054C821.317 -0.096946 820.843 0.995054 814.711 1.12605C816.485 0.866054 815.671 0.636054 815.354 0.376054C812.295 0.654054 810.671 0.198054 807.599 0.052054C811.161 0.376054 805.196 0.638054 807.779 0.816054C807.953 1.37105 801.647 1.37205 798.418 1.30705C796.489 0.592054 808.422 0.915054 803.569 0.183054C800.346 0.119054 799.539 0.525054 801.807 0.656054C797.771 0.574054 791.639 0.495054 788.723 0.054054C783.899 0.593054 781.964 0.300054 778.899 1.00005C781.481 0.968054 781.633 0.462054 784.871 0.739054L781.323 1.26005C776.647 1.29505 772.926 0.838054 769.701 0.774054L773.09 0.544054L772.926 0.627054C774.217 0.398054 778.575 0.529054 778.084 0.139054C775.025 0.626054 772.593 0.154054 768.567 0.497054L768.726 0.415054C761.634 0.823054 756.452 -0.381946 751.953 0.630054C753.243 0.613054 755.833 1.00305 755.026 1.19805C753.401 0.955054 749.051 1.03705 749.206 0.744054L750.661 0.645054C746.629 0.565054 744.203 0.516054 742.745 0.614054C741.628 0.973054 742.769 1.25005 739.86 1.44705C732.754 1.22005 742.745 0.614054 737.911 0.305054L731.296 0.681054L729.838 0.355054C720.006 0.031054 712.424 1.10805 701.942 1.11005C701.775 0.555054 709.353 0.327054 711.933 0.292054C708.7 -0.195946 704.033 0.473054 699.677 0.131054C695.633 0.051054 692.584 0.539054 693.225 0.849054C688.234 1.04605 689.672 0.523054 689.035 0.427054C687.414 1.02905 681.125 0.816054 677.102 0.948054L676.918 0.608054L670.636 1.03105C672.251 1.06505 670.803 1.37205 670.805 1.58405L669.195 1.55205C675.341 2.48105 683.058 0.900054 689.365 1.95805C687.434 2.08805 690.023 2.26705 688.082 2.39805C686.474 2.36405 686.15 2.31605 685.983 2.18505C685.016 2.46205 682.441 2.70805 685.831 2.69005C685.673 3.40805 678.891 3.23005 674.224 3.47405C670.508 3.01705 678.091 2.78705 680.018 2.44705C678.243 2.49705 676.787 2.80805 674.21 2.62705L674.843 2.09105C668.4 2.38405 673.083 2.56105 671.627 3.08305C669.874 3.76805 665.825 3.05205 664.052 3.10105L665.984 2.97105C660.987 2.74305 659.859 3.31405 655.352 3.26605L653.237 2.84105C658.902 3.37905 660.16 2.09205 663.394 2.36705C655.161 1.86305 665.162 1.26005 667.737 0.804054C664.181 0.902054 660.962 0.838054 659.028 0.544054C653.863 1.24505 648.204 0.285054 643.222 1.11705C640.479 1.02005 645.629 0.742054 642.729 0.725054C637.406 0.662054 631.758 0.760054 626.117 1.07005C623.201 1.05405 623.699 0.810054 622.884 0.583054C608.843 0.259054 603.368 1.54605 588.036 1.23905L590.287 0.945054C587.069 0.880054 584.32 0.782054 582.721 1.17505C578.668 0.245054 569.004 1.74505 563.839 0.752054C557.057 0.574054 556.74 1.37205 551.414 1.52005C551.414 1.30805 553.031 0.915054 550.275 0.819054C532.86 1.14705 517.204 1.21605 498.012 1.38005C498.172 1.30005 499.139 1.23305 499.621 1.20105C487.197 1.12105 474.948 2.01705 464.625 1.72505C462.684 1.85705 456.883 2.03705 458.663 2.41205C461.075 2.46205 461.407 2.93305 461.248 3.22505C452.057 3.63605 456.73 2.54305 450.594 2.67505C448.652 1.95805 454.46 2.20105 454.46 1.56505L445.586 2.02205C440.586 1.79605 435.585 2.20305 431.229 1.86305C433.17 1.94205 431.861 1.32505 435.095 1.60105C434.604 1.63305 434.933 1.68105 434.444 1.71605C441.874 1.77805 438.487 1.37105 445.103 1.20805C439.287 1.38905 431.388 1.56905 426.221 1.42405C427.355 1.91105 422.031 1.63505 420.58 1.94505L420.256 1.89605C420.256 2.10805 417.047 2.25405 416.063 2.32005L414.772 1.70105C412.506 1.78305 415.415 2.01205 413.157 2.09205C409.948 2.23905 398.474 2.30805 397.667 1.65505C393.783 1.70505 392.661 2.06305 388.64 1.98105C388.957 1.81905 389.925 1.75405 390.074 1.67205C381.534 1.54305 371.045 1.75405 362.961 1.38305C356.363 1.54605 350.712 1.64505 346.53 2.06905C348.301 2.02005 353.471 2.16605 350.239 2.52405C348.464 2.78605 345.726 2.68705 342.987 2.80105C343.628 2.47705 336.04 2.49405 341.522 2.26605C340.141 1.55705 329.701 2.40605 329.787 1.70005C328.503 1.91605 320.715 1.79105 317.799 2.17105C317.151 1.86105 322.006 1.95805 321.996 1.74505L318.45 1.84405V1.63305C311.657 1.45405 310.393 2.31805 306.36 2.45005L306.516 2.36705L303.777 2.48105L306.993 1.91105C302.643 1.99305 300.392 2.49905 295.552 2.61405L295.067 2.43305L292.152 2.63005C292.645 2.59705 292.809 2.51605 292.492 2.46705C289.743 3.00405 283.454 2.79505 280.879 3.25005C278.945 3.17005 277.313 2.50005 274.737 2.95805L275.221 2.29105C281.669 2.20805 277.626 2.76305 284.412 2.51605C279.404 1.65505 265.365 1.75405 256.008 1.81905C248.439 2.26005 236.002 1.54605 232.783 2.53905L233.583 2.13305L220.843 1.79205C210.028 1.95805 198.898 1.64905 190.669 2.20305L188.406 1.86305C179.881 3.00305 159.369 2.33705 153.742 3.70705C148.909 3.39905 155.193 3.18505 155.676 2.94105C152.117 2.82905 146.16 3.72505 142.765 3.10605C142.765 2.89505 147.767 2.90905 145.509 2.78005C142.927 2.38905 141.81 3.17105 138.893 2.73205C140.185 3.13905 134.217 3.61205 129.877 3.69405C130.677 3.71105 130.677 3.71105 131.018 3.75905C131.651 4.06905 128.419 4.00405 126.644 4.05205C126.644 4.05205 126.808 3.97305 127.288 3.93805C104.88 4.46305 79.232 4.71105 55.669 4.32405L60.01 4.03005C56.627 4.25705 50.645 4.09605 48.72 4.01605L49.21 3.98305C42.912 3.34905 42.109 4.60105 37.264 3.87005L38.221 3.80405C30.638 3.82205 26.131 3.13905 18.715 3.49705C12.89 3.25405 13.534 2.92805 9.495 2.63605C6.108 2.65005 4.518 3.04305 4.343 3.12405L5.966 3.15805C7.74 3.53105 2.416 3.46705 0 3.63005C1.775 4.21605 0.817 5.12805 7.608 5.73005C12.605 5.53505 12.463 6.67505 18.104 6.57705C21.322 5.79405 26.18 7.16105 31.328 6.46005C28.588 6.99805 37.462 6.75205 32.96 7.34005C35.061 7.76305 43.918 6.88105 47.968 7.38705C47.311 7.50205 47.467 7.63105 46.508 7.69705C52.159 7.38705 50.384 8.07105 54.576 8.07005L54.417 7.51605C56.034 7.33605 56.521 7.72705 57.967 7.63105C56.825 7.56405 54.417 7.30405 55.689 7.07705C57.626 6.94605 59.243 6.76605 61.335 6.76605C61.359 6.97805 59.901 7.07505 58.916 7.14105C58.916 7.14105 63.45 7.19005 63.767 7.45005C62.149 7.62805 60.055 7.62805 58.624 7.93905C64.582 8.10205 59.101 8.11805 62.006 8.55705C61.192 7.90605 67.174 8.27905 70.39 8.13205C70.724 8.39405 68.132 8.21505 67.331 8.41105C73.48 9.55105 76.532 8.21405 84.431 8.45705C84.272 8.53705 83.304 8.60405 82.814 8.63605C86.537 8.45705 89.125 9.05905 91.537 8.68305C95.095 8.79805 92.188 9.41805 97.677 9.40005C96.061 8.73305 104.135 9.52905 104.278 8.81305L108.485 9.23505C112.202 8.84405 107.493 8.03005 114.76 7.96305C121.375 8.22405 114.133 9.13905 118 9.51005L119.617 9.12005L122.851 9.39605L122.359 9.42905C124.299 9.30005 127.838 9.41205 127.848 9.62305C127.531 9.78705 125.426 9.78705 125.123 9.95005C128.331 9.59205 137.863 10.9251 141.238 9.84905C143.142 10.0391 147.064 10.0361 146.563 10.3761C148.292 9.90205 155.154 10.5251 157.713 10.2221C157.379 10.3851 159.808 10.6451 161.746 10.5161C159.154 10.3371 160.778 10.1581 162.536 9.89605C164.812 10.2391 171.257 9.94505 172.235 10.5151C175.785 10.2041 174.486 9.79805 175.27 9.38905C177.544 9.73105 184.808 9.66505 183.526 10.3161C181.577 10.2371 177.221 10.1061 178.043 10.5461C181.752 10.7871 179.651 10.3661 182.707 10.3011C182.48 10.4191 184.786 10.7031 184.199 10.8911C186.005 10.8211 188.532 10.8271 191.107 10.9361C187.083 10.6411 193.682 10.4791 191.265 10.2201L187.4 10.6921C182.716 10.7241 186.418 10.3341 184.644 10.1711C192.875 10.0391 191.25 9.37005 198.99 9.06105C200.441 9.17405 203.021 9.35305 203.833 9.37005C201.251 9.40305 201.749 10.0061 203.214 10.1191C207.54 9.61305 210.956 10.4421 214.505 10.5571C211.43 10.4111 213.047 10.0201 214.172 9.87305C221.588 9.51505 217.081 10.1001 220.314 10.3761C231.753 10.3101 239.029 11.0921 248.213 10.6831L243.86 10.1291L242.412 10.6501C239.019 10.2441 243.038 9.47805 244.97 9.13605C245.46 9.31505 251.111 9.21605 248.855 9.51005L254.344 9.28205C253.527 9.05405 249.977 9.15205 252.541 8.90605C254.344 9.07005 259.976 9.18305 256.436 9.49305C259.335 9.50905 263.042 9.32905 262.401 9.02005C267.075 8.98805 261.918 9.68805 259.833 9.90005C263.535 9.93205 263.059 10.3881 261.939 10.5351L267.09 10.4701C265.967 10.6141 265.967 10.8271 264.85 10.9731C268.237 11.1681 270.656 10.5831 273.55 11.0221L274.843 10.5801C284.199 10.9391 283.239 11.0031 291.958 11.0521L290.503 10.7251C297.104 10.1391 295.339 11.2471 304.213 11.0031C309.21 10.8051 312.443 10.6581 311.785 10.1361C314.677 9.94105 315.335 10.2511 316.636 10.4471C318.885 10.1531 323.718 9.61405 327.267 9.93905C324.852 10.1021 322.917 10.2331 320.659 10.3161C321.317 10.8351 328.401 10.4281 332.108 10.6721C334.693 10.4271 343.084 9.79105 347.751 9.33405C345.642 8.91105 346.442 8.29105 350.635 7.86705C349.992 8.19305 356.291 8.19305 359.183 8.42205C357.749 8.72905 365.648 9.18305 359.531 9.31505C357.756 9.15405 356.941 8.71205 354.516 8.87605C355.974 9.20305 359.859 9.57705 363.89 9.87005C363.58 10.0331 361.475 10.2441 359.381 10.2441C360.522 10.0991 359.859 10.0001 359.698 9.87005Z" fill="#C83F45"/>
</svg>
