<svg width="77" height="78" viewBox="0 0 77 78" fill="none" xmlns="http://www.w3.org/2000/svg">
<path d="M11.3958 73.8213C12.0628 73.8213 12.6018 74.3553 12.6018 75.0143C12.6018 75.6733 12.0628 76.2073 11.3958 76.2073C10.7288 76.2073 10.1898 75.6733 10.1898 75.0143C10.1898 74.3553 10.7288 73.8213 11.3958 73.8213Z" fill="black"/>
<path d="M5.899 64.6763C3.62 64.6763 1.743 62.8213 1.743 60.5683C1.743 58.3153 3.62 56.4593 5.899 56.4593C8.178 56.4593 10.055 58.3153 10.055 60.5683C10.055 62.8213 8.312 64.6763 5.899 64.6763ZM5.899 54.7363C2.681 54.7363 0 57.3873 0 60.5683C0 63.7493 2.681 66.4003 5.899 66.4003C9.117 66.4003 11.798 63.7493 11.798 60.5683C11.798 57.3873 9.117 54.7363 5.899 54.7363Z" fill="black"/>
<path d="M4.69274 47.314C5.35774 47.314 5.89874 47.848 5.89874 48.507C5.89874 49.166 5.35774 49.7 4.69274 49.7C4.02574 49.7 3.48474 49.166 3.48474 48.507C3.48474 47.848 4.02574 47.314 4.69274 47.314Z" fill="black"/>
<path d="M11.3958 29.9526C12.0628 29.9526 12.6018 30.4866 12.6018 31.1446C12.6018 31.8046 12.0628 32.3376 11.3958 32.3376C10.7288 32.3376 10.1898 31.8046 10.1898 31.1446C10.1898 30.4866 10.7288 29.9526 11.3958 29.9526Z" fill="black"/>
<path d="M65.8286 63.8809C66.4956 63.8809 67.0346 64.4149 67.0346 65.0739C67.0346 65.7329 66.4956 66.2669 65.8286 66.2669C65.1616 66.2669 64.6226 65.7329 64.6226 65.0739C64.6226 64.4149 65.1616 63.8809 65.8286 63.8809Z" fill="black"/>
<path d="M71.996 41.483L66.767 46.651L63.282 43.206C62.879 42.808 62.209 42.941 61.941 43.471C61.27 45.062 59.125 45.326 57.919 44.266C56.712 43.073 57.114 40.953 58.723 40.29C59.259 40.025 59.393 39.362 58.991 38.965L56.712 36.712L58.187 35.254C59.661 37.374 62.746 37.639 64.622 35.784C66.499 33.929 66.231 30.88 64.087 29.422L66.097 27.434L72.131 33.398C74.275 35.519 74.275 39.23 71.996 41.483ZM61.27 60.568H17.563V11.662H61.27V20.41L60.466 19.614C57.517 16.699 52.69 16.699 49.741 19.614L37.674 31.543C34.724 34.459 34.724 39.23 37.674 42.146L50.276 54.604C53.226 57.52 58.052 57.52 61.002 54.604L61.27 54.339V60.568ZM55.371 76.207H23.596C20.378 76.207 17.696 73.557 17.696 70.376V67.99H61.405V70.376C61.27 73.557 58.588 76.207 55.371 76.207ZM61.27 66.267H17.563V62.158H61.27V66.267ZM23.596 1.722H55.505C58.723 1.722 61.405 4.373 61.405 7.553V9.94H17.563V7.553C17.563 4.373 20.245 1.722 23.596 1.722ZM44.512 27.037L47.327 29.82C47.729 30.217 48.4 30.085 48.668 29.555C49.338 27.964 51.483 27.566 52.69 28.759C53.897 29.953 53.494 32.073 51.885 32.735C51.349 33.001 51.215 33.663 51.617 34.061L53.897 36.314L52.288 37.905C51.349 36.712 49.741 36.181 48.265 36.447C46.254 36.844 44.78 38.699 44.914 40.688C44.914 41.881 45.585 42.941 46.388 43.604L44.109 45.857L38.747 40.555C36.468 38.302 36.468 34.591 38.747 32.338L44.512 27.037ZM56.578 45.326C58.32 47.049 61.137 46.917 62.746 45.062L65.561 47.845L59.929 53.411C57.65 55.664 53.897 55.664 51.617 53.411L45.585 47.447L48.668 44.399C49.07 44.001 48.935 43.338 48.4 43.073C47.595 42.675 46.924 41.881 46.924 40.953C46.924 39.76 47.729 38.567 48.935 38.435C50.142 38.17 51.215 38.832 51.752 39.893C52.02 40.423 52.69 40.555 53.092 40.157L55.371 37.905L56.98 39.495C56.846 39.628 56.846 39.628 56.712 39.76C54.97 41.086 54.97 43.736 56.578 45.326ZM62.209 30.217C62.611 30.35 63.014 30.483 63.282 30.88C64.22 31.808 64.22 33.398 63.282 34.459C62.209 35.519 60.6 35.519 59.661 34.459C59.393 34.193 59.125 33.796 58.991 33.398C58.858 32.735 58.052 32.603 57.65 33.001C57.517 33.133 56.176 34.459 55.237 35.386L53.629 33.796C55.505 32.205 55.64 29.422 53.897 27.699C53.092 26.904 52.02 26.506 50.947 26.506C49.741 26.506 48.533 27.037 47.729 27.964L45.585 25.844L50.812 20.675C53.092 18.422 56.846 18.422 59.125 20.675C59.796 21.338 56.98 18.554 64.488 25.977L61.673 28.759C61.405 29.29 61.673 29.953 62.209 30.217ZM63.014 22.001V7.553C63.014 3.445 59.661 0 55.371 0H23.596C19.44 0 15.954 3.313 15.954 7.553V70.376C15.954 74.484 19.307 77.93 23.596 77.93H55.505C59.661 77.93 63.147 74.617 63.147 70.376V52.748L73.337 42.675C76.287 39.76 76.287 34.989 73.337 32.073L63.014 22.001Z" fill="black"/>
<path d="M72.5331 53.9409C73.1981 53.9409 73.7391 54.4749 73.7391 55.1339C73.7391 55.7929 73.1981 56.3269 72.5331 56.3269C71.8661 56.3269 71.3251 55.7929 71.3251 55.1339C71.3251 54.4749 71.8661 53.9409 72.5331 53.9409Z" fill="black"/>
<path d="M72.5331 23.3257C73.1981 23.3257 73.7391 23.8597 73.7391 24.5187C73.7391 25.1777 73.1981 25.7107 72.5331 25.7107C71.8661 25.7107 71.3251 25.1777 71.3251 24.5187C71.3251 23.8597 71.8661 23.3257 72.5331 23.3257Z" fill="black"/>
<path d="M71.7281 12.4577C73.3371 12.4577 74.6781 13.7827 74.6781 15.3737C74.6781 16.9637 73.3371 18.2897 71.7281 18.2897C70.1191 18.2897 68.7781 16.9637 68.7781 15.3737C68.7781 13.7827 70.1191 12.4577 71.7281 12.4577ZM71.7281 19.8797C74.2751 19.8797 76.2871 17.8917 76.2871 15.3737C76.2871 12.8547 74.2751 10.8667 71.7281 10.8667C69.1811 10.8667 67.1701 12.8547 67.1701 15.3737C67.1701 17.8917 69.1811 19.8797 71.7281 19.8797Z" fill="black"/>
<path d="M66.7669 1.72217C67.4339 1.72217 67.9749 2.25617 67.9749 2.91417C67.9749 3.57417 67.4339 4.10817 66.7669 4.10817C66.0999 4.10817 65.5609 3.57417 65.5609 2.91417C65.5609 2.25617 66.0999 1.72217 66.7669 1.72217Z" fill="black"/>
<path d="M7.23992 7.55322C7.90692 7.55322 8.44592 8.08722 8.44592 8.74622C8.44592 9.40522 7.90692 9.93922 7.23992 9.93922C6.57292 9.93922 6.03192 9.40522 6.03192 8.74622C6.03192 8.08722 6.57292 7.55322 7.23992 7.55322Z" fill="black"/>
</svg>
