<svg width="121" height="117" viewBox="0 0 121 117" fill="none" xmlns="http://www.w3.org/2000/svg">
<path d="M116.771 114.096H5.63627V102.954H16.9063C17.5833 102.954 18.2603 102.286 18.2603 101.618V89.1376H104.373V100.28H81.8303C81.1553 100.28 80.4783 100.948 80.4783 101.618C80.4783 102.286 81.1553 102.954 81.8303 102.954H116.997L116.771 114.096ZM33.8133 77.9956H88.8193V86.4636H33.8133V77.9956ZM47.7913 68.1906H74.6173V75.0976H47.7913V68.1906ZM54.7793 6.9076H57.7103V65.5156H54.7793V6.9076ZM82.9573 12.4796V34.7636H60.4163V19.3866H75.9693C76.6463 19.3866 77.3233 18.7186 77.3233 18.0506C77.3233 17.3816 76.6463 16.7126 75.9693 16.7126H60.4163V12.4796H82.9573ZM103.922 18.0506L94.4543 29.6376C94.0033 30.0836 94.0033 30.9746 94.4543 31.4206L103.922 43.0086H81.3793C85.8883 36.0996 85.6623 36.7686 85.6623 36.5456V36.0996V18.0506H103.922ZM81.8303 37.4376L80.0283 39.8886V37.4376H81.8303ZM118.125 100.28H106.854V87.8006C106.854 87.1326 106.177 86.4626 105.5 86.4626H91.2983V76.6586C91.2983 75.9896 90.6213 75.3206 89.9453 75.3206H77.3233V66.8536C77.3233 66.1836 76.6463 65.5156 75.9693 65.5156H60.4163V37.4376H77.3233V44.7916V45.0136C77.3233 45.2366 77.3233 45.0136 77.5473 45.2366C77.5473 45.2366 77.5473 45.4596 77.7733 45.4596C77.9973 45.6826 78.2233 45.6826 78.4503 45.6826H106.628C107.755 45.6826 108.432 44.3456 107.755 43.4546L97.1593 30.3066L107.755 17.1576C108.432 16.2666 107.755 14.9296 106.628 14.9296H85.4383V10.6956C85.4383 10.0276 84.7613 9.3586 84.0843 9.3586H60.4163V5.1246C60.4163 4.4566 59.7393 3.7876 59.0623 3.7876H53.4263C52.7513 3.7876 52.0743 4.4566 52.0743 5.1246V65.0696H46.4383C45.7613 65.0696 45.0863 65.7386 45.0863 66.4066V74.8756H32.4623C31.7853 74.8756 31.1083 75.5436 31.1083 76.2116V86.0176H16.9063C16.2323 86.0176 15.5553 86.6866 15.5553 87.3546V99.8336H4.28427C3.60727 99.8336 2.93127 100.503 2.93127 101.171V115.21C2.93127 115.879 3.60727 116.548 4.28427 116.548H118.349C119.025 116.548 119.702 115.879 119.702 115.21V101.171C119.476 100.725 119.025 100.28 118.125 100.28Z" fill="black"/>
<path d="M59.0622 105.851C59.8082 105.851 60.4162 106.45 60.4162 107.188C60.4162 107.926 59.8082 108.524 59.0622 108.524C58.3152 108.524 57.7102 107.926 57.7102 107.188C57.7102 106.45 58.3152 105.851 59.0622 105.851Z" fill="black"/>
<path d="M53.4258 105.851H22.3168C21.6418 105.851 20.9658 106.519 20.9658 107.188C20.9658 107.856 21.6418 108.524 22.3168 108.524H53.4258C54.1028 108.524 54.7798 107.856 54.7798 107.188C54.7798 106.296 54.1028 105.851 53.4258 105.851Z" fill="black"/>
<path d="M2.03 90.4751C3.151 90.4751 4.058 91.3731 4.058 92.4801C4.058 93.5881 3.151 94.4861 2.03 94.4861C0.909 94.4861 0 93.5881 0 92.4801C0 91.3731 0.909 90.4751 2.03 90.4751Z" fill="black"/>
<path d="M118.802 80.8921C119.921 80.8921 120.83 81.7901 120.83 82.8971C120.83 84.0051 119.921 84.9041 118.802 84.9041C117.681 84.9041 116.772 84.0051 116.772 82.8971C116.772 81.7901 117.681 80.8921 118.802 80.8921Z" fill="black"/>
<path d="M113.842 63.9558C113.842 66.1838 112.038 68.1908 109.559 68.1908C107.305 68.1908 105.274 66.4078 105.274 63.9558C105.274 61.5058 107.078 59.7218 109.559 59.7218C112.038 59.7218 113.842 61.7278 113.842 63.9558ZM102.569 63.9558C102.569 67.7448 105.727 70.8638 109.559 70.8638C113.392 70.8638 116.547 67.7448 116.547 63.9558C116.547 60.1678 113.392 57.0488 109.559 57.0488C105.951 57.0488 102.569 60.1678 102.569 63.9558Z" fill="black"/>
<path d="M87.9165 57.0483C89.0375 57.0483 89.9446 57.9463 89.9446 59.0533C89.9446 60.1613 89.0375 61.0593 87.9165 61.0593C86.7955 61.0593 85.8885 60.1613 85.8885 59.0533C85.8885 57.9463 86.7955 57.0483 87.9165 57.0483Z" fill="black"/>
<path d="M28.6299 48.8027C29.7509 48.8027 30.6579 49.7007 30.6579 50.8077C30.6579 51.9157 29.7509 52.8137 28.6299 52.8137C27.5089 52.8137 26.6019 51.9157 26.6019 50.8077C26.6019 49.7007 27.5089 48.8027 28.6299 48.8027Z" fill="black"/>
<path d="M117.448 37.6606C118.569 37.6606 119.476 38.5586 119.476 39.6656C119.476 40.7736 118.569 41.6716 117.448 41.6716C116.327 41.6716 115.42 40.7736 115.42 39.6656C115.42 38.5586 116.327 37.6606 117.448 37.6606Z" fill="black"/>
<path d="M17.3593 11.1421C21.6423 11.1421 25.0243 14.4851 25.0243 18.7191C25.0243 22.9521 21.6423 26.2951 17.3593 26.2951C13.0743 26.2951 9.69431 22.9521 9.69431 18.7191C9.69431 14.4851 13.0743 11.1421 17.3593 11.1421ZM17.3593 29.1931C23.2203 29.1931 27.9533 24.5131 27.9533 18.7191C27.9533 12.9241 23.2203 8.24414 17.3593 8.24414C11.4963 8.24414 6.76331 12.9241 6.76331 18.7191C6.76331 24.5131 11.7233 29.1931 17.3593 29.1931Z" fill="black"/>
<path d="M110.46 1.33691C111.581 1.33691 112.488 2.23491 112.488 3.34191C112.488 4.44991 111.581 5.34791 110.46 5.34791C109.339 5.34791 108.432 4.44991 108.432 3.34191C108.432 2.23491 109.339 1.33691 110.46 1.33691Z" fill="black"/>
<path d="M41.4784 0C42.5994 0 43.5084 0.898 43.5084 2.005C43.5084 3.113 42.5994 4.011 41.4784 4.011C40.3574 4.011 39.4504 3.113 39.4504 2.005C39.4504 0.898 40.3574 0 41.4784 0Z" fill="black"/>
</svg>
