<svg width="81" height="83" viewBox="0 0 81 83" fill="none" xmlns="http://www.w3.org/2000/svg">
<path d="M40.2553 13.7935C42.2533 13.7935 43.8233 15.3465 43.8233 17.3215C43.8233 19.2965 42.2533 20.8495 40.2553 20.8495C38.2563 20.8495 36.6863 19.2965 36.6863 17.3215C36.6863 15.3465 38.2563 13.7935 40.2553 13.7935ZM40.2553 22.6835C43.2523 22.6835 45.6793 20.2855 45.6793 17.3215C45.6793 14.3575 43.2523 11.9595 40.2553 11.9595C37.2573 11.9595 34.8303 14.4995 34.8303 17.3215C34.8303 20.2855 37.2573 22.6835 40.2553 22.6835Z" fill="black"/>
<path d="M25.8374 37.6418C26.4084 39.3348 26.9794 41.0277 27.8364 42.5807C26.5514 43.7098 25.5524 44.8387 24.6954 46.2497C23.9824 43.4277 24.4094 40.3228 25.8374 37.6418ZM40.2554 1.79875C54.6724 11.5358 58.3844 30.5857 49.3914 44.8387C43.9664 40.8877 36.5434 41.0277 31.2624 44.8387C22.1264 30.5857 25.8374 11.5358 40.2554 1.79875ZM55.8144 46.2497C54.9584 44.9797 53.9584 43.7098 52.6744 42.5807C53.5304 41.0277 54.1024 39.3348 54.6724 37.6418C56.1004 40.3228 56.5284 43.4277 55.8144 46.2497ZM40.2554 55.1398C36.8294 52.7408 34.9734 48.7887 34.9734 44.8387C38.2564 43.4277 42.1104 43.4277 45.5364 44.8387C45.5364 49.0717 43.3954 52.7408 40.2554 55.1398ZM23.6964 48.7887C23.8394 49.0718 24.1244 49.3548 24.5534 49.3548C24.8384 49.3548 25.2664 49.2127 25.4094 48.7887C26.1224 47.0967 27.2654 45.5438 28.6924 44.2738C29.1204 45.1208 29.6914 45.9667 30.2634 46.6727C30.5484 47.0967 31.1194 47.2378 31.5474 46.8138C32.1184 46.3908 32.6894 45.9668 33.2604 45.6847C33.5464 50.2007 35.9724 54.4338 39.8264 56.8327C40.1124 56.9747 40.5404 56.9747 40.8254 56.8327C44.6804 54.2927 47.1074 50.2007 47.3924 45.6847C47.9634 45.9668 48.5344 46.3908 49.1054 46.8138C49.5334 47.0968 50.1044 47.0967 50.3904 46.6727C50.9614 45.8267 51.3894 44.9798 51.9604 44.2738C53.3884 45.5438 54.5294 47.0967 55.2434 48.7887C55.5294 49.4948 56.5284 49.4948 56.8144 48.7887C57.5274 47.0967 57.9554 45.2617 57.9554 43.4277C57.9554 40.6048 56.9564 37.7827 55.2434 35.3838C58.2414 21.8378 52.6744 7.86675 40.6834 0.10575C40.3974 -0.03525 39.9694 -0.03525 39.6844 0.10575C27.8364 7.86675 22.1264 21.8378 25.1234 35.3838C22.2694 39.3348 21.8404 44.4157 23.6964 48.7887Z" fill="black"/>
<path d="M78.654 80.9634H1.856V63.1834C7.566 61.0664 13.704 64.3114 15.417 69.9564C15.56 70.6614 16.559 70.8024 16.988 70.2384C19.414 66.9934 23.839 66.1464 27.265 67.9804C27.694 68.2634 28.264 67.9804 28.55 67.5574C30.976 62.7594 37.829 62.3364 40.683 66.9934C40.969 67.4164 41.54 67.5574 41.968 67.2754C44.823 65.2994 48.82 65.7224 51.247 68.2634C51.675 68.8274 52.532 68.5454 52.817 67.9804C53.531 65.5824 55.815 63.7474 58.384 63.7474C60.383 63.7474 62.238 64.7354 63.238 66.4284C63.523 66.8524 64.094 66.9934 64.522 66.5694C65.664 65.5824 67.235 65.0174 68.662 64.8764C68.948 64.8764 69.233 64.7354 69.376 64.4524C71.231 60.9254 74.658 58.5264 78.654 58.2444V80.9634ZM79.511 56.4094C74.658 56.4094 70.232 58.9494 67.948 63.1834C66.521 63.3244 65.236 63.8884 64.094 64.5944C62.667 62.9004 60.525 61.9134 58.242 61.9134C55.386 61.9134 52.674 63.6064 51.389 66.0054C48.535 63.7474 44.68 63.4654 41.54 65.1584C37.829 60.3604 30.406 60.7834 27.265 65.8634C23.697 64.4524 19.557 65.0174 16.559 67.8394C13.99 61.9134 6.852 58.9494 0.571 61.6304C0.286 61.7724 0 62.0544 0 62.4774V81.6694C0 82.0924 0.428 82.5154 0.857 82.5154H79.368C79.796 82.5154 80.224 82.0924 80.224 81.6694V57.2554C80.367 56.8334 79.939 56.4094 79.511 56.4094Z" fill="black"/>
<path d="M59.2407 71.6499C58.9547 71.9319 58.9547 72.4969 59.2407 72.9199C59.5257 73.2019 60.0967 73.2019 60.5247 72.9199C61.5247 71.9319 63.0947 71.9319 63.9517 72.9199C64.9507 73.9079 64.9507 75.4599 63.9517 76.3059C63.6657 76.5889 63.6657 77.1529 63.9517 77.5769C64.2367 77.8579 64.8077 77.8579 65.2357 77.5769C66.9487 75.8829 66.9487 73.2019 65.2357 71.6499C63.6657 69.9559 60.9537 69.9559 59.2407 71.6499Z" fill="black"/>
<path d="M45.8227 71.9321C45.3937 71.9321 44.9657 72.3551 44.9657 72.7781C44.9657 74.1891 43.8237 75.1781 42.5397 75.1781C41.2547 75.1781 40.1127 74.0491 40.1127 72.7781C40.1127 72.3551 39.6837 71.9321 39.2567 71.9321C38.8277 71.9321 38.3987 72.3551 38.3987 72.7781C38.3987 75.0361 40.2557 77.0121 42.6817 77.0121C44.9657 77.0121 46.9647 75.1781 46.9647 72.7781C46.8217 72.3551 46.3927 71.9321 45.8227 71.9321Z" fill="black"/>
<path d="M25.1236 73.2022C24.1246 74.1892 24.1246 75.8832 25.1236 76.8712C25.4096 77.1532 25.9796 77.1532 26.4086 76.8712C26.6936 76.5892 26.6936 76.0242 26.4086 75.6002C26.1226 75.3192 26.1226 74.7542 26.4086 74.3302C26.6936 74.0492 27.2646 74.0492 27.6936 74.3302C27.9786 74.6132 28.5496 74.6132 28.9776 74.3302C29.2636 74.0492 29.2636 73.4842 28.9776 73.0612C27.9786 72.0732 26.2656 72.0732 25.1236 73.2022Z" fill="black"/>
<path d="M8.85084 75.319C8.13684 75.319 7.56584 74.755 7.56584 74.049C7.56584 73.343 8.13684 72.778 8.85084 72.778C9.56384 72.778 10.1348 73.343 10.1348 74.049C10.1348 74.755 9.56384 75.319 8.85084 75.319ZM8.85084 70.803C7.13684 70.803 5.70984 72.214 5.70984 73.908C5.70984 75.601 7.13684 77.012 8.85084 77.012C10.5638 77.012 11.9908 75.601 11.9908 73.908C11.9908 72.214 10.5638 70.803 8.85084 70.803Z" fill="black"/>
<path d="M73.8006 69.956C74.0866 69.674 74.0866 69.11 73.8006 68.686C73.5156 68.404 73.5156 67.839 73.8006 67.416C74.0866 67.134 74.6576 67.134 75.0856 67.416C75.3706 67.699 75.9416 67.699 76.3706 67.416C76.6556 67.134 76.6556 66.569 76.3706 66.146C75.3706 65.158 73.6576 65.158 72.6586 66.146C71.6596 67.134 71.6596 68.828 72.6586 69.815C72.9446 70.239 73.3726 70.239 73.8006 69.956Z" fill="black"/>
<path d="M63.9516 53.728C64.6606 53.728 65.2356 54.297 65.2356 54.999C65.2356 55.7 64.6606 56.269 63.9516 56.269C63.2416 56.269 62.6666 55.7 62.6666 54.999C62.6666 54.297 63.2416 53.728 63.9516 53.728Z" fill="black"/>
<path d="M51.8177 49.213V59.796C51.8177 60.22 52.2457 60.643 52.6747 60.643C53.1017 60.643 53.5307 60.22 53.5307 59.796V49.213C53.5307 48.789 53.1017 48.366 52.6747 48.366C52.2457 48.366 51.8177 48.789 51.8177 49.213Z" fill="black"/>
<path d="M44.6802 55.422V61.631C44.6802 62.054 45.1092 62.478 45.5362 62.478C45.9652 62.478 46.3932 62.054 46.3932 61.631V55.422C46.3932 54.999 45.9652 54.575 45.5362 54.575C45.1092 54.575 44.6802 54.999 44.6802 55.422Z" fill="black"/>
<path d="M48.2487 51.0474V58.1034C48.2487 58.5264 48.6777 58.9494 49.1047 58.9494C49.5337 58.9494 49.9627 58.5264 49.9627 58.1034V51.0474C49.9627 50.6244 49.5337 50.2004 49.1047 50.2004C48.6777 50.2004 48.2487 50.4834 48.2487 51.0474Z" fill="black"/>
<path d="M30.4056 51.0474V55.4224C30.4056 55.8444 30.8336 56.2684 31.2626 56.2684C31.6896 56.2684 32.1186 55.8444 32.1186 55.4224V51.0474C32.1186 50.6244 31.6896 50.2004 31.2626 50.2004C30.8336 50.2004 30.4056 50.4834 30.4056 51.0474Z" fill="black"/>
<path d="M26.8364 51.0474V61.6304C26.8364 62.0544 27.2654 62.4774 27.6934 62.4774C28.1214 62.4774 28.5494 62.0544 28.5494 61.6304V51.0474C28.5494 50.6244 28.1214 50.2004 27.6934 50.2004C27.2654 50.2004 26.8364 50.4834 26.8364 51.0474Z" fill="black"/>
<path d="M7.70844 51.894C8.41844 51.894 8.99344 52.462 8.99344 53.164C8.99344 53.865 8.41844 54.434 7.70844 54.434C6.99844 54.434 6.42444 53.865 6.42444 53.164C6.42444 52.462 6.99844 51.894 7.70844 51.894Z" fill="black"/>
<path d="M62.0953 36.936C62.8053 36.936 63.3803 37.504 63.3803 38.206C63.3803 38.907 62.8053 39.477 62.0953 39.477C61.3863 39.477 60.8113 38.907 60.8113 38.206C60.8113 37.504 61.3863 36.936 62.0953 36.936Z" fill="black"/>
<path d="M14.846 38.771C15.556 38.771 16.13 39.339 16.13 40.041C16.13 40.742 15.556 41.311 14.846 41.311C14.136 41.311 13.561 40.742 13.561 40.041C13.561 39.339 14.136 38.771 14.846 38.771Z" fill="black"/>
<path d="M32.4038 33.4081C32.1188 33.8321 32.1188 34.3961 32.5468 34.6781C32.9748 34.9601 33.5458 34.9601 33.8318 34.5371C36.8298 30.5861 43.6808 30.5861 46.6788 34.5371C46.9648 34.9601 47.5358 34.9601 47.9638 34.6781C48.3918 34.3961 48.3918 33.8321 48.1058 33.4081C44.3948 28.6101 36.1158 28.6101 32.4038 33.4081Z" fill="black"/>
<path d="M76.3706 29.8804C77.0796 29.8804 77.6546 30.4484 77.6546 31.1504C77.6546 31.8514 77.0796 32.4214 76.3706 32.4214C75.6606 32.4214 75.0856 31.8514 75.0856 31.1504C75.0856 30.4484 75.6606 29.8804 76.3706 29.8804Z" fill="black"/>
<path d="M30.8335 30.3041C31.2625 30.5861 31.8335 30.5861 32.1185 30.1621C35.9725 25.2231 44.5375 25.2231 48.3915 30.1621C48.5345 30.4451 48.8195 30.4451 49.1055 30.4451C49.8185 30.4451 50.2475 29.5981 49.8185 29.0331C45.2515 23.1071 35.2595 23.1071 30.6905 29.0331C30.4055 29.4571 30.4055 30.0211 30.8335 30.3041Z" fill="black"/>
<path d="M9.99257 26.3527C11.4206 26.3527 12.7046 27.4817 12.7046 29.0337C12.7046 30.5857 11.5626 31.7157 9.99257 31.7157C8.42257 31.7157 7.28057 30.5857 7.28057 29.0337C7.28057 27.4817 8.42257 26.3527 9.99257 26.3527ZM9.99257 33.4087C12.4196 33.4087 14.4176 31.4327 14.4176 29.0337C14.4176 26.6347 12.4196 24.6597 9.99257 24.6597C7.56557 24.6597 5.56657 26.6347 5.56657 29.0337C5.42457 31.4327 7.42357 33.4087 9.99257 33.4087Z" fill="black"/>
<path d="M70.0895 14.9224C72.3735 14.9224 74.0865 16.7574 74.0865 18.8744C74.0865 21.1314 72.2305 22.8244 70.0895 22.8244C67.9475 22.8244 66.0925 20.9904 66.0925 18.8744C66.0925 16.6154 67.9475 14.9224 70.0895 14.9224ZM70.0895 24.5184C73.2305 24.5184 75.9415 21.9784 75.9415 18.7324C75.9415 15.4874 73.3724 13.0884 70.0895 13.0884C66.8065 13.0884 64.2365 15.6284 64.2365 18.8744C64.2365 22.1194 66.9485 24.5184 70.0895 24.5184Z" fill="black"/>
<path d="M15.7025 9.56006C16.4125 9.56006 16.9875 10.1291 16.9875 10.8301C16.9875 11.5321 16.4125 12.1001 15.7025 12.1001C14.9925 12.1001 14.4175 11.5321 14.4175 10.8301C14.4175 10.1291 14.9925 9.56006 15.7025 9.56006Z" fill="black"/>
<path d="M62.0953 2.50439C62.8053 2.50439 63.3803 3.07339 63.3803 3.77439C63.3803 4.47639 62.8053 5.04439 62.0953 5.04439C61.3863 5.04439 60.8113 4.47639 60.8113 3.77439C60.8113 3.07339 61.3863 2.50439 62.0953 2.50439Z" fill="black"/>
</svg>
