<svg width="78" height="80" viewBox="0 0 78 80" fill="none" xmlns="http://www.w3.org/2000/svg">
<path d="M58.3525 42.6809C57.9105 42.6809 57.4685 43.1179 57.4685 43.5549C57.4685 43.9919 57.9105 44.4289 58.3525 44.4289H64.5415V58.9949H50.9845C50.5425 58.9949 50.1005 59.4319 50.1005 59.8689C50.1005 60.3059 50.5425 60.7429 50.9845 60.7429H53.4895V76.3289L29.4715 60.1609C29.0285 59.8689 28.4395 59.8689 28.1445 60.3059C27.8505 60.7429 27.9975 61.3259 28.4395 61.6179L51.4265 77.2029H22.2505V50.9829L45.0905 66.4239C45.5325 66.7159 46.1215 66.5699 46.4165 66.1329C46.7115 65.6959 46.5645 65.1129 46.1215 64.8219L22.2505 48.7979V44.2829C28.7345 45.1569 34.9225 42.9719 39.3435 38.6019C48.1855 29.8619 47.0055 15.4409 36.8385 8.15787C42.1435 6.11787 46.2695 6.55587 47.4485 6.55587C60.1205 6.55587 70.4355 16.7519 70.4355 29.2789C70.4355 29.4249 70.2885 28.6969 73.8245 42.6809H58.3525ZM11.3465 12.2359L13.2625 14.1299C7.9575 19.9569 7.9575 28.8429 13.2625 34.6689L11.3465 36.5629C5.0105 29.7159 4.8635 19.2289 11.3465 12.2359ZM21.3665 29.2789C23.4295 30.8819 26.3765 30.8819 28.5875 29.2789L30.5025 31.1729C27.2605 33.7949 22.5455 33.7949 19.3035 31.1729L21.3665 29.2789ZM20.6295 24.4729C20.6295 22.1419 22.5455 20.2479 24.9025 20.2479C27.2605 20.2479 29.1755 22.1419 29.1755 24.4729C29.1755 26.8029 27.2605 28.6969 24.9025 28.6969C22.5455 28.6969 20.6295 26.8029 20.6295 24.4729ZM31.8285 30.0079L29.9125 28.1139C31.5335 26.0749 31.5335 23.1609 29.9125 20.9759L31.8285 19.0829C34.4815 22.1419 34.4815 26.8029 31.8285 30.0079ZM30.5025 17.6259L28.5875 19.5189C26.5235 17.9179 23.5775 17.9179 21.3665 19.5189L19.3035 17.6259C22.5455 15.0039 27.2605 15.0039 30.5025 17.6259ZM17.9775 18.9369L19.8925 20.8309C18.2725 22.8699 18.2725 25.7839 19.8925 27.9689L17.9775 29.8619C15.3245 26.8029 15.3245 22.1419 17.9775 18.9369ZM38.7545 24.4729C38.7545 31.7559 33.0075 37.5819 25.7875 38.1649V35.1059C31.3865 34.6689 35.6595 30.0079 35.6595 24.4729C35.6595 18.9369 31.3865 14.4209 25.7875 13.8389V10.7799C33.0075 11.3629 38.7545 17.1889 38.7545 24.4729ZM24.0185 10.7799V13.8389C18.5665 14.2759 14.1465 18.9369 14.1465 24.4729C14.1465 30.0079 18.4195 34.5229 24.0185 35.1059V38.0189C16.7985 37.5819 11.0515 31.6099 11.0515 24.3269C11.1985 17.1889 16.7985 11.3629 24.0185 10.7799ZM12.5255 38.0189L14.4405 36.1259C20.3355 41.3689 29.3235 41.3689 35.2185 36.1259L37.2805 38.0189C30.2085 44.2829 19.5985 44.2829 12.5255 38.0189ZM38.6075 36.7079L36.6915 34.8139C41.9965 28.9879 41.9965 20.1029 36.6915 14.2759L38.6075 12.3819C44.9435 19.2289 44.9435 29.7159 38.6075 36.7079ZM37.2805 10.9259L35.3655 12.8199C29.4715 7.57587 20.4825 7.57587 14.5885 12.8199L12.6725 10.9259C19.5985 4.66187 30.2085 4.66187 37.2805 10.9259ZM75.8875 43.4089L72.2035 29.2789C72.2035 15.7329 61.1515 4.80787 47.3005 4.80787C46.2695 4.95287 41.1125 4.22387 34.9225 7.13787C31.9765 5.53587 28.5875 4.51587 24.9025 4.51587C13.7035 4.51587 4.5675 13.5479 4.5675 24.6179C4.5675 34.0859 11.3465 42.0979 20.1875 44.1379V78.3689C20.1875 78.8059 20.6295 79.2419 21.0715 79.2419H54.2265C54.6685 79.2419 54.9635 78.9519 55.1105 78.6599C55.2575 78.2229 55.1105 79.5339 55.1105 61.0339H65.2785C65.7205 61.0339 66.1625 60.5979 66.1625 60.1609V44.4289H74.7085C75.5925 44.4289 76.0355 43.9919 75.8875 43.4089Z" fill="black"/>
<path d="M15.3249 76.4746C16.0579 76.4746 16.6519 77.0616 16.6519 77.7856C16.6519 78.5096 16.0579 79.0966 15.3249 79.0966C14.5919 79.0966 13.9989 78.5096 13.9989 77.7856C13.9989 77.0616 14.5919 76.4746 15.3249 76.4746Z" fill="black"/>
<path d="M67.783 70.0654C68.516 70.0654 69.109 70.6524 69.109 71.3764C69.109 72.1004 68.516 72.6874 67.783 72.6874C67.05 72.6874 66.457 72.1004 66.457 71.3764C66.457 70.6524 67.05 70.0654 67.783 70.0654Z" fill="black"/>
<path d="M6.484 69.9196C3.979 69.9196 1.916 67.8806 1.916 65.4036C1.916 62.9276 3.979 60.8886 6.484 60.8886C8.989 60.8886 11.052 62.9276 11.052 65.4036C11.052 67.8806 8.989 69.9196 6.484 69.9196ZM6.484 58.9946C2.947 58.9946 0 61.9086 0 65.4036C0 68.9006 2.947 71.8136 6.484 71.8136C10.02 71.8136 12.967 68.9006 12.967 65.4036C12.967 61.9086 10.02 58.9946 6.484 58.9946Z" fill="black"/>
<path d="M76.0351 52.7314C76.7671 52.7314 77.3611 53.3184 77.3611 54.0424C77.3611 54.7664 76.7671 55.3534 76.0351 55.3534C75.3021 55.3534 74.7081 54.7664 74.7081 54.0424C74.7081 53.3184 75.3021 52.7314 76.0351 52.7314Z" fill="black"/>
<path d="M16.2091 49.9639C16.9421 49.9639 17.5351 50.5509 17.5351 51.2749C17.5351 51.9989 16.9421 52.5859 16.2091 52.5859C15.4761 52.5859 14.8831 51.9989 14.8831 51.2749C14.8831 50.5509 15.4761 49.9639 16.2091 49.9639Z" fill="black"/>
<path d="M1.47392 37.2905C2.20692 37.2905 2.79992 37.8775 2.79992 38.6015C2.79992 39.3255 2.20692 39.9125 1.47392 39.9125C0.740919 39.9125 0.147919 39.3255 0.147919 38.6015C0.147919 37.8775 0.740919 37.2905 1.47392 37.2905Z" fill="black"/>
<path d="M75.151 19.9565C75.883 19.9565 76.477 20.5435 76.477 21.2675C76.477 21.9915 75.883 22.5785 75.151 22.5785C74.418 22.5785 73.825 21.9915 73.825 21.2675C73.825 20.5435 74.418 19.9565 75.151 19.9565Z" fill="black"/>
<path d="M72.7933 6.26412C73.8243 6.26412 74.7083 7.13812 74.7083 8.15812C74.7083 9.17812 73.8243 10.0511 72.7933 10.0511C71.7623 10.0511 70.8783 9.17812 70.8783 8.15812C71.0253 6.99312 71.7623 6.26412 72.7933 6.26412ZM72.7933 11.6531C74.8563 11.6531 76.4773 10.0511 76.4773 8.01212C76.4773 5.97212 74.8563 4.37012 72.7933 4.37012C70.7303 4.37012 69.1093 5.97212 69.1093 8.01212C69.1093 10.0511 70.7303 11.6531 72.7933 11.6531Z" fill="black"/>
<path d="M5.15742 4.51611C5.89042 4.51611 6.48442 5.10211 6.48442 5.82711C6.48442 6.55111 5.89042 7.13811 5.15742 7.13811C4.42442 7.13811 3.83142 6.55111 3.83142 5.82711C3.83142 5.10211 4.42442 4.51611 5.15742 4.51611Z" fill="black"/>
<path d="M55.8474 0C56.5804 0 57.1734 0.587 57.1734 1.311C57.1734 2.035 56.5804 2.623 55.8474 2.623C55.1144 2.623 54.5214 2.035 54.5214 1.311C54.5214 0.587 55.1144 0 55.8474 0Z" fill="black"/>
</svg>
