<svg width="505" height="20" viewBox="0 0 505 20" fill="none" xmlns="http://www.w3.org/2000/svg">
<path d="M185.075 16.242C181.271 16.708 185.908 16.973 185.351 17.384C186.366 17.252 188.536 17.275 187.504 16.998C189.521 17.748 193.538 16.413 195.715 16.996C195.806 16.914 194.548 16.683 196.039 16.451C198.274 16.318 198.119 16.696 199.036 16.836C199.694 16.592 203.088 16.349 202.761 16.47C204.243 16.239 201.159 15.725 203.227 15.333C204.62 14.764 206.542 15.173 208.195 14.987C210.197 15.314 206.213 15.295 205.391 15.494L211.023 15.116C212.688 15.352 210.291 15.655 208.627 15.63C210.883 15.917 213.772 15.537 214.425 15.082C215.837 15.146 216.581 15.03 217.913 15.178C216.598 15.454 216.698 16.218 214.631 16.397C211.225 16.43 215.852 15.782 212.953 15.736L212.715 16.2C211.467 15.969 210.486 16.333 209.154 16.399C208.407 16.302 209.313 16.231 209.809 16.154C207.402 16.245 205.481 16.047 203.676 16.611C206.929 16.956 211.804 16.269 213.235 16.757L219.68 15.967C219.675 15.755 217.422 15.467 219.239 15.115C220.002 15.634 221.915 15.833 224.409 15.869C223.475 15.306 228.377 15.252 227.116 14.811C225.962 15.133 225.367 14.657 225.203 14.613C227.61 14.522 225.516 14.067 226.839 14.004C231.242 14.028 226.685 14.381 231.007 14.489C230.101 14.772 227.792 15.414 225.401 15.716C225.574 15.972 227.797 15.624 228.812 15.895C227.388 15.619 229.788 15.318 228.62 15.215C232.102 14.888 236.148 14.186 240.373 13.955C239.735 14.835 233.261 14.778 234.617 15.772C236.687 15.592 236.669 15.17 238.333 15.194C239.755 15.68 243.226 15.141 246.052 15.059L244.796 14.827C245.866 14.589 247.858 14.705 249.109 14.724L248.786 14.846L250.012 14.654C250.205 14.671 250.251 14.698 250.248 14.73C251.596 14.43 255.059 14.605 257.648 14.389C257.635 13.967 255.078 14.433 253.835 14.415C253.494 14.326 251.091 14.204 252.245 13.884C255.468 13.805 257.699 13.247 261.348 13.175L260.185 13.074C261.338 12.753 262.915 12.862 264.654 12.802C267.818 13.019 262.348 13.446 264.267 13.644C263.037 14.048 260.866 13.676 260.55 14.221L262.552 14.761C264.206 14.363 266.048 14.855 267.211 14.746L265.955 14.516C266.19 14.054 267.358 14.369 267.945 14.42L267.088 13.773C265.266 13.701 264.034 14.317 262.701 13.959C265.926 13.67 265.168 13.149 269.062 13.041C269.243 13.297 268.314 13.155 267.915 13.36C269.248 13.508 270.636 12.937 272.797 13.097C271.566 13.289 269.576 13.599 271.166 13.919L272.309 13.388C273.306 13.444 272.903 13.649 273.311 13.656C274.729 13.719 272.973 13.141 275.212 13.218C275.548 13.309 276.293 13.405 275.97 13.526C278.54 13.482 277.202 13.334 279.598 13.032C277.447 13.084 277.346 12.321 279.578 12.185C282.732 12.192 284.871 11.717 287.051 12.299L288.452 11.94C287.559 12.434 290.452 12.055 291.452 12.112C291.795 12.625 286.722 12.209 286.742 13.055C288.817 13.088 287.919 13.37 287.257 13.613C289.499 13.48 288.073 12.992 289.056 12.626C289.065 12.838 292.877 12.6 291.565 13.088C293.472 13.074 293.789 12.529 295.197 12.593C294.99 12.806 294.752 13.079 294.893 13.344C295.055 13.164 296.862 13.337 297.211 13.345C296.88 13.253 297.861 12.888 296.208 13.074C296.612 12.657 300.109 12.965 300.009 12.625C300.193 13.092 303.581 12.638 305.326 12.791C305.129 11.687 302.108 13.291 301.501 12.394C303.809 11.963 309.297 12.174 313.018 11.596C316.252 11.73 313.028 12.019 313.699 12.411C310.723 12.662 309.965 12.353 307.396 12.612C310.224 12.737 314.863 12.513 316.925 12.122C320 12 320.365 13.146 324.09 12.78C323.585 12.436 323.665 12.351 322.496 12.247C323.487 12.096 324.655 12.196 325.731 12.17C326.385 11.928 324.062 11.935 325.549 11.702C326.132 11.755 327.377 11.774 327.137 12.023L326.89 12.062C330.446 11.651 329.488 12.864 332.535 12.107C332.283 11.934 331.624 12.177 330.872 12.079C330.287 11.818 332.176 11.383 333.591 11.234C333.344 11.484 334.835 11.252 335.83 11.309C336.506 11.701 333.344 11.484 332.854 11.772H335.596L335.017 11.721L337.988 11.259C335.914 11.438 336.979 10.778 337.89 10.706C339.962 10.739 342.041 10.77 341.803 11.232C342.041 10.77 344.612 10.726 346.435 10.583C344.439 10.468 346.173 10.199 346.748 10.038L349.747 10.422C346.599 10.627 350.422 10.814 349.688 11.141C348.791 11.636 346.874 11.438 345.211 11.412C348.474 12.181 349.762 10.847 352.595 11.185C352.6 11.396 352.357 11.647 351.114 11.63C351.615 11.762 353.675 11.159 355.59 11.358C355.086 11.222 353.997 10.825 355.894 10.601L358.401 11.062C361.307 11.107 359.38 10.485 361.774 10.184L360.193 9.863C360.427 9.4 363.426 9.786 363.493 9.279C362.002 9.298 361.178 9.709 359.609 9.601C359.006 9.125 361.59 9.292 362.484 9.008C365.73 9.144 365.064 9.176 367.485 9.509C367.592 10.272 363.528 10.549 364.065 11.531C367.21 11.325 371.767 10.971 373.844 11.214C376.659 10.919 376.39 10.323 375.963 9.892C377.127 9.783 377.703 9.836 378.454 9.93L377.137 10.208C380.613 9.879 382.595 9.57 386.25 9.5C388.312 9.32 387.469 8.883 386.965 8.537L389.203 8.401L388.86 8.312C389.348 7.812 391.342 7.927 392.834 7.909C392.844 8.119 391.933 8.191 392.021 8.319C393.349 8.466 395.342 8.369 396.41 8.132C396.419 8.343 395.522 8.837 393.942 8.728C393.774 8.683 393.854 8.601 393.689 8.555L391.04 8.895C394.101 8.562 395.944 9.055 395.877 9.562C398.94 9.228 393.369 9.1 397.014 8.819C401.852 9.695 406.132 8.324 408.83 9.676C411.056 9.329 413.698 8.776 417.181 8.661C417.171 8.237 419.503 8.443 419.153 7.928C415.816 7.455 412.957 8.892 410.273 8.174C408.791 8.405 409.3 8.751 408.638 8.994C407.319 9.06 406.071 9.041 405.893 8.784C408.955 8.45 406.693 7.739 410.588 7.629C410.085 7.282 406.93 7.488 405.523 7.424C405.93 7.219 405.505 7.002 404.588 6.86C405.579 6.495 407.802 6.148 408.956 5.825C408.552 6.032 409.304 6.128 408.971 6.251L413.019 5.551C414.272 5.781 414.618 6.083 413.955 6.326C416.203 6.402 419.994 5.742 420.021 6.377C422.919 6.209 419.091 6.023 418.839 5.85L419.086 5.812L416.02 5.935C415.664 5.21 419.511 6.03 419.984 5.317C420.436 3.971 424.315 5.638 426.461 5.376L423.998 6.395L426.153 6.133C424.92 6.536 424.939 7.171 423.046 7.608C426.028 7.568 430.271 7.759 432.177 7.534C432.93 7.844 433.267 8.146 432.945 8.478C435.917 7.803 437.6 8.677 440.175 8.631C442.897 8.208 437.423 8.208 439.399 7.688C440.231 7.912 441.722 7.681 442.465 7.567C441.642 7.764 438.728 7.509 436.73 7.393C438.226 7.375 438.048 6.907 438.459 6.701L435.963 6.661C436.112 6.072 439.029 6.541 440.179 6.219C439.454 6.758 439.862 6.765 439.136 7.303C441.287 7.04 444.522 6.963 446.359 7.244C447.443 7.43 445.456 7.527 444.877 7.688C445.382 8.034 447.026 7.424 447.453 7.855C447.13 8.188 446.13 7.919 445.382 8.034L451.691 8.047C451.696 8.257 450.126 8.361 449.13 8.303C451.047 8.501 452.449 8.352 454.668 7.583C456.829 7.743 459.323 7.992 458.595 8.32C459.585 8.166 458.917 7.987 458.904 7.774C461.815 7.82 462.119 7.062 463.859 7.005L462.529 6.646C465.356 6.985 463.169 5.978 465.665 6.229C465.268 6.645 465.442 7.113 465.872 7.543C466.274 7.127 467.862 7.447 468.939 7.421C468.26 7.03 471.245 6.991 469.494 6.626C471.979 6.239 473.149 6.765 474.962 6.2C473.802 6.098 477.105 5.726 476.097 5.456C478.508 5.367 480.177 5.815 479.532 6.272C478.697 6.259 477.361 6.111 477.462 6.451L481.851 6.265C482.943 6.45 484.348 6.513 484.533 6.981C485.925 6.41 488.689 7.258 489.749 6.596C488.268 7.04 487.087 6.514 486.514 6.462L487.192 6.356C487.094 6.358 486.984 6.353 486.838 6.34L488.715 5.48C486.884 5.2 488.404 6.025 485.825 6.07C483.572 5.36 490.856 4.795 488.519 4.376C486.607 4.178 486.959 4.903 485.393 5.218L485.805 5.225L482.247 5.636C482.075 5.38 483.149 5.14 483.149 5.14C478.831 5.244 478.154 4.853 473.507 4.867C473.847 4.957 474.777 5.733 472.708 5.913C471.225 6.144 471.042 5.677 469.801 5.656C470.54 5.542 471.194 5.085 472.194 5.355L472.1 4.803C475.563 4.053 473.725 3.559 478.446 3.249C478.652 2.838 482.072 2.546 484.646 2.604L483.39 2.268C486.023 1.505 483.905 2.826 487.288 2.158C488.719 2.858 491.322 3.657 489.43 4.307C491.842 4.427 492.655 4.017 494.819 3.966C496.161 4.536 494.172 4.634 494.436 5.23C496.015 5.126 497.997 4.819 496.818 4.505L499.82 4.676C499.902 4.804 498.83 4.829 498.409 4.825C499.577 4.927 501.807 4.58 502.461 4.337C502.216 4.374 501.466 4.492 501.138 4.4C502.377 4.208 504.607 3.861 504.766 3.695C502.952 4.047 502.769 3.367 500.871 3.804C501.031 3.638 501.35 3.304 502.349 3.361C500.762 3.04 499.189 3.143 498.516 2.752C499.854 3.025 500.695 2.564 500.974 2.493C499.779 2.405 497.404 2.573 496.607 2.765C496.416 2.087 491.968 2.991 493.518 2.254C493.275 2.503 491.533 2.561 490.614 2.421C490.691 2.124 493.005 1.908 493.992 1.541C498.63 1.103 493.921 2.047 495.011 2.234L498.555 2.1C498.195 2.011 499.963 1.59 497.651 1.682C498.716 1.233 500.945 0.885 502.777 1.168C503.192 0.96 501.861 1.027 501.448 1.02C501.856 0.815 504.076 0.044 501.169 0C502 0.013 499.767 0.359 501.267 0.552C500.108 0.66 496.948 0.444 498.186 0.038C496.776 0.186 494.13 0.528 492.971 0.637C492.629 0.334 493.962 0.483 494.541 0.322L490.475 0.599L491.648 0.913C488.659 0.74 486.774 1.599 484.377 1.903C484.693 1.357 486.685 1.26 488.251 0.946C486.731 0.33 487.268 1.31 484.773 1.272C484.436 1.182 484.348 1.054 484.507 0.887L482.535 1.408C481.954 1.357 482.279 1.233 482.53 1.196C479.143 1.864 482.633 1.959 478.077 2.314C480.829 2.524 480.399 1.884 482.713 1.877C484.058 2.236 480.085 2.64 479.422 2.883C477.184 2.806 476.908 2 474.1 2.506C476.081 2.199 474.17 1.999 476.988 1.915C478.557 1.6 476.149 1.692 475.813 1.389C475.071 1.506 476.323 1.948 474.249 1.916L474.329 1.834L470.949 2.5C467.782 2.283 463.836 3.323 461.658 2.74L462.173 3.298C460.186 3.393 457.366 3.478 455.96 3.626C456.278 3.292 457.606 3.229 459.012 3.081C455.438 3.068 452.301 3.485 449.909 3.999C451.665 4.365 451.916 4.326 453.582 4.563C451.283 5.415 450.825 4.138 447.848 4.602C447.753 4.05 448.75 4.107 447.992 3.587C446.759 3.993 444.679 3.961 443.277 4.321C442.515 3.801 443.825 3.313 446.893 3.19C449.231 3.608 451.778 2.716 453.703 3.126L452.53 2.81C454.852 2.592 456.26 2.657 458.241 2.348L458.162 2.432L459.142 1.855L458.067 1.88C458.802 1.552 461.026 0.994 461.69 0.962C458.37 1.124 458.152 2.009 456.59 2.535C453.601 2.573 452.408 1.626 450.431 2.145C450.262 1.887 448.59 1.65 449.915 1.376C451.565 1.188 452.739 1.503 452.893 1.123C451.151 1.182 451.809 0.938 449.159 1.067C448.67 1.569 446.697 2.089 444.808 2.524C442.821 2.833 440.247 2.878 438.662 2.767C440.653 2.672 442.631 2.152 442.12 1.805C440.971 2.339 438.212 1.492 438.816 2.178C436.494 2.185 432.591 2.295 432.324 1.699C434.514 1.423 436.65 1.74 438.508 1.565C437.995 1.564 437.49 1.424 437.788 1.274H440.531C438.45 1.03 438.857 0.825 436.203 0.954C436.371 0.999 436.708 1.088 436.457 1.125C435.796 1.158 434.964 1.146 434.297 1.179L434.202 0.628C432.22 0.935 428.379 0.326 424.747 0.821L425.071 0.699C422.166 0.654 421.948 1.751 418.799 1.957C419.705 1.676 419.281 1.456 419.112 1.2C417.545 1.514 416.7 1.079 415.117 0.971C416.956 1.251 413.895 1.585 415.227 1.732C415.33 2.285 412.088 2.363 410.427 2.337C409.418 1.645 415.56 1.823 413.048 1.151C411.389 1.125 410.984 1.541 412.153 1.644C410.076 1.612 406.922 1.607 405.412 1.202C402.945 1.8 401.943 1.53 400.384 2.268C401.711 2.204 401.777 1.697 403.448 1.933L401.637 2.498C399.233 2.59 397.309 2.179 395.65 2.154L397.387 1.883L397.304 1.968C397.963 1.723 400.206 1.801 399.944 1.416C398.384 1.941 397.122 1.498 395.06 1.89L395.14 1.806C391.504 2.301 388.811 1.159 386.522 2.226C387.185 2.193 388.526 2.552 388.115 2.757C387.274 2.534 385.04 2.669 385.112 2.373L385.858 2.257C383.783 2.226 382.535 2.207 381.788 2.323C381.222 2.694 381.815 2.958 380.324 3.19C376.665 3.049 381.788 2.323 379.295 2.072L375.903 2.529L375.146 2.221C370.083 2.016 366.211 3.186 360.821 3.315C360.723 2.763 364.613 2.442 365.939 2.376C364.265 1.927 361.882 2.652 359.634 2.364C357.553 2.333 355.997 2.858 356.334 3.16C353.773 3.418 354.5 2.878 354.17 2.789C353.351 3.411 350.112 3.275 348.047 3.456L347.945 3.118L344.725 3.617C345.556 3.632 344.819 3.956 344.825 4.168L343.996 4.156C347.178 5.01 351.108 3.335 354.376 4.316C353.386 4.47 354.721 4.617 353.726 4.772C352.899 4.757 352.731 4.713 352.642 4.584C352.152 4.873 350.834 5.15 352.576 5.091C352.512 5.81 349.021 5.716 346.627 6.016C344.706 5.605 348.599 5.283 349.582 4.918C348.671 4.991 347.929 5.319 346.6 5.17L346.913 4.626C343.607 4.997 346.019 5.117 345.283 5.657C344.398 6.363 342.299 5.697 341.389 5.767L342.379 5.613C339.804 5.446 339.238 6.031 336.92 6.038L335.822 5.639C338.748 6.107 339.364 4.805 341.033 5.042C336.789 4.638 341.916 3.913 343.229 3.425C341.403 3.567 339.747 3.542 338.745 3.272C336.106 4.036 333.175 3.145 330.633 4.038C329.22 3.974 331.862 3.633 330.37 3.652C327.632 3.653 324.73 3.821 321.837 4.199C320.338 4.218 320.588 3.968 320.164 3.751C312.938 3.598 310.153 4.951 302.263 4.831L303.414 4.511C301.758 4.485 300.342 4.42 299.529 4.832C297.424 3.952 292.491 5.57 289.812 4.64C286.321 4.544 286.177 5.346 283.442 5.559C283.437 5.346 284.259 4.934 282.84 4.871C273.895 5.412 265.847 5.671 255.984 6.07C256.064 5.987 256.56 5.909 256.807 5.871C250.418 5.943 244.141 6.988 238.827 6.822C237.832 6.977 234.854 7.228 235.778 7.581C237.02 7.601 237.201 8.067 237.126 8.362C232.411 8.884 234.788 7.735 231.636 7.941C230.62 7.248 233.612 7.421 233.597 6.785L229.046 7.35C226.47 7.185 223.908 7.652 221.661 7.366C222.66 7.422 221.973 6.821 223.642 7.057C223.39 7.095 223.561 7.139 223.31 7.179C227.132 7.151 225.381 6.786 228.778 6.542C225.793 6.794 221.736 7.07 219.076 6.988C219.67 7.46 216.926 7.25 216.188 7.577L216.02 7.533C216.025 7.745 214.379 7.93 213.874 8.008L213.196 7.405C212.033 7.514 213.534 7.707 212.375 7.814C210.729 8.001 204.831 8.209 204.401 7.567C202.406 7.664 201.837 8.036 199.768 8.003C199.927 7.836 200.423 7.76 200.498 7.677C196.104 7.652 190.716 7.991 186.552 7.718C183.163 7.961 180.26 8.129 178.12 8.604C179.03 8.534 181.691 8.616 180.038 9.013C179.132 9.297 177.722 9.232 176.316 9.378C176.638 9.047 172.737 9.156 175.55 8.862C174.823 8.169 169.476 9.145 169.504 8.439C168.849 8.671 164.842 8.64 163.352 9.055C163.011 8.754 165.51 8.791 165.499 8.579L163.678 8.721L163.673 8.51C160.177 8.413 159.547 9.293 157.477 9.473L157.556 9.389L156.15 9.536L157.79 8.927C155.555 9.062 154.41 9.596 151.924 9.769L151.671 9.595L150.177 9.827C150.429 9.788 150.512 9.704 150.348 9.659C148.947 10.23 145.709 10.097 144.396 10.584C143.399 10.528 142.544 9.878 141.231 10.367L141.464 9.694C144.777 9.533 142.712 10.137 146.195 9.807C143.6 9.007 136.385 9.278 131.575 9.456C127.695 9.99 121.283 9.428 119.652 10.459L120.054 10.044L113.496 9.858C107.939 10.156 102.21 9.982 97.992 10.636L96.821 10.324C92.465 11.567 81.903 11.152 79.043 12.59C76.551 12.341 79.777 12.05 80.02 11.801C78.187 11.732 75.145 12.7 73.385 12.123C73.38 11.912 75.952 11.865 74.788 11.763C73.452 11.404 72.896 12.199 71.386 11.796C72.06 12.187 69.003 12.733 66.773 12.867C67.185 12.874 67.185 12.874 67.362 12.918C67.695 13.221 66.031 13.196 65.12 13.265C65.12 13.265 65.202 13.183 65.448 13.143C53.94 13.941 40.76 14.501 28.636 14.402L30.861 14.054C29.127 14.323 26.048 14.235 25.057 14.178L25.308 14.139C22.055 13.581 21.672 14.844 19.164 14.172L19.654 14.094C15.756 14.204 13.423 13.576 9.618 14.025C6.618 13.853 6.941 13.518 4.858 13.276C3.117 13.332 2.308 13.744 2.221 13.827L3.055 13.841C3.977 14.192 1.238 14.193 0 14.386C0.926 14.95 0.455 15.874 3.961 16.393C6.525 16.137 6.479 17.278 9.377 17.111C11.013 16.29 13.543 17.596 16.173 16.834C14.777 17.404 19.334 17.051 17.033 17.693C18.123 18.091 22.656 17.101 24.75 17.557C24.415 17.68 24.498 17.807 24.006 17.885C26.904 17.506 26.008 18.211 28.164 18.159L28.068 17.608C28.896 17.409 29.155 17.793 29.896 17.679C29.307 17.627 28.063 17.396 28.712 17.153C29.705 16.998 30.532 16.799 31.607 16.774C31.625 16.985 30.877 17.1 30.373 17.178C30.373 17.178 32.705 17.172 32.874 17.428C32.046 17.626 30.97 17.651 30.242 17.98C33.309 18.07 30.491 18.152 31.995 18.555C31.561 17.915 34.645 18.215 36.295 18.029C36.473 18.286 35.136 18.139 34.729 18.345C37.917 19.409 39.455 18.036 43.522 18.182C43.442 18.265 42.946 18.344 42.694 18.382C44.604 18.157 45.949 18.728 47.18 18.323C49.012 18.394 47.532 19.049 50.354 18.965C49.507 18.317 53.677 19.014 53.734 18.297L55.907 18.667C57.808 18.232 55.368 17.475 59.103 17.32C62.51 17.5 58.808 18.502 60.805 18.827L61.627 18.416L63.296 18.654L63.044 18.693C64.038 18.539 65.861 18.609 65.871 18.819C65.712 18.987 64.629 19.013 64.477 19.18C66.119 18.782 71.05 19.999 72.76 18.883C73.743 19.049 75.76 18.998 75.51 19.345C76.388 18.849 79.931 19.388 81.239 19.055C81.071 19.221 82.326 19.452 83.319 19.3C81.982 19.152 82.813 18.953 83.711 18.67C84.889 18.985 88.196 18.613 88.712 19.17C90.53 18.816 89.852 18.426 90.245 18.008C91.423 18.322 95.156 18.167 94.512 18.834C93.509 18.779 91.266 18.701 91.699 19.131C93.611 19.327 92.521 18.931 94.091 18.829C93.977 18.95 95.169 19.205 94.872 19.401C95.799 19.308 97.098 19.284 98.424 19.362C96.349 19.116 99.738 18.874 98.488 18.643L96.513 19.163C94.106 19.252 96 18.817 95.083 18.675C99.312 18.443 98.461 17.795 102.433 17.391C103.181 17.486 104.512 17.634 104.93 17.641C103.603 17.705 103.874 18.302 104.629 18.397C106.841 17.839 108.617 18.626 110.445 18.697C108.86 18.589 109.683 18.179 110.258 18.017C114.061 17.569 111.758 18.209 113.427 18.446C119.307 18.241 123.065 18.933 127.778 18.413L125.526 17.912L124.794 18.451C123.04 18.085 125.088 17.271 126.074 16.906C126.33 17.079 129.233 16.911 128.08 17.233L130.897 16.938C130.471 16.719 128.649 16.861 129.96 16.584C130.892 16.725 133.79 16.771 131.977 17.123C133.468 17.103 135.369 16.879 135.033 16.578C137.435 16.489 134.8 17.251 133.733 17.489C135.637 17.476 135.403 17.937 134.831 18.097L137.477 17.97C136.904 18.128 136.909 18.34 136.338 18.5C138.084 18.654 139.314 18.039 140.812 18.443L141.466 17.986C146.285 18.231 145.793 18.306 150.277 18.249L149.521 17.94C152.9 17.273 152.019 18.403 156.576 18.05C159.14 17.792 160.799 17.605 160.449 17.092C161.931 16.862 162.276 17.164 162.95 17.343C164.099 17.022 166.571 16.425 168.403 16.706C167.165 16.898 166.174 17.053 165.015 17.164C165.365 17.675 168.998 17.181 170.91 17.38C172.233 17.103 176.532 16.365 178.92 15.852C177.826 15.454 178.223 14.825 180.368 14.349C180.045 14.684 183.284 14.607 184.776 14.801C184.046 15.125 188.118 15.483 184.976 15.69C184.059 15.55 183.63 15.118 182.387 15.311C183.145 15.62 185.151 15.947 187.23 16.191C187.075 16.358 185.997 16.594 184.921 16.619C185.504 16.461 185.161 16.37 185.075 16.242Z" fill="#C83F45"/>
</svg>
