<svg width="402" height="14" viewBox="0 0 402 14" fill="none" xmlns="http://www.w3.org/2000/svg">
<path d="M147.34 11.787C144.307 12.193 147.997 12.531 147.549 12.933C148.359 12.817 150.086 12.874 149.267 12.581C150.866 13.363 154.077 12.092 155.805 12.709C155.878 12.629 154.879 12.377 156.068 12.169C157.848 12.072 157.722 12.447 158.45 12.601C158.977 12.368 161.681 12.179 161.42 12.294C162.602 12.086 160.151 11.524 161.801 11.165C162.915 10.618 164.441 11.057 165.759 10.897C167.35 11.256 164.179 11.174 163.522 11.361L168.01 11.07C169.333 11.333 167.422 11.598 166.098 11.547C167.891 11.869 170.194 11.536 170.719 11.091C171.843 11.177 172.436 11.073 173.495 11.242C172.446 11.497 172.519 12.263 170.871 12.409C168.159 12.388 171.849 11.812 169.541 11.721L169.347 12.181C168.356 11.93 167.571 12.28 166.51 12.324C165.916 12.215 166.638 12.159 167.034 12.089C165.116 12.142 163.589 11.913 162.147 12.45C164.734 12.846 168.621 12.237 169.756 12.746L174.895 12.058C174.893 11.846 173.101 11.523 174.552 11.199C175.154 11.73 176.675 11.96 178.661 12.036C177.923 11.457 181.826 11.481 180.825 11.02C179.904 11.323 179.435 10.838 179.304 10.792C181.222 10.739 179.559 10.251 180.613 10.208C184.118 10.302 180.487 10.583 183.927 10.76C183.203 11.028 181.358 11.633 179.452 11.898C179.587 12.157 181.361 11.844 182.166 12.131C181.036 11.833 182.949 11.569 182.02 11.448C184.795 11.175 188.023 10.538 191.389 10.373C190.873 11.244 185.718 11.084 186.79 12.099C188.439 11.952 188.429 11.53 189.753 11.58C190.881 12.089 193.649 11.605 195.901 11.567L194.902 11.315C195.757 11.095 197.341 11.242 198.338 11.281L198.079 11.398L199.057 11.225C199.211 11.245 199.246 11.272 199.244 11.305C200.32 11.026 203.076 11.255 205.139 11.08C205.133 10.658 203.092 11.084 202.103 11.046C201.832 10.952 199.92 10.791 200.842 10.49C203.409 10.462 205.19 9.93902 208.096 9.92502L207.171 9.80602C208.092 9.50202 209.347 9.63602 210.731 9.60402C213.249 9.87102 208.89 10.211 210.416 10.44C209.433 10.824 207.708 10.418 207.451 10.958L209.04 11.529C210.361 11.158 211.823 11.679 212.75 11.589L211.752 11.339C211.943 10.88 212.87 11.213 213.337 11.273L212.661 10.613C211.211 10.513 210.225 11.109 209.166 10.73C211.736 10.492 211.138 9.95802 214.239 9.91202C214.381 10.171 213.642 10.015 213.323 10.213C214.383 10.382 215.493 9.83302 217.212 10.028C216.23 10.2 214.643 10.478 215.906 10.823L216.822 10.31C217.615 10.382 217.292 10.581 217.617 10.594C218.745 10.68 217.352 10.075 219.135 10.187C219.401 10.283 219.993 10.391 219.735 10.506C221.782 10.504 220.717 10.334 222.628 10.07C220.915 10.088 220.841 9.32402 222.619 9.22402C225.131 9.28002 226.838 8.83802 228.568 9.45502L229.688 9.11802C228.972 9.59802 231.278 9.26502 232.074 9.33702C232.343 9.85602 228.308 9.36002 228.316 10.206C229.967 10.272 229.25 10.539 228.721 10.772C230.507 10.674 229.376 10.163 230.162 9.81302C230.167 10.026 233.205 9.84802 232.155 10.315C233.674 10.331 233.931 9.79102 235.052 9.87802C234.885 10.087 234.693 10.356 234.803 10.623C234.934 10.446 236.371 10.648 236.649 10.661C236.386 10.564 237.17 10.214 235.853 10.374C236.178 9.96402 238.959 10.327 238.883 9.98502C239.025 10.454 241.727 10.054 243.115 10.235C242.968 9.12802 240.548 10.684 240.073 9.77802C241.915 9.38302 246.282 9.68102 249.249 9.16202C251.824 9.34702 249.253 9.58502 249.784 9.98802C247.413 10.191 246.812 9.87102 244.764 10.089C247.015 10.259 250.71 10.107 252.356 9.74902C254.805 9.67602 255.086 10.828 258.055 10.521C257.656 10.169 257.72 10.085 256.79 9.96202C257.581 9.82702 258.51 9.94502 259.366 9.93702C259.89 9.70502 258.04 9.67602 259.226 9.46602C259.69 9.52802 260.68 9.56702 260.488 9.81202L260.29 9.84702C263.125 9.49302 262.352 10.689 264.785 9.98102C264.586 9.80402 264.059 10.037 263.46 9.92702C262.997 9.65702 264.505 9.25102 265.634 9.12402C265.434 9.37102 266.623 9.16202 267.415 9.23602C267.949 9.63802 265.434 9.37102 265.042 9.65202L267.225 9.69402L266.764 9.63502L269.134 9.21902C267.481 9.36602 268.335 8.72202 269.061 8.66502C270.71 8.73002 272.365 8.79402 272.172 9.25302C272.365 8.79402 274.413 8.79102 275.865 8.67702C274.277 8.53002 275.66 8.28802 276.119 8.13702L278.504 8.56802C275.995 8.72402 279.037 8.97102 278.45 9.28702C277.732 9.76602 276.207 9.53802 274.883 9.48702C277.475 10.307 278.512 8.99402 280.764 9.37502C280.766 9.58702 280.571 9.83402 279.581 9.79702C279.979 9.93702 281.625 9.36702 283.148 9.59602C282.747 9.45302 281.884 9.03802 283.397 8.84402L285.388 9.34502C287.702 9.43502 286.173 8.78302 288.082 8.52002L286.826 8.17402C287.017 7.71402 289.401 8.14802 289.458 7.64202C288.271 7.63802 287.612 8.03502 286.363 7.90302C285.888 7.41702 287.944 7.62502 288.658 7.35502C291.241 7.54202 290.71 7.56402 292.635 7.93502C292.713 8.70002 289.475 8.91202 289.894 9.90302C292.4 9.74602 296.031 9.46502 297.683 9.74102C299.927 9.49002 299.718 8.88902 299.382 8.45302C300.309 8.36102 300.767 8.42402 301.365 8.53002L300.314 8.78702C303.085 8.51302 304.665 8.23502 307.576 8.22302C309.219 8.07502 308.552 7.62502 308.153 7.27102L309.937 7.17002L309.664 7.07602C310.058 6.58302 311.644 6.73002 312.832 6.73502C312.839 6.94602 312.112 7.00302 312.181 7.13302C313.237 7.30002 314.825 7.23502 315.678 7.01502C315.683 7.22602 314.964 7.70602 313.707 7.57202C313.574 7.52402 313.638 7.44402 313.507 7.39402L311.395 7.69402C313.835 7.40802 315.298 7.93102 315.24 8.43602C317.682 8.15102 313.247 7.93502 316.152 7.71102C319.996 8.66402 323.416 7.36002 325.552 8.75502C327.328 8.44302 329.436 7.93202 332.211 7.87202C332.207 7.44802 334.062 7.69002 333.787 7.17002C331.134 6.64402 328.845 8.03602 326.714 7.27602C325.533 7.48302 325.935 7.83802 325.405 8.07002C324.355 8.11502 323.361 8.07702 323.222 7.81702C325.662 7.53102 323.868 6.78502 326.971 6.73602C326.573 6.38102 324.06 6.53702 322.94 6.45202C323.266 6.25302 322.929 6.02902 322.2 5.87302C322.992 5.52302 324.765 5.21102 325.687 4.90702C325.363 5.10602 325.961 5.21502 325.695 5.33302L328.925 4.69702C329.92 4.94602 330.193 5.25402 329.663 5.48702C331.452 5.59802 334.476 4.99802 334.492 5.63302C336.801 5.51102 333.755 5.26502 333.556 5.08802L333.753 5.05402L331.31 5.12802C331.034 4.39702 334.089 5.27802 334.472 4.57302C334.844 3.23502 337.918 4.96202 339.629 4.73402L337.659 5.71402L339.376 5.48602C338.391 5.87002 338.401 6.50402 336.889 6.91202C339.264 6.91802 342.641 7.17702 344.161 6.98302C344.757 7.30402 345.023 7.61102 344.763 7.93802C347.135 7.31002 348.468 8.21002 350.519 8.20502C352.689 7.82502 348.331 7.73902 349.909 7.25002C350.57 7.48802 351.759 7.28002 352.351 7.17702C351.694 7.36202 349.376 7.06002 347.787 6.91302C348.978 6.91802 348.841 6.44702 349.17 6.24902L347.183 6.16902C347.306 5.58202 349.625 6.09802 350.543 5.79302C349.961 6.32102 350.286 6.33402 349.703 6.86102C351.418 6.63202 353.994 6.60602 355.455 6.91602C356.316 7.12002 354.734 7.18402 354.271 7.33602C354.67 7.69102 355.984 7.10602 356.32 7.54402C356.06 7.87202 355.266 7.58702 354.67 7.69102L359.693 7.80302C359.695 8.01302 358.444 8.09202 357.652 8.01802C359.176 8.24702 360.293 8.12002 362.067 7.38602C363.786 7.58002 365.77 7.86902 365.187 8.18402C365.977 8.04702 365.447 7.85702 365.438 7.64402C367.756 7.73602 368.004 6.98302 369.39 6.95302L368.335 6.57302C370.582 6.95702 368.85 5.91602 370.835 6.20502C370.516 6.61602 370.65 7.08602 370.988 7.52302C371.312 7.11302 372.574 7.45802 373.431 7.45002C372.894 7.04702 375.272 7.05602 373.881 6.66302C375.862 6.31502 376.79 6.86002 378.238 6.32402C377.315 6.20402 379.948 5.88302 379.148 5.59802C381.069 5.54702 382.393 6.02102 381.876 6.46802C381.211 6.44202 380.148 6.27302 380.226 6.61402L383.722 6.49802C384.59 6.70002 385.708 6.78602 385.851 7.25602C386.965 6.70702 389.158 7.59902 390.008 6.95302C388.825 7.37302 387.889 6.82902 387.433 6.76702L387.974 6.67302C387.896 6.67302 387.808 6.66602 387.692 6.65102L389.195 5.82102C387.739 5.51202 388.942 6.36102 386.888 6.36502C385.1 5.62002 390.905 5.17002 389.048 4.71502C387.528 4.48602 387.801 5.21702 386.552 5.50702L386.88 5.52002L384.043 5.87402C383.908 5.61602 384.765 5.39402 384.765 5.39402C381.327 5.43002 380.791 5.02802 377.092 4.96802C377.361 5.06402 378.094 5.85402 376.445 6.00202C375.263 6.20802 375.121 5.73802 374.133 5.69802C374.722 5.59602 375.248 5.14902 376.042 5.43502L375.972 4.88202C378.735 4.18602 377.277 3.66302 381.038 3.42902C381.206 3.02102 383.932 2.78302 385.98 2.88102L384.983 2.52502C387.086 1.80402 385.388 3.09202 388.088 2.47702C389.221 3.19902 391.286 4.03902 389.774 4.66002C391.694 4.81702 392.344 4.42102 394.068 4.40402C395.131 4.99502 393.546 5.06102 393.751 5.66102C395.01 5.58202 396.591 5.30602 395.654 4.97402L398.043 5.19202C398.108 5.32202 397.253 5.33002 396.918 5.31902C397.848 5.43902 399.626 5.12802 400.149 4.89502C399.953 4.92902 399.355 5.03402 399.095 4.93702C400.084 4.76502 401.862 4.45302 401.99 4.28902C400.542 4.61302 400.403 3.93002 398.888 4.33702C399.016 4.17302 399.273 3.84402 400.068 3.91702C398.808 3.57202 397.554 3.64902 397.022 3.24802C398.085 3.54202 398.759 3.09402 398.982 3.02802C398.031 2.92102 396.139 3.05102 395.503 3.23102C395.356 2.55002 391.806 3.38402 393.047 2.67102C392.852 2.91702 391.464 2.94702 390.734 2.79202C390.797 2.49602 392.642 2.31702 393.431 1.96602C397.128 1.60102 393.37 2.47102 394.236 2.67502L397.059 2.59802C396.774 2.50202 398.185 2.10902 396.343 2.16502C397.195 1.73202 398.973 1.42002 400.429 1.73202C400.761 1.53102 399.701 1.57602 399.372 1.56302C399.699 1.36402 401.473 0.628017 399.159 0.539017C399.821 0.564017 398.04 0.876017 399.232 1.09202C398.308 1.18202 395.795 0.915017 396.784 0.530017C395.659 0.655017 393.55 0.954017 392.626 1.04602C392.357 0.738017 393.416 0.907017 393.879 0.756017L390.639 0.969017L391.571 1.30102C389.192 1.08002 387.683 1.91102 385.772 2.17602C386.029 1.63502 387.616 1.56902 388.865 1.28002C387.661 0.640017 388.08 1.62902 386.094 1.55202C385.826 1.45602 385.757 1.32702 385.885 1.16202L384.31 1.65202C383.848 1.59202 384.108 1.47402 384.308 1.44002C381.605 2.05502 384.383 2.20502 380.752 2.48702C382.942 2.74102 382.605 2.09402 384.448 2.12402C385.516 2.50402 382.349 2.84502 381.819 3.07702C380.037 2.96602 379.825 2.15602 377.584 2.61702C379.165 2.34102 377.644 2.11102 379.889 2.07102C381.141 1.78202 379.223 1.83502 378.958 1.52702C378.366 1.63202 379.359 2.09402 377.708 2.02902L377.772 1.94802L375.076 2.56102C372.556 2.29402 369.405 3.27102 367.676 2.65402L368.081 3.22002C366.498 3.28402 364.252 3.32502 363.131 3.45002C363.388 3.12102 364.446 3.07902 365.566 2.95302C362.721 2.88402 360.22 3.25102 358.31 3.72702C359.705 4.12102 359.905 4.08602 361.229 4.34902C359.392 5.16502 359.039 3.88102 356.664 4.29802C356.593 3.74502 357.386 3.81702 356.787 3.28502C355.802 3.67202 354.147 3.60702 353.027 3.94502C352.425 3.41202 353.472 2.94502 355.916 2.87102C357.773 3.32602 359.81 2.47402 361.339 2.91402L360.408 2.58002C362.259 2.39802 363.378 2.48502 364.959 2.20802L364.895 2.29102L365.681 1.72902L364.824 1.73802C365.412 1.42102 367.188 0.899017 367.717 0.877017C365.072 0.986017 364.891 1.86802 363.643 2.37002C361.262 2.36002 360.321 1.39402 358.742 1.88202C358.61 1.62102 357.281 1.35802 358.339 1.10502C359.654 0.943017 360.586 1.27602 360.712 0.899017C359.324 0.931017 359.851 0.697017 357.739 0.785017C357.345 1.27802 355.77 1.76602 354.262 2.17202C352.677 2.45002 350.627 2.45402 349.366 2.31802C350.953 2.25502 352.532 1.76602 352.129 1.41102C351.209 1.92702 349.02 1.03702 349.494 1.73102C347.645 1.70302 344.537 1.75002 344.33 1.15002C346.076 0.909017 347.773 1.25902 349.254 1.11402C348.846 1.10402 348.445 0.956017 348.684 0.812017L350.867 0.855017C349.213 0.578017 349.539 0.380017 347.425 0.467017C347.558 0.514017 347.825 0.608017 347.626 0.641017C347.099 0.664017 346.437 0.639017 345.905 0.662017L345.834 0.109017C344.254 0.385017 341.201 -0.283983 338.305 0.152017L338.564 0.0360168C336.251 -0.0549832 336.068 1.03802 333.558 1.19502C334.282 0.928017 333.947 0.701017 333.814 0.442017C332.564 0.732017 331.895 0.283017 330.636 0.150017C332.097 0.459017 329.658 0.745017 330.717 0.913017C330.794 1.46802 328.212 1.49402 326.889 1.44202C326.092 0.734017 330.981 1.00902 328.987 0.298017C327.667 0.246017 327.34 0.655017 328.27 0.777017C326.617 0.711017 324.105 0.657017 322.907 0.228017C320.937 0.787017 320.142 0.501017 318.894 1.21402C319.951 1.17202 320.008 0.665017 321.337 0.929017L319.889 1.46502C317.975 1.51802 316.447 1.07702 315.126 1.02602L316.511 0.782017L316.444 0.866017C316.971 0.632017 318.757 0.745017 318.552 0.356017C317.304 0.856017 316.304 0.393017 314.658 0.753017L314.723 0.670017C311.823 1.10702 309.689 -0.0769832 307.857 0.954017C308.385 0.931017 309.45 1.31102 309.121 1.50902C308.453 1.27302 306.673 1.37302 306.733 1.07802L307.329 0.974017C305.676 0.911017 304.683 0.871017 304.087 0.975017C303.633 1.33802 304.103 1.61102 302.914 1.82002C300.002 1.62102 304.087 0.975017 302.105 0.686017L299.4 1.08902L298.8 0.769017C294.771 0.484017 291.677 1.59302 287.385 1.63702C287.311 1.08302 290.412 0.824017 291.468 0.779017C290.139 0.304017 288.235 0.991017 286.448 0.667017C284.791 0.603017 283.548 1.10402 283.813 1.41202C281.772 1.62802 282.356 1.10002 282.093 1.00602C281.436 1.61502 278.859 1.42802 277.213 1.57602L277.134 1.23702L274.566 1.68502C275.228 1.71302 274.638 2.02602 274.641 2.23802L273.981 2.21202C276.507 3.11602 279.651 1.50402 282.244 2.53602C281.455 2.67402 282.516 2.84302 281.723 2.98102C281.064 2.95402 280.931 2.90702 280.861 2.77702C280.468 3.05802 279.416 3.31402 280.804 3.28302C280.747 4.00002 277.968 3.85002 276.059 4.11402C274.533 3.67202 277.636 3.41102 278.422 3.06302C277.695 3.12002 277.102 3.43602 276.045 3.26702L276.299 2.72802C273.664 3.04702 275.583 3.20502 274.992 3.73302C274.281 4.42502 272.616 3.72502 271.891 3.78202L272.68 3.64302C270.632 3.43602 270.176 4.01202 268.33 3.98302L267.46 3.56602C269.785 4.08002 270.287 2.78802 271.614 3.05102C268.238 2.57902 272.327 1.93602 273.377 1.46902C271.922 1.58202 270.603 1.53102 269.808 1.24502C267.7 1.96802 265.374 1.03002 263.342 1.88302C262.218 1.79702 264.324 1.49702 263.136 1.49302C260.956 1.45102 258.645 1.57202 256.338 1.90502C255.144 1.90102 255.345 1.65502 255.009 1.43102C249.257 1.16402 247.028 2.47302 240.747 2.22802L241.666 1.92602C240.348 1.87402 239.221 1.78702 238.571 2.18602C236.902 1.27302 232.96 2.81202 230.835 1.84002C228.056 1.68902 227.935 2.48902 225.755 2.65902C225.753 2.44602 226.411 2.04702 225.282 1.96202C218.155 2.36102 211.745 2.49302 203.889 2.73602C203.953 2.65402 204.349 2.58402 204.545 2.55002C199.458 2.52102 194.451 3.46702 190.222 3.21702C189.428 3.35602 187.055 3.56002 187.787 3.92802C188.775 3.96802 188.916 4.43602 188.854 4.73002C185.095 5.17802 186.997 4.06602 184.486 4.22302C183.684 3.51402 186.064 3.73302 186.058 3.09802L182.429 3.59102C180.38 3.38502 178.336 3.81102 176.549 3.49002C177.344 3.56102 176.803 2.95002 178.129 3.21202C177.929 3.24602 178.064 3.29302 177.864 3.32902C180.907 3.36102 179.516 2.96902 182.223 2.77902C179.844 2.98302 176.611 3.19502 174.494 3.07102C174.963 3.55302 172.781 3.29902 172.189 3.61502L172.056 3.56702C172.059 3.78002 170.746 3.93902 170.344 4.00902L169.809 3.39502C168.882 3.48602 170.075 3.70302 169.152 3.79202C167.839 3.95202 163.142 4.06702 162.805 3.41802C161.215 3.48402 160.759 3.84702 159.112 3.78102C159.24 3.61702 159.636 3.54802 159.696 3.46602C156.198 3.37202 151.906 3.62502 148.592 3.28702C145.892 3.47702 143.579 3.59902 141.871 4.04002C142.596 3.98402 144.714 4.10902 143.394 4.48002C142.67 4.74902 141.548 4.66202 140.428 4.78602C140.687 4.45902 137.58 4.50702 139.823 4.25802C139.25 3.55302 134.984 4.44502 135.012 3.73902C134.488 3.96002 131.298 3.86702 130.108 4.25802C129.84 3.95102 131.829 4.02802 131.823 3.81602L130.371 3.92902L130.369 3.71802C127.586 3.56602 127.077 4.43502 125.427 4.58302L125.49 4.50102L124.37 4.62602L125.681 4.04202C123.901 4.14202 122.984 4.65702 121.003 4.79202L120.803 4.61402L119.611 4.82202C119.813 4.78702 119.879 4.70402 119.749 4.65702C118.629 5.20602 116.052 5.02202 115.002 5.48802C114.209 5.41602 113.534 4.75202 112.484 5.22102L112.676 4.55102C115.315 4.44302 113.665 5.01402 116.441 4.74002C114.382 3.89802 108.635 4.05502 104.804 4.15702C101.71 4.63002 96.61 3.96602 95.302 4.97202L95.626 4.56302L90.406 4.27402C85.979 4.48302 81.419 4.22002 78.055 4.80702L77.125 4.47602C73.646 5.65002 65.24 5.06802 62.95 6.46102C60.968 6.17302 63.539 5.93302 63.735 5.68702C62.276 5.59002 59.846 6.51002 58.449 5.90502C58.447 5.69402 60.496 5.68702 59.57 5.56802C58.509 5.18702 58.059 5.97302 56.861 5.54702C57.393 5.94802 54.955 6.44602 53.178 6.54402C53.506 6.55802 53.506 6.55802 53.647 6.60502C53.909 6.91302 52.585 6.86102 51.858 6.91602C51.858 6.91602 51.925 6.83602 52.121 6.80002C42.951 7.41602 32.452 7.76702 22.8 7.47602L24.575 7.16402C23.192 7.40602 20.741 7.26902 19.952 7.19602L20.152 7.16202C17.567 6.55302 17.251 7.80802 15.26 7.09702L15.651 7.02702C12.546 7.07602 10.694 6.41102 7.661 6.80002C5.274 6.58002 5.534 6.25102 3.878 5.97502C2.491 6.00402 1.844 6.40402 1.773 6.48502L2.438 6.51202C3.168 6.87802 0.987 6.83502 0 7.00902C0.732 7.58702 0.349 8.50402 3.136 9.07802C5.18 8.86202 5.133 10.003 7.442 9.88202C8.751 9.08602 10.754 10.433 12.855 9.71102C11.739 10.26 15.37 9.97802 13.532 10.584C14.396 10.999 18.014 10.081 19.678 10.57C19.409 10.688 19.475 10.816 19.083 10.887C21.393 10.553 20.673 11.245 22.39 11.226L22.319 10.674C22.98 10.487 23.183 10.875 23.774 10.773C23.306 10.712 22.317 10.461 22.836 10.229C23.627 10.09 24.288 9.90402 25.144 9.89502C25.156 10.107 24.56 10.21 24.158 10.28C24.158 10.28 26.015 10.311 26.147 10.569C25.486 10.754 24.629 10.763 24.046 11.079C26.487 11.218 24.243 11.256 25.437 11.683C25.097 11.036 27.55 11.385 28.866 11.225C29.005 11.485 27.942 11.316 27.616 11.515C30.145 12.631 31.381 11.281 34.618 11.492C34.553 11.574 34.158 11.644 33.957 11.678C35.48 11.484 36.546 12.076 37.53 11.69C38.987 11.79 37.804 12.422 40.051 12.382C39.383 11.721 42.696 12.484 42.748 11.768L44.474 12.172C45.992 11.766 44.057 10.972 47.031 10.876C49.742 11.11 46.786 12.053 48.373 12.409L49.031 12.012L50.358 12.275L50.157 12.31C50.95 12.173 52.4 12.271 52.407 12.482C52.278 12.647 51.416 12.655 51.294 12.82C52.604 12.449 56.52 13.743 57.891 12.654C58.673 12.836 60.279 12.816 60.077 13.159C60.78 12.678 63.596 13.272 64.641 12.959C64.506 13.124 65.503 13.374 66.295 13.238C65.232 13.069 65.895 12.883 66.612 12.614C67.548 12.948 70.184 12.627 70.59 13.193C72.04 12.868 71.504 12.467 71.821 12.056C72.756 12.388 75.729 12.292 75.211 12.949C74.412 12.878 72.627 12.765 72.968 13.201C74.489 13.428 73.625 13.015 74.876 12.937C74.783 13.056 75.731 13.33 75.492 13.521C76.231 13.443 77.266 13.439 78.321 13.538C76.67 13.26 79.371 13.071 78.378 12.821L76.801 13.309C74.883 13.36 76.395 12.955 75.667 12.799C79.036 12.634 78.364 11.972 81.53 11.631C82.125 11.738 83.183 11.906 83.516 11.92C82.459 11.963 82.669 12.564 83.27 12.671C85.036 12.148 86.443 12.964 87.898 13.063C86.637 12.93 87.295 12.533 87.755 12.381C90.787 11.993 88.948 12.596 90.274 12.859C94.957 12.746 97.944 13.499 101.7 13.054L99.913 12.516L99.325 13.044C97.932 12.651 99.57 11.869 100.357 11.519C100.56 11.697 102.873 11.575 101.952 11.877L104.197 11.627C103.86 11.402 102.408 11.515 103.455 11.259C104.195 11.414 106.502 11.506 105.056 11.829C106.243 11.833 107.759 11.639 107.493 11.332C109.407 11.282 107.302 12.002 106.45 12.223C107.967 12.24 107.776 12.697 107.319 12.849L109.427 12.763C108.969 12.912 108.971 13.124 108.516 13.275C109.904 13.456 110.889 12.861 112.078 13.289L112.603 12.842C116.437 13.163 116.045 13.231 119.616 13.244L119.016 12.924C121.713 12.31 121.002 13.426 124.633 13.145C126.677 12.927 127.999 12.767 127.725 12.248C128.907 12.041 129.179 12.349 129.714 12.538C130.632 12.236 132.605 11.677 134.062 11.988C133.074 12.16 132.284 12.3 131.36 12.392C131.635 12.908 134.531 12.472 136.051 12.702C137.107 12.445 140.537 11.775 142.443 11.3C141.575 10.885 141.897 10.262 143.609 9.82102C143.349 10.149 145.928 10.124 147.115 10.341C146.531 10.654 149.77 11.077 147.266 11.233C146.538 11.079 146.199 10.641 145.209 10.814C145.809 11.135 147.403 11.493 149.057 11.77C148.931 11.934 148.071 12.153 147.214 12.162C147.68 12.013 147.407 11.916 147.34 11.787Z" fill="#C83F45"/>
</svg>
