<svg width="939" height="28" viewBox="0 0 939 28" fill="none" xmlns="http://www.w3.org/2000/svg">
<path d="M344.113 22.4362C337.03 22.9772 345.647 23.1512 344.602 23.5732C346.493 23.4212 350.527 23.4012 348.614 23.1452C352.349 23.8562 359.847 22.4412 363.882 22.9822C364.054 22.8992 361.72 22.6922 364.497 22.4312C368.655 22.2542 368.36 22.6352 370.061 22.7572C371.291 22.5002 377.606 22.1912 376.996 22.3172C379.757 22.0582 374.032 21.6042 377.885 21.1722C380.488 20.5752 384.053 20.9462 387.131 20.7282C390.847 21.0162 383.44 21.0752 381.907 21.2912L392.386 20.8012C395.478 21.0062 391.014 21.3552 387.921 21.3632C392.11 21.6052 397.489 21.1692 398.714 20.7022C401.339 20.7382 402.724 20.6072 405.197 20.7292C402.747 21.0312 402.918 21.7932 399.071 22.0132C392.736 22.1122 401.354 21.3732 395.963 21.3842L395.511 21.8532C393.196 21.6462 391.363 22.0302 388.884 22.1222C387.497 22.0392 389.184 21.9512 390.108 21.8632C385.63 22.0022 382.063 21.8412 378.695 22.4412C384.737 22.7232 393.815 21.9402 396.466 22.4002L408.468 21.4832C408.463 21.2712 404.279 21.0282 407.666 20.6402C409.073 21.1442 412.626 21.3062 417.264 21.2932C415.539 20.7492 424.655 20.5982 422.318 20.1812C420.166 20.5262 419.07 20.0612 418.766 20.0212C423.244 19.8832 419.359 19.4692 421.821 19.3792C430.007 19.3172 421.527 19.7602 429.562 19.7832C427.871 20.0842 423.563 20.7712 419.111 21.1212C419.426 21.3742 423.568 20.9822 425.45 21.2332C422.809 20.9852 427.277 20.6372 425.108 20.5562C431.588 20.1612 439.128 19.3802 446.989 19.0662C445.783 19.9592 433.746 20.0282 436.248 20.9972C440.1 20.7752 440.076 20.3532 443.169 20.3452C445.803 20.8042 452.269 20.1972 457.526 20.0592L455.194 19.8522C457.19 19.5932 460.891 19.6692 463.218 19.6652L462.614 19.7932L464.898 19.5762C465.256 19.5902 465.34 19.6162 465.334 19.6482C467.848 19.3222 474.284 19.4292 479.102 19.1622C479.088 18.7392 474.322 19.2562 472.011 19.2632C471.38 19.1802 466.913 19.1052 469.066 18.7632C475.061 18.6212 479.222 18.0182 486.008 17.8742L483.847 17.7972C485.998 17.4532 488.929 17.5312 492.163 17.4372C498.043 17.5922 487.863 18.1262 491.426 18.2872C489.13 18.7152 485.102 18.3852 484.503 18.9372L488.214 19.4372C491.297 19.0072 494.713 19.4642 496.879 19.3322L494.546 19.1262C494.993 18.6602 497.159 18.9522 498.249 18.9912L496.67 18.3602C493.283 18.3252 490.98 18.9652 488.508 18.6332C494.511 18.2802 493.113 17.7732 500.354 17.5902C500.686 17.8422 498.962 17.7192 498.215 17.9322C500.691 18.0532 503.284 17.4552 507.299 17.5732C505.006 17.7892 501.299 18.1382 504.249 18.4272L506.387 17.8732C508.239 17.9102 507.485 18.1232 508.244 18.1222C510.879 18.1572 507.626 17.6142 511.789 17.6462C512.41 17.7312 513.794 17.8122 513.19 17.9392C517.971 17.8462 515.485 17.7232 519.947 17.3752C515.946 17.4692 515.774 16.7072 519.927 16.5282C525.792 16.4732 529.78 15.9562 533.821 16.4962L536.435 16.1082C534.763 16.6202 540.151 16.1862 542.009 16.2222C542.636 16.7292 533.213 16.4122 533.232 17.2582C537.089 17.2502 535.414 17.5502 534.178 17.8062C538.35 17.6292 535.708 17.1682 537.543 16.7832C537.555 16.9962 544.65 16.6822 542.198 17.1962C545.746 17.1452 546.346 16.5932 548.963 16.6302C548.573 16.8482 548.126 17.1252 548.382 17.3872C548.687 17.2042 552.043 17.3422 552.693 17.3432C552.078 17.2582 553.91 16.8732 550.834 17.0912C551.593 16.6662 558.089 16.9062 557.911 16.5682C558.243 17.0312 564.553 16.5112 567.795 16.6302C567.451 15.5292 561.8 17.1932 560.69 16.3082C564.991 15.8312 575.192 15.9352 582.122 15.2842C588.134 15.3542 582.131 15.7072 583.371 16.0862C577.833 16.3952 576.43 16.1022 571.646 16.4102C576.903 16.4802 585.534 16.1652 589.377 15.7342C595.097 15.5512 595.752 16.6912 602.687 16.2522C601.754 15.9182 601.905 15.8312 599.733 15.7492C601.58 15.5792 603.75 15.6562 605.75 15.6102C606.972 15.3542 602.651 15.4072 605.422 15.1452C606.506 15.1862 608.819 15.1812 608.369 15.4352L607.908 15.4782C614.529 14.9982 612.723 16.2302 618.404 15.4132C617.94 15.2452 616.708 15.5002 615.312 15.4182C614.23 15.1682 617.752 14.6962 620.387 14.5192C619.921 14.7742 622.698 14.5132 624.548 14.5512C625.796 14.9302 619.921 14.7742 619.005 15.0722L624.103 15.0182L623.028 14.9782L628.561 14.4572C624.701 14.6782 626.695 13.9962 628.391 13.9072C632.243 13.8992 636.109 13.8892 635.657 14.3572C636.109 13.8892 640.89 13.7952 644.282 13.6172C640.575 13.5402 643.805 13.2372 644.876 13.0652L650.445 13.3902C644.587 13.6582 651.691 13.7692 650.321 14.1112C648.642 14.6242 645.082 14.4632 641.989 14.4702C648.042 15.1752 650.464 13.8162 655.725 14.0982C655.729 14.3102 655.273 14.5652 652.962 14.5722C653.891 14.6942 657.734 14.0512 661.291 14.2122C660.356 14.0872 658.339 13.7112 661.873 13.4502L666.524 13.8622C671.927 13.8502 668.358 13.2652 672.815 12.9172L669.882 12.6262C670.327 12.1592 675.896 12.4872 676.03 11.9782C673.257 12.0262 671.717 12.4532 668.8 12.3762C667.69 11.9122 672.492 12.0282 674.159 11.7272C680.192 11.7992 678.953 11.8442 683.448 12.1302C683.632 12.8912 676.069 13.2482 677.046 14.2202C682.9 13.9522 691.38 13.5092 695.237 13.7112C700.479 13.3612 699.99 12.7692 699.205 12.3482C701.372 12.2152 702.442 12.2572 703.837 12.3362L701.382 12.6402C707.853 12.2432 711.544 11.8952 718.342 11.7542C722.18 11.5332 720.623 11.1132 719.692 10.7762L723.856 10.5962L723.22 10.5142C724.139 10.0042 727.844 10.0802 730.619 10.0322C730.634 10.2432 728.938 10.3322 729.098 10.4592C731.565 10.5802 735.272 10.4442 737.265 10.1862C737.277 10.3972 735.598 10.9092 732.662 10.8312C732.351 10.7892 732.502 10.7062 732.196 10.6622L727.263 11.0552C732.961 10.6612 736.378 11.1192 736.243 11.6272C741.945 11.2332 731.589 11.2142 738.373 10.8612C747.351 11.6442 755.338 10.1872 760.327 11.4882C764.474 11.0972 769.397 10.4922 775.878 10.3092C775.868 9.88515 780.2 10.0452 779.559 9.53715C773.364 9.12915 768.017 10.6232 763.041 9.95715C760.281 10.2172 761.22 10.5532 759.984 10.8102C757.53 10.9012 755.209 10.9062 754.884 10.6522C760.584 10.2582 756.393 9.59215 763.639 9.40515C762.71 9.06815 756.84 9.33515 754.225 9.30015C754.986 9.08615 754.199 8.87715 752.498 8.75415C754.347 8.36915 758.489 7.97815 760.641 7.63315C759.885 7.84715 761.282 7.92915 760.661 8.05815L768.203 7.27915C770.528 7.48415 771.164 7.78015 769.926 8.03615C774.105 8.06815 781.169 7.33315 781.205 7.96815C786.597 7.74415 779.484 7.63215 779.018 7.46415L779.48 7.42115L773.774 7.60415C773.129 6.88615 780.264 7.63115 781.159 6.90915C782.028 5.55315 789.206 7.14415 793.202 6.84015L788.601 7.90815L792.613 7.60315C790.312 8.03215 790.334 8.66615 786.805 9.14015C792.351 9.04215 800.237 9.15015 803.786 8.88815C805.18 9.18315 805.8 9.47815 805.194 9.81715C810.734 9.08315 813.847 9.92515 818.635 9.82915C823.705 9.35215 813.526 9.45915 817.212 8.90115C818.755 9.10915 821.532 8.84815 822.916 8.71915C821.382 8.93315 815.968 8.73415 812.256 8.65815C815.038 8.61015 814.717 8.14515 815.485 7.93215L810.844 7.94115C811.133 7.34815 816.547 7.76115 818.693 7.41515C817.334 7.96915 818.093 7.96815 816.732 8.52015C820.736 8.21515 826.753 8.07515 830.164 8.32015C832.176 8.48515 828.479 8.62115 827.399 8.79315C828.331 9.13015 831.401 8.48615 832.186 8.91015C831.578 9.24915 829.724 8.99915 828.331 9.13015L840.063 9.01915C840.068 9.22915 837.145 9.36415 835.295 9.32515C838.855 9.48615 841.464 9.31015 845.607 8.49715C849.622 8.61515 854.254 8.81515 852.895 9.15715C854.738 8.98415 853.5 8.81715 853.481 8.60515C858.892 8.59315 859.473 7.83015 862.71 7.73815L860.245 7.40515C865.494 7.68915 861.449 6.72515 866.085 6.92615C865.338 7.35115 865.652 7.81515 866.442 8.23715C867.198 7.81315 870.145 8.10215 872.147 8.05615C870.894 7.67715 876.446 7.58015 873.197 7.24915C877.826 6.81315 879.991 7.31615 883.373 6.71615C881.218 6.63715 887.368 6.19915 885.5 5.94915C889.985 5.81315 893.079 6.22815 891.87 6.69815C890.318 6.70215 887.835 6.58015 888.017 6.91815L896.181 6.64615C898.209 6.81015 900.82 6.84615 901.155 7.31015C903.755 6.71115 908.877 7.50615 910.862 6.82215C908.099 7.29515 905.913 6.79315 904.85 6.75115L906.113 6.63215C905.93 6.63615 905.724 6.63315 905.453 6.62315L908.963 5.72615C905.563 5.48115 908.372 6.27715 903.576 6.37315C899.4 5.70715 912.957 4.99915 908.62 4.62615C905.07 4.46515 905.709 5.18415 902.79 5.52915L903.556 5.52815L896.932 6.00815C896.617 5.75615 898.618 5.49615 898.618 5.49615C890.588 5.68415 889.337 5.30615 880.696 5.41015C881.326 5.49415 883.039 6.25215 879.187 6.47315C876.426 6.73315 876.094 6.26915 873.788 6.27215C875.163 6.14415 876.39 5.67415 878.244 5.92415L878.081 5.37415C884.535 4.55515 881.128 4.09715 889.913 3.69515C890.306 3.28015 896.671 2.92115 901.456 2.92815L899.128 2.61715C904.039 1.80215 900.073 3.16515 906.378 2.43115C909.024 3.10315 913.847 3.85215 910.316 4.53915C914.799 4.61115 916.319 4.18615 920.345 4.09215C922.828 4.63615 919.127 4.77315 919.606 5.36415C922.545 5.22915 926.236 4.88315 924.05 4.59215L929.628 4.70515C929.779 4.83115 927.785 4.87715 927.002 4.88015C929.172 4.96015 933.327 4.57015 934.547 4.31315C934.09 4.35615 932.693 4.48815 932.085 4.40315C934.394 4.18615 938.547 3.79515 938.846 3.62615C935.466 4.01315 935.14 3.33715 931.602 3.81115C931.901 3.64215 932.502 3.30115 934.358 3.33915C931.415 3.04915 928.487 3.18315 927.243 2.80515C929.726 3.05215 931.3 2.57415 931.821 2.49815C929.599 2.43315 925.181 2.64715 923.695 2.85515C923.353 2.18115 915.062 3.17215 917.961 2.40415C917.504 2.65915 914.263 2.75015 912.557 2.62815C912.706 2.33015 917.014 2.06815 918.856 1.68215C927.491 1.15315 918.715 2.19015 920.736 2.35515L927.33 2.15215C926.664 2.07015 929.959 1.61415 925.657 1.75215C927.647 1.28115 931.8 0.890154 935.2 1.13715C935.976 0.921154 933.501 1.01415 932.733 1.01515C933.496 0.801154 937.639 -0.012846 932.235 0.000153965C933.78 -0.00384604 929.621 0.387154 932.405 0.550154C930.247 0.682154 924.377 0.526154 926.688 0.097154C924.061 0.272154 919.135 0.665154 916.978 0.798154C916.348 0.501154 918.823 0.624154 919.904 0.452154L912.337 0.809154L914.512 1.09915C908.957 0.984154 905.433 1.88215 900.969 2.23215C901.57 1.68015 905.275 1.54415 908.193 1.19915C905.381 0.612154 906.358 1.58215 901.72 1.59415C901.096 1.51015 900.933 1.38415 901.233 1.21315L897.556 1.77315C896.477 1.73315 897.082 1.60315 897.551 1.56115C891.238 2.29615 897.726 2.32315 889.246 2.76715C894.36 2.92315 893.573 2.29015 897.876 2.23915C900.371 2.57215 892.975 3.05415 891.736 3.30915C887.576 3.27715 887.08 2.47615 881.847 3.03715C885.538 2.69015 881.987 2.52815 887.229 2.38915C890.154 2.04315 885.674 2.18215 885.056 1.88615C883.673 2.01715 885.992 2.43515 882.136 2.44415L882.286 2.35915L875.988 3.09315C870.103 2.93715 862.745 4.05515 858.707 3.51415L859.652 4.06215C855.956 4.19715 850.709 4.33715 848.092 4.51315C848.691 4.17215 851.162 4.08215 853.779 3.90715C847.134 3.96415 841.291 4.44315 836.833 5.00415C840.091 5.33515 840.557 5.29215 843.65 5.49615C839.358 6.39415 838.534 5.12515 832.988 5.64715C832.823 5.09715 834.674 5.13515 833.275 4.62915C830.974 5.06015 827.108 5.06915 824.493 5.45615C823.087 4.95015 825.534 4.43615 831.242 4.25415C835.579 4.62615 840.335 3.68415 843.905 4.05615L841.731 3.76315C846.054 3.49915 848.669 3.53715 852.36 3.18915L852.212 3.27515L854.046 2.67815L852.046 2.72515C853.419 2.38115 857.567 1.78015 858.802 1.73515C852.625 1.96215 852.202 2.85215 849.286 3.40915C843.727 3.50515 841.528 2.58115 837.841 3.13915C837.533 2.88415 834.428 2.68015 836.899 2.37915C839.97 2.15915 842.147 2.45115 842.442 2.06815C839.2 2.16115 840.43 1.90415 835.499 2.08515C834.578 2.59715 830.899 3.15515 827.378 3.62815C823.677 3.97615 818.888 4.07215 815.944 3.99215C819.649 3.85715 823.337 3.29815 822.395 2.96115C820.247 3.51915 815.135 2.72515 816.242 3.39915C811.924 3.45215 804.664 3.63915 804.18 3.04715C808.259 2.72815 812.223 3.00315 815.682 2.79215C814.729 2.80115 813.792 2.67015 814.35 2.51515L819.45 2.46115C815.586 2.25815 816.347 2.04515 811.409 2.22615C811.721 2.26815 812.345 2.35015 811.879 2.39215C810.649 2.43715 809.101 2.44215 807.86 2.48915L807.695 1.93815C804.003 2.28515 796.873 1.75115 790.109 2.31615L790.715 2.18815C785.313 2.20015 784.885 3.30215 779.024 3.57015C780.715 3.27015 779.931 3.05915 779.622 2.80615C776.703 3.15215 775.139 2.73215 772.199 2.65515C775.612 2.89915 769.914 3.29315 772.388 3.41515C772.568 3.96615 766.538 4.10715 763.449 4.11415C761.587 3.44115 773.005 3.49915 768.347 2.87615C765.264 2.88315 764.502 3.30715 766.674 3.38715C762.812 3.39515 756.947 3.45215 754.148 3.07715C749.548 3.72315 747.69 3.47315 744.775 4.24115C747.244 4.15215 747.378 3.64315 750.48 3.84715L747.1 4.44715C742.629 4.58515 739.06 4.21215 735.975 4.22015L739.21 3.91515L739.055 4.00115C740.285 3.74415 744.455 3.77715 743.976 3.39815C741.063 3.95415 738.726 3.53515 734.884 3.96815L735.034 3.88215C728.262 4.44815 723.278 3.35915 718.999 4.47115C720.233 4.42515 722.719 4.75815 721.951 4.97015C720.392 4.76415 716.234 4.94315 716.375 4.64515L717.765 4.51415C713.906 4.52415 711.586 4.52915 710.194 4.66015C709.134 5.04315 710.231 5.29515 707.454 5.55615C700.654 5.48715 710.194 4.66015 705.564 4.45815L699.247 4.98115L697.845 4.68815C688.436 4.58215 681.21 5.82915 671.186 6.06315C671.014 5.51315 678.255 5.11515 680.722 5.02315C677.619 4.60715 673.172 5.37915 668.998 5.13515C665.129 5.14415 662.225 5.70115 662.845 5.99715C658.077 6.30415 659.44 5.75015 658.828 5.66715C657.293 6.30615 651.274 6.23315 647.43 6.45415L647.245 6.11915L641.248 6.68115C642.793 6.67915 641.416 7.01915 641.423 7.23015L639.882 7.23415C645.781 8.02615 653.123 6.27415 659.18 7.19115C657.336 7.36415 659.816 7.48615 657.963 7.66015C656.424 7.66215 656.113 7.62115 655.951 7.49315C655.032 7.79215 652.575 8.09515 655.817 8.00215C655.683 8.72215 649.193 8.69615 644.736 9.04415C641.172 8.67015 648.418 8.27115 650.253 7.88815C648.557 7.97815 647.172 8.32015 644.703 8.19715L645.296 7.64715C639.141 8.08315 643.624 8.15615 642.244 8.71015C640.583 9.43515 636.694 8.80915 635 8.89715L636.845 8.72415C632.06 8.60715 630.996 9.20315 626.684 9.25615L624.652 8.87715C630.081 9.28915 631.254 7.97415 634.354 8.17815C626.469 7.85715 636.019 7.03215 638.471 6.51815C635.072 6.69515 631.992 6.70315 630.136 6.45315C625.213 7.26915 619.78 6.43515 615.035 7.37715C612.41 7.34115 617.328 6.94815 614.554 6.99715C609.463 7.05115 604.064 7.27515 598.676 7.71015C595.888 7.75915 596.358 7.50415 595.574 7.29515C582.139 7.28415 576.934 8.69215 562.265 8.72715L564.41 8.38315C561.332 8.39015 558.7 8.35315 557.181 8.78115C553.284 7.94215 544.077 9.65715 539.115 8.77915C532.625 8.75115 532.341 9.55615 527.251 9.82315C527.246 9.61015 528.783 9.18215 526.145 9.14615C509.5 9.86315 494.53 10.2792 476.181 10.8712C476.332 10.7872 477.256 10.6992 477.715 10.6562C465.833 10.8532 454.14 12.0212 444.262 11.9592C442.409 12.1342 436.866 12.4432 438.576 12.7782C440.885 12.7752 441.213 13.2372 441.067 13.5342C432.288 14.1482 436.732 12.9532 430.867 13.2202C428.993 12.5472 434.553 12.6612 434.538 12.0252L426.063 12.6792C421.276 12.5652 416.503 13.0822 412.329 12.8392C414.187 12.8762 412.922 12.2882 416.021 12.4922C415.552 12.5352 415.867 12.5762 415.401 12.6212C422.508 12.5182 419.259 12.1872 425.582 11.8762C420.025 12.1862 412.475 12.5422 407.53 12.5122C408.626 12.9732 403.528 12.8162 402.148 13.1592L401.837 13.1172C401.842 13.3292 398.777 13.5462 397.837 13.6342L396.589 13.0442C394.424 13.1772 397.211 13.3402 395.053 13.4702C391.988 13.6892 381.018 14.0132 380.23 13.3782C376.518 13.5152 375.453 13.8982 371.606 13.9052C371.905 13.7362 372.829 13.6492 372.97 13.5652C364.801 13.6262 354.775 14.0702 347.036 13.8782C340.73 14.1892 335.329 14.4132 331.339 14.9302C333.032 14.8422 337.979 14.8732 334.896 15.3032C333.205 15.6042 330.585 15.5662 327.968 15.7412C328.573 15.4022 321.318 15.5882 326.555 15.2392C325.217 14.5602 315.254 15.6422 315.32 14.9342C314.097 15.1792 306.647 15.2272 303.867 15.6712C303.241 15.3762 307.885 15.3652 307.871 15.1532L304.482 15.3302L304.477 15.1192C297.978 15.0912 296.788 15.9832 292.935 16.2052L293.083 16.1192L290.466 16.2932L293.528 15.6512C289.37 15.8312 287.229 16.3862 282.603 16.6092L282.136 16.4402L279.352 16.7012C279.823 16.6572 279.978 16.5722 279.674 16.5302C277.058 17.1292 271.039 17.0592 268.587 17.5722C266.735 17.5352 265.159 16.9012 262.707 17.4162L263.154 16.7392C269.318 16.5132 265.465 17.1572 271.948 16.7602C267.139 16.0102 253.717 16.4212 244.77 16.6942C237.543 17.3042 225.633 16.8672 222.578 17.9312L223.333 17.5072L211.142 17.4502C200.804 17.8562 190.153 17.7952 182.298 18.5322L180.126 18.2422C172 19.5722 152.369 19.3632 147.02 20.8572C142.392 20.6572 148.396 20.3032 148.852 20.0492C145.446 20.0162 139.77 21.0442 136.509 20.5012C136.504 20.2902 141.288 20.1932 139.126 20.1142C136.648 19.7812 135.597 20.5872 132.798 20.2132C134.043 20.5912 128.347 21.1972 124.198 21.3752C124.964 21.3742 124.964 21.3742 125.292 21.4152C125.904 21.7112 122.811 21.7182 121.115 21.8062C121.115 21.8062 121.271 21.7222 121.728 21.6772C100.312 22.7012 75.792 23.5192 53.25 23.6572L57.394 23.2662C54.165 23.5682 48.44 23.5402 46.598 23.5022L47.066 23.4592C41.029 22.9652 40.29 24.2352 35.64 23.6122L36.553 23.5242C29.303 23.7112 24.977 23.1292 17.893 23.6522C12.318 23.5392 12.926 23.1982 9.057 22.9962C5.818 23.0862 4.306 23.5152 4.141 23.5992L5.693 23.5962C7.399 23.9302 2.306 23.9842 0 24.2012C1.711 24.7472 0.816 25.6812 7.324 26.1322C12.098 25.8252 11.988 26.9682 17.381 26.7442C20.439 25.8912 25.117 27.1482 30.023 26.3342C27.416 26.9322 35.896 26.4892 31.605 27.1762C33.623 27.5532 42.073 26.4742 45.958 26.8902C45.332 27.0202 45.484 27.1442 44.568 27.2322C49.965 26.7962 48.284 27.5202 52.293 27.4252L52.127 26.8762C53.67 26.6602 54.144 27.0402 55.524 26.9112C54.431 26.8702 52.122 26.6642 53.333 26.4082C55.183 26.2342 56.725 26.0182 58.725 25.9722C58.753 26.1832 57.361 26.3122 56.421 26.4002C56.421 26.4002 60.758 26.3492 61.067 26.6022C59.524 26.8162 57.522 26.8622 56.16 27.2052C61.862 27.2352 56.62 27.3732 59.409 27.7472C58.616 27.1152 64.345 27.3542 67.416 27.1362C67.742 27.3902 65.259 27.2692 64.497 27.4822C70.404 28.4852 73.291 27.0812 80.851 27.1482C80.7 27.2322 79.776 27.3212 79.308 27.3632C82.864 27.1012 85.353 27.6462 87.651 27.2172C91.056 27.2522 88.291 27.9362 93.539 27.7972C91.979 27.1652 99.718 27.7822 99.838 27.0632L103.871 27.3912C107.416 26.9172 102.895 26.2082 109.842 25.9802C116.174 26.0942 109.27 27.1692 112.976 27.4552L114.513 27.0282L117.612 27.2322L117.143 27.2762C118.995 27.1032 122.382 27.1382 122.396 27.3482C122.097 27.5192 120.084 27.5652 119.798 27.7352C122.858 27.3062 132.004 28.4272 135.206 27.2762C137.031 27.4242 140.781 27.3322 140.31 27.6852C141.953 27.1722 148.53 27.6422 150.969 27.2822C150.654 27.4532 152.983 27.6592 154.832 27.4872C152.35 27.3652 153.899 27.1502 155.574 26.8492C157.758 27.1412 163.915 26.7042 164.863 27.2512C168.25 26.8622 166.999 26.4852 167.739 26.0592C169.922 26.3502 176.866 26.1232 175.656 26.8022C173.79 26.7672 169.621 26.7322 170.417 27.1542C173.97 27.3132 171.951 26.9382 174.872 26.8052C174.657 26.9292 176.87 27.1602 176.313 27.3622C178.038 27.2512 180.454 27.2012 182.919 27.2532C179.065 27.0482 185.371 26.7392 183.053 26.5332L179.369 27.0922C174.891 27.2282 178.422 26.7562 176.721 26.6322C184.589 26.3172 183.019 25.6852 190.414 25.2032C191.804 25.2832 194.275 25.4052 195.052 25.4042C192.584 25.4942 193.074 26.0862 194.478 26.1662C198.603 25.5642 201.889 26.3182 205.286 26.3532C202.342 26.2752 203.879 25.8502 204.952 25.6772C212.034 25.1542 207.738 25.8392 210.836 26.0432C221.773 25.7232 228.749 26.3422 237.522 25.7302L233.346 25.2722L231.974 25.8262C228.72 25.4952 232.545 24.6402 234.385 24.2552C234.858 24.4232 240.26 24.1992 238.109 24.5432L243.353 24.1922C242.566 23.9822 239.174 24.1602 241.619 23.8572C243.348 23.9802 248.736 23.9692 245.358 24.3572C248.13 24.3082 251.671 24.0462 251.051 23.7512C255.52 23.6162 250.604 24.4302 248.616 24.6882C252.157 24.6382 251.712 25.1032 250.645 25.2762L255.568 25.0962C254.499 25.2662 254.504 25.4782 253.439 25.6492C256.682 25.7692 258.981 25.1302 261.759 25.5052L262.986 25.0342C271.94 25.1852 271.024 25.2702 279.363 25.1252L277.964 24.8312C284.262 24.0982 282.6 25.2452 291.081 24.8032C295.855 24.4952 298.943 24.2752 298.302 23.7682C301.063 23.5092 301.699 23.8052 302.948 23.9712C305.091 23.6272 309.7 22.9812 313.102 23.2272C310.796 23.4432 308.949 23.6182 306.792 23.7512C307.433 24.2552 314.198 23.6902 317.748 23.8522C320.215 23.5492 328.224 22.7272 332.676 22.1662C330.65 21.7902 331.4 21.1532 335.4 20.6352C334.792 20.9762 340.816 20.8352 343.587 21.0002C342.223 21.3392 349.787 21.6182 343.94 21.8852C342.239 21.7632 341.449 21.3402 339.135 21.5582C340.536 21.8522 344.26 22.1392 348.122 22.3432C347.829 22.5132 345.821 22.7702 343.819 22.8162C344.906 22.6472 344.27 22.5622 344.113 22.4362Z" fill="#C83F45"/>
</svg>
