<svg xmlns="http://www.w3.org/2000/svg" width="213" height="39" viewBox="0 0 213 39" fill="none"><path d="M29.2359 27.0376L27.917 26.3296C27.961 27.0376 28.0928 27.7456 28.2687 28.4537L29.2359 27.0376Z" fill="#4F4D4D"></path><path d="M34.4672 30.4451L32.5329 27.1705L28.4883 29.3388C28.5762 29.6486 28.7081 29.9584 28.84 30.2681C29.5434 31.8612 30.4666 33.233 31.6536 34.4277C32.2691 35.0473 32.9285 35.5783 33.6319 36.065L34.2474 35.6668L37.8524 34.295L34.4672 30.4451Z" fill="#4F4D4D"></path><path d="M36.2252 37.437L36.1812 36.0652L34.7305 36.729C35.0822 36.906 35.4778 37.1272 35.8295 37.26C35.9614 37.3042 36.0933 37.3927 36.2252 37.437Z" fill="#4F4D4D"></path><path d="M28.8383 20.1347C28.1788 21.6835 27.8711 23.365 27.8711 25.1793C27.8711 25.2678 27.8711 25.3121 27.8711 25.4006L29.5417 26.4626L31.3002 26.3741L33.4104 22.657C33.4544 22.48 33.5423 22.3472 33.5863 22.1702C33.894 21.5065 34.2457 20.8869 34.6853 20.3117L29.6736 18.5416C29.3658 19.0726 29.1021 19.6037 28.8383 20.1347Z" fill="#4F4D4D"></path><path d="M48.8427 15.4885L48.9306 15.0459C48.0074 14.2937 46.9962 13.6742 45.8532 13.1874C45.3257 12.9219 44.7541 12.7449 44.1826 12.5679L46.2928 15.7982L48.2272 17.7453L48.8427 15.4885Z" fill="#4F4D4D"></path><path d="M50.1618 34.3837L48.4472 33.1005H41.1934L43.6113 38.2336H44.6225L46.5568 36.5078L50.1618 34.3837Z" fill="#4F4D4D"></path><path d="M43.3914 17.5237C44.3586 17.922 45.1939 18.453 45.8533 19.2053C46.6007 19.9133 47.1282 20.7541 47.5239 21.6834C47.5678 21.8161 47.6118 21.9489 47.6997 22.0374L48.3592 22.2144L49.2824 21.0638L47.5239 18.1433L44.0508 13.8951L41.501 16.9485C42.1604 17.0812 42.7759 17.2582 43.3914 17.5237Z" fill="#4F4D4D"></path><path d="M46.8196 37.3923L46.1602 38.2331H52.5787L50.9521 35.3125L46.8196 37.3923Z" fill="#4F4D4D"></path><path d="M30.1592 17.7452L33.6762 18.9843L34.3796 17.7895L34.8632 13.6299C33.6762 14.2494 32.6211 15.0017 31.6539 15.9752C31.1264 16.5505 30.6428 17.1257 30.1592 17.7452Z" fill="#4F4D4D"></path><path d="M35.3457 18.7627L35.8293 19.1167C36.4008 18.63 37.0603 18.2317 37.8076 17.9662C38.7748 17.5237 39.7859 17.3467 40.885 17.3467C40.929 17.3467 41.0169 17.3467 41.0609 17.3467L41.1488 14.3819L36.7965 12.8773C36.4887 12.9658 36.181 13.0986 35.8733 13.2313C35.7414 13.2756 35.6974 13.2756 35.6095 13.3198C35.5216 14.4704 35.3457 16.5059 35.3457 16.6829V18.7627Z" fill="#4F4D4D"></path><path d="M53.7671 28.4539L53.4593 28.2769L50.1621 32.7462L52.8438 36.7288L53.3274 38.2334H53.7671V28.4539Z" fill="#4F4D4D"></path><path d="M38.291 12.4348L38.7306 12.6561L42.2037 13.4526L42.3796 12.2578C41.896 12.2136 41.3684 12.1693 40.8409 12.1693C39.9616 12.1693 39.1263 12.2578 38.291 12.4348Z" fill="#4F4D4D"></path><path d="M37.2363 35.2683V37.7906C38.3794 38.1004 39.5664 38.2774 40.8413 38.2774H42.2481L40.7094 33.808L37.2363 35.2683Z" fill="#4F4D4D"></path><path d="M53.415 27.2589L51.5686 26.1526L51.4807 24.825L49.5463 23.0992L48.4912 23.8073C48.5791 24.2498 48.6231 24.7365 48.6231 25.2233V31.5955L49.4144 31.861L53.415 27.2589Z" fill="#4F4D4D"></path><path d="M52.7115 20.1348C52.052 18.5417 51.1288 17.1699 49.9418 16.0194C49.8978 15.9752 49.8539 15.9309 49.7659 15.8424L49.6341 16.2407L48.9746 18.4975L50.2056 20.71L50.821 23.3651L52.2718 24.3829L53.4588 22.3473C53.283 21.5951 53.0632 20.8428 52.7115 20.1348Z" fill="#4F4D4D"></path><path d="M188.073 20.1347C187.413 21.6835 187.105 23.365 187.105 25.1793C187.105 25.2678 187.105 25.3121 187.105 25.4006L188.776 26.4626L190.535 26.3741L192.645 22.657C192.689 22.48 192.777 22.3472 192.821 22.1702C193.128 21.5065 193.48 20.8869 193.92 20.3117L188.908 18.5416C188.6 19.0726 188.292 19.6037 188.073 20.1347Z" fill="#4F4D4D"></path><path d="M195.459 37.437L195.415 36.0652L193.964 36.729C194.316 36.906 194.711 37.1272 195.063 37.26C195.195 37.3042 195.327 37.3927 195.459 37.437Z" fill="#4F4D4D"></path><path d="M189.392 27.4358L187.105 26.2853C187.149 26.9933 187.281 27.7013 187.457 28.4093L189.392 27.4358Z" fill="#4F4D4D"></path><path d="M203.065 18.0105C204.032 18.4087 204.868 18.9397 205.527 19.692C206.274 20.4 206.802 21.2408 207.198 22.1701C207.242 22.3028 207.286 22.4356 207.374 22.5241L208.033 22.7011L208.165 21.6391L207.198 18.63L202.714 13.6738L201.175 17.4352C201.834 17.5237 202.45 17.7007 203.065 18.0105Z" fill="#4F4D4D"></path><path d="M193.701 30.4451L191.766 27.1705L187.722 29.3388C187.81 29.6486 187.941 29.9584 188.073 30.2681C188.777 31.8612 189.7 33.233 190.887 34.4277C191.502 35.0473 192.162 35.5783 192.865 36.065L193.481 35.6668L197.086 34.295L193.701 30.4451Z" fill="#4F4D4D"></path><path d="M208.075 15.4885L208.163 15.0459C207.24 14.2937 206.229 13.6742 205.086 13.1874C204.558 12.9219 203.987 12.7449 203.415 12.5679L205.525 15.7982L207.46 17.7453L208.075 15.4885Z" fill="#4F4D4D"></path><path d="M208.604 34.782L207.681 33.1005H200.427L202.801 38.2336H203.856L205.746 36.5078L208.604 34.782Z" fill="#4F4D4D"></path><path d="M189.393 17.7452L192.91 18.9843L193.613 17.7895L194.097 13.6299C192.91 14.2494 191.855 15.0017 190.887 15.9752C190.36 16.5505 189.832 17.1257 189.393 17.7452Z" fill="#4F4D4D"></path><path d="M206.053 37.3925L205.394 38.2333H210.977L209.174 35.9764L206.053 37.3925Z" fill="#4F4D4D"></path><path d="M194.58 18.7627L195.064 19.1167C195.635 18.63 196.295 18.2317 197.042 17.9662C198.009 17.5237 199.02 17.3467 200.119 17.3467C200.163 17.3467 200.251 17.3467 200.295 17.3467L200.383 14.3819L196.031 12.8773C195.723 12.9658 195.415 13.0986 195.108 13.2313C195.064 13.2756 194.976 13.2756 194.932 13.3198C194.844 14.4704 194.624 16.5059 194.624 16.6829V18.7627H194.58Z" fill="#4F4D4D"></path><path d="M212.999 28.4539L212.692 28.2769L209.395 32.7462L212.032 36.7288L212.56 38.2334H212.999V28.4539Z" fill="#4F4D4D"></path><path d="M211.944 20.1348C211.284 18.5417 210.361 17.1699 209.174 16.0194C209.13 15.9752 209.086 15.9309 208.998 15.8424L208.866 16.2407L208.207 18.4975L209.438 20.71L210.053 23.3651L211.504 24.3829L212.691 22.3473C212.515 21.5951 212.296 20.8428 211.944 20.1348Z" fill="#4F4D4D"></path><path d="M212.649 27.2589L212.386 25.3561L210.715 24.825L208.781 23.0992L207.726 23.8073C207.814 24.2498 207.857 24.7365 207.857 25.2233V31.5955L208.649 31.861L212.649 27.2589Z" fill="#4F4D4D"></path><path d="M196.47 35.2683V37.7906C197.613 38.1004 198.8 38.2774 200.075 38.2774H201.481L199.943 33.808L196.47 35.2683Z" fill="#4F4D4D"></path><path d="M197.525 12.4348L197.965 12.6561L201.438 13.4526L201.614 12.2578C201.13 12.2136 200.603 12.1693 200.075 12.1693C199.196 12.1693 198.361 12.2578 197.525 12.4348Z" fill="#4F4D4D"></path><path d="M92.585 29.8699L94.6512 32.8348L95.6184 34.1181L97.1131 32.6135L93.5082 28.9407L92.585 29.8699Z" fill="#4F4D4D"></path><path d="M85.7288 33.056C83.7504 32.9675 82.0798 32.1709 80.6291 30.7549C80.4972 30.6221 80.3653 30.4451 80.2334 30.3124L80.761 34.5162L81.6842 35.5783L84.4538 34.8703L85.7288 33.056Z" fill="#4F4D4D"></path><path d="M90.0811 37.6581C90.3888 37.5696 90.6966 37.4368 91.0043 37.3483C92.4551 36.7288 93.818 35.888 95.005 34.7818L93.4663 33.0117L92.0155 30.4894L91.7517 30.7549C91.0043 31.5514 90.169 32.1267 89.2019 32.4807C88.6303 32.7019 88.0588 32.8789 87.4873 32.9675L88.5424 35.4898L90.0811 37.6581Z" fill="#4F4D4D"></path><path d="M80.6279 19.692C81.2873 19.0283 82.0347 18.4972 82.826 18.1432L79.6607 15.2227C79.6607 15.2227 78.5616 19.2053 78.5616 19.4708C78.5616 19.692 78.3418 24.2499 78.3418 24.2499H78.3858C78.4737 23.5861 78.6495 22.8781 78.9133 22.2144C79.265 21.2408 79.8365 20.4001 80.6279 19.692Z" fill="#4F4D4D"></path><path d="M91.6633 19.6923L92.9822 20.9756L93.3339 20.356L93.9054 15.2671L93.6416 14.6034C92.8063 14.0281 91.927 13.5413 91.0038 13.1873C89.8168 12.7006 88.6298 12.3908 87.4428 12.2581L86.2998 16.3734L86.5196 17.347C87.3989 17.3912 88.2342 17.5682 89.1134 17.9222C90.0366 18.3205 90.9159 18.8957 91.6633 19.6923Z" fill="#4F4D4D"></path><path d="M80.0567 13.4969L80.9799 14.9571L83.0461 17.3025C83.6177 17.0812 84.2331 16.9485 84.8047 16.9042L85.2443 16.2847L85.7279 12.5233L85.2883 11.7268C83.7496 11.7711 82.2109 12.0808 80.7161 12.7003C80.4523 12.7888 80.2325 12.9216 79.9688 13.0101L80.0567 13.4969Z" fill="#4F4D4D"></path><path d="M75.5722 17.6564C74.9567 18.4971 74.4731 19.3822 74.1214 20.3114C73.7697 21.1965 73.5499 22.0815 73.374 23.0108L77.5945 24.7808L77.9462 22.4355L77.5945 18.6742L75.5722 17.6564Z" fill="#4F4D4D"></path><path d="M76.9792 34.4278C78.1662 35.6225 79.4851 36.5076 80.8919 37.1713L78.9135 30.1354L75.3086 32.3922C75.7922 33.1002 76.3197 33.764 76.9792 34.4278Z" fill="#4F4D4D"></path><path d="M73.3311 23.6748C73.2871 24.2058 73.2432 24.6926 73.2432 25.2236C73.2432 26.9051 73.5509 28.4982 74.1664 30.0912V30.1355L75.2655 30.932L77.5515 28.1884L78.6506 27.4362C78.4747 26.8166 78.3428 26.2414 78.3428 25.6219L77.2877 25.1351L73.3311 23.6748Z" fill="#4F4D4D"></path><path d="M76.1006 16.9927C76.2325 17.0812 76.3204 17.1697 76.3204 17.1697L78.1668 18.0548L79.4418 14.1606V14.0721C78.5625 14.6032 77.7712 15.2227 76.9798 16.0192C76.6721 16.329 76.3644 16.683 76.1006 16.9927Z" fill="#4F4D4D"></path><path d="M88.9809 37.9235L88.893 37.6138L87.5302 36.3747L87.0466 34.0294L82.9141 36.596L83.5295 37.9678C84.4088 38.1448 85.2441 38.2333 86.1233 38.2333C87.0905 38.2333 88.0577 38.1448 88.9809 37.9235Z" fill="#4F4D4D"></path><path d="M94.2998 20.71L97.1134 17.8337L95.311 16.0194C95.0912 15.7981 94.8713 15.5768 94.6076 15.3556C94.5196 16.2849 94.2559 18.9842 94.2559 19.2055V20.71H94.2998Z" fill="#4F4D4D"></path><path d="M113.204 20.444C112.808 20.8423 112.368 21.2848 111.973 21.6831L114.259 26.6834L119.139 21.7716L115.314 17.4349L114.742 17.8332C115.006 17.9217 115.226 18.0545 115.49 18.143C114.962 18.7182 114.215 19.4705 113.204 20.444Z" fill="#4F4D4D"></path><path d="M101.993 27.2147L101.246 24.8694L99.8831 23.6303L99.5753 22.0815C99.3116 23.0993 99.2236 24.1614 99.2236 25.1791C99.2236 26.1969 99.3555 27.1704 99.5753 28.144L100.059 28.0997L101.993 27.2147Z" fill="#4F4D4D"></path><path d="M103.84 16.9484L101.071 18.4087C100.719 19.0282 100.367 19.6477 100.148 20.3115C100.104 20.4442 100.06 20.577 100.016 20.7097L100.851 22.7453L102.565 25.0021L103.489 26.7279L104.368 26.1526C104.324 25.8429 104.324 25.4889 104.324 25.1791C104.324 23.3648 104.852 21.7718 105.951 20.3557L105.819 20.1787L103.84 16.9484Z" fill="#4F4D4D"></path><path d="M116.896 15.2226L117.556 13.4083C117.336 13.3198 117.16 13.2313 116.94 13.1428C115.358 12.4791 113.775 12.1693 112.149 12.1693L111.973 13.0101L114.654 16.7714L116.896 15.2226Z" fill="#4F4D4D"></path><path d="M117.645 30.7547C117.425 30.9759 117.205 31.1972 116.941 31.3742L118.304 33.4097L119.755 35.7551C120.283 35.3568 120.81 34.9143 121.294 34.4275L121.558 34.162L122.525 32.0822L119.447 28.9846L117.645 30.7547Z" fill="#4F4D4D"></path><path d="M120.809 15.5327C120.062 14.7804 119.271 14.1609 118.435 13.6299L117.732 14.0724L116.457 16.5062L117.996 18.4533L118.787 20.5773L119.227 20.7101L122.612 17.3027L120.809 15.5327Z" fill="#4F4D4D"></path><path d="M113.38 27.5689L111.973 23.542L108.72 24.958C108.632 25.0465 108.588 25.0908 108.5 25.1793V29.0734L109.599 31.4187L113.38 27.5689Z" fill="#4F4D4D"></path><path d="M119.139 36.1536L116.413 31.7727C115.49 32.4365 114.435 32.8347 113.292 33.0117C112.413 33.1445 111.534 33.1002 110.698 32.9675L111.665 35.2686L113.38 38.1449C114.611 38.0121 115.842 37.7024 116.985 37.2156C117.776 36.9501 118.48 36.5961 119.139 36.1536Z" fill="#4F4D4D"></path><path d="M110.611 38.1451L111.622 37.2158L109.16 32.4367C109.028 32.3924 108.852 32.3039 108.72 32.2154L108.94 31.9941L108.896 31.9056L105.291 33.9412L104.5 35.6227V35.7112C105.335 36.3308 106.215 36.8175 107.138 37.2158C108.281 37.7468 109.424 38.0123 110.611 38.1451Z" fill="#4F4D4D"></path><path d="M102.214 32.1267L100.235 30.4894C100.807 31.8169 101.598 33.056 102.653 34.1622L102.214 32.1267Z" fill="#4F4D4D"></path><path d="M106.61 19.5595C107.841 18.3647 109.248 17.6567 110.831 17.3912C111.49 17.3027 112.15 17.3027 112.765 17.347V15.6654L110.919 12.2581C109.644 12.3908 108.413 12.7006 107.182 13.1873C106.698 13.3643 106.215 13.6298 105.731 13.8511L103.797 15.5769L106.61 19.5595Z" fill="#4F4D4D"></path><path d="M103.532 34.7375L108.719 31.2859C108.631 31.0647 107.488 27.7016 107.488 27.7016L107.444 26.197C107.356 26.2855 107.224 26.4183 107.137 26.5068C106.213 27.4361 105.51 28.1441 105.07 28.5866C104.85 28.0998 104.631 27.6131 104.499 27.1263L100.19 29.0734L102.52 31.8612L103.532 34.7375Z" fill="#4F4D4D"></path><path d="M126.041 30.3124L126.657 29.0734L124.854 24.6925V33.2773L126.921 32.348L126.041 30.3124Z" fill="#4F4D4D"></path><path d="M129.515 10.3109L129.119 6.54954L124.854 4.46973V10.8862L129.119 12.6562L129.515 10.3109Z" fill="#4F4D4D"></path><path d="M129.999 26.9932V17.4349L124.943 21.4618L126.482 26.1524L127.581 29.958L129.999 26.9932Z" fill="#4F4D4D"></path><path d="M126.789 18.8513L129.075 16.152L129.998 15.4882V13.6297L128.767 13.0544L124.854 11.5941V17.4795L126.789 18.8513Z" fill="#4F4D4D"></path><path d="M124.854 2.96487C125.734 3.54013 127.8 5.04467 127.8 5.04467L129.646 5.9297L129.998 4.86767V1.72583H124.854V2.96487Z" fill="#4F4D4D"></path><path d="M129.998 35.7111V28.1884L128.855 29.6929L128.107 32.9675L129.426 36.0651L129.998 35.7111Z" fill="#4F4D4D"></path><path d="M127.141 32.8789L124.854 34.472V38.2333H126.833L128.899 36.9058L127.141 32.8789Z" fill="#4F4D4D"></path><path d="M150.353 30.7989C149.65 31.5069 148.814 32.0379 147.891 32.4805C146.924 32.8787 145.913 33.0557 144.814 33.0557C144.55 33.0557 144.286 33.0557 144.022 33.0115L144.286 33.454L145.649 37.0826L149.474 33.6752L152.727 31.7282L151.496 29.3386C151.144 29.9139 150.793 30.4007 150.353 30.7989Z" fill="#4F4D4D"></path><path d="M140.726 36.5074L139.451 37.127C139.583 37.1712 139.671 37.2597 139.803 37.304C141.386 37.9677 143.056 38.2775 144.815 38.2775C145.034 38.2775 145.21 38.2775 145.43 38.2775L144.683 36.5517H140.726V36.5074Z" fill="#4F4D4D"></path><path d="M137.121 35.7107L135.758 33.2327L134.088 32.4362C134.571 33.1442 135.099 33.8079 135.671 34.4275C136.11 34.87 136.594 35.3125 137.121 35.7107Z" fill="#4F4D4D"></path><path d="M149.607 34.9145L146.705 37.1713L147.145 38.0121C148.068 37.8351 148.991 37.5696 149.826 37.2156C151.409 36.5076 152.772 35.5783 153.959 34.3835C154.311 34.0295 154.618 33.6755 154.926 33.3215L153.036 32.4807L149.607 34.9145Z" fill="#4F4D4D"></path><path d="M136.196 23.0995L136.416 23.188L133.558 18.8071C133.294 19.2496 133.075 19.6922 132.899 20.1347C132.459 21.1967 132.151 22.3472 132.02 23.542L132.063 23.4978L136.196 23.0995Z" fill="#4F4D4D"></path><path d="M135.01 31.5072L138.263 36.5076C138.351 36.5519 138.483 36.6404 138.571 36.6846C139.274 36.4634 142 35.4898 142 35.4898L143.846 35.4013L142.703 32.7905C142.352 32.702 142.044 32.6135 141.736 32.4808C140.769 32.0382 139.934 31.5072 139.186 30.7992C138.922 30.5337 138.703 30.2239 138.483 29.9142L137.823 30.4895L135.01 31.5072Z" fill="#4F4D4D"></path><path d="M133.339 31.1975L136.593 30.3567L138.043 29.2062C137.868 28.8965 137.736 28.5867 137.56 28.2769C137.164 27.3034 136.988 26.2856 136.988 25.1794C136.988 24.5598 137.032 23.9846 137.164 23.4093L133.779 24.4271L131.933 24.9138C131.933 25.0023 131.933 25.0908 131.933 25.1794C131.933 26.9494 132.24 28.631 132.9 30.224C133.032 30.578 133.164 30.8878 133.339 31.1975Z" fill="#4F4D4D"></path><path d="M152.681 18.8067L156.33 20.7538V19.3377C155.715 18.0987 154.924 16.9924 153.956 16.0631C153.385 15.4879 152.11 14.3816 151.45 13.9391L150.791 14.6471L152.681 18.8067Z" fill="#4F4D4D"></path><path d="M134.395 18.0989L136.505 21.5063L137.472 22.347C137.516 22.3028 137.516 22.2143 137.56 22.17C137.999 21.1965 138.527 20.3557 139.23 19.692C139.89 19.0282 140.637 18.4972 141.473 18.1432V17.1254L140.022 15.6208L134.395 18.0989Z" fill="#4F4D4D"></path><path d="M137.516 15.7979L136.9 14.8687C136.461 15.2227 136.021 15.5767 135.625 15.9749C135.274 16.3289 134.966 16.683 134.702 17.037L137.516 15.7979Z" fill="#4F4D4D"></path><path d="M139.802 13.2314C139.01 13.5854 138.263 13.9837 137.56 14.4262L138.043 15.5767L140.065 14.6474L141.34 15.267L147.935 12.5234C146.924 12.2579 145.913 12.1251 144.813 12.1251C143.055 12.1694 141.384 12.5234 139.802 13.2314Z" fill="#4F4D4D"></path><path d="M151.1 20.533C151.451 21.0198 151.759 21.5951 152.023 22.1703C152.462 23.0996 152.638 24.1174 152.638 25.1794C152.638 26.1529 152.462 27.038 152.155 27.923L152.858 28.4097L156.287 21.9491L153.254 20.2233L151.1 20.533Z" fill="#4F4D4D"></path><path d="M153.431 28.7192V31.3742L155.937 31.9052C156.244 31.3742 156.508 30.8432 156.772 30.2679C157.475 28.6749 157.827 26.9934 157.827 25.2233C157.827 25.0463 157.827 24.8693 157.827 24.6923L156.772 23.1877L153.431 28.7192Z" fill="#4F4D4D"></path><path d="M144.197 15.1787L141.999 16.285L142.79 17.6567C143.45 17.4797 144.109 17.3912 144.813 17.3912C145.868 17.3912 146.923 17.6125 147.89 18.0108C148.857 18.409 149.649 18.94 150.352 19.6923L152.33 19.117L148.901 13.6299L144.197 15.1787Z" fill="#4F4D4D"></path><path d="M163.279 16.0192C162.136 17.1697 161.212 18.5415 160.509 20.1345C160.333 20.577 160.157 21.0196 160.025 21.4621L164.026 24.0729L164.729 24.0286C164.817 23.3649 164.993 22.7454 165.213 22.1701C165.653 21.1966 166.18 20.3558 166.884 19.692C167.543 19.0283 168.29 18.4972 169.126 18.1432L169.214 18.0105L163.411 15.9307C163.367 15.9307 163.323 15.9749 163.279 16.0192Z" fill="#4F4D4D"></path><path d="M159.497 30.091L159.981 29.9583L163.718 24.6481L159.761 22.524C159.585 23.3648 159.497 24.2941 159.497 25.2234V30.091Z" fill="#4F4D4D"></path><path d="M177.962 19.692C178.709 20.4 179.237 21.2408 179.632 22.1701C179.764 22.4798 179.896 22.8338 179.984 23.1436L180.072 23.0551L181.303 19.8248L183.281 20.3115L183.413 19.2495L182.842 17.4352C182.446 16.9484 182.05 16.4617 181.611 16.0192C180.512 14.9129 179.237 14.0278 177.83 13.4083L176.291 15.2669L175.764 18.1432C176.599 18.4972 177.346 18.984 177.962 19.692Z" fill="#4F4D4D"></path><path d="M163.102 36.5077L164.552 38.2335H164.64V36.0652L163.102 36.5077Z" fill="#4F4D4D"></path><path d="M164.025 30.578L164.64 31.4187V26.0643L162.618 27.1706L164.025 30.578Z" fill="#4F4D4D"></path><path d="M164.641 35.3571V33.2773L164.465 32.702L163.102 31.463L162.618 29.1177L159.497 31.0647V34.0296L160.376 35.9766L160.42 36.2421L163.234 35.9766L164.641 35.3571Z" fill="#4F4D4D"></path><path d="M185.436 25.1791C185.436 23.8516 185.26 22.5683 184.864 21.4177L184.073 20.7097L181.787 21.1965L180.248 24.6038C180.248 24.7808 180.248 24.9136 180.248 25.0906L181.655 26.8606L182.446 28.9847L183.941 29.4715L185.436 27.7899V25.1791Z" fill="#4F4D4D"></path><path d="M183.853 32.392L182.402 29.6484L180.292 26.2853V34.8258L181.039 34.1178L183.853 32.392Z" fill="#4F4D4D"></path><path d="M164.156 15.1787L168.201 16.639L168.904 15.4442L169.212 12.5679C168.596 12.7449 167.981 12.9661 167.409 13.1874C166.223 13.7184 165.123 14.3822 164.156 15.1787Z" fill="#4F4D4D"></path><path d="M184.116 30.7104L185.435 33.4097V29.3386L184.116 30.7104Z" fill="#4F4D4D"></path><path d="M162.487 36.6844L160.025 38.2332H163.411L162.487 36.6844Z" fill="#4F4D4D"></path><path d="M169.872 16.4172L171.191 17.4793C171.587 17.3908 172.026 17.3908 172.466 17.3908C173.345 17.3908 174.136 17.5235 174.928 17.789L175.543 15.1782L175.587 12.6116C174.576 12.3461 173.521 12.2134 172.422 12.2134C171.587 12.2134 170.795 12.3019 170.004 12.4346C169.916 13.3197 169.872 14.2047 169.872 14.2932V16.4172Z" fill="#4F4D4D"></path><path d="M185.436 34.8259L184.468 33.5869L181.347 35.003L180.292 36.3747V38.2333H185.436V34.8259Z" fill="#4F4D4D"></path><path fill-rule="evenodd" clip-rule="evenodd" d="M5.09927 28.8519L6.15438 28.1882C5.80267 27.2589 5.58286 26.2411 5.58286 25.1791V19.2494L5.49493 19.0724L1.05469 21.4177L2.4615 24.8693L4.17605 27.1704L5.09927 28.8519Z" fill="#4F4D4D"></path><path fill-rule="evenodd" clip-rule="evenodd" d="M9.05605 12.3021L5.62695 17.3468H13.4523C13.7161 17.3468 13.9799 17.3468 14.1997 17.391L12.5731 14.3377L9.05605 12.3021Z" fill="#4F4D4D"></path><path fill-rule="evenodd" clip-rule="evenodd" d="M15.4304 17.612C15.7821 17.7005 16.1338 17.8333 16.4416 17.966C16.7053 18.0545 16.9251 18.1873 17.145 18.3201L18.5078 17.3465L20.618 15.2225L20.3982 14.2489C19.7827 13.8507 19.1233 13.4967 18.4199 13.2312C17.101 12.6559 15.6942 12.3019 14.1555 12.2134L13.6279 15.134L15.4304 17.612Z" fill="#4F4D4D"></path><path fill-rule="evenodd" clip-rule="evenodd" d="M14.7711 33.4542C14.6392 33.4542 13.5401 33.1002 13.4082 33.1002C12.529 33.1002 11.6937 32.9674 10.8584 32.7019L11.5618 34.2064L14.7711 33.4542Z" fill="#4F4D4D"></path><path fill-rule="evenodd" clip-rule="evenodd" d="M0.923027 8.36352L1.58247 9.11579L5.58309 10.5318V1.72583H4.30816L4.08835 1.77008L3.47287 1.72583H1.36266L0.483398 4.95617V6.54922L0.923027 8.36352Z" fill="#4F4D4D"></path><path fill-rule="evenodd" clip-rule="evenodd" d="M10.0677 32.3477C9.23242 31.9495 8.52901 31.4184 7.86957 30.7989C7.38598 30.2679 6.94635 29.6926 6.59465 29.0731L1.89062 31.1972C1.89062 31.2414 1.93459 31.2857 1.93459 31.3299L4.17669 34.0293L4.35254 34.5603C4.92406 35.1355 5.5835 35.6666 6.24295 36.1091L10.3315 33.4097C10.3755 33.3212 10.2436 32.8787 10.0677 32.3477Z" fill="#4F4D4D"></path><path fill-rule="evenodd" clip-rule="evenodd" d="M2.90135 26.9937L1.53851 25.7546L1.05492 23.4093L0.483398 23.7633V25.2236C0.483398 26.9937 0.791138 28.6752 1.45058 30.2682V30.3125H1.67039L3.64872 29.3832L2.90135 26.9937Z" fill="#4F4D4D"></path><path fill-rule="evenodd" clip-rule="evenodd" d="M0.483398 17.9664V21.3295L2.15399 18.8957L0.483398 17.9664Z" fill="#4F4D4D"></path><path fill-rule="evenodd" clip-rule="evenodd" d="M13.2774 12.1693H10.6396L13.1016 13.0101L13.2774 12.1693Z" fill="#4F4D4D"></path><path fill-rule="evenodd" clip-rule="evenodd" d="M19.7833 36.596L17.8489 33.4984L12.2656 34.7374L13.4087 37.4368L13.8923 38.2776C15.5189 38.2333 17.0576 37.9235 18.5083 37.304C18.904 37.0828 19.3436 36.8615 19.7833 36.596Z" fill="#4F4D4D"></path><path fill-rule="evenodd" clip-rule="evenodd" d="M25.1475 30.7105L23.4769 26.8606L20.2237 29.0732C19.872 29.7369 19.4324 30.3122 18.9048 30.8432C18.5971 31.153 18.2893 31.4185 17.9376 31.684L17.6299 32.0822L19.9599 35.5781L20.3995 36.2861C21.1909 35.7551 21.9382 35.1798 22.5977 34.4718C23.6528 33.3213 24.4881 32.0822 25.1475 30.7105Z" fill="#4F4D4D"></path><path fill-rule="evenodd" clip-rule="evenodd" d="M25.7198 21.108L23.126 24.6481L25.8077 28.6307L25.8956 28.852C26.2473 27.7015 26.4232 26.4624 26.4232 25.1791C26.3792 23.7189 26.1594 22.3913 25.7198 21.108Z" fill="#4F4D4D"></path><path fill-rule="evenodd" clip-rule="evenodd" d="M12.7055 38.2333L10.5513 34.1179L6.94634 36.1535L6.81445 36.419C7.34201 36.7287 7.86956 36.9943 8.44108 37.2598C9.75996 37.835 11.2107 38.1448 12.7055 38.2333Z" fill="#4F4D4D"></path><path fill-rule="evenodd" clip-rule="evenodd" d="M22.2887 26.6393L21.1896 24.6038C21.1896 24.7808 21.1896 24.9578 21.1896 25.1348C21.1896 25.71 21.1896 26.2853 20.8379 27.4801L22.2887 26.6393Z" fill="#4F4D4D"></path><path fill-rule="evenodd" clip-rule="evenodd" d="M25.367 20.2675C25.367 20.2233 25.323 20.179 25.323 20.1348C24.6636 18.5417 23.7403 17.17 22.5534 16.0194C22.3335 15.7982 22.1137 15.5769 21.8939 15.3999L19.8277 16.7274L18.5527 19.1613L19.1243 19.8693C19.432 20.179 19.7397 20.5773 19.9595 20.9313L20.0914 21.1083L20.1354 21.2411C20.3112 21.5508 20.4431 21.8606 20.575 22.1703C20.7509 22.5244 20.8828 22.8784 20.9707 23.2324L22.2896 24.3829L25.367 20.2675Z" fill="#4F4D4D"></path><path fill-rule="evenodd" clip-rule="evenodd" d="M5.14365 11.0188L0.527554 9.38148L0 8.93896V16.5944L1.97833 17.8777L3.7808 17.7892L7.16594 11.771L7.03405 11.7268H5.14365V11.0188Z" fill="#4F4D4D"></path><path d="M61.4609 20.5773L62.1643 21.5508C62.56 20.8428 62.9996 20.2233 63.5272 19.6923C64.2746 18.94 65.0659 18.409 65.9891 18.0107C66.9563 17.5682 67.9674 17.3912 69.0665 17.3912H69.1544L68.7148 15.9752L65.9451 12.6121C65.2857 12.7891 64.6702 13.0103 64.0547 13.2758C64.0108 13.2758 63.9668 13.3201 63.9229 13.3201L62.516 14.9574L61.4609 20.5773Z" fill="#4F4D4D"></path><path d="M58.5146 17.6565L60.9326 18.4973L61.8119 14.9129V14.5146C61.1524 14.9572 60.493 15.4882 59.9215 16.0634C59.3939 16.506 58.9103 17.037 58.5146 17.6565Z" fill="#4F4D4D"></path><path d="M67.0871 13.1872L69.0215 15.1342L69.6369 12.7889L69.7688 12.1251H69.1094C68.2741 12.1251 67.4388 12.2136 66.6035 12.3906L67.0871 13.1872Z" fill="#4F4D4D"></path><path d="M56.0967 27.1262L56.4484 27.6572L58.6905 30.5778L60.7567 29.56L59.7896 27.7457L61.2843 26.1527V25.2676C61.2843 24.2499 61.4601 23.3206 61.7679 22.4356L60.405 19.869L57.9871 18.4972C57.6354 19.0282 57.3276 19.6035 57.0639 20.223C56.4044 21.7718 56.0967 23.4533 56.0967 25.2676V27.1262Z" fill="#4F4D4D"></path><path d="M69.7695 15.8864L70.5609 17.3467H71.6599V12.5676L71.1763 12.1693H70.9126L70.385 13.5854L69.7695 15.8864Z" fill="#4F4D4D"></path><path d="M60.7999 30.7107L58.0303 32.5692V36.5961L58.7776 38.2334L60.7999 37.7909V30.7107Z" fill="#4F4D4D"></path><path d="M57.0199 35.2685L56.932 33.4099L56.0967 33.8082V38.3218H58.031C57.6793 37.2155 57.0199 35.2685 57.0199 35.2685Z" fill="#4F4D4D"></path><path d="M56.0967 32.5693L58.6465 31.64L56.0967 28.7637V32.5693Z" fill="#4F4D4D"></path><path d="M144.154 6.99176H139.362C139.01 6.99176 138.702 6.85901 138.483 6.63775C138.219 6.37224 138.131 6.10673 138.131 5.75272V1.28335C138.131 0.929337 138.263 0.619578 138.483 0.398322C138.746 0.132814 139.01 0.0443115 139.362 0.0443115H144.154V1.2391H139.318V5.84123H142.923V4.11543H140.681V2.92064H144.11V6.99176H144.154Z" fill="#4F4D4D"></path><path d="M159.892 6.99182H158.177L156.067 4.20399H155.012V6.99182H153.869V0.00012207H158.661C159.013 0.00012207 159.321 0.132876 159.54 0.354132C159.804 0.61964 159.892 0.885147 159.892 1.23916V2.92071C159.892 3.27472 159.76 3.58447 159.54 3.80573C159.277 4.07124 159.013 4.15974 158.661 4.15974H157.826L159.892 6.99182ZM158.705 1.19491H155.1V3.00921H158.705V1.19491Z" fill="#4F4D4D"></path><path d="M175.675 5.75279C175.675 6.1068 175.543 6.41656 175.324 6.63781C175.06 6.90332 174.796 6.99182 174.444 6.99182H170.927C170.576 6.99182 170.268 6.85907 170.048 6.63781C169.784 6.3723 169.696 6.1068 169.696 5.75279V0.00012207H170.883V5.79704H174.488V0.00012207H175.719V5.75279H175.675Z" fill="#4F4D4D"></path><path d="M186.623 4.20399V6.99182H185.436V0.00012207H190.228C190.579 0.00012207 190.887 0.132876 191.107 0.354132C191.371 0.61964 191.458 0.885147 191.458 1.23916V2.92071C191.458 3.27472 191.327 3.58447 191.107 3.80573C190.843 4.07124 190.579 4.15974 190.228 4.15974H186.623V4.20399ZM190.228 1.19491H186.623V3.00921H190.228V1.19491Z" fill="#4F4D4D"></path><path d="M207.9 1.28335V5.75272C207.9 6.10673 207.768 6.41649 207.549 6.63775C207.285 6.90326 207.021 6.99176 206.669 6.99176H202.141C201.789 6.99176 201.482 6.85901 201.262 6.63775C200.998 6.37224 200.91 6.10673 200.91 5.75272V1.28335C200.91 0.929337 201.042 0.619578 201.262 0.398322C201.526 0.132814 201.789 0.0443115 202.141 0.0443115H206.713C207.065 0.0443115 207.373 0.177065 207.593 0.398322C207.768 0.619578 207.9 0.929337 207.9 1.28335ZM206.713 1.19484H202.097V5.79698H206.713V1.19484Z" fill="#4F4D4D"></path></svg>