<svg width="290" height="62" viewBox="0 0 290 62" fill="none" xmlns="http://www.w3.org/2000/svg">
<path d="M84.4384 53.0112C83.4877 53.5381 82.4856 54.0171 81.6119 54.6397C80.7383 55.2384 80.0959 55.2863 79.2993 54.5439C78.4257 53.7297 77.4493 52.9873 76.627 52.3167C76.1388 52.4844 75.5479 52.9394 75.0853 52.8436C73.6464 52.5322 73.6464 51.3348 73.4151 50.0655C73.1325 50.5685 72.9783 50.9037 72.7728 51.2151C72.6443 51.4067 72.4387 51.7659 72.3616 51.7419C71.0512 51.4546 70.6915 52.3407 70.1776 53.0831C70.1262 53.131 70.0234 53.2028 69.972 53.2028C67.608 52.9873 66.2205 55.1905 63.9336 55.1905C62.8287 55.1905 61.7238 55.1905 60.6189 55.1905C60.4648 55.1905 60.2078 55.1666 60.1307 55.0708C59.2314 53.6818 57.4327 53.7776 56.0966 53.131C55.9167 53.0591 55.7883 52.8915 55.4542 52.628C56.4563 52.0293 57.3557 51.5025 58.255 50.9516C58.255 50.8319 58.255 50.7122 58.2293 50.5924C57.5869 50.5924 56.8674 50.4248 56.3279 50.6164C52.9104 51.9335 47.0005 59.4534 43.6344 60.8185C42.8893 61.1058 42.1955 61.489 41.4246 61.7285C39.8315 62.2075 38.2384 62.1117 37.0308 60.9621C35.9259 59.9084 36.0543 58.5912 36.4912 57.298C36.6196 56.9388 36.7995 56.6035 37.0565 55.9808C36.3884 56.2203 35.7974 56.2682 35.5405 56.5317C34.7953 57.2741 34.1529 57.1543 33.5105 56.5317C32.8681 55.9329 32.4056 55.9808 31.7119 56.5556C31.0695 57.0825 30.016 57.8488 29.425 57.6812C28.3458 57.3938 28.4229 56.2443 28.5514 55.3103C28.5514 55.2863 28.5256 55.2384 28.4485 55.0708C28.1659 55.3103 27.8833 55.4779 27.652 55.7174C27.1895 56.1964 26.727 56.1724 26.2131 55.8132C25.6221 55.4061 25.1339 54.9271 24.1832 55.3342C23.7977 55.5019 23.0526 54.9271 22.4616 54.7355C22.0505 54.5918 21.5366 54.3523 21.2025 54.4481C19.0698 55.1426 16.9885 54.7834 14.9072 54.3523C14.7017 54.3044 14.4704 54.2565 14.3163 54.1607C13.4683 53.4662 12.5432 52.8196 11.8238 52.0293C11.5925 51.7659 11.8752 51.0953 11.9523 50.6164C12.0294 50.2092 12.1578 49.8261 12.2863 49.4429C11.7981 49.6105 11.2071 49.6824 10.8474 49.9458C9.63971 50.8558 8.53482 51.8377 7.25006 52.9154C6.42783 51.7659 6.17084 50.6882 6.45349 49.6105C6.76184 48.4849 6.24793 48.2215 5.11734 47.982C3.47287 47.5988 1.87976 47.0001 0.36374 46.3535C-0.843932 45.8506 1.31446 38.8097 1.6485 37.5404C3.13883 32.176 3.65274 26.6917 3.78122 21.1596C3.83261 18.6211 3.83258 16.0825 4.06385 13.544C4.16663 12.4424 4.83472 11.4126 5.34861 10.0714C5.93961 10.5265 6.4021 10.766 6.71045 11.1252C7.22434 11.6999 7.63547 11.6042 7.99521 11.0294C8.76606 9.78406 9.56263 8.53873 10.2564 7.24551C10.9759 5.88044 11.9009 5.54516 13.3141 6.23967C13.8794 6.50311 14.4704 6.74259 15.0614 6.95813C17.1427 7.62869 18.6844 7.02998 19.5324 5.25779C20.3546 3.55744 20.3546 3.55743 22.3588 4.1322C22.9241 4.29984 23.5151 4.70697 24.0804 4.03641C24.1832 3.91666 24.6457 3.94061 24.9027 4.01245C27.4722 4.80276 30.016 5.64096 31.1979 8.13161C31.7119 9.18535 32.7911 9.40089 33.8959 9.30509C36.9023 8.99376 40.0628 9.61642 42.9407 8.2753C43.1205 8.20346 43.6601 8.53874 43.8914 8.77822C44.0712 8.96981 44.0199 9.32904 44.1226 9.83196C45.3817 8.13161 46.4866 6.62285 47.6172 5.11409C47.8998 4.73092 47.9255 3.98851 48.8506 4.34774C49.7499 4.68302 49.57 5.28173 49.3901 5.88045C49.3131 6.16783 49.1846 6.43126 48.979 6.95813C49.5186 6.86234 49.8784 6.83839 50.161 6.71865C50.9576 6.35942 51.7027 5.88045 52.5506 5.61701C52.9875 5.47332 53.7326 5.52122 54.041 5.76071C54.6577 6.28757 55.1973 6.21573 55.891 6.04809C57.5098 5.64096 59.2057 5.35358 60.5419 4.37169C61.5697 3.62928 62.135 4.1801 62.3405 4.89856C62.6746 5.9523 63.4968 6.35942 64.4989 6.62286C65.5267 6.91024 66.5288 7.26947 67.5823 7.36526C68.5074 7.4371 69.4581 7.14972 70.4088 7.02998C71.2567 6.91024 72.1047 6.81445 72.9526 6.6947C74.8284 6.40732 76.7298 6.14388 78.6056 5.76071C79.2223 5.64097 79.7876 5.18594 80.3015 4.80277C81.4834 3.91667 82.5883 3.07847 84.2585 3.98852C84.8238 4.29985 85.4662 4.34774 86.2371 3.89272C87.4961 3.12636 89.6031 3.98852 90.1427 5.35358C90.2969 5.73676 90.3483 6.16784 90.4254 6.57496C90.6566 7.74844 90.8108 7.74844 92.0185 7.22157C93.2775 6.6947 94.6137 6.26363 95.9241 5.83256C97.62 5.25779 97.8513 5.37753 98.2881 7.34131C98.7506 6.8384 99.0076 6.47917 99.3416 6.16783C99.9583 5.56912 100.549 4.97041 101.217 4.39564C101.757 3.91667 102.399 3.53349 102.939 3.07847C103.915 2.26422 104.763 2.43186 105.2 3.58139C105.354 4.01247 105.457 4.44354 105.663 5.1141C106.845 4.65908 107.898 4.228 109.003 3.84483C109.363 3.72508 109.825 3.58139 110.134 3.70113C111.65 4.228 112.857 3.84483 113.988 2.91083C115.221 1.88104 115.427 1.88104 116.609 2.91083C117.765 3.91667 118.947 4.87461 120.592 5.32964C121.054 5.47333 121.234 6.43127 121.568 7.12578C121.928 6.98209 122.39 6.83839 122.801 6.59891C124.96 5.25779 127.118 3.89272 129.225 2.47976C130.202 1.83315 131.049 1.59366 132.154 2.21632C132.437 2.38396 133.002 2.38397 133.285 2.24027C134.184 1.8092 134.981 1.21049 135.88 0.779409C136.574 0.444132 137.499 -0.154585 138.064 0.0370045C139.786 0.58782 141.636 0.180701 143.306 0.707568C145.053 1.25838 146.235 2.40791 146.518 4.01247C146.826 5.73676 148.214 6.21574 149.73 6.47917C150.758 6.67076 151.888 6.67076 152.916 6.50312C154.329 6.26363 155.46 6.38338 156.334 7.7724C157.053 5.66492 157.695 3.74903 158.338 1.8092C158.492 1.78525 158.62 1.7613 158.775 1.73735C159.109 2.26422 159.417 2.76714 159.854 3.4856C160.136 3.27006 160.522 3.07847 160.753 2.81504C162.706 0.659668 165.481 0.0130583 168.308 0.156747C170.774 0.27649 173.215 1.11469 175.656 1.68946C177.686 2.16843 178.765 3.31796 178.714 5.23385C178.714 5.49728 178.817 5.73677 178.894 6.096C181.284 5.76072 183.622 5.44938 185.986 5.1141C187.81 4.87462 189.609 4.58724 191.433 4.3717C191.921 4.3238 192.461 4.3717 192.923 4.53934C193.463 4.73093 193.951 5.06621 194.465 5.35359C194.028 5.83256 193.669 6.45523 193.103 6.74261C192.384 7.10184 191.51 7.19763 190.688 7.53291C191.176 7.50896 191.69 7.55686 192.153 7.46107C194.465 6.9342 196.778 6.38338 199.09 5.83256C199.296 5.78467 199.501 5.66492 199.707 5.68887C201.737 5.90441 203.793 6.11995 205.822 6.38338C206.157 6.43128 206.491 6.69471 206.799 6.91025C207.878 7.67661 209.111 7.86819 210.036 7.02999C211.398 5.80862 213.017 6.11995 214.585 6.07205C215.767 6.0481 217 6.47918 218.156 6.33548C219.518 6.16785 220.828 5.66492 222.113 5.2099C222.319 5.13806 222.242 4.53934 222.422 4.27591C222.91 3.60535 223.372 2.59951 224.066 2.43187C225.633 2.04869 227.329 2.09659 228.974 1.9529C229.051 1.9529 229.179 1.9529 229.231 2.0008C230.207 2.86294 231.441 2.76715 232.674 2.7911C232.957 2.7911 233.393 3.34192 233.522 3.6772C233.65 4.03643 233.445 4.49145 233.393 4.97042C234.524 5.76072 235.783 5.80862 237.094 5.32965C237.787 5.06621 238.481 4.70698 239.123 4.34776C242.49 2.47977 245.676 3.41376 247.063 6.67077C247.14 6.83841 247.243 7.00605 247.243 7.03C249.324 7.03 251.303 7.05394 253.256 7.00605C253.616 7.00605 253.95 6.81446 254.309 6.69472C255.106 6.43128 255.902 5.95231 256.699 5.95231C257.444 5.95231 257.907 7.00605 257.958 8.29927C258.112 8.17953 258.292 8.13163 258.343 8.03584C259.166 6.86236 260.219 6.52708 261.684 7.17369C262.069 7.34133 262.686 7.07789 263.174 7.00605C263.457 6.95815 263.817 6.76656 264.022 6.86236C266.36 7.94004 268.904 6.86236 271.268 7.46107C272.604 7.79635 274.223 7.58082 274.891 9.13747C274.968 9.35301 275.456 9.42485 275.765 9.5446C277.127 10.1194 277.204 10.3828 276.587 11.5323C276.407 11.8437 276.459 12.2747 276.381 12.634C276.793 12.4903 277.332 12.4424 277.641 12.1789C278.797 11.2449 279.902 10.2631 281.032 9.30511C281.212 9.35301 281.392 9.37696 281.572 9.42485C281.777 10.3588 282.189 11.2928 282.111 12.2029C282.034 13.3285 282.446 13.5919 283.602 13.7595C285.221 14.023 286.814 14.5019 288.381 15.0288C289.486 15.388 290 16.1783 289.769 17.3039C288.355 24.5125 289.28 31.697 289.974 38.9055C290.103 40.3185 289.717 41.7794 289.563 43.2402C289.409 43.2881 289.229 43.3121 289.075 43.36C288.638 43.0965 288.176 42.857 287.816 42.5457C287.276 42.0667 286.916 42.1865 286.66 42.7613C286.069 44.1024 285.4 45.3956 284.964 46.7846C284.45 48.3413 283.576 48.8442 281.803 48.3413C281.315 48.1976 280.827 48.0778 280.313 48.006C277.897 47.6228 276.459 48.3892 275.688 50.4487C274.891 52.5323 274.891 52.5083 272.424 52.3167C271.936 52.2688 271.397 52.5562 270.883 52.676C270.651 52.7239 270.394 52.8436 270.163 52.8436C267.388 52.6281 264.536 52.5083 262.403 50.6403C260.99 49.395 259.448 49.5387 257.778 49.8261C253.693 50.4727 249.607 51.0954 245.522 51.6941C244.031 51.9096 244.391 50.784 244.211 50.1853C242.361 51.742 240.485 53.3226 238.661 54.8792C236.991 54.1608 236.991 54.1608 237.864 52.0533C237.402 52.0533 237.016 51.9814 236.657 52.0772C235.886 52.2688 235.115 52.5323 234.344 52.7717C233.265 53.131 232.417 53.0591 231.389 52.3886C230.772 52.0054 229.565 52.2928 228.64 52.3407C226.893 52.4365 225.454 53.2268 223.963 53.9213C223.681 54.041 223.244 54.041 222.91 53.9692C222.139 53.8015 221.394 53.5621 220.674 53.2986C220.392 53.2028 220.109 52.9633 219.955 52.7478C219.672 52.2928 219.467 51.7899 218.927 51.3109C218.927 51.9096 218.927 52.5083 218.927 53.0831C218.953 54.8074 218.901 54.975 217.026 55.3821C214.636 55.909 212.195 56.3161 209.78 56.7472C207.981 57.0825 206.208 57.4657 204.384 57.6573C203.022 57.8009 201.942 57.1543 201.146 56.0766C201.377 55.8372 201.608 55.6456 201.865 55.4061C201.711 55.3582 201.608 55.2863 201.506 55.2863C200.144 55.4061 198.756 55.454 197.42 55.6695C195.416 55.9809 193.669 55.4061 191.844 54.8313C189.737 54.1608 187.553 53.7057 185.369 53.2268C184.984 53.131 184.495 53.3226 184.059 53.4423C181.952 54.0171 179.845 54.6637 177.712 55.1905C175.965 55.6216 174.166 55.9809 172.367 56.1724C171.031 56.3161 169.644 56.0766 168.282 56.1245C166.997 56.1724 165.738 56.3161 164.479 56.5556C163.862 56.6754 163.22 57.0106 162.757 57.3938C161.781 58.232 160.804 58.6152 159.417 58.2081C157.567 57.6572 155.614 57.3459 153.764 56.7472C152.659 56.388 151.657 55.7414 150.706 55.1187C149.935 54.6158 149.601 53.8973 150.013 52.9873C150.115 52.7478 149.858 52.2209 149.576 52.0533C149.113 51.7659 148.625 51.742 148.214 52.3407C146.749 54.4721 146.672 54.5439 144.128 53.3705C142.715 52.7238 141.61 52.6759 140.274 53.4902C139.015 54.2566 137.576 54.7834 136.214 55.43C135.315 55.8611 134.775 55.5258 134.39 54.8074C133.799 53.7057 133.799 52.628 134.493 51.5025C133.568 51.9335 132.591 52.3167 131.692 52.7957C130.87 53.2268 130.099 53.2268 129.276 52.8915C128.608 52.628 127.889 52.4604 127.247 52.173C126.399 51.7898 125.679 51.742 124.96 52.4125C124.189 53.1549 123.264 52.8196 122.493 52.4604C121.876 52.173 121.491 52.197 120.926 52.6041C119.127 53.8494 114.553 53.8255 112.549 52.652C112.395 52.5562 112.163 52.4844 111.984 52.5083C108.72 52.7717 105.431 53.0352 102.168 53.2986C99.7784 53.4902 97.6457 54.0171 95.77 55.5498C93.7657 57.2022 91.4018 57.6812 88.858 56.1724C87.9329 55.6216 86.8023 55.3821 85.8773 54.8792C85.312 54.5679 84.9266 54.0171 84.4898 53.562C84.4384 53.2986 84.4384 53.1549 84.4384 53.0112Z" fill="white"/>
<path d="M45.6904 42.2088L44.9709 39.3052L39.4978 39.2795L38.7013 42.1831L31.4552 42.1574L24.3377 42.1317C23.9008 40.7699 23.6696 38.5087 23.4126 36.9413C23.2585 36.042 22.7959 35.6822 21.5626 35.6822H20.6889L20.6375 42.1317L13.2116 42.106L13.3401 24.0166L24.646 24.068C28.7572 24.0937 31.1469 25.2757 31.1212 28.6674C31.0955 30.7487 30.1705 32.3161 27.2926 32.9585V33.0099C29.1427 33.1641 30.1448 33.9606 30.5045 35.3225C30.8899 36.7871 30.8642 39.1511 31.558 41.7206L37.6478 24.1194L47.4633 24.1708L53.5531 42.2602L45.6904 42.2088Z" fill="#FFFF00"/>
<path d="M62.4179 42.7481C57.8185 42.7224 53.5788 41.3605 53.6045 36.6583L60.8505 36.684C60.8505 37.1722 60.9533 37.6861 61.2359 38.0715C61.5186 38.4313 62.0068 38.6625 62.7262 38.6625C63.8311 38.6625 64.5506 37.9945 64.5763 37.1979C64.5763 36.5298 64.0367 36.1701 63.3172 35.9645L57.9469 34.4485C55.0177 33.6006 53.9899 31.9304 54.0156 29.5921C54.0413 25.8406 57.2532 23.7079 62.8547 23.7336C67.634 23.7593 71.18 25.1726 71.1543 29.3866L64.3707 29.3609C64.345 28.2303 63.7027 27.8449 62.7006 27.8449C61.4929 27.8449 60.9533 28.3331 60.9533 28.8984C60.9533 29.5407 61.3901 29.8234 62.1867 30.0546C63.6513 30.4658 66.3236 30.9797 68.2507 31.7505C70.6661 32.7013 71.6939 34.3457 71.6939 36.5298C71.6425 40.9494 67.8139 42.7738 62.4179 42.7481Z" fill="#FFFF00"/>
<path d="M83.6166 36.2729H81.1242L81.0728 42.3627L73.4927 42.337L73.6212 24.2476L84.7472 24.2989C89.3467 24.3246 91.5051 26.8685 91.4794 30.2602C91.4794 33.8576 88.9612 36.2986 83.6166 36.2729Z" fill="#FFFF00"/>
<path d="M103.556 42.4398L102.836 39.5363L97.3377 39.5106L96.5669 42.4141L89.2951 42.3884L95.5391 24.3247L105.38 24.3761L111.393 42.4912L103.556 42.4398Z" fill="#FFFF00"/>
<path d="M138.707 37.8146L143.718 43.005L134.313 42.9793L132.823 41.5404C130.33 43.005 127.453 43.596 124.523 43.596C117.688 43.5703 113.731 40.7438 113.757 36.2215C113.783 33.7291 115.479 31.1595 120.155 29.8748C117.74 28.256 116.172 26.2004 116.172 24.1191C116.198 20.1877 119.924 18.1064 126.245 18.1321C132.72 18.1578 135.906 20.6502 135.881 23.8621C135.855 25.9948 134.339 28.4101 130.921 30.4915L133.953 33.4207C134.827 32.3415 135.341 31.0824 135.418 29.6692L142.484 29.6949C142.484 32.3672 140.891 36.0673 138.707 37.8146Z" fill="#FFFF00"/>
<path d="M155.897 42.3116C148.24 42.2859 144.54 38.1233 144.566 32.3676C144.617 26.6118 148.368 22.4749 156.257 22.5006C162.783 22.5263 166.201 24.4534 166.252 28.8473L158.364 28.8216C158.338 28.2306 158.081 27.8195 157.722 27.5883C157.362 27.357 156.874 27.2542 156.334 27.2542C155.075 27.2542 154.227 27.8195 153.816 28.5647C153.405 29.3098 153.276 31.1599 153.251 32.753C153.225 34.5773 153.405 35.8364 153.79 36.4274C154.278 37.1983 155.101 37.558 156.206 37.558C157.002 37.558 157.773 37.4552 158.441 37.1726L158.467 34.9114H155.589L155.615 31.2113L166.561 31.2627L166.484 41.1039C163.195 41.8491 159.366 42.3373 155.897 42.3116Z" fill="#FFFF00"/>
<path d="M183.005 41.9259L182.209 38.9195L176.093 38.8938L175.22 41.9002L167.152 41.8745L174.089 23.0913L185.035 23.1427L191.716 41.9773L183.005 41.9259Z" fill="#FFFF00"/>
<path d="M204.05 42.0287L199.63 30.543H199.579L199.476 42.003L192.667 41.9773L192.795 23.1685L202.894 23.1942L207.313 34.6028H207.365L207.467 23.2198L214.277 23.2455L214.148 42.0544L204.05 42.0287Z" fill="#FFFF00"/>
<path d="M230.927 42.1318L230.131 39.0997L224.041 39.074L223.167 42.1061L215.099 42.0547L222.037 23.2715L232.957 23.3229L239.638 42.1574L230.927 42.1318Z" fill="#FFFF00"/>
<path d="M255.874 43.2584C264.543 43.1023 271.453 36.4197 271.307 28.3324C271.161 20.2451 264.016 13.8156 255.347 13.9717C246.678 14.1278 239.768 20.8104 239.914 28.8977C240.06 36.985 247.205 43.4145 255.874 43.2584Z" fill="#FFFF00"/>
<path d="M262.121 27.4596L256.391 27.4339L257.11 25.7638L261.915 25.7895C261.89 23.7081 260.862 22.4234 258.832 21.8067L260.014 19.083H258.781L257.701 21.5497C256.982 21.4213 256.185 21.3699 255.312 21.3699C250.096 21.3442 247.629 24.222 247.578 28.2562C247.552 31.3396 248.991 33.7807 251.946 34.7314L250.969 36.9669H252.203L253.051 35.014C253.667 35.1168 254.31 35.1939 255.029 35.1939C257.316 35.1939 259.86 34.8599 262.018 34.3459L262.121 27.4596ZM253.333 28.5131C253.333 27.4082 253.436 26.0978 253.693 25.5839C253.976 25.0443 254.515 24.6589 255.363 24.6589C255.697 24.6589 256.006 24.7359 256.237 24.8901L255.132 27.4339H254.875V28.0506L253.616 30.9542C253.436 30.466 253.333 29.6437 253.333 28.5131ZM255.286 31.8792C255.003 31.8792 254.746 31.8278 254.515 31.7507L255.26 30.0035H256.776V31.5966C256.314 31.8021 255.8 31.8792 255.286 31.8792Z" fill="#E5006F"/>
<path d="M255.697 40.4615C248.426 40.4358 242.541 34.9114 242.593 28.1535C242.644 21.3957 248.605 15.9226 255.877 15.9483C263.149 15.974 269.033 21.4985 268.982 28.2563C268.93 34.9885 262.969 40.4872 255.697 40.4615ZM255.877 16.4108C248.888 16.3852 243.158 21.627 243.107 28.1279C243.055 34.603 248.708 39.9219 255.723 39.9476C262.712 39.9733 268.468 34.7315 268.493 28.2306C268.545 21.7554 262.866 16.4365 255.877 16.4108Z" fill="#E5006F"/>
<path d="M273.735 28.6928C273.812 19.2884 265.744 11.6055 255.749 11.5798C245.779 11.5285 237.582 19.1599 237.531 28.5644C237.531 28.7185 237.531 28.8984 237.531 29.0526L235.218 22.5517C234.884 21.601 233.985 20.9586 232.957 20.9586L222.037 20.9072C221.035 20.9072 220.109 21.5239 219.75 22.4746L216.615 30.954L216.666 23.2712C216.666 22.6288 216.409 22.0121 215.973 21.5753C215.536 21.1128 214.919 20.8558 214.277 20.8558L207.467 20.8044C206.414 20.8044 205.515 21.4725 205.181 22.4232L205.129 22.2947C204.769 21.3697 203.87 20.753 202.894 20.753H192.821C192.179 20.753 191.562 21.01 191.125 21.4468C190.663 21.9093 190.406 22.5003 190.406 23.1427L190.354 30.8769L187.322 22.3204C186.988 21.3697 186.089 20.7273 185.061 20.7273L174.115 20.6759C173.113 20.6759 172.188 21.2926 171.828 22.2434L168.822 30.4401C168.745 30.2089 168.616 30.0033 168.462 29.7977C168.591 29.4894 168.668 29.1554 168.642 28.8213C168.591 24.8643 166.407 20.1363 156.257 20.1107C151.837 20.085 148.343 21.2412 145.825 23.5024C144.643 24.5816 143.718 25.8664 143.101 27.331C142.895 27.2796 142.69 27.2539 142.484 27.2539L137.422 27.2282C137.962 26.1233 138.245 24.9927 138.27 23.8365C138.296 19.9051 135.161 15.7168 126.245 15.6911C122.648 15.6654 119.744 16.3078 117.611 17.5411C115.145 19.0058 113.757 21.3183 113.731 24.0934C113.731 25.8407 114.399 27.5366 115.659 29.104C112.601 30.9283 111.65 33.3694 111.393 35.0653L107.59 23.6309C107.256 22.6545 106.357 21.9864 105.329 21.9864L95.5135 21.935C94.4857 21.935 93.5607 22.5774 93.2266 23.5538L92.5329 25.5323C92.2245 25.0698 91.8905 24.6587 91.4794 24.2733C89.8606 22.7316 87.5223 21.9093 84.7215 21.9093L73.5955 21.8579C72.9531 21.8579 72.3365 22.1149 71.8996 22.5517C71.5399 22.9114 71.3086 23.3482 71.2316 23.8365C69.6642 22.4232 67.0689 21.3697 62.8035 21.344C53.4505 21.3183 51.8317 26.4574 51.5747 28.8984L49.7504 23.3996C49.4164 22.4232 48.517 21.7551 47.4892 21.7551L37.6736 21.7038C36.6458 21.7038 35.7208 22.3461 35.3868 23.3226L33.511 28.7185C33.511 28.6928 33.511 28.6928 33.511 28.6672C33.5367 25.558 32.0207 23.8878 30.7359 23.0656C29.2713 22.1149 27.3185 21.6524 24.6462 21.6524L13.3403 21.601C12.0042 21.601 10.925 22.6802 10.925 23.9906L10.7965 42.08C10.7965 43.3648 11.7986 44.4183 13.0577 44.4954C13.109 44.4954 13.1347 44.4954 13.1861 44.4954L20.612 44.5211C21.2544 44.5211 21.8711 44.2641 22.3079 43.8273C22.3593 43.7759 22.4107 43.7245 22.4364 43.6731C22.8732 44.2127 23.5413 44.5468 24.2608 44.5468L38.6501 44.5982C39.755 44.5982 40.7057 43.8787 40.9883 42.8252L41.2967 41.7203H43.0439L43.3266 42.8252C43.5835 43.9044 44.5343 44.6496 45.6392 44.6496L53.4762 44.6753C54.2214 44.6753 54.9151 44.3412 55.3776 43.7759C56.7909 44.5211 58.6666 45.035 61.1847 45.1635C61.5702 45.1892 61.9556 45.1892 62.3667 45.1892C66.1182 45.2148 69.0989 44.3412 71.1031 42.7738C71.283 43.853 72.208 44.7009 73.3386 44.7523C73.39 44.7523 73.4157 44.7523 73.467 44.7523L81.0471 44.778C81.6895 44.778 82.3062 44.5211 82.743 44.0843C83.2055 43.6218 83.4625 43.0308 83.4625 42.3884L83.4882 38.714H83.5653C85.3382 38.714 86.8799 38.4827 88.2418 38.0202L86.9827 41.6175C86.7258 42.3627 86.8542 43.1592 87.2911 43.8016C87.7279 44.3926 88.396 44.778 89.1154 44.8037C89.1668 44.8037 89.1925 44.8037 89.2439 44.8037L96.4899 44.8294C97.5948 44.8294 98.5456 44.11 98.8282 43.0565L99.1365 41.9516H100.884L101.166 43.0565C101.423 44.1357 102.374 44.8808 103.479 44.8808L111.316 44.9065C112.087 44.9065 112.832 44.5468 113.269 43.9044C113.603 43.4419 113.757 42.9023 113.731 42.3627C115.581 44.2898 118.613 45.7031 123.162 45.9343C123.573 45.96 124.009 45.96 124.446 45.96C127.35 45.96 129.996 45.4461 132.309 44.444L132.566 44.7009C133.003 45.1378 133.594 45.369 134.21 45.369L143.615 45.3947C144.591 45.3947 145.465 44.8294 145.85 43.9301C146.236 43.0308 146.056 42.003 145.362 41.3092L141.945 37.7632C142.202 37.4035 142.459 37.0438 142.69 36.6584C144.232 41.4377 148.523 44.3669 154.715 44.7009C155.075 44.7266 155.435 44.7266 155.794 44.7266C158.852 44.7266 162.295 44.3926 165.584 43.7502C165.97 44.0586 166.458 44.2641 166.946 44.2898C166.998 44.2898 167.023 44.2898 167.075 44.2898L175.143 44.3155C176.222 44.3155 177.173 43.5961 177.481 42.5682L177.841 41.3092H180.282L180.616 42.5682C180.899 43.6217 181.849 44.3412 182.929 44.3412L191.639 44.3669C191.793 44.3669 191.948 44.3412 192.102 44.3155C192.23 44.3412 192.333 44.3669 192.461 44.3669C192.513 44.3669 192.539 44.3669 192.59 44.3669L199.425 44.3926C200.067 44.3926 200.684 44.1357 201.121 43.6988C201.378 43.4419 201.583 43.1078 201.712 42.7738L201.763 42.8766C202.123 43.8016 203.022 44.4183 203.999 44.4183L214.097 44.4697C214.251 44.4697 214.431 44.444 214.585 44.4183C214.688 44.444 214.816 44.4697 214.919 44.4697C214.97 44.4697 214.996 44.4697 215.048 44.4697L223.116 44.4954C224.195 44.4954 225.146 43.7759 225.454 42.7481L225.814 41.489H228.255L228.589 42.7481C228.872 43.8016 229.822 44.5468 230.901 44.5211L239.612 44.5468C240.409 44.5468 241.128 44.1613 241.591 43.519C242.053 42.8766 242.156 42.0543 241.899 41.3092L240.923 38.5341C244.186 42.7995 249.505 45.5746 255.492 45.6003C265.487 45.7031 273.658 38.0716 273.735 28.6928ZM32.0978 32.9326V32.9582C32.0978 32.9582 32.0978 32.9582 32.0978 32.9326ZM45.6905 42.2085L44.9711 39.305L39.498 39.2793L38.7015 42.1828L31.4554 42.1571L24.3378 42.1314C23.901 40.7696 23.6698 38.5084 23.4128 36.941C23.2586 36.0417 22.7961 35.6819 21.5628 35.6819H20.6891L20.6377 42.1314L13.2118 42.1057L13.3403 24.0163L24.6462 24.0677C28.7574 24.0934 31.1471 25.2754 31.1214 28.6672C31.0957 30.7485 30.1707 32.3159 27.2928 32.9582V33.0096C29.1428 33.1638 30.145 33.9604 30.5047 35.3222C30.8901 36.7868 30.8644 39.1508 31.5582 41.7203L37.648 24.1191L47.4635 24.1705L53.5533 42.2599L45.6905 42.2085ZM62.4181 42.7481C57.8187 42.7224 53.579 41.3606 53.6047 36.6584L60.8507 36.684C60.8507 37.1723 60.9535 37.6862 61.2361 38.0716C61.5188 38.4313 62.007 38.6626 62.7265 38.6626C63.8314 38.6626 64.5508 37.9945 64.5765 37.198C64.5765 36.5299 64.0369 36.1701 63.3174 35.9646L57.9472 34.4486C55.0179 33.6006 53.9901 31.9304 54.0158 29.5922C54.0415 25.8407 57.2534 23.708 62.8549 23.7337C67.6342 23.7594 71.1802 25.1726 71.1545 29.3866L64.3709 29.3609C64.3453 28.2303 63.7029 27.8449 62.7008 27.8449C61.4931 27.8449 60.9535 28.3331 60.9535 28.8984C60.9535 29.5408 61.3903 29.8234 62.1869 30.0547C63.6515 30.4658 66.3238 30.9797 68.2509 31.7506C70.6663 32.7013 71.6941 34.3458 71.6941 36.5299C71.6427 40.9494 67.8141 42.7738 62.4181 42.7481ZM83.6166 36.2729H81.1242L81.0728 42.3627L73.4927 42.337L73.6212 24.2476L84.7472 24.299C89.3467 24.3247 91.5051 26.8685 91.4794 30.2603C91.4794 33.8576 88.9612 36.2986 83.6166 36.2729ZM103.556 42.4398L102.837 39.5362L97.3636 39.5105L96.567 42.4141L89.321 42.3884L95.5649 24.3247L105.38 24.3761L111.393 42.4912L103.556 42.4398ZM138.707 37.8146L143.718 43.0051L134.313 42.9794L132.823 41.5404C130.33 43.0051 127.453 43.5961 124.523 43.5961C117.688 43.5704 113.731 40.7439 113.757 36.2215C113.783 33.7291 115.479 31.1596 120.155 29.8748C117.74 28.256 116.172 26.2004 116.172 24.1191C116.198 20.1877 119.924 18.1064 126.245 18.1321C132.72 18.1578 135.906 20.6503 135.881 23.8621C135.855 25.9949 134.339 28.4102 130.921 30.4915L133.954 33.4208C134.827 32.3416 135.341 31.0825 135.418 29.6693L142.484 29.695C142.484 32.3673 140.891 36.0674 138.707 37.8146ZM155.897 42.3113C148.24 42.2856 144.54 38.123 144.566 32.3673C144.617 26.6115 148.369 22.4746 156.257 22.5003C162.784 22.526 166.201 24.4531 166.252 28.847L158.364 28.8213C158.338 28.2303 158.081 27.8192 157.722 27.588C157.362 27.3567 156.874 27.2539 156.334 27.2539C155.075 27.2539 154.227 27.8192 153.816 28.5644C153.405 29.3095 153.276 31.1596 153.251 32.7527C153.225 34.577 153.405 35.8361 153.79 36.4271C154.278 37.198 155.101 37.5577 156.206 37.5577C157.002 37.5577 157.773 37.4549 158.441 37.1723L158.467 34.9111H155.589L155.615 31.211L166.561 31.2624L166.484 41.1036C163.195 41.8488 159.366 42.337 155.897 42.3113ZM183.006 41.9259L182.209 38.8938L176.119 38.8681L175.246 41.9002L167.177 41.8745L174.115 23.0913L185.036 23.1427L191.716 41.9773L183.006 41.9259ZM204.05 42.0287L199.63 30.5429H199.579L199.502 42.003L192.667 41.9773L192.796 23.1684L202.894 23.2198L207.313 34.6284H207.365L207.442 23.2455L214.277 23.2712L214.148 42.08L204.05 42.0287ZM230.927 42.1314L230.131 39.0994L224.041 39.0737L223.167 42.1057L215.099 42.08L222.037 23.2969L232.957 23.3482L239.638 42.1828L230.927 42.1314ZM255.517 43.2363C246.858 43.2106 239.869 36.607 239.92 28.5387C239.972 20.4704 247.064 13.9181 255.723 13.9695C264.382 13.9952 271.371 20.5989 271.32 28.6672C271.269 36.7354 264.177 43.2877 255.517 43.2363Z" fill="#E5006F"/>
<path d="M126.117 26.6632C127.633 25.7382 128.403 24.659 128.403 24.068C128.403 23.2972 127.941 22.4492 126.142 22.4492C124.369 22.4492 123.881 23.2715 123.855 24.0423C123.881 24.6333 124.626 25.7125 126.117 26.6632Z" fill="#E5006F"/>
<path d="M81.972 28.3843H81.1755L81.1498 32.1615H81.5095C83.4623 32.1615 84.2075 31.4934 84.2332 30.2086C84.2589 28.9496 83.6165 28.3843 81.972 28.3843Z" fill="#E5006F"/>
<path d="M122.056 36.3758C122.056 37.9175 123.521 38.9967 125.088 38.9967C126.193 38.9967 127.452 38.5342 128.763 37.7633L124.677 33.7549C122.93 34.2174 122.082 35.4251 122.056 36.3758Z" fill="#E5006F"/>
<path d="M100.241 28.3076L98.5197 35.1168H101.757L100.293 28.3076H100.241Z" fill="#E5006F"/>
<path d="M179.305 27.2285L177.404 34.2947L181.001 34.3204L179.382 27.2285H179.305Z" fill="#E5006F"/>
<path d="M42.4014 28.0762L40.6798 34.8854H43.8917L42.4528 28.0762H42.4014Z" fill="#E5006F"/>
<path d="M21.4342 28.1533H20.7404L20.7148 31.5965H21.3571C22.8218 31.5965 23.8753 31.134 23.8753 29.7721C23.901 28.436 22.9245 28.1533 21.4342 28.1533Z" fill="#E5006F"/>
<path d="M227.227 27.4082L225.325 34.5001H228.923L227.304 27.4082H227.227Z" fill="#E5006F"/>
</svg>
